<?xml version="1.0" standalone="no"?>
<!DOCTYPE svg PUBLIC "-//W3C//DTD SVG 1.1//EN" "http://www.w3.org/Graphics/SVG/1.1/DTD/svg11.dtd" >
<svg xmlns="http://www.w3.org/2000/svg" xmlns:xlink="http://www.w3.org/1999/xlink" version="1.1">
<metadata></metadata>
<defs>
<font id="ac_proregular" horiz-adv-x="1024" >
<font-face units-per-em="2048" ascent="1505" descent="-543" />
<missing-glyph horiz-adv-x="520" />
<glyph horiz-adv-x="0" />
<glyph horiz-adv-x="682" />
<glyph unicode=" "  horiz-adv-x="520" />
<glyph unicode="&#x09;" horiz-adv-x="520" />
<glyph unicode="&#xa0;" horiz-adv-x="520" />
<glyph unicode="!" horiz-adv-x="520" d="M139 96q0 43 33.5 79t95.5 36q46 0 80.5 -34.5t34.5 -88.5q0 -49 -33.5 -81t-81.5 -32q-50 0 -89.5 31.5t-39.5 89.5zM367 1278q-3 -31 -21 -211l-35 -358q-13 -139 -18 -273q0 -14 -14 -14h-37q-15 0 -15 20q-4 129 -39 533q-22 280 -22 303q0 50 28.5 85.5t69.5 35.5 q49 0 77.5 -31t25.5 -90z" />
<glyph unicode="&#x22;" horiz-adv-x="757" d="M494 1079l-19 127q-5 40 -12.5 86.5t-10.5 69.5t-3 33q0 41 25.5 63.5t68.5 22.5q96 0 96 -84q0 -34 -27 -193q-30 -166 -34 -260h-68q-2 27 -16 135zM166 1079l-19 127q-5 40 -12.5 86.5t-10.5 69.5t-3 33q0 41 25.5 63.5t70.5 22.5q94 0 94 -84q0 -42 -24 -195 q-33 -208 -35 -258h-70q-2 27 -16 135z" />
<glyph unicode="#" d="M657 856h-221l-67 -317h223zM569 430h-223l-92 -428q-8 -33 -21 -33h-92q-10 0 -10 11q0 12 2 18l94 432h-231q-18 0 -12 19l20 75q3 15 23 15h223l65 317h-213q-18 0 -24 3t-4 11l16 80q3 15 27 15h221l92 415q3 19 16 19h91q11 0 8 -21l-86 -413h221l86 415q4 19 20 19 h91q13 0 10 -23l-86 -411h223q21 0 18 -15l-18 -80q-3 -14 -31 -14h-215l-67 -317h227q12 0 18.5 -4.5t4.5 -12.5l-21 -82q-3 -10 -25 -10h-227l-90 -436q-9 -25 -20 -25h-93q-11 0 -8 23z" />
<glyph unicode="$" d="M758 342q0 187 -133 252l-13 -477q66 26 106 83.5t40 141.5zM545 102l12 514l-108 27l-15 -526q19 -19 111 -15zM281 1034q0 -105 41 -164q10 -15 23.5 -25.5t26.5 -18.5l13 -7l8 416q-52 -25 -82 -83t-30 -118zM492 1255q-21 0 -27 -2l-12 -458q23 -12 108 -27l12 471 q-37 16 -81 16zM541 -68l2 101q-19 -2 -56 1t-55 7l-4 -111q0 -18 -14 -18h-41q-15 0 -15 20l4 125q-45 14 -102 60q-31 22 -43 22q-15 0 -31 -28q-12 -21 -34 -21t-19 27q3 23 9.5 89.5t11.5 108.5l12 117q0 14 14 14l31 -2q12 0 12 -14q2 -68 12 -108t44 -93 q42 -63 86 -86l14 523q-85 29 -135 79q-97 94 -97 250q0 73 32.5 130.5t94.5 113.5q51 48 121 70l4 116q0 21 15 21h41q14 0 14 -21l-2 -106q8 2 39 2q39 0 69 -6l3 110q0 21 14 21h41q14 0 14 -25l-4 -118q29 -7 74 -25q12 -6 18 -6q8 0 19 8l20 20q16 13 29 13 q16 0 16 -31q0 -65 6 -281q0 -11 -10 -14l-29 -6q-9 0 -12 6q-22 135 -86 187l-43 36l-16 -456q262 -77 262 -351q0 -121 -78 -231q-76 -104 -203 -131l-2 -109q0 -20 -14 -20h-39q-14 0 -14 20z" />
<glyph unicode="%" horiz-adv-x="1536" d="M1317 127q29 95 29 274q0 377 -164 377q-31 0 -59.5 -18.5t-45.5 -52.5q-43 -87 -43 -316q0 -155 37 -248q19 -45 56.5 -72.5t70.5 -27.5q92 0 119 84zM1495 412q1 -200 -80.5 -315t-216.5 -115q-71 -1 -127 28t-88.5 73t-54.5 101.5t-29.5 108.5t-7.5 100q0 188 76 316 q76 131 221 131q156 0 227 -129q77 -141 80 -299zM467 686q29 95 29 275q0 376 -164 376q-31 0 -59.5 -18.5t-45.5 -52.5q-43 -87 -43 -316q0 -155 37 -248q19 -45 56.5 -72.5t70.5 -27.5q92 0 119 84zM373 -31q-6 0 -37 17q-29 16 -29 24t10 25l832 1347q10 17 16 17 q7 0 33 -13q35 -18 35 -28q0 -6 -8 -19l-832 -1343q-13 -27 -20 -27zM645 971q1 -200 -80.5 -315t-216.5 -115q-71 -1 -127 28t-88.5 73t-54.5 101.5t-29.5 108.5t-7.5 100q0 188 76 316q76 131 221 131q156 0 227 -129q77 -141 80 -299z" />
<glyph unicode="&#x26;" horiz-adv-x="1689" d="M969 342q-242 338 -451 459q-122 -65 -199 -172t-77 -221q0 -82 51.5 -156t130 -117t158.5 -43q115 0 202 66q119 91 185 184zM406 1139q0 -48 57.5 -108t150.5 -118q27 20 72 60q76 68 76 198q0 39 -21 86t-61 83t-84 36q-74 0 -132 -73.5t-58 -163.5zM1047 252l-33 43 q-88 -108 -144 -164q-65 -69 -159.5 -115.5t-206.5 -46.5q-78 0 -154 25.5t-138 70.5t-100 114.5t-38 150.5q0 184 166 346q96 89 237 168q-99 58 -154.5 127t-58.5 129q-2 54 33.5 118.5t87 115t110.5 84t101 32.5q111 -3 199 -90t88 -189q0 -75 -76 -163 q-72 -84 -150 -125q105 -54 230 -170q120 -112 203 -230q56 74 129 185q70 107 73 149q5 25 -14 44.5t-49 19.5h-35q-14 0 -14 14v45q0 10 14 10l45 -2q114 -4 154 -4q78 0 125 2q21 1 41.5 2t31 1.5t13.5 0.5q14 0 14 -14v-43q0 -14 -14 -14h-35q-75 0 -103 -11t-53 -49 q-46 -73 -145 -209q-99 -139 -138 -182l156 -172q69 -76 133 -115t144 -39q74 0 141.5 59.5t83.5 100.5q7 11 16 2l31 -18q6 -3 0 -19q-41 -89 -135 -174q-93 -84 -246 -84q-90 0 -166 43q-69 39 -118 90.5t-123 149.5z" />
<glyph unicode="'" horiz-adv-x="421" d="M162 1079l-19 127q-5 40 -12.5 86.5t-10.5 69.5t-3 33q0 41 25.5 63.5t70.5 22.5q94 0 94 -84q0 -42 -24 -195q-33 -208 -35 -258h-70q-2 27 -16 135z" />
<glyph unicode="(" horiz-adv-x="675" d="M260 1147q88 193 270 369q20 14 39 14q12 0 26.5 -10.5t14.5 -18.5q0 -19 -18 -37q-330 -343 -330 -876q0 -537 332 -875q16 -22 16 -37q0 -8 -14.5 -19t-26.5 -11q-20 0 -39 16q-101 94 -168 177t-120 192q-119 241 -119 557q0 149 33.5 279.5t103.5 279.5z" />
<glyph unicode=")" horiz-adv-x="675" d="M416 29q-92 -200 -271 -367q-19 -16 -39 -16q-12 0 -26 11t-14 19q0 17 18 35q330 343 330 877q0 536 -332 874q-16 22 -16 39q0 8 14 18.5t26 10.5q19 0 39 -14q104 -99 170 -180.5t119 -190.5q119 -241 119 -557q0 -149 -33.5 -279.5t-103.5 -279.5z" />
<glyph unicode="*" horiz-adv-x="671" d="M270 889q0 12 29 131l31 115h-4q-6 -4 -50 -48q-112 -111 -129 -122q-24 -15 -45 -15q-34 0 -53 31q-10 17 -10 35q0 32 41 59q19 12 125 41q103 33 119 33v4l-140 35l-110 33q-17 5 -29 20.5t-12 34.5q0 10 10 33q17 32 53 32q24 0 45 -12q24 -14 99 -84q83 -74 86 -82 l4 4l-35 133q-25 103 -25 113q0 31 17 49.5t49 18.5q36 0 50.5 -16t14.5 -52q0 -21 -24 -115q-13 -59 -35 -133l4 -4l98 96q66 66 86 78q26 11 37 11q34 0 54 -33q12 -21 12 -39q0 -33 -39 -53q-22 -13 -125 -39q-116 -29 -119 -29v-4q14 -3 60 -16.5t77 -22.5 q100 -26 113 -33q41 -18 41 -49q0 -21 -16 -47q-16 -29 -52 -29q-25 0 -49 15q-18 11 -96 86q-80 80 -82 86l-4 -4q17 -53 35 -134q24 -95 24 -112q0 -72 -65 -72q-31 0 -48.5 20t-17.5 52z" />
<glyph unicode="+" d="M453 82v352h-338v115h338v352h122v-352h334v-115h-334v-352h-122z" />
<glyph unicode="," horiz-adv-x="520" d="M414 39q1 -69 -26.5 -136.5t-69 -116.5t-78 -81.5t-66.5 -50.5q-2 -1 -17.5 -10t-23.5 -9q-24 0 -24 19q0 18 18 31q145 133 145 258q0 18 -11 37t-23 24q-2 -1 -14.5 3.5t-30.5 15t-34.5 25.5t-28 39.5t-9.5 51.5q2 43 32.5 70t82.5 27q63 0 120.5 -55.5t57.5 -141.5z " />
<glyph unicode="-" horiz-adv-x="827" d="M125 602h573q13 0 18 -4.5t5 -17.5v-78q0 -15 -25 -15h-571q-19 -3 -19 11v90q0 14 19 14z" />
<glyph unicode="." horiz-adv-x="520" d="M139 96q0 44 32.5 79.5t94.5 35.5q48 0 81.5 -34.5t33.5 -88.5q0 -49 -32.5 -81t-82.5 -32t-88.5 31.5t-38.5 89.5z" />
<glyph unicode="/" horiz-adv-x="716" d="M641 1485l66 -27q17 -7 8 -28l-613 -1442q-10 -27 -26 -17l-70 35q-8 3 -8 10q0 5 6 17l610 1440q9 18 27 12z" />
<glyph unicode="0" horiz-adv-x="1089" d="M860 436q0 142 -98 240t-219 98q-76 0 -137.5 -31.5t-99 -81.5t-57.5 -107.5t-20 -113.5q0 -107 49 -190t122 -123.5t153 -40.5q142 0 223 100q84 104 84 250zM92 422q0 89 32.5 171.5t90.5 146t146 101.5t192 38q187 0 315.5 -127.5t128.5 -327.5q0 -118 -57.5 -220.5 t-163 -165.5t-233.5 -63q-116 0 -218 54.5t-167.5 158.5t-65.5 234z" />
<glyph unicode="1" d="M434 707q-5 44 -25.5 61.5t-70.5 17.5h-80q-10 0 -10 9v51q0 14 16 14l254 -6l166 4l74 2q18 0 18 -10v-49q0 -15 -16 -15h-90q-44 0 -62.5 -18t-21.5 -66q-8 -144 -8 -208v-91q0 -65 0.5 -122t1 -89t0.5 -36q3 -45 29 -66.5t79 -21.5h76q12 0 12 -13v-45q0 -16 -14 -16 l-78 2l-166 4l-182 -4l-74 -2q-14 0 -14 12v49q0 8 3 10.5t13 2.5h55q91 0 109 79q8 46 8 304v88q0 156 -2 168z" />
<glyph unicode="2" d="M762 178q55 55 78 88q2 5 10 2l24 -18q3 -3 0 -12q-4 -12 -55 -101q-49 -91 -71 -170q-4 -17 -10.5 -21.5t-20.5 -4.5q-13 0 -16.5 5t-4.5 27q-1 17 -7.5 22t-24.5 5h-484q-33 0 -33 29q0 20 31 45q238 195 277 231q80 71 114.5 137t34.5 156q0 49 -53.5 101.5 t-110.5 52.5q-49 0 -114 -47q-63 -45 -88 -119q-6 -19 -13 -24t-30 -5q-31 0 -23 35q8 42 35 91t65 87q49 49 117 78q76 31 121 31q89 0 169.5 -76.5t80.5 -145.5q0 -113 -72 -217q-69 -99 -143 -161t-187 -144v-4h304q53 0 100 47z" />
<glyph unicode="3" d="M98 -352q0 23 18 38t44 15q36 0 88 -43q45 -39 110 -39q48 0 96 20t89.5 57.5t67.5 101.5t26 143q0 111 -69.5 187.5t-194.5 96.5q-23 3 -23 25q0 20 27 26q87 20 171.5 114t84.5 192q0 60 -49.5 116t-122.5 56q-63 0 -109 -32.5t-92 -96.5q-19 -19 -35 -19q-26 0 -26 21 q0 12 10 35q46 94 129.5 155.5t189.5 61.5q101 0 168.5 -65t67.5 -148q0 -77 -29 -146q-27 -58 -61.5 -100.5t-104.5 -110.5q114 -59 174 -138t60 -163q0 -132 -68 -239.5t-177.5 -165.5t-233.5 -58q-99 0 -162.5 25.5t-63.5 77.5z" />
<glyph unicode="4" d="M575 596h-4l-362 -483h366v483zM715 0v-362q0 -29 -23 -29h-100q-14 0 -18.5 7.5t-4.5 31.5v352h-485q-31 0 -31 18q0 14 19 33l604 807q13 18 19.5 23.5t17.5 5.5q20 0 20 -29q0 -14 -2 -18q-6 -38 -12 -166q-4 -168 -4 -232v-329h235q21 0 21 -25v-61q0 -27 -27 -27 h-229z" />
<glyph unicode="5" d="M115 -362q0 25 16 41t45 16q36 0 82 -37q42 -31 127 -31q102 0 166 84.5t63 227.5q-1 77 -20 135.5t-49.5 96t-80.5 65t-100.5 42.5t-123.5 29l94 522q8 25 31 25h258q51 0 76.5 20.5t52.5 69.5q4 8 8 4l22 -6q7 -4 4 -10l-53 -182q-12 -41 -55 -41h-291l-49 -256 q175 -27 299 -144q118 -112 121 -319q1 -90 -35.5 -174.5t-95.5 -143.5t-132 -94.5t-143 -34.5q-237 3 -237 95z" />
<glyph unicode="6" d="M737 422q0 114 -62 193t-159 79q-118 0 -174.5 -70.5t-56.5 -193.5q0 -385 221 -385q109 0 170 95.5t61 281.5zM119 483q-2 120 37.5 241t104 218t144.5 181t158.5 139.5t147.5 83.5q25 14 51 14q11 0 18.5 -8.5t7.5 -20.5q0 -14 -16 -24q-167 -79 -285.5 -241 t-162.5 -380h6q34 40 93.5 65t135.5 25q149 0 247.5 -112.5t100.5 -264.5q1 -74 -26 -148.5t-77 -137t-131 -101t-179 -37.5q-163 2 -267.5 138.5t-107.5 369.5z" />
<glyph unicode="7" d="M197 -489q0 43 24 96l27 59q61 135 225 453q248 480 309 594h-391q-127 0 -201 -107q-10 -17 -16 -20.5t-24 -3.5q-25 0 -25 20q0 10 6 19l94 176q54 102 60 121q6 24 20 24q12 0 24.5 -4t12.5 -10q0 -4 -4.5 -17t-5.5 -20q-6 -22 9 -29.5t58 -7.5h514q25 0 25 -16 q0 -7 -6 -19q-45 -81 -166 -311q-92 -174 -133 -264l-150 -330q-102 -226 -131 -313q-31 -93 -49.5 -121.5t-48.5 -28.5q-57 0 -57 60z" />
<glyph unicode="8" d="M711 289q-1 33 -6 60t-11 47t-21.5 39.5t-27 31.5t-38 29t-43.5 27t-54 30l-45 25q-64 -41 -114 -121.5t-50 -167.5q0 -76 66 -159t139 -83q95 0 151.5 62.5t53.5 179.5zM315 965q1 -43 10 -74.5t21.5 -54t44 -46t62 -40.5t90.5 -48q162 143 162 259q0 108 -54.5 175.5 t-140.5 67.5q-84 0 -141 -63.5t-54 -175.5zM188 283q0 51 14 94.5t44.5 83.5t67.5 74t94 77q-140 75 -187 137.5t-51 182.5q-2 76 48 156t133 133t167 51q54 -1 107.5 -18.5t100.5 -50t76 -88t29 -124.5q0 -116 -219 -323q128 -74 182.5 -153.5t57.5 -207.5 q3 -130 -103 -231t-243 -101q-144 0 -231 83.5t-87 224.5z" />
<glyph unicode="9" d="M686 238q27 34 36 99t9 195q0 126 -55 202.5t-152 76.5q-128 0 -186 -111q-57 -105 -57 -258q0 -77 21 -137.5t54.5 -94t68.5 -50.5t69 -17q118 0 192 95zM242 -434q0 11 5.5 16.5t22.5 9.5q169 64 282 210.5t157 365.5l-4 4q-18 -28 -97 -63q-78 -35 -145 -35 q-60 0 -119.5 24t-110.5 69t-82.5 119.5t-31.5 164.5q0 109 53 207t147.5 159t204.5 62q90 1 164.5 -43t119.5 -115t69.5 -153.5t25.5 -164.5q2 -136 -36.5 -265t-102 -227.5t-144 -177.5t-164.5 -126t-161 -62q-24 -6 -33 -6q-20 0 -20 27z" />
<glyph unicode=":" horiz-adv-x="520" d="M139 96q0 44 32.5 79.5t94.5 35.5q48 0 81.5 -34.5t33.5 -88.5q0 -49 -32.5 -81t-82.5 -32t-88.5 31.5t-38.5 89.5zM139 764q0 44 32.5 79.5t94.5 35.5q48 0 81.5 -34.5t33.5 -88.5q0 -49 -32.5 -81t-82.5 -32t-88.5 31.5t-38.5 89.5z" />
<glyph unicode=";" horiz-adv-x="520" d="M414 39q1 -69 -26.5 -136.5t-69 -116.5t-78 -81.5t-66.5 -50.5q-2 -1 -17.5 -10t-23.5 -9q-24 0 -24 19q0 18 18 31q145 133 145 258q0 18 -11 37t-23 24q-2 -1 -14.5 3.5t-30.5 15t-34.5 25.5t-28 39.5t-9.5 51.5q2 43 32.5 70t82.5 27q63 0 120.5 -55.5t57.5 -141.5z M109 764q0 43 33 79t94 36q48 0 81 -34.5t33 -88.5q0 -49 -32 -81t-82 -32t-88.5 31.5t-38.5 89.5z" />
<glyph unicode="&#x3c;" d="M172 461v65l637 375v-135l-453 -262v-10l453 -273v-139z" />
<glyph unicode="=" d="M909 401v-114h-794v114h794zM909 711v-115h-794v115h794z" />
<glyph unicode="&#x3e;" d="M852 522v-65l-637 -375v135l453 262v10l-453 273v139z" />
<glyph unicode="?" horiz-adv-x="757" d="M168 82q0 50 31 81.5t84 31.5q43 0 77.5 -34t34.5 -77q0 -44 -33 -76.5t-83 -32.5q-45 0 -78 31.5t-33 75.5zM281 360h-39q-15 0 -15 15v387q0 27 23 18q38 -6 135 -6q73 0 143 37q72 41 72 125q0 95 -111 184q-75 60 -122 79.5t-115 19.5q-61 0 -103.5 29.5t-42.5 70.5 q0 29 25 54.5t74 25.5q82 0 198 -84q118 -83 199 -207q84 -128 84 -244q0 -118 -63 -172q-62 -56 -127 -65q-87 -12 -185 -17q-16 0 -16 -16v-219q0 -15 -14 -15z" />
<glyph unicode="@" horiz-adv-x="1609" d="M594 453q58 0 141 71q84 75 158 164q71 88 94 133q55 107 55 160q0 45 -24.5 77t-61.5 32q-79 0 -178 -105q-94 -102 -166 -242q-67 -137 -67 -225q0 -65 49 -65zM700 -31q-292 0 -464.5 159t-172.5 415q0 231 134 452t346 353q216 133 440 133q259 0 400.5 -145 t144.5 -402q1 -101 -42.5 -204.5t-118 -186.5t-186 -134.5t-235.5 -48.5q-29 0 -52.5 21t-23.5 47q0 59 72 244l-8 4q-77 -111 -203 -215q-119 -101 -225 -101q-43 0 -74 32.5t-31 86.5q0 132 95 289q94 158 233 270q138 111 254 111q90 0 125 -72l27 39q8 14 20 14h78 q19 0 10 -20q-15 -25 -133 -307l-16 -39q-41 -100 -58 -150q-28 -92 -28 -133t59 -41q36 -1 81 20.5t90 66.5t82.5 105.5t60.5 145.5t22 178q-3 222 -116.5 336.5t-325.5 114.5q-202 0 -373 -125q-170 -121 -273 -317q-100 -190 -100 -394q0 -159 67 -279t182.5 -181.5 t262.5 -61.5q258 0 393 84l27 -51q-48 -45 -178 -80q-123 -33 -269 -33z" />
<glyph unicode="A" horiz-adv-x="1521" d="M733 1247q-10 29 -16 29q-11 0 -23 -31l-125 -334q-80 -214 -94 -268h453q-67 208 -101 311q-84 264 -94 293zM305 164q-6 -43 -6 -45q0 -45 70 -45h96q20 0 20 -15v-47q0 -18 -16 -18q-31 0 -45 2q-114 4 -188 4q-61 0 -112.5 -1.5t-79.5 -3t-32 -1.5q-14 0 -14 16v49 q0 15 16 15h72q43 0 69 21t50 73q10 23 25 61t39.5 101t43.5 112q43 110 115 306l70 188q31 83 65 173t47.5 127.5t16.5 47.5q10 33 10 43q0 19 -8 27q-15 18 -15 26q0 13 19 19q42 9 96 43q56 35 74 59q19 19 26 19q11 0 23 -35q5 -23 113 -344q17 -52 47 -139t48 -141 t30 -95q71 -226 110 -338q72 -203 98 -262q47 -92 140 -92h67q17 0 17 -15v-51q0 -14 -21 -14q-31 0 -41 2q-98 4 -205 4q-164 0 -227 -4q-8 0 -28.5 -1t-32.5 -1q-17 0 -17 18v47q0 15 19 15h51q35 0 50 10t15 35q0 17 -4 33q-9 50 -55 188q-48 153 -74 229h-503 q-42 -108 -84 -227q-56 -160 -60 -178z" />
<glyph unicode="B" horiz-adv-x="1351" d="M678 59q150 0 240 81.5t90 244.5q0 119 -54.5 201.5t-150.5 120.5q-53 22 -112.5 28t-162.5 6h-65v-409q0 -150 47 -211.5t168 -61.5zM571 807q188 0 258 53q115 81 115 246q0 143 -100 215q-101 70 -281 70h-39q-22 0 -28 -2q-29 -11 -29 -37q-4 -110 -4 -389v-152 q54 -4 108 -4zM276 1253q-2 45 -7.5 69.5t-24 36.5t-38 14.5t-63.5 2.5h-63q-17 0 -17 15v51q0 14 17 14q35 0 49 -2q172 -5 223 -4l125 2q132 4 135 4q264 0 363 -55q158 -85 158 -279q0 -92 -29 -155q-25 -56 -70 -91.5t-151 -91.5l6 -4q332 -108 332 -405q0 -85 -45 -174 q-48 -91 -113 -133q-122 -74 -391 -74q-49 0 -193 4l-114 2q-115 0 -189 -4q-11 0 -35.5 -1t-38.5 -1q-28 0 -28 12v53q0 15 18 15h98q44 0 60 18t22 72q4 50 7 188q4 208 4 297v242q0 120 -2 192q-4 157 -5 170z" />
<glyph unicode="C" horiz-adv-x="1527" d="M317 158q-103 97 -163 258q-56 157 -56 315q0 153 52.5 293t156.5 250q88 94 223 150.5t289 56.5q220 0 414 -113q18 -12 29 -12q9 0 12 12l16 59q3 13 27 13q13 0 17.5 -6.5t4.5 -26.5q0 -42 19 -172l33 -225q3 -18 -9 -21l-30 -8h-6q-9 0 -15 16q-66 155 -160 254 q-152 155 -356 158q-102 1 -187.5 -33.5t-145 -94.5t-101 -140.5t-60.5 -171t-18 -185.5q3 -132 45 -264q48 -150 152 -262q89 -102 184 -139q85 -33 209 -33q156 0 290 72.5t216 187.5q8 14 16 6l27 -20q10 -10 4 -19q-110 -161 -263.5 -252.5t-346.5 -91.5 q-167 0 -291.5 47t-227.5 142z" />
<glyph unicode="D" horiz-adv-x="1665" d="M481 741l4 -501q0 -62 35 -115q25 -31 82 -48.5t135 -17.5q150 0 275.5 59t206.5 163q69 87 109 207.5t40 252.5q0 118 -47 244.5t-121 208.5q-83 92 -217 144.5t-297 52.5q-130 0 -164 -21q-36 -21 -39 -96q-2 -57 -2 -387v-146zM283 1319q-4 34 -23 45.5t-65 11.5h-113 q-16 0 -16 15v55q0 10 14 10q1 0 46.5 -2.5t101.5 -4t153 0.5l160 4l145 2q228 3 386.5 -39t279.5 -145q227 -198 227 -522q0 -169 -48.5 -295.5t-154.5 -243.5q-86 -100 -205 -148q-103 -43 -198.5 -56t-233.5 -13q-27 0 -219 4l-158 2q-75 1 -141 -0.5t-104.5 -3.5 t-42.5 -2q-15 0 -15 14v53q0 13 17 13h137q60 0 66 49q5 53 8 264q6 234 6 399v154q0 31 -4 215q-3 143 -6 164z" />
<glyph unicode="E" horiz-adv-x="1413" d="M748 797q44 7 62 25t32 65q13 39 16 100q0 14 14 14l52 -2q16 0 12 -16q-6 -34 -6 -233q0 -84 12 -213q0 -14 -12 -17l-45 -6h-4q-10 0 -13 18q-3 28 -22 97q-21 72 -88 80q-105 10 -271 10v-127l2 -250q0 -15 1.5 -48.5t1.5 -51.5q3 -139 116 -160q66 -14 152 -14 q116 0 180 6q43 5 94.5 24t83.5 47q18 15 82 97t86 118q13 19 25 13l32 -19q9 -6 9 -12l-4 -16l-109 -301q-12 -31 -45 -31l-178 4l-641 2l-174 -2l-88 -4q-19 0 -19 14v55q0 11 21 11h82q70 0 86 15t16 75v686q0 180 -2 264q-1 31 -1 73t-0.5 67.5t-2.5 41.5 q-4 49 -25.5 64.5t-79.5 15.5h-73q-17 0 -17 15v55q0 10 15 10q45 0 61 -2q118 -4 191 -4h90l608 2q26 0 53.5 2t28.5 2q13 0 16 -10l105 -330q3 -15 -6 -18l-31 -17q-13 -5 -17 6q-4 10 -90 113q-77 95 -114 121q-76 52 -156 55l-365 8v-600l144 7q102 3 117 6z" />
<glyph unicode="F" horiz-adv-x="1224" d="M287 913l-4 404q0 59 -84 59h-119q-14 0 -14 13v55q0 12 14 12q3 0 13.5 -0.5t29.5 -1t41 -0.5q126 -4 215 -4h166q601 0 620 8l37 -178l45 -186q4 -11 -4 -15l-37 -14h-2q-6 0 -14 14q-24 45 -131 189q-54 75 -144 96q-21 6 -192 12q-45 1 -129.5 3.5t-116.5 2.5 l-2 -563v-102q16 0 152 4q101 3 116 6q37 6 58 26t33 64q6 17 20 101q3 14 14 14l41 -2q13 0 13 -15q-4 -46 -4 -233q0 -100 10 -213q0 -13 -15 -16l-39 -9h-4q-7 0 -10 15q-2 26 -22 100q-20 71 -84 80q-94 12 -279 12v-76l2 -436q0 -41 14.5 -53t65.5 -12h100q19 0 19 -13 v-51q0 -16 -17 -16q-1 0 -35.5 1.5t-100 3t-142.5 1.5q-111 0 -225 -4q-14 -2 -43 -2q-13 0 -13 14v55q0 11 15 11h92q41 0 55 9t17 36q8 110 8 651v143z" />
<glyph unicode="G" horiz-adv-x="1675" d="M1171 547h-86q-14 0 -14 12v51q0 11 2.5 14t9.5 3q31 0 45 -2q118 -4 215 -4q60 0 115 1.5t88 3t39 1.5q17 0 17 -15v-49q0 -16 -15 -16h-80q-32 0 -47.5 -17.5t-15.5 -60.5v-270q0 -12 4 -35.5t4 -30.5q0 -22 -33 -33q-134 -68 -265.5 -99.5t-293.5 -31.5 q-153 0 -315 58q-150 55 -258 176q-97 112 -143 247t-46 316q0 146 61 285.5t171 234.5q223 195 575 195q115 0 227 -35.5t177 -83.5q15 -12 24 -12q15 0 23 14l30 37q18 18 29 18q19 0 19 -24l6 -391q0 -19 -10 -19l-37 -4q-14 0 -17 16q-41 141 -123 242 q-60 73 -157 120.5t-215 47.5q-120 0 -214 -38.5t-178 -127.5q-85 -88 -132.5 -212t-47.5 -259q0 -185 50.5 -333.5t144.5 -239.5q152 -146 360 -146q217 0 336 70q34 20 44.5 56t10.5 124v152q0 55 -18 74.5t-66 19.5z" />
<glyph unicode="H" horiz-adv-x="1746" d="M274 807l-2 336l-2 100q-2 81 -18.5 107t-71.5 26h-96q-7 0 -9.5 3t-2.5 14v49q0 14 16 14q37 0 51 -2q114 -4 236 -4q103 0 221 4q14 2 51 2q21 0 21 -10v-53q0 -17 -17 -17h-104q-48 0 -63 -24t-17 -92l-2 -95l-2 -319v-35q0 -16 24 -16h758q25 0 33 5.5t8 24.5v21 l-4 338l-2 88q-2 58 -15 81t-53 23h-106q-14 0 -14 15v53q0 12 12 12q13 0 34 -1t29 -1q66 -4 207 -4q79 0 205 4q16 2 57 2q11 0 14 -3t3 -13v-49q0 -15 -17 -15h-92q-40 0 -52.5 -22t-12.5 -86l-4 -451v-69l6 -572q0 -55 19 -78.5t63 -23.5h90q18 0 18 -15v-49 q0 -16 -16 -16q-37 0 -51 2q-114 4 -207 4q-164 0 -230 -4q-9 0 -33.5 -1t-41.5 -1q-13 0 -13 14v51q0 15 17 15h129q33 0 44 21.5t11 72.5l6 500v28q0 17 -8.5 21t-36.5 4h-749q-29 0 -29 -21v-43l4 -514q0 -69 65 -69h101q16 0 16 -15v-51q0 -14 -16 -14q-39 0 -53 2 q-114 4 -205 4q-110 0 -228 -4q-16 -2 -57 -2q-14 0 -14 14v53q0 13 14 13h121q33 0 45 24.5t12 73.5l6 547v88z" />
<glyph unicode="I" horiz-adv-x="759" d="M279 1307q-3 39 -25 54t-78 15h-119q-16 0 -16 13v55q0 12 14 12q3 0 45.5 -1.5t117.5 -3t157 -1.5q77 0 141 1.5t98 3t37 1.5q15 0 15 -14v-51q0 -15 -17 -15h-96q-72 0 -72 -57l-6 -498v-157l6 -517q0 -43 21 -58t76 -15h84q16 0 16 -15v-53q0 -12 -19 -12 q-2 0 -38.5 1.5t-103 3t-142.5 1.5q-86 0 -158 -1.5t-108.5 -3t-38.5 -1.5q-17 0 -17 12v55q0 13 17 13h114q42 0 64 12.5t28 46.5q4 29 7 234q4 286 4 348v143q0 37 -4 229q-1 36 -1 84.5t-0.5 81t-2.5 54.5z" />
<glyph unicode="J" horiz-adv-x="679" d="M252 1307q-2 38 -23 53.5t-77 15.5h-91q-14 0 -14 10v56q0 14 14 14q2 0 35.5 -1.5t102.5 -3t155 -1.5q72 0 135.5 1.5t99.5 3t42 1.5q16 0 16 -12v-51q0 -17 -16 -17h-103q-41 0 -57 -13t-18 -46q-7 -294 -7 -543v-94q0 -244 -6 -428q0 -14 -1 -40t-1 -40 q0 -111 -17 -190.5t-59 -151.5q-72 -124 -173 -201.5t-207 -77.5q-40 0 -91 31q-49 27 -49 88q0 44 32 71.5t83 27.5q54 0 98.5 -30.5t61.5 -78.5q35 10 65 44.5t47 84.5q36 99 33 479l-2 291q0 16 -1 56t-1 65v143q0 395 -6 484z" />
<glyph unicode="K" horiz-adv-x="1458" d="M274 874l-6 453q0 49 -61 49h-72q-16 0 -16 15v53q0 12 16 12q3 0 33.5 -1.5t86 -3t120.5 -1.5q57 0 110 1.5t85 3t36 1.5q17 0 17 -12v-53q0 -15 -15 -15h-86q-31 0 -44 -13.5t-13 -49.5l-2 -119l-4 -332v-102h37q42 0 84 28q30 24 221 263q211 265 221 280q10 17 10 27 q0 22 -28 22h-29q-10 0 -10 15v47q0 14 12 14q29 0 43 -2q102 -4 160 -4q26 0 108 4q14 2 47 2q15 0 15 -10v-55q0 -15 -17 -15h-43q-57 0 -112 -39q-52 -40 -226 -235q-183 -204 -252 -297l549 -680q39 -51 144 -51h71q15 0 15 -15v-51q0 -14 -17 -14q-3 0 -35.5 1.5 t-91.5 3t-125 1.5q-71 0 -135 -1.5t-100.5 -3t-42.5 -1.5q-12 0 -12 12v53q0 13 12 13h31q36 0 36 34q0 5 -4 21q-20 40 -200 276q-191 253 -207 265q-37 30 -90 30h-39v-147q0 -150 2 -238q1 -32 2 -101t2 -93q2 -20 14.5 -32.5t32.5 -12.5h90q16 0 16 -13v-53 q0 -14 -12 -14q-3 0 -33 1.5t-84 3t-114 1.5q-72 0 -129.5 -1.5t-86 -3t-30.5 -1.5q-14 0 -14 14v53q0 13 14 13h84q46 0 55 37q1 21 1.5 55.5t1 93.5t1.5 105q2 123 2 391v118z" />
<glyph unicode="L" horiz-adv-x="1355" d="M281 1303q-3 43 -18.5 58t-57.5 15h-96q-15 0 -15 21v45q0 14 15 14q2 0 35 -1.5t95.5 -3t135.5 -1.5q90 0 161.5 1.5t106 3t35.5 1.5q11 0 14.5 -4t3.5 -12v-47q0 -17 -20 -17h-123q-43 0 -56.5 -16t-15.5 -64l-2 -88q-4 -147 -4 -391v-176q0 -479 6 -561q70 -4 303 -4 q175 0 211 4q38 3 83 43t82 96.5t65 110.5t43 94q6 11 16 8l33 -12q7 -2 4 -19l-49 -192l-51 -215q-11 1 -369 4q-22 0 -197 1.5t-297 0.5l-182 -2l-80 -4q-10 0 -13 3t-3 11v51q0 15 14 15h99q88 0 88 55l2 184l4 490v115q0 271 -6 385z" />
<glyph unicode="M" horiz-adv-x="2009" d="M1174 711q60 140 73 163l142 308q98 210 102 243q3 25 47 25q236 0 283 2l40 2l30 1.5t12 0.5q12 0 12 -14v-47q0 -11 -3.5 -15t-13.5 -4h-90q-41 0 -54 -19t-13 -65q0 -28 -1 -80.5t-1 -76.5l-4 -332v-144l4 -327q0 -23 1 -72.5t1 -75.5q0 -60 15.5 -85t53.5 -25h121 q15 0 15 -15v-47q0 -11 -3.5 -14.5t-15.5 -3.5q-3 0 -10.5 0.5l-22.5 1.5l-30 2q-35 2 -224 2q-80 0 -149 -1.5t-105.5 -3t-39.5 -1.5q-10 0 -13.5 3.5t-3.5 14.5v47q0 15 17 15h139q30 0 43 15.5t14 57.5q2 47 2 230q2 106 2 303v131q0 500 -6 518h-4q-15 -19 -121 -254 q-94 -209 -149 -325l-52 -113l-104 -236q-32 -71 -106 -245l-37 -84q-21 -49 -41 -49q-17 0 -31 36l-279 686l-143 345q-91 216 -111 233q-7 -21 -10 -248q-2 -152 -2 -323v-177q0 -294 4 -352q8 -88 27 -118.5t68 -30.5h102q14 0 14 -15v-51q0 -14 -18 -14q-2 0 -30.5 1.5 t-86.5 3t-131 1.5q-77 0 -139 -1.5t-93 -3t-32 -1.5q-12 0 -15.5 3t-3.5 15v49q0 13 13 13h108q51 0 74.5 29t34.5 94q16 99 22 346q8 227 8 360q0 358 -2 397q-2 28 -3.5 36.5t-9 21t-24.5 15.5t-47 3h-124q-15 0 -15 15v53q0 12 15 12q1 0 28.5 -1.5t86 -3t134.5 -1.5 q50 0 111.5 3t62.5 3q23 0 35 -7.5t19 -27.5l454 -1093q25 29 177 383z" />
<glyph unicode="N" horiz-adv-x="1628" d="M141 1374l-84 2q-12 0 -12 15v53q0 12 12 12q1 0 19.5 -1t38.5 -1q82 -4 145 -4q45 0 88.5 2t48.5 2q41 0 60 -27l430 -557l92 -112l326 -406h8v244q0 232 -6 385q-4 99 -11 186q-6 111 -14 129q-24 80 -113 80h-65q-12 0 -12 15v53q0 12 12 12q7 0 38.5 -1.5t82.5 -3 t104 -1.5q50 0 95 1.5t72 3t32 1.5q16 0 16 -14v-51q0 -15 -12 -15h-55q-41 0 -58 -25.5t-22 -86.5q-8 -123 -8 -473v-766q0 -50 -11 -50q-26 0 -49 33l-250 316l-147 184l-158 194q-5 4 -180 220q-150 186 -232 290h-12v-454q0 -149 8 -326l13 -239q3 -66 20 -92.5 t55 -26.5h62q10 0 13 -4t3 -15v-45q0 -10 -3 -13t-13 -3t-29 1t-28 1l-142 4l-135 -4l-70 -2q-10 0 -10 14v53q0 13 12 13h70q45 0 65 26t27 99q8 68 8 637v348q0 86 -38 137t-97 53z" />
<glyph unicode="O" horiz-adv-x="1681" d="M1382 690q2 122 -31.5 234.5t-91 196.5t-129.5 147.5t-148 97.5t-146 37l-43 2q-146 6 -281 -123q-99 -95 -152 -233q-50 -131 -53 -273q-2 -143 35.5 -267t98 -207t135.5 -142.5t147 -86.5t133 -26q206 0 322 113q117 111 161 260q40 134 43 270zM399 102 q-125 76 -213 240.5t-88 368.5q0 277 191 510q117 142 253.5 201t301.5 59q274 0 459 -162q131 -112 205.5 -267t74.5 -345q0 -243 -153 -449q-217 -289 -590 -289q-96 0 -216 34.5t-225 98.5z" />
<glyph unicode="P" horiz-adv-x="1243" d="M649 705q85 0 165 40t124 99q50 67 53 207q1 89 -36 158t-95.5 107t-120 57t-118.5 18q-119 0 -160 -15v-653q61 -18 188 -18zM465 139q3 -35 18.5 -50t48.5 -15h132q16 0 16 -15v-49q0 -8 -3.5 -12t-14.5 -4q-3 0 -36.5 1.5t-100 3t-148.5 1.5q-79 0 -145 -1.5t-101 -3 t-37 -1.5q-16 0 -16 14v51q0 15 12 15h88q54 0 70.5 12t19.5 53q2 19 2.5 50t0.5 84t1 94q4 218 4 350v235q0 325 -4 379q-1 28 -17 36.5t-62 8.5h-117q-8 0 -10.5 3.5t-2.5 13.5v49q0 14 13 14q3 0 17 -1l35 -2.5t56 -2.5t79 -1t104 1l82 2q126 4 143 4q173 0 272 -22 q99 -21 185 -80q72 -49 113.5 -129t41.5 -168q0 -195 -138 -306.5t-382 -111.5q-131 0 -223 10v-106v-221q0 -142 4 -183z" />
<glyph unicode="Q" horiz-adv-x="1669" d="M1366 682q0 182 -47 327t-129 224q-98 93 -184.5 133.5t-194.5 40.5q-195 0 -328 -133q-90 -90 -134 -223.5t-44 -284.5q0 -178 62 -326.5t157 -242.5q168 -162 318 -162q187 0 305 115q117 114 168 268q51 146 51 264zM1374 1262q100 -103 149.5 -236.5t47.5 -280.5 q-1 -158 -57.5 -301t-153.5 -237q-83 -83 -166 -133.5t-190 -87.5v-9q231 -84 524 -149q437 -96 586 -96q16 0 32.5 1t18.5 1q70 0 127 45q12 12 18 2l14 -21q7 -10 -6 -20q-166 -166 -274 -166q-166 0 -547 96q-161 42 -369 117q-204 75 -417 176q-3 -1 -29 6.5t-71.5 26 t-96 45.5t-110 71.5t-107.5 96.5q-199 216 -199 541q0 147 63 289t173 245q105 96 250 150q129 47 239 47q341 0 551 -219z" />
<glyph unicode="R" horiz-adv-x="1427" d="M561 721q99 -1 179 24t128 63t80.5 86.5t45 90.5t12.5 78q0 68 -29 131.5t-74 101.5q-63 50 -141 72.5t-199 22.5q-42 0 -69 -17q-25 -19 -25 -65v-580q36 -8 92 -8zM283 1274q-3 102 -78 102h-82q-12 0 -12 15v51q0 14 12 14q2 0 13 -0.5t31.5 -1.5t48 -2t70.5 -1.5 t91 -0.5q154 0 252 4q14 0 44 1t46 1q122 0 222.5 -33t160.5 -92q50 -46 78 -110t28 -123q0 -127 -40 -207.5t-120 -126t-219 -76.5v-4q50 -17 95 -78q5 -6 84 -117q39 -54 102 -145q6 -15 82 -121q72 -97 98 -114q51 -35 148 -35q16 0 16 -17v-45q0 -11 -3 -14.5t-13 -3.5 q-4 0 -27 1.5t-59.5 3t-73.5 1.5q-74 0 -166 -6q-21 17 -49 61l-37 56q-8 8 -94 159q-29 56 -43 76l-68 103q-39 59 -63 88q-55 66 -100 92t-121 26q-41 0 -68 -6v-114q0 -340 4 -381q7 -80 51 -80h129q17 0 17 -17v-45q0 -12 -4.5 -15t-18.5 -3q-1 0 -28.5 1.5t-90.5 3 t-149 1.5q-82 0 -142 -1.5t-86.5 -3t-27.5 -1.5q-17 0 -17 16v47q0 17 11 17h84q80 0 80 69q4 270 4 590v199q0 303 -2 342z" />
<glyph unicode="S" horiz-adv-x="1122" d="M272 76q-34 24 -47 24t-32 -34q-11 -25 -37 -25q-12 2 -19 10q4 0 19 193q10 150 16 200q3 13 14 13l31 -2q12 0 12 -17q2 -67 17 -119t57 -118q44 -71 121.5 -111.5t165.5 -40.5q109 0 193.5 68.5t84.5 191.5q0 142 -84 217q-83 77 -231 129q-103 37 -175 74t-124 92 q-102 102 -102 299q0 70 35.5 140t91.5 122q105 99 286 99q138 0 242 -51q14 -7 20 -7q10 0 19 9l26 24q15 12 27 12q16 0 16 -34q0 -37 19 -222q10 -85 10 -104q0 -13 -10 -16l-25 -7q-9 -3 -12 7q-37 130 -127 227q-82 88 -223 88q-118 0 -183 -70.5t-65 -169.5 q0 -115 63 -178q36 -36 102 -69t132 -54q139 -44 209 -78q74 -36 121 -92q90 -107 90 -278q0 -191 -113 -320t-305 -129q-189 0 -326 107z" />
<glyph unicode="T" horiz-adv-x="1437" d="M608 1376h-51q-245 0 -324 -24q-55 -17 -97 -77.5t-85 -160.5q-6 -13 -20 -10l-37 10q-11 3 -8 16q80 288 96 361q3 33 20 33t25 -8l27 -19q30 -20 51 -27t65 -8l88 -4q200 -8 299 -8h99q201 0 340 8q66 4 71 4q64 3 107 29l39 25q13 8 24 8q17 0 19 -33q0 -8 8 -55 q7 -39 51 -314v-4q0 -9 -12 -12l-33 -8h-4q-9 0 -12 14q-80 198 -146 229q-72 35 -354 35h-57v-583q0 -614 2 -637q5 -43 20 -62.5t49 -19.5h129q12 0 16.5 -4.5t4.5 -16.5v-43q0 -16 -21 -16q-1 0 -31.5 1.5t-97.5 3t-157 1.5q-83 0 -156 -1.5t-113 -3t-43 -1.5 q-11 0 -14.5 4.5t-3.5 15.5v39q0 21 14 21h140q29 0 47 14t20 35q6 59 6 727v526z" />
<glyph unicode="U" horiz-adv-x="1527" d="M481 12q-101 41 -158.5 107t-84.5 168q-33 129 -33 497v488q0 58 -17 81t-61 23h-96q-15 0 -15 19v45q0 10 3.5 13t15.5 3q3 0 41.5 -1.5t104 -3t134.5 -1.5t134.5 1.5t104 3t42.5 1.5q18 0 18 -12v-53q0 -8 -3 -11.5t-13 -3.5h-102q-41 0 -67.5 -23.5t-31.5 -60.5 q-4 -50 -4 -266v-135q0 -69 10 -434q3 -166 66 -260q52 -75 137.5 -111.5t188.5 -36.5q93 0 174 29.5t133 83.5q106 109 106 360v439q0 230 -10 325q-5 41 -29.5 65.5t-62.5 24.5h-90q-15 0 -15 17v49q0 14 15 14q3 0 39.5 -1.5t95.5 -3t117 -1.5q61 0 113.5 1.5t81 3 t30.5 1.5q20 0 20 -14v-45q0 -21 -12 -21h-84q-24 0 -39 -5t-24.5 -18.5t-13.5 -24t-11 -34.5q-4 -28 -4 -340q0 -15 -4 -245q-3 -169 -6 -222q-11 -131 -52 -226.5t-120 -168.5q-138 -123 -385 -123q-176 0 -277 43z" />
<glyph unicode="V" horiz-adv-x="1445" d="M72 1456q2 0 32 -1.5t88 -3t127 -1.5q76 0 143 1.5t103 3t37 1.5q21 0 21 -14v-47q0 -19 -17 -19h-98q-86 0 -86 -53q0 -16 8 -70q26 -129 125 -432l94 -286q65 -194 96 -269h5q57 135 106 266q27 72 64.5 170.5t48.5 128.5q4 10 14.5 42t29.5 89.5t40 118.5l45 131 q28 82 28 117q0 47 -65 47h-53q-11 0 -11 19v47q0 14 13 14q4 0 39 -1.5t91 -3t111 -1.5q65 0 116.5 1.5t76.5 2.5l26 2q15 0 15 -14v-51q0 -15 -15 -15h-55q-45 0 -77.5 -19.5t-67.5 -60.5q-33 -41 -101 -202q-25 -58 -68.5 -167.5t-64.5 -158.5l-18 -43l-154 -383 q-24 -59 -57 -141t-53 -131.5t-35 -83.5q-12 -27 -29 -27q-18 0 -35 47l-258 729l-20 70l-49 145q-23 68 -52.5 156.5t-45 133.5t-25.5 69q-18 37 -36 52t-48 15h-53q-11 0 -11 15v51q0 14 15 14z" />
<glyph unicode="W" horiz-adv-x="2140" d="M688 266h4q1 5 72 215q250 747 250 785q0 26 -31 71q-26 39 -82 39h-51q-7 0 -9.5 3t-2.5 14v49q0 14 14 14q2 0 32.5 -1.5t89 -3t128.5 -1.5q75 0 138.5 1.5t97 3t34.5 1.5q14 0 14 -14v-51q0 -15 -14 -15h-82q-28 0 -44.5 -16.5t-16.5 -42.5q0 -3 4 -23l319 -1028h4 q144 429 205 619q115 357 115 428q0 63 -72 63h-55q-14 0 -14 19v47q0 14 16 14q4 0 34 -1.5t81 -3t104 -1.5q50 0 95 1.5t70 3t26 1.5q14 0 14 -14v-51q0 -9 -2 -12t-12 -3h-50q-51 0 -81 -55q-5 -9 -248 -670q-36 -101 -146 -391q-84 -231 -92 -248q-23 -53 -43 -53 q-17 0 -27 10t-18 35l-379 1124h-4l-233 -657q-168 -469 -170 -473q-17 -39 -41 -39q-26 0 -37 33l-457 1311q-24 73 -88 73h-70q-12 0 -12 17v49q0 14 17 14q1 0 27.5 -1.5t78.5 -3t113 -1.5q62 0 121 1.5t93.5 3t37.5 1.5q16 0 16 -12v-51q0 -17 -16 -17h-35 q-64 0 -64 -49q0 -4 4 -24z" />
<glyph unicode="X" horiz-adv-x="1427" d="M453 -6q-2 0 -35.5 1.5t-96.5 3t-135 1.5q-51 0 -102 -1.5t-83 -3t-36 -1.5q-12 0 -12 18v47q0 15 12 15h80q46 0 117 59q50 43 114.5 126t204.5 276q87 121 146 194l-27 39q-58 85 -131 191.5t-110 160.5t-75.5 110.5t-57.5 82t-27 33.5q-30 30 -93 30h-90q-10 0 -10 17 v47q0 16 10 16q2 0 39.5 -1.5t106 -3t145.5 -1.5q59 0 111.5 0.5t86 1.5t58.5 2t38 1.5t15 0.5q17 0 17 -14v-47q0 -11 -3.5 -15t-15.5 -4h-71q-76 0 -76 -47q0 -20 16 -49q204 -343 256 -416q52 66 170 228q121 165 140 200q10 20 10 39q0 21 -13.5 33t-37.5 12h-43 q-13 0 -13 19v47q0 14 15 14q5 0 38.5 -1.5t85 -3t99.5 -1.5q47 0 94.5 1.5t78 3t34.5 1.5q16 0 16 -14v-47q0 -19 -12 -19h-86q-45 0 -86 -26q-23 -16 -199 -234q-193 -244 -244 -315l97 -148l186 -288q143 -223 160 -236q61 -55 135 -55h68q16 0 16 -15v-49q0 -16 -16 -16 q-2 0 -14 0.5t-33 1.5t-49.5 2t-72 1.5t-92.5 0.5q-48 0 -94 -0.5t-78.5 -1.5t-58 -2t-40.5 -1.5t-17 -0.5q-17 0 -17 14v51q0 15 13 15h79q34 0 46.5 9.5t3.5 29.5q-4 10 -158 264q-145 240 -180 287q-6 -9 -81.5 -117.5t-123.5 -179.5q-123 -180 -131 -201 q-10 -23 -10 -47q0 -45 49 -45h80q16 0 16 -13v-49q0 -11 -3 -14.5t-13 -3.5z" />
<glyph unicode="Y" horiz-adv-x="1361" d="M764 145q3 -42 23 -56.5t67 -14.5h80q10 0 12 -3t2 -12v-47q0 -12 -2 -15t-12 -3q-3 0 -39 1.5t-100.5 3t-137.5 1.5q-81 0 -144 -1.5t-94 -3t-32 -1.5q-12 0 -12 16v49q0 15 14 15h100q69 0 72 51q6 85 6 381v119q-36 70 -207 354q-188 313 -219 348q-18 22 -48 35.5 t-58 13.5h-51q-15 0 -15 15v53q0 12 15 12q4 0 39 -1.5t91 -3t109 -1.5q95 0 167 1.5t105 2.5l33 2q15 0 15 -10v-51q0 -19 -15 -19h-67q-37 0 -50.5 -9t-13.5 -32q0 -20 2 -26q2 -13 93 -181l116 -210l111 -203l102 157q31 48 68.5 105.5t60 92.5t48 74.5t39.5 62 t27.5 43.5t19 31.5t6.5 14.5q6 30 6 33q0 47 -74 47h-55q-15 0 -15 19v49q0 12 15 12q3 0 37 -1.5t90 -3t114 -1.5q51 0 93.5 1.5t65.5 3t26 1.5q16 0 16 -12v-49q0 -11 -3 -15t-13 -4h-52q-55 0 -100 -45q-38 -38 -485 -682v-268q0 -142 8 -236z" />
<glyph unicode="Z" horiz-adv-x="1437" d="M88 16q0 27 12 39q77 91 510 690q449 621 459 639h-555q-44 0 -82 -32q-29 -26 -125 -142q-97 -118 -125 -163q-7 -11 -18 -3l-27 13q-7 2 -4 18l129 369q9 22 25 22l41 -4q126 -12 555 -12q15 0 147 4l74 2q25 1 69 2.5t80 2.5t68 1q29 0 29 -18q0 -16 -15 -31 q-31 -35 -491 -665q-78 -108 -164.5 -226t-135.5 -186t-94.5 -130t-67 -92.5t-26.5 -39.5h721q46 28 148 139q92 104 139 164q8 7 18 4l29 -16q10 -7 4 -19q-19 -36 -78 -176q-54 -135 -67 -178q-1 -10 -10 -16.5t-17 -6.5l-51 8q-68 11 -274 17q-194 6 -359 6h-432 q-39 0 -39 16z" />
<glyph unicode="[" horiz-adv-x="724" d="M639 1518v-50q0 -16 -16 -16h-277q-11 0 -15.5 -4.5t-4.5 -17.5v-1678q0 -28 14 -28h303q16 0 16 -19v-43q0 -16 -18 -16h-432q-23 0 -23 22v1843q0 19 21 19h420q12 0 12 -12z" />
<glyph unicode="\" horiz-adv-x="716" d="M633 -31h-4q-12 0 -21 25l-604 1438q-7 16 4 20l78 33l6 2q5 0 14 -12l607 -1450q9 -22 -4 -25z" />
<glyph unicode="]" horiz-adv-x="724" d="M66 -338v43q0 11 3 15t13 4h305q12 0 12 24v1682q0 22 -18 22h-279q-16 0 -16 16v50q0 12 12 12h420q21 0 21 -19v-1843q0 -22 -23 -22h-432q-18 0 -18 16z" />
<glyph unicode="^" d="M479 1399h66l434 -867h-133l-336 672h-10l-326 -672h-127z" />
<glyph unicode="_" d="M0 -154h1024v-102h-1024v102z" />
<glyph unicode="`" horiz-adv-x="684" d="M373 995l-271 193q-41 27 -41 67q0 27 20.5 47.5t49.5 20.5q43 0 84 -51l197 -244q3 -8 -2 -10l-25 -23q-6 -6 -12 0z" />
<glyph unicode="a" horiz-adv-x="874" d="M465 410q-104 -49 -152.5 -98t-48.5 -128q0 -54 29 -83t78 -29q46 0 107 44.5t61 82.5v252q-20 -16 -74 -41zM750 90q23 0 43 9.5t28 21.5q11 15 21 8l20 -16q6 -6 6 -15t-8 -22q-53 -101 -160 -101q-55 0 -93 37t-52 101h-4q-70 -82 -203 -125q-38 -13 -121 -13 q-49 0 -86 44t-37 126q0 81 46.5 140t158.5 108q198 87 232 119v131q0 20 -8.5 60t-20.5 55q-39 45 -123 45q-34 0 -73.5 -12.5t-59.5 -30.5q-16 -16 -16 -37q0 -8 3 -26.5t3 -30.5q0 -59 -25.5 -88t-83.5 -29q-49 0 -49 65q0 49 39 102.5t102 90.5q119 72 250 72 q62 0 99 -14t65 -42t36.5 -59t8.5 -86v-434q0 -154 62 -154z" />
<glyph unicode="b" horiz-adv-x="1032" d="M326 143q15 -39 73.5 -70.5t120.5 -31.5q107 0 191 84t84 268q0 160 -83.5 273.5t-222.5 113.5q-58 0 -110 -19t-84 -54v-267q0 -126 6 -188q7 -66 25 -109zM51 1294l-20 6q-27 9 -27 17v16q0 7 16 17q56 22 117 55q61 32 101 57q29 19 43 19q19 0 16 -35q-2 -10 -2 -432 v-238q49 47 126.5 75t156.5 28q71 0 137.5 -29.5t119.5 -83.5t85 -138.5t32 -187.5q0 -118 -58 -225.5t-157 -173.5t-211 -66q-150 0 -241 54l-82 -45q-13 -10 -27 -7l-24 7q-11 4 -9 16q4 36 4 348v756q0 102 -18.5 137.5t-77.5 52.5z" />
<glyph unicode="c" horiz-adv-x="841" d="M225 496q0 -78 30 -164t75 -148q76 -104 223 -104q74 0 122.5 19t102.5 69q8 8 17 0l20 -21q13 -13 0 -26q-52 -60 -144.5 -103t-185.5 -43q-99 0 -176.5 33t-140.5 111q-52 65 -71 128.5t-21 149.5q-1 90 31.5 177t89.5 155.5t140 109.5t177 40q70 -1 127 -19 t88.5 -44.5t48 -53.5t15.5 -49q0 -34 -21.5 -53t-54.5 -19q-67 0 -113 82q-29 54 -59 72t-78 18q-98 0 -170 -86t-72 -231z" />
<glyph unicode="d" horiz-adv-x="1067" d="M725 698q-58 111 -215 111q-115 0 -186 -74q-95 -103 -95 -272q0 -80 26.5 -155.5t67 -128t90 -84.5t95.5 -32q78 0 141.5 34t81.5 79q12 38 12 70v352q0 66 -18 100zM614 1368q-14 3 -14 14v35q0 12 16 15l144 26q15 3 34 7t30 6.5t18 3.5q42 6 47 6q13 0 10 -37 q-8 -123 -8 -660v-452q0 -161 20 -187q27 -30 90 -34q38 0 41 -15l5 -16v-6q0 -11 -15 -17l-231 -77l-8 -3q-13 0 -19 19l-26 90q-49 -49 -135 -80t-167 -31t-131 17.5t-110 77.5q-73 74 -101 147.5t-28 183.5q0 200 143 349q129 129 305 129q114 0 219 -31v399 q0 63 -22.5 84.5t-106.5 36.5z" />
<glyph unicode="e" horiz-adv-x="872" d="M616 635q0 62 -36 121q-34 61 -121 61q-74 0 -130.5 -52.5t-84.5 -158.5h317q55 0 55 29zM229 446q0 -148 85 -250t206 -102q84 0 150.5 39.5t97.5 99.5q6 14 18 11l27 -15q6 -3 6 -10q0 -5 -6 -20q-38 -83 -121 -154q-82 -70 -205 -70q-220 0 -321 146 q-53 77 -71.5 144.5t-18.5 178.5q0 86 31 172.5t98 153.5q59 59 129.5 83t163.5 26q61 1 113.5 -20.5t86 -56t57 -76t34 -79.5t10.5 -69q0 -19 -13.5 -26t-44.5 -7h-505q-7 -31 -7 -99z" />
<glyph unicode="f" horiz-adv-x="634" d="M219 756h-141q-13 0 -10 22l8 62q3 14 24 14h119v39q0 271 137 426q146 162 336 162q81 0 134 -30.5t53 -84.5q0 -33 -29 -60.5t-57 -27.5q-34 0 -58 12q-22 13 -49 47q-41 47 -94 47q-95 0 -154 -71q-46 -58 -58.5 -147t-12.5 -271v-41h247q19 0 15 -20l-11 -68 q-3 -10 -26 -10h-225v-183q0 -438 2 -452q5 -31 14.5 -42t38.5 -11h117q14 0 18 -3.5t4 -13.5v-33q0 -24 -14 -24q-1 0 -12 0.5t-31 1.5t-47 2t-68.5 1.5t-87.5 0.5q-48 0 -102.5 -1.5t-90.5 -3t-40 -1.5q-17 0 -17 14v45q0 15 21 15h98q26 0 37.5 16.5t11.5 54.5v617z" />
<glyph unicode="g" horiz-adv-x="993" d="M809 -281q0 95 -66.5 151t-189.5 50l-41 -2l-197 -14q-62 -15 -112.5 -70.5t-50.5 -126.5q0 -36 23 -76.5t56 -64.5q49 -35 109 -46.5t178 -11.5q37 0 86 13.5t98.5 38t81 67t25.5 92.5zM618 592q0 126 -55 184q-45 45 -98 45q-89 0 -146 -57q-73 -78 -73 -242 q0 -107 65 -178q51 -51 123 -51q92 0 139 90q45 89 45 209zM133 -492q-104 59 -104 166q0 74 61 139.5t154 106.5v8q-61 13 -99.5 54.5t-38.5 89.5q0 62 55 114.5t130 79.5v4q-82 35 -136.5 115.5t-54.5 196.5q0 113 97.5 205t253.5 92t258 -119q115 80 192 80 q46 0 73.5 -26t22.5 -60q0 -32 -22.5 -54t-56.5 -22q-36 0 -72 31q-27 18 -43 18q-39 0 -66 -12q31 -79 31 -156q0 -133 -76 -221q-42 -46 -112 -74q-73 -28 -125 -28q-60 0 -105 10q-46 -19 -77 -49t-31 -66q0 -40 32.5 -57t100.5 -17q55 0 106 4q6 0 29.5 1t40.5 1 q183 0 283 -75q97 -72 100 -197q2 -75 -31 -136t-106 -116q-56 -41 -149 -68.5t-202 -27.5q-200 0 -313 65z" />
<glyph unicode="h" horiz-adv-x="1103" d="M102 1288l-34 12q-15 3 -15 13v18q0 9 25 21l213 112q33 17 47 17q19 0 16 -51q-1 -5 -4 -226q-2 -135 -2 -327v-132h10q50 60 129 97t152 37q121 0 203 -82q42 -39 61 -88q19 -44 23 -83.5t4 -129.5v-117l2 -207q0 -11 1 -35.5t1 -38.5q0 -30 76 -30h34q23 0 23 -19v-31 q0 -24 -16 -24q-1 0 -27 1.5t-72.5 3t-97.5 1.5q-40 0 -84.5 -1.5t-73.5 -3t-34 -1.5q-19 0 -19 22v35q0 17 14 17h48q74 0 77 38v130v73v166q0 104 -13.5 159.5t-53.5 92.5q-57 57 -135 57q-117 0 -191 -86q-41 -48 -41 -100v-446q0 -52 8 -68t37 -16h62q22 0 22 -17v-35 q0 -22 -16 -22q-5 0 -35.5 1.5t-75.5 3t-84 1.5q-42 0 -87.5 -1.5t-76 -3t-34.5 -1.5q-15 0 -15 20v37q0 10 6 13.5t25 3.5h43q62 0 68 32q6 40 6 398v618q0 63 -9.5 95t-28.5 47t-61 30z" />
<glyph unicode="i" horiz-adv-x="546" d="M209 295v301q0 59 -22.5 85t-92.5 38q-18 3 -18 14v19q0 8 14 14q113 43 221 100q26 13 39 13t10 -25q-4 -46 -4 -334v-223q0 -162 2 -176q5 -32 10.5 -42.5t22.5 -10.5h94q21 0 21 -19v-35q0 -20 -19 -20q-3 0 -12.5 0.5t-27 1.5t-35.5 2q-41 2 -121 2q-48 0 -99 -1.5 t-84 -3t-38 -1.5q-17 0 -17 16v41q0 17 21 17h100q18 0 25 8.5t8 32.5q2 41 2 186zM117 1221q0 43 35 74.5t90 31.5q47 0 76.5 -30t29.5 -70q0 -47 -32 -80t-87 -33q-40 0 -76 32t-36 75z" />
<glyph unicode="j" horiz-adv-x="503" d="M199 150v405q0 67 -18.5 92.5t-82.5 50.5l-20 9q-12 3 -12 14v18q0 7 16 17q115 37 221 108q18 15 39 15q14 0 14 -23q0 14 -1 -1q-9 -121 -9 -359v-256q0 -74 -8 -246q-10 -153 -21 -207q-32 -163 -127 -253.5t-223 -90.5q-50 0 -84.5 27t-34.5 69q0 28 22.5 57t51.5 29 q60 0 117 -63q28 -31 47 -31q42 0 69 45.5t33 134.5q11 135 11 439zM111 1239q0 42 40.5 81.5t96.5 39.5q45 0 79.5 -34.5t34.5 -92.5q0 -46 -37.5 -82.5t-91.5 -36.5q-48 0 -85 34t-37 91z" />
<glyph unicode="k" horiz-adv-x="1015" d="M88 1321q-29 6 -29 14v19q0 10 27 20l209 90q1 0 19 8.5t26 8.5q15 0 12 -35q-10 -110 -10 -645v-324q68 0 98 23q24 16 115 110q78 83 102 117q11 26 11 29q0 11 -11 18q-15 12 -53 12q-10 0 -13 4t-3 15v39q0 16 14 16q2 0 28.5 -1.5t71.5 -3t91 -1.5q43 0 81.5 1.5 t60 3t23.5 1.5q13 0 13 -20v-37q0 -11 -3.5 -14t-13.5 -3h-14q-31 0 -70.5 -13.5t-70.5 -33.5q-28 -12 -113 -94l-158 -147q388 -388 420 -402q61 -28 107 -28q10 0 13 -4t3 -15v-37q0 -18 -18 -18q-4 0 -28 1.5t-63 3t-79 1.5q-52 0 -104 -1.5t-84.5 -3t-35.5 -1.5 q-14 0 -14 20v33q0 16 21 16h14q12 0 19 10t3 23q-5 14 -110 125q-144 152 -162 170q-30 23 -88 23v-90q0 -166 2 -213q1 -23 11 -33t30 -10h59q11 0 15 -3.5t4 -13.5v-35q0 -22 -17 -22q-2 0 -27 1.5t-68 3t-87 1.5q-48 0 -94.5 -1.5t-73.5 -3t-28 -1.5q-11 0 -11 20v35 q0 19 21 19h76q36 0 36 49q5 302 5 381v678q0 71 -18 98.5t-89 46.5z" />
<glyph unicode="l" horiz-adv-x="524" d="M346 131q2 -32 13.5 -47.5t39.5 -15.5h93q22 0 22 -19v-35q0 -20 -12 -20q-1 0 -33.5 1.5t-88 3t-110.5 1.5q-57 0 -111 -1.5t-85.5 -3t-34.5 -1.5q-14 0 -14 20v35q0 11 5 15t21 4h99q42 0 45 51q2 43 2 534v129q0 200 -7 385q-3 50 -26.5 77.5t-75.5 45.5l-41 15 q-12 3 -12 10v16q0 9 18 15l45 20l76 33q55 23 119 65q27 17 43 17q10 0 13 -8t3 -29q-8 -301 -8 -651v-183q0 -436 2 -479z" />
<glyph unicode="m" horiz-adv-x="1650" d="M705 745q-18 17 -56 27t-76 10q-54 0 -107 -29.5t-89 -88.5q-29 -49 -29 -138v-405q0 -53 41 -53h74q13 0 16.5 -3.5t3.5 -15.5v-33q0 -13 -3 -17.5t-13 -4.5q-3 0 -28 1.5t-68 3t-90 1.5q-46 0 -90 -1.5t-71 -3t-30 -1.5q-10 0 -13 3.5t-3 14.5v37q0 13 3.5 16t20.5 3 h70q28 0 31 51q2 23 2 106v365q0 38 -12.5 62t-45.5 42l-43 23q-14 8 -14 16v17q0 12 12 16l181 92q24 12 38 12q15 0 19 -28l8 -119h6q48 67 132 111.5t169 44.5q77 0 138.5 -42t93.5 -116h10q51 68 134 113t167 45q122 0 184 -62q53 -56 65 -77q34 -55 34 -175v-456 q0 -41 43 -41h55q13 0 17.5 -4t4.5 -15v-35q0 -20 -14 -20q-2 0 -25 1.5t-63 3t-82 1.5q-43 0 -88 -1.5t-72.5 -3t-29.5 -1.5q-17 0 -17 20v35q0 11 5 15t22 4h51q38 0 41 38q4 62 4 166v303q0 117 -59 164q-55 43 -152 43q-48 0 -101.5 -32t-76.5 -74q-20 -36 -24.5 -73 t-4.5 -134v-354q0 -47 41 -47h70q13 0 17.5 -4t4.5 -15v-33q0 -22 -14 -22q-1 0 -24 1.5t-65.5 3t-92.5 1.5q-48 0 -93.5 -1.5t-72 -3t-27.5 -1.5q-14 0 -14 20v33q0 12 4 16.5t17 4.5h59q25 0 35 7t10 27v422q0 98 -14 144t-47 77z" />
<glyph unicode="n" horiz-adv-x="1089" d="M963 68h65q23 0 23 -19v-33q0 -22 -17 -22q-1 0 -26.5 1.5t-71 3t-96.5 1.5q-44 0 -87.5 -1.5t-69.5 -3t-28 -1.5q-16 0 -16 22v33q0 11 5 15t22 4h59q38 0 41 47q4 144 4 172v270q0 83 -10 120t-49 64q-30 23 -62 30t-88 7q-36 0 -82 -20t-84 -60q-47 -53 -47 -139v-424 q0 -43 9 -55t40 -12h52q20 0 20 -21v-35q0 -18 -14 -18q-1 0 -24.5 1.5t-65.5 3t-89 1.5q-46 0 -88.5 -1.5t-67 -3t-26.5 -1.5q-14 0 -14 18v37q0 19 20 19h60q24 0 32.5 8.5t8.5 32.5v479q0 80 -84 121l-17 8q-16 6 -16 18v10q0 12 18 21l177 98q27 15 36 15q14 0 17 -25 l14 -125h4q46 57 127 105q77 45 154 45q109 0 174 -45q42 -26 78 -93q35 -62 35 -102v-528q0 -43 45 -43z" />
<glyph unicode="o" horiz-adv-x="1019" d="M776 446q0 151 -89.5 261t-180.5 110q-96 0 -158 -65q-60 -61 -84 -133t-24 -189q0 -97 16 -159.5t61 -127.5q72 -106 203 -106q113 0 184.5 119.5t71.5 289.5zM184 117q-71 87 -90 151q-22 74 -22 183q0 87 46 175t130 154q126 99 274 99q77 0 156.5 -34t130.5 -85 q136 -142 139 -334q1 -80 -36 -162t-97.5 -146.5t-145 -104t-173.5 -38.5q-87 2 -171 37.5t-141 104.5z" />
<glyph unicode="p" horiz-adv-x="1052" d="M373 96q74 -55 205 -55q106 0 171.5 86.5t65.5 255.5q0 194 -74 297.5t-192 103.5q-66 0 -124 -35t-95 -96v-448q0 -41 9 -66t34 -43zM109 690l-48 27q-14 6 -14 18v17q0 8 14 14l197 98q39 17 47 17q11 0 14 -41l9 -99h6q46 62 125.5 100t173.5 38q132 0 233 -101 q61 -58 86 -130t25 -189q0 -133 -57.5 -243.5t-159 -175.5t-225.5 -65q-125 0 -205 35v-432q0 -40 9.5 -53.5t35.5 -13.5h90q11 0 14.5 -4.5t3.5 -16.5v-35q0 -18 -18 -18q-2 0 -11.5 0.5t-27 1.5t-41 2t-58.5 1.5t-73 0.5q-51 0 -99 -1.5t-76.5 -3t-31.5 -1.5q-18 0 -18 18 v37q0 19 24 19h80q23 0 30.5 10.5t12.5 40.5q6 47 6 356v662q0 39 -15.5 62t-57.5 48z" />
<glyph unicode="q" horiz-adv-x="1040" d="M504 813q-60 1 -113 -33.5t-86.5 -87t-53 -110.5t-18.5 -107q0 -120 29 -196q26 -67 80 -134q35 -41 83.5 -63.5t96.5 -22.5q65 0 125 26.5t92 66.5v473q-9 94 -86 141q-69 44 -149 47zM897 -430q3 -59 43 -59h64q20 0 20 -13v-45q0 -16 -14 -16q-4 0 -34 1.5t-76 3 t-89 1.5q-55 0 -105 -1.5t-78.5 -3t-31.5 -1.5q-10 0 -13 3.5t-3 14.5v41q0 15 22 15h84q24 0 34 9.5t15 33.5q4 40 4 469v51h-4q-132 -99 -293 -99q-68 0 -129 21.5t-116 68.5t-88 134.5t-33 206.5q0 91 47 200q45 104 127 174q119 99 270 99q105 0 244 -45l108 45l2 1 q3 1 5.5 1.5t5.5 -0.5t6 -4l18 -15q4 -4 4 -10l-4 -21q-8 -34 -16 -135q-6 -67 -6 -303v-467q0 -219 10 -356z" />
<glyph unicode="r" horiz-adv-x="698" d="M125 700l-39 21q-16 3 -16 14v13q0 8 16 18l203 104q15 9 28 9q12 0 15 -25l10 -141h8q52 78 118.5 128t127.5 50q48 0 76 -26t28 -64q0 -40 -27 -70.5t-59 -30.5q-20 0 -59 17q-29 16 -68 16q-31 0 -63.5 -22t-56.5 -64q-21 -38 -21 -65v-430q0 -47 12.5 -65.5 t44.5 -18.5h97q14 0 14 -19v-37q0 -18 -10 -18q-1 0 -32.5 1.5t-83 3t-101.5 1.5q-57 0 -110.5 -1.5t-84 -3t-31.5 -1.5q-12 0 -12 20v35q0 11 5 15t18 4h80q45 0 45 38q2 45 2 246v193q0 73 -14.5 102t-59.5 53z" />
<glyph unicode="s" horiz-adv-x="729" d="M133 35q-12 7 -12 28l-35 195v4q0 9 12 12l27 7h4q7 0 14 -13l52 -100q37 -73 72.5 -100t105.5 -27q66 0 114 37.5t48 101.5q0 73 -44 116t-155 73q-117 33 -179.5 94t-62.5 166t85 177.5t202 72.5q100 0 188 -43q34 -18 37 -37l31 -144q0 -12 -14 -18l-25 -8h-4 q-7 0 -14 10l-70 94q-58 80 -143 80q-66 0 -112 -37t-46 -98q0 -54 27 -88q25 -29 59 -44.5t111 -37.5q128 -37 186.5 -96t58.5 -166q0 -121 -88 -196t-223 -75q-61 0 -119 18.5t-88 41.5z" />
<glyph unicode="t" horiz-adv-x="653" d="M453 76q91 0 135 26q14 9 24 -4l11 -18q9 -9 -5 -23q-31 -31 -93 -56.5t-134 -25.5t-135 57t-63 118q0 30 4 210l2 82v45l4 261h-125q-31 0 -31 24q0 21 37 37q40 23 127 117q88 91 106 141q9 20 29 20q24 0 21 -30l-11 -203h285q8 0 13 -6t1 -12l-20 -72q-3 -16 -19 -16 h-264q-6 -141 -6 -287v-205q0 -94 31.5 -137t75.5 -43z" />
<glyph unicode="u" horiz-adv-x="1036" d="M858 174q4 -41 16.5 -56.5t36.5 -15.5q40 0 68 7q2 2 10 2q11 0 15 -11l6 -26v-6q0 -9 -11 -13l-215 -71q-24 -9 -41 -9q-15 0 -18 25l-16 119h-4q-43 -61 -123.5 -102.5t-155.5 -41.5q-62 0 -107 19.5t-86 75.5q-43 55 -57 100q-18 58 -20 104q-2 37 -2 197v238 q0 40 -19 57t-59 20q-29 3 -37 5.5t-8 9.5v37q0 10 4 13t18 3h183q8 0 28 4l23 2q10 0 16 -6t6 -14l-5 -81l-3 -159v-145l-2 -111q-3 -131 47 -197q33 -47 69 -62t95 -15q38 0 91.5 31.5t84.5 70.5q7 8 14 26t7 29v488q0 36 -21.5 51t-67.5 20q-45 0 -45 15v35q0 12 4 15 t21 3h190q7 0 35 4l25 2q8 0 13.5 -6.5t4.5 -13.5q-12 -111 -12 -273v-151q0 -184 4 -242z" />
<glyph unicode="v" horiz-adv-x="886" d="M473 188h6q177 431 197 510q6 21 6 39q0 49 -43 49h-41q-8 0 -8 21v37q0 16 12 16q5 0 62 -3t102 -3q43 0 94.5 3t52.5 3q12 0 15.5 -3t3.5 -15v-35q0 -21 -10 -21h-39q-42 0 -64 -22q-19 -17 -78 -137q-58 -121 -86 -191l-96 -223l-88 -197q-20 -47 -49 -47 q-28 0 -43 43l-160 416l-14 39l-90 244q-21 43 -38 59t-46 16h-41q-13 0 -13 21v37q0 10 4.5 13t18.5 3q4 0 25.5 -1.5t60.5 -3t86 -1.5q43 0 85 1.5t68.5 3t30.5 1.5q13 0 17 -3t4 -13v-37q0 -21 -15 -21h-40q-37 0 -37 -38q0 -35 24 -111l41 -131l64 -174q42 -114 59 -144 z" />
<glyph unicode="w" horiz-adv-x="1404" d="M1006 223h8l166 451q12 38 12 61q0 51 -43 51h-29q-12 0 -12 17v43q0 14 14 14q2 0 25 -1.5t60 -3t73 -1.5q45 0 96.5 3t53.5 3q14 0 14 -14v-43q0 -17 -14 -17h-52q-39 0 -65 -34q-15 -26 -285 -691l-27 -65q-12 -27 -38 -27q-25 0 -37 39l-201 584h-10l-252 -590 q-14 -33 -43 -33q-20 0 -35 41l-268 721q-11 30 -30.5 42.5t-55.5 12.5h-45q-15 0 -15 19v39q0 16 13 16q1 0 62.5 -3t123.5 -3q51 0 129 4q12 2 43 2q16 0 16 -16v-41q0 -17 -16 -17h-18q-29 0 -29 -30q0 -13 4 -25l162 -543h8l209 500q-3 40 -19 66q-14 20 -55 20h-31 q-14 0 -14 14v43q0 17 19 17q4 0 30 -1.5t68.5 -3t85.5 -1.5q39 0 75.5 1.5t57.5 3t23 1.5q18 0 18 -14v-43q0 -17 -14 -17h-43q-18 0 -27 -15.5t-2 -37.5z" />
<glyph unicode="x" horiz-adv-x="897" d="M297 -6q-4 0 -27.5 1.5t-60 3t-72.5 1.5q-42 0 -78 -1.5t-55.5 -3t-23.5 -1.5q-19 0 -19 18v37q0 19 16 19h54q60 0 84 24q20 18 174 213l90 115q-72 110 -135 198q-66 95 -107 140q-22 28 -74 28h-57q-14 0 -14 15v41q0 11 3 14.5t13 3.5q4 0 27.5 -1.5t62 -3t78.5 -1.5 t83.5 1.5t73 3t34.5 1.5q12 0 12 -18v-39q0 -17 -12 -17h-19q-26 0 -26 -24q0 -16 18 -45l127 -201l156 205q10 17 10 31q0 34 -33 34h-25q-12 0 -12 15v43q0 16 10 16q4 0 27 -1.5t63 -3t87 -1.5q34 0 60.5 1.5t40.5 3t15 1.5q11 0 15 -4.5t4 -15.5v-37q0 -11 -3.5 -14 t-13.5 -3h-32q-50 0 -80 -24q-32 -23 -252 -297l31 -45q154 -226 223 -309q37 -43 90 -43h33q10 0 10 -17v-41q0 -16 -14 -16q-4 0 -24.5 1.5t-56.5 3t-77 1.5q-48 0 -94.5 -1.5t-74.5 -3t-32 -1.5q-16 0 -16 18v35q0 13 3 17t13 4h31q11 0 17.5 8.5t6.5 21.5q0 17 -12 35 l-147 236l-37 -52q-132 -184 -141 -204q-1 -3 -2 -7.5t-2 -7t-1 -4.5q0 -26 27 -26h43q10 0 10 -17v-41q0 -16 -14 -16z" />
<glyph unicode="y" horiz-adv-x="892" d="M-2 -453q0 32 28.5 56t65.5 24q21 0 58 -11l36 -11h11q20 0 32 12q22 29 80 156q64 138 84 194q-5 26 -102 320q-87 268 -141 413q-25 50 -43.5 68t-53.5 18h-53q-10 0 -13 4t-3 15v41q0 14 16 14q3 0 27 -1.5t67 -3t94 -1.5q42 0 85.5 1.5t72 3t33.5 1.5q18 0 18 -14 v-43q0 -17 -12 -17h-39q-33 0 -27 -45q2 -28 78 -272q66 -213 90 -268h9q20 36 108 248q95 226 103 260q1 6 2 13.5t1.5 11t0.5 5.5q0 47 -39 47h-33q-14 0 -14 17v41q0 16 12 16l57 -3q58 -3 111 -3q24 0 70 3t55 3q12 0 12 -16v-39q0 -19 -10 -19h-33q-46 0 -72 -36 q-47 -63 -292 -623l-29 -66l-84 -190q-131 -291 -133 -295q-18 -33 -25 -44.5t-23.5 -33.5t-31 -30t-39 -16t-55.5 -9q-55 -3 -86 26t-31 78z" />
<glyph unicode="z" horiz-adv-x="888" d="M82 12q0 6 10 23l526 758h-217q-48 0 -68.5 -1t-49 -12.5t-45.5 -28t-53 -57t-77 -90.5q-18 -23 -28 -35q-14 -17 -23 -8l-26 12q-10 7 -4 21l135 287q59 -15 98 -19q68 -8 268 -8h283q14 0 19.5 -9t-1.5 -20l-542 -762h291q52 0 125 53.5t155 166.5q10 16 27 6l20 -15 q11 -8 4 -20l-157 -279q-53 18 -185 21q-110 4 -180 4h-283q-22 0 -22 12z" />
<glyph unicode="{" horiz-adv-x="724" d="M113 647q33 0 71 12q30 10 49 49t19 89q0 97 -35 202q-37 136 -37 213q0 134 109 219t252 95q58 4 96 4q35 0 35 -29q0 -37 -25 -37q-51 0 -65 -2q-111 -14 -176.5 -76.5t-65.5 -160.5q0 -96 16 -205q17 -139 17 -174q0 -49 -16.5 -91t-41.5 -67l-39 -41q-28 -31 -28 -39 q0 -16 26 -39q21 -21 45 -49q54 -54 54 -155q0 -47 -17 -172q-16 -140 -16 -201q0 -214 244 -273q31 -8 73 -8q15 0 15 -37q0 -28 -15 -28t-37 1t-30 1q-55 3 -108 14t-109 36t-98 60.5t-68.5 92t-26.5 126.5q0 42 37 209l19 80q16 69 16 115q0 129 -66 170q-29 19 -73 22 q-11 2 -19 12t-8 23q0 18 8 28.5t19 10.5z" />
<glyph unicode="|" horiz-adv-x="716" d="M305 -512v2054q0 19 12 19h82q15 0 15 -25v-2048q0 -20 -11 -20h-86q-12 0 -12 20z" />
<glyph unicode="}" horiz-adv-x="724" d="M610 569q-32 0 -69 -12q-30 -10 -49 -48.5t-19 -88.5q0 -60 37 -189q35 -140 35 -227q0 -77 -31.5 -142.5t-83.5 -109t-116 -70t-132 -32.5q-54 -4 -94 -4q-35 0 -35 30q0 35 25 35q51 0 65 2q107 12 174.5 88t67.5 191q0 110 -16 219l-11 70q-6 53 -6 90q0 101 56 157 q11 12 38 39q31 31 31 41q0 13 -28 41q-40 40 -46 47q-51 62 -51 156q0 13 17 152q16 131 16 192q0 56 -23.5 104.5t-60.5 80t-78.5 51.5t-81.5 26q-43 6 -69 6q-19 0 -19 33t17 33q47 0 65 -2q52 -3 106 -15t110 -37.5t99 -61t69.5 -88.5t25.5 -116q0 -74 -35 -200l-14 -52 q-23 -84 -23 -122q0 -129 66 -170q30 -20 71 -23q12 -2 20.5 -12t8.5 -23q0 -18 -8.5 -28.5t-20.5 -10.5z" />
<glyph unicode="~" d="M705 346q-42 0 -79 15t-91 53l-80 55q-63 45 -136 45q-39 0 -66.5 -42t-27.5 -122h-108q0 128 58 207.5t144 79.5q91 0 164 -49l86 -58q1 -1 20 -13t28 -17t26 -14t30.5 -13t24.5 -4q45 0 73 41.5t28 122.5h108q0 -128 -58 -207.5t-144 -79.5z" />
<glyph unicode="&#xa1;" horiz-adv-x="520" d="M166 -436q1 7 3 32.5t7 76t10 102.5q19 175 33 358q18 191 21 273q0 14 14 14h37q14 0 14 -21q4 -127 39 -532q23 -292 23 -303q0 -50 -29 -85.5t-70 -35.5q-49 0 -77 31t-25 90zM139 764q0 43 33.5 79t95.5 36q46 0 80.5 -34.5t34.5 -88.5q0 -49 -33.5 -81t-81.5 -32 q-50 0 -89.5 31.5t-39.5 89.5z" />
<glyph unicode="&#xa2;" d="M252 737q0 -116 24.5 -185t81.5 -134q48 -58 119 -78l31 707q-106 -6 -181 -94.5t-75 -215.5zM461 2l10 221q-171 20 -274 148q-97 121 -97 270q0 184 109 316.5t301 156.5l10 203q0 20 15 20h53q7 0 9.5 -5.5t2.5 -22.5l-8 -189q141 -3 216 -59t73 -105 q0 -30 -21.5 -47.5t-54.5 -17.5q-35 0 -60 19.5t-49 62.5q-36 65 -108 74l-33 -725q45 -5 61 -5q84 0 134 20t106 75q8 8 16 0l21 -21q13 -13 0 -26q-54 -61 -148.5 -103.5t-193.5 -42.5l-10 -221q-1 -18 -4 -23.5t-11 -5.5h-53q-15 0 -12 33z" />
<glyph unicode="&#xa3;" d="M338 823l76 226q48 141 172 247q121 103 250 103q97 0 162 -46.5t65 -92.5q0 -32 -23.5 -55t-54.5 -23q-85 -3 -123 75q0 1 -4 12.5t-8.5 20t-13 19t-23 16.5t-33.5 6q-75 0 -127.5 -74t-95.5 -251q-26 -104 -100 -267q-69 -158 -99 -202h287q19 0 19 -13v-47 q0 -14 -21 -14h-319q-47 -86 -142 -199l2 -4q53 6 95 6q101 0 169.5 -34.5t149.5 -122.5q62 -68 145 -68q29 0 55 19t38 42q8 19 8 25q0 14 -39 14q-48 0 -78.5 20t-30.5 46q0 33 25.5 57.5t73.5 24.5q58 0 100.5 -37.5t42.5 -93.5q0 -30 -15.5 -61t-45.5 -60.5t-84 -48.5 t-123 -19q-166 0 -285 140q-50 60 -103 82.5t-128 17.5q-4 -12 -37 -68q-33 -61 -75 -101t-81 -40q-18 0 -27.5 9.5t-9.5 23.5q0 48 60 117q57 69 118 100q19 18 56 92q38 74 53 121h-150q-18 0 -18 14v47q0 13 14 13h181q17 35 100 286z" />
<glyph unicode="&#xa4;" d="M754 690q0 117 -66 190.5t-172 73.5q-112 0 -174.5 -76t-62.5 -188q0 -115 62.5 -190.5t174.5 -75.5q104 0 171 73t67 193zM981 1098l-193 -183q35 -32 59.5 -94t24.5 -119q-3 -135 -81 -231l190 -178q13 -13 4 -23l-43 -49q-9 -9 -18 0l-203 185q-42 -31 -100.5 -48.5 t-114.5 -17.5q-61 0 -118 19.5t-95 54.5l-187 -187q-13 -13 -22 -4l-45 47q-1 3 -3 6l-1 5q0 6 8 14l188 184q-69 84 -69 199q0 66 23 128.5t61 100.5l-201 191q-9 9 2 20l39 41q9 13 20 2l205 -192q75 69 221 69q50 0 105 -18t88 -45l199 184q9 11 18 2l39 -41q13 -9 0 -22 z" />
<glyph unicode="&#xa5;" d="M426 377h-307q-21 0 -21 12v47q0 15 21 15h309v145h-311q-11 0 -15 3t-4 13v43q0 15 21 15h307q-31 56 -180 313q-139 238 -160 266q-12 18 -35 31.5t-43 13.5h-43q-14 0 -14 15v51q0 14 14 14q4 0 34 -1.5t76 -3t89 -1.5q62 0 121.5 1.5t94.5 3t38 1.5q14 0 14 -10v-51 q0 -19 -14 -19h-43q-90 0 -90 -51q0 -22 8 -35q36 -80 121 -241q94 -178 127 -234l153 271q102 175 111 206q6 18 6 33q0 51 -68 51h-53q-14 0 -14 19v47q0 14 16 14q1 0 29.5 -1.5t78 -3t101.5 -1.5q35 0 70 1.5t57.5 3t26.5 1.5q16 0 16 -12v-49q0 -19 -16 -19h-43 q-43 0 -72 -39q-19 -26 -174 -284q-138 -233 -180 -301h284q23 0 23 -15v-47q0 -12 -25 -12h-293v-145h295q23 0 23 -15v-47q0 -12 -21 -12h-294v-244q0 -36 13 -47.5t50 -11.5h80q16 0 16 -15v-47q0 -11 -3 -14.5t-13 -3.5q-3 0 -28.5 1.5t-74.5 3t-110 1.5 q-64 0 -115.5 -1.5t-77.5 -3t-28 -1.5q-17 0 -17 16v49q0 15 15 15h96q20 0 32.5 14t12.5 37v252z" />
<glyph unicode="&#xa6;" horiz-adv-x="716" d="M414 338v-676q0 -20 -19 -20h-78q-12 0 -12 20v676q0 20 19 20h77q13 0 13 -20zM305 686v678q0 18 12 18h82q15 0 15 -24v-672q0 -20 -19 -20h-78q-12 0 -12 20z" />
<glyph unicode="&#xa7;" horiz-adv-x="1105" d="M684 702l-152 103q-103 68 -134 92t-50 51q-74 -47 -74 -168q0 -63 28 -115.5t93 -105.5q70 -57 221 -166q92 -66 113 -90q37 17 67.5 65.5t30.5 92.5q0 69 -29 126t-114 115zM866 1352q0 -34 -22 -54t-53 -20q-40 0 -61.5 16t-55.5 66q-37 55 -99 55q-74 0 -129 -54.5 t-55 -129.5t31 -129q30 -49 78 -88.5t151 -102.5q11 -7 32.5 -20t29.5 -17q233 -147 233 -339q0 -198 -174 -283q64 -76 64 -201q0 -135 -97 -235q-88 -92 -258 -92q-105 0 -175 31.5t-70 84.5q0 35 22.5 58.5t54.5 23.5q62 0 107 -63q44 -62 106 -62q50 0 88.5 16t65.5 60 t27 113q0 72 -31 129q-27 51 -68 87t-137 103q-70 47 -129 94q-180 143 -180 326q0 185 153 279q-34 64 -34 180q0 104 77 188q56 61 124 85t175 24q88 0 148.5 -37.5t60.5 -91.5z" />
<glyph unicode="&#xa8;" horiz-adv-x="665" d="M604 1204q0 -38 -26.5 -64t-63.5 -26q-41 0 -73.5 25.5t-32.5 72.5q0 34 27.5 63.5t78.5 29.5q37 0 63.5 -28.5t26.5 -72.5zM258 1204q0 -38 -27.5 -64t-64.5 -26q-41 0 -73 25.5t-32 72.5q0 34 27.5 63.5t77.5 29.5q38 0 65 -29t27 -72z" />
<glyph unicode="&#xa9;" horiz-adv-x="1689" d="M535 387q-138 132 -138 344q0 189 131 326q56 56 141 89.5t181 33.5q102 0 237 -66q21 -12 27 0l8 33q3 8 31 8q14 0 17.5 -3.5t3.5 -16.5q0 -15 12 -103q15 -108 20 -133q0 -12 -6 -12l-24 -6q-12 -4 -17 4q-28 52 -46.5 81t-47.5 58q-94 94 -219 94q-95 0 -166 -55.5 t-103.5 -135t-31.5 -165.5q0 -180 112 -295q103 -109 238 -109q98 0 179.5 44.5t135.5 117.5q6 6 17 -6l16 -12q8 -8 -2 -21q-148 -207 -381 -207q-100 0 -185 29t-140 84zM1487 725q1 131 -39 244t-106 191.5t-151 135.5t-173 83.5t-172 27.5q-129 1 -247 -51t-204.5 -142 t-138 -217.5t-51.5 -271.5q-1 -136 38 -251t104 -192.5t149 -132.5t172.5 -80t177.5 -26q128 -1 235.5 40t181 108.5t125 157t75 184.5t24.5 192zM1595 725q0 -209 -93.5 -381t-266 -273.5t-389.5 -101.5q-164 0 -304.5 59.5t-237.5 161t-152 240.5t-56 295q0 154 60 294.5 t161.5 241.5t239.5 160.5t289 59.5q212 -1 383.5 -97.5t269 -269.5t96.5 -389z" />
<glyph unicode="&#xaa;" horiz-adv-x="675" d="M203 690q0 -31 18 -52.5t39 -21.5q33 0 79.5 21.5t59.5 44.5v176q-100 -36 -148 -72t-48 -96zM573 610q33 0 48 35q3 11 14 8l27 -10q7 0 4 -12q-8 -33 -46.5 -61.5t-91.5 -28.5q-43 0 -75.5 23t-46.5 61h-3q-89 -74 -151 -80q-32 -4 -76 -4q-39 0 -80 41q-39 39 -39 86 q0 108 162 176q37 17 180 69v76q0 42 -28 84q-27 27 -84 27q-21 0 -49 -10t-41 -23q-15 -15 -15 -29q0 -7 3 -18.5t3 -18.5q0 -25 -22 -41t-64 -16q-26 0 -41.5 16t-15.5 41q0 65 107 119q90 45 186 45q60 0 90.5 -10t56.5 -31q27 -23 36 -59.5t9 -93.5v-211q0 -150 43 -150 z" />
<glyph unicode="&#xab;" horiz-adv-x="843" d="M719 774q2 0 8 -6l29 -29q6 -6 6 -10q0 -6 -8 -14l-187 -281l189 -282q6 -9 6 -15q0 -4 -6 -10l-31 -29l-6 -4q-3 0 -14 8l-320 320q-8 8 -8 12q0 5 10 15l320 317q8 8 12 8zM393 774q4 0 10 -6l29 -29q6 -6 6 -10q0 -6 -8 -14l-186 -281l188 -282q6 -9 6 -15 q0 -4 -6 -10l-31 -29l-8 -4q-3 0 -14 8l-318 320q-8 8 -8 12q0 5 10 15l318 317q8 8 12 8z" />
<glyph unicode="&#xac;" d="M115 711h794v-461h-123v346h-671v115z" />
<glyph unicode="&#xad;" horiz-adv-x="827" d="M125 602h573q13 0 18 -4.5t5 -17.5v-78q0 -15 -25 -15h-571q-19 -3 -19 11v90q0 14 19 14z" />
<glyph unicode="&#xae;" horiz-adv-x="1159" d="M553 1020q67 0 101 38.5t34 84.5q0 23 -12 46t-29 34q-46 30 -106 30q-33 0 -41 -2v-229q6 -2 53 -2zM360 1255h-12q-6 0 -6 7v24q0 6 6 6l101 -4l139 4q103 3 160 -47q40 -34 40 -88q0 -63 -40 -102.5t-101 -50.5v-5q18 -3 33 -24q64 -89 68 -98q11 -19 34 -47t35 -35 q21 -15 62 -15q8 0 8 -6v-22q0 -7 -8 -7l-64 3l-84 -3q-24 24 -35 43q-33 42 -57 89q-37 61 -53 77q-19 31 -54 31h-32v-39q0 -127 2 -135q3 -31 26 -31h33q6 0 6 -6v-22q0 -7 -6 -7l-110 3l-103 -3q-10 0 -10 9v18q0 8 6 8h18q24 0 34 9t10 34v396q0 36 -46 36zM979 1010 q0 101 -37 181.5t-96.5 127.5t-127.5 71.5t-138 24.5q-169 0 -284.5 -112.5t-115.5 -292.5q0 -105 36 -185.5t95.5 -126.5t127.5 -68.5t141 -23.5q100 -1 179 34.5t125.5 94.5t70.5 129t24 146zM1067 1010q0 -203 -135 -336t-357 -133q-218 0 -350.5 134t-132.5 335 t140.5 336t347.5 135q216 0 351.5 -131.5t135.5 -339.5z" />
<glyph unicode="&#xaf;" horiz-adv-x="608" d="M78 1143h450q19 0 19 -15v-65q0 -14 -23 -14h-446q-17 0 -17 14v65q0 15 17 15z" />
<glyph unicode="&#xb0;" horiz-adv-x="614" d="M170 1274q0 -61 41 -104.5t96 -43.5q56 0 97.5 43.5t41.5 104.5q0 60 -41 100.5t-98 40.5q-55 0 -96 -40.5t-41 -100.5zM537 1274q0 -89 -64.5 -150t-165.5 -61q-105 0 -166 58t-61 153q0 87 64 147t163 60q107 0 168.5 -56.5t61.5 -150.5z" />
<glyph unicode="&#xb1;" d="M909 133v-115h-794v115h794zM453 301v291h-338v115h338v280h122v-280h334v-115h-334v-291h-122z" />
<glyph unicode="&#xb2;" horiz-adv-x="686" d="M416 823h-289q-35 0 -75.5 -2t-41.5 -2q-8 0 -10.5 13.5t4.5 19.5q178 145 281 260q149 161 149 295q0 71 -39.5 111.5t-93.5 40.5q-61 0 -103 -26t-79 -73q-10 -17 -23 -10l-26 14q-7 3 -4 15q24 62 94 123t186 61q98 0 163.5 -57t65.5 -158q0 -74 -38 -148.5 t-123 -164.5q-113 -121 -217 -201v-4h227q52 0 84.5 19.5t60.5 60.5q10 10 17 10q1 0 3 -0.5t6.5 -1.5t8.5 -2q25 -8 17 -27l-84 -182q-3 -12 -27 -12q-19 0 -29 12q-6 10 -18.5 13t-46.5 3z" />
<glyph unicode="&#xb3;" horiz-adv-x="686" d="M100 977q16 0 28.5 -9.5t18 -20t10.5 -23.5t7 -15q35 -41 110 -41q76 0 128.5 50t52.5 112q0 78 -49 135t-123 68q-29 5 -29 29q3 19 22 22q59 5 105.5 52t46.5 112q0 48 -35.5 85.5t-85.5 37.5q-57 0 -99.5 -31.5t-62.5 -87.5q-6 -17 -20 -14l-27 6q-11 3 -8 20 q19 88 82 143.5t176 55.5q96 0 149.5 -49.5t53.5 -112.5q0 -132 -145 -215q74 -16 131 -76q59 -59 59 -135q0 -118 -96 -196q-95 -74 -238 -74q-107 0 -161 28.5t-54 67.5q0 35 14.5 55.5t38.5 20.5z" />
<glyph unicode="&#xb4;" horiz-adv-x="675" d="M266 1028l197 244q42 51 86 51q26 0 45.5 -20t19.5 -46q0 -39 -43 -69l-268 -193q-6 -6 -12 0l-25 21q-6 6 0 12z" />
<glyph unicode="&#xb5;" horiz-adv-x="1064" d="M715 766l-4 51q-3 37 22 37h103q38 0 38 -27q0 -3 -2 -40t-4 -98t-2 -122v-151q0 -213 2 -242q3 -94 56 -94q45 0 69 24q14 14 23 -4l12 -22q2 -2 2 -6q0 -10 -12 -19q-78 -78 -170 -78q-97 0 -127 154h-4q-42 -66 -121 -110t-152 -44q-93 0 -149 84h-4q0 -228 18 -510 l4 -59q0 -10 -4 -14t-16 -6l-109 -27q-18 0 -18 12l-2 1118q0 79 -4 197l-2 45q-3 39 26 39h105q28 0 28 -39q0 -3 -1 -33t-2 -82.5t-1 -109.5v-127v-68q0 -163 27 -221q49 -104 162 -104q52 0 107.5 32t88.5 78q21 29 21 53v441q0 53 -4 92z" />
<glyph unicode="&#xb6;" horiz-adv-x="1177" d="M719 -276h-51q-15 0 -15 32v727q-216 15 -385 111t-166 364q1 117 35 202t95.5 141t161 89t218.5 46.5t281 13.5h194q23 0 23 -14v-35q0 -10 -5.5 -13.5t-19.5 -3.5h-120v-1644q0 -10 -3.5 -13t-11.5 -3h-51q-10 0 -12 4.5t-2 25.5v1626q-80 0 -152 -10v-1618 q0 -28 -14 -28z" />
<glyph unicode="&#xb7;" horiz-adv-x="520" d="M139 729q0 44 32.5 79.5t94.5 35.5q48 0 81.5 -34.5t33.5 -88.5q0 -49 -32.5 -81t-82.5 -32t-88.5 31.5t-38.5 89.5z" />
<glyph unicode="&#xb8;" horiz-adv-x="667" d="M408 0l-119 -139q51 -14 89 -55t38 -85q0 -58 -50 -106.5t-121.5 -73t-142.5 -24.5q-41 0 -41 41q0 28 66 28q62 0 114 32t52 83q0 80 -135 104l159 195h91z" />
<glyph unicode="&#xb9;" horiz-adv-x="686" d="M428 1284v-323q0 -48 15 -60t79 -12h47q13 0 13 -12v-50q0 -10 -15 -10q-3 0 -32.5 1.5t-79 3t-101.5 1.5q-54 0 -104.5 -1.5t-80 -3t-30.5 -1.5q-14 0 -14 10v54q0 8 18 8h60q65 0 79.5 10.5t14.5 56.5l2 250v62l-4 172q0 49 -31 49q-19 0 -53 -12l-80 -33 q-16 -10 -20 -2l-23 41q-3 6 8 12l283 154q25 14 37 14q16 0 16 -18v-43q0 -41 -2 -147.5t-2 -170.5z" />
<glyph unicode="&#xba;" horiz-adv-x="757" d="M561 827q0 126 -52.5 201.5t-127.5 75.5q-67 0 -113 -37q-36 -28 -57 -75t-21 -93q0 -148 50 -219q27 -39 64 -58.5t71 -19.5q89 0 137.5 62t48.5 163zM119 641q-76 79 -76 215q0 61 26.5 124t77.5 105q56 46 112 63t126 17q151 0 236 -78q94 -85 94 -225 q0 -144 -99 -233q-98 -88 -251 -88q-67 0 -133 26.5t-113 73.5z" />
<glyph unicode="&#xbb;" horiz-adv-x="843" d="M451 94q-5 0 -11 6l-28 27q-6 6 -6 10q0 7 8 15l186 282l-188 281q-6 9 -6 14q0 4 6 10l30 31l9 4q4 0 14 -10l317 -318q9 -9 9 -12t-11 -14l-317 -318q-8 -8 -12 -8zM125 94q-4 0 -10 6l-27 27q-6 6 -6 10q0 7 8 15l186 282l-188 281q-6 9 -6 14q0 4 6 10l29 31l8 4 q4 0 14 -10l320 -318q8 -8 8 -12t-10 -14l-320 -318q-8 -8 -12 -8z" />
<glyph unicode="&#xbc;" horiz-adv-x="1519" d="M1171 625q-3 0 -14 -11l-231 -270q-11 -11 -11 -20q0 -13 19 -13h252v291q0 23 -15 23zM1186 20v195h-395q-8 0 -13.5 6.5t-5.5 16.5q0 16 14 30l457 547l2 3l4.5 4.5t6 5.5t7.5 6t8.5 4.5t8.5 1.5q31 0 31 -47v-482h133q14 0 14 -18v-62q0 -10 -4 -13t-16 -3h-127v-192 q0 -13 -4.5 -18t-16.5 -5h-88q-10 0 -13 4t-3 16zM383 -31q-6 0 -37 17q-29 16 -29 24q0 7 11 25l831 1347q10 17 17 17q6 0 32 -13q35 -18 35 -28q0 -6 -8 -19l-832 -1343q-13 -27 -20 -27zM483 625h47q13 0 13 -13v-49q0 -10 -15 -10q-3 0 -32.5 1.5t-79 3t-101.5 1.5 q-54 0 -104.5 -1.5t-80 -3t-30.5 -1.5q-14 0 -14 10v53q0 9 18 9h60q65 0 79.5 10.5t14.5 56.5l2 250v62l-4 172q0 49 -31 49q-16 0 -53 -13l-80 -32q-16 -10 -20 -2l-23 41q-3 6 8 12l283 153q27 15 37 15q16 0 16 -19v-43q0 -41 -2 -147t-2 -170v-324q0 -48 15 -59.5 t79 -11.5z" />
<glyph unicode="&#xbd;" horiz-adv-x="1519" d="M827 -4q-14 0 -14 12t8 17l37 32q171 151 244 232q149 161 149 295q0 71 -39.5 111t-93.5 40q-61 0 -103 -25.5t-79 -72.5q-10 -17 -23 -10l-26 14q-7 3 -4 14q24 62 94 123q71 62 186 62q98 0 164 -57.5t66 -157.5q0 -74 -38.5 -149t-123.5 -165q-110 -118 -217 -200v-5 h227q52 0 84.5 19.5t60.5 60.5q11 11 17 11q1 0 3 -0.5t6.5 -1.5t8.5 -2q25 -8 17 -27l-84 -182q-3 -13 -27 -13q-19 0 -29 13q-6 10 -18.5 13t-46.5 3h-289q-35 0 -75.5 -2t-41.5 -2zM338 -31q-6 0 -37 17q-29 16 -29 24q0 7 11 25l831 1347q10 17 16 17q7 0 33 -13 q35 -18 35 -28q0 -6 -8 -19l-832 -1343q-14 -27 -20 -27zM469 625h47q12 0 12 -13v-49q0 -10 -14 -10q-3 0 -32.5 1.5t-79 3t-101.5 1.5q-54 0 -104.5 -1.5t-80 -3t-30.5 -1.5q-14 0 -14 10v53q0 9 18 9h60q65 0 79.5 10.5t14.5 56.5l2 250v62l-4 172q0 49 -31 49 q-16 0 -53 -13l-80 -32q-17 -10 -21 -2l-22 41q-3 6 8 12l283 153q27 15 36 15q17 0 17 -19v-43q0 -41 -2 -147t-2 -170v-324q0 -48 15 -59.5t79 -11.5z" />
<glyph unicode="&#xbe;" horiz-adv-x="1519" d="M1151 625q-3 0 -14 -11l-232 -270q-10 -10 -10 -20q0 -13 18 -13h252v291q0 23 -14 23zM1165 20v195h-395q-18 0 -18 23q0 16 14 30l457 547l2 3l4.5 4.5t6 5.5t7.5 6t8.5 4.5t8.5 1.5q30 0 30 -47v-482h133q15 0 15 -18v-62q0 -10 -4 -13t-17 -3h-127v-192 q0 -14 -4 -18.5t-16 -4.5h-88q-10 0 -13.5 4t-3.5 16zM379 -31q-6 0 -37 17q-29 16 -29 24q0 7 11 25l831 1347q10 17 16 17q7 0 33 -13q35 -18 35 -28q0 -6 -8 -19l-832 -1343q-13 -27 -20 -27zM106 713q16 0 28.5 -9.5t18 -20t10.5 -23.5t7 -15q35 -41 111 -41 q75 0 127.5 50t52.5 112q0 78 -49 135t-123 68q-17 3 -23 9.5t-6 18.5q3 20 23 23q59 5 105 52t46 112q0 48 -35.5 85.5t-85.5 37.5q-56 0 -98.5 -31.5t-62.5 -87.5q-6 -17 -21 -14l-27 6q-11 3 -8 20q19 88 82 143.5t176 55.5q96 0 149.5 -49.5t53.5 -112.5 q0 -132 -145 -215q74 -16 131 -76q59 -59 59 -135q0 -119 -96 -197q-94 -73 -238 -73q-107 0 -161 28.5t-54 67.5q0 35 14.5 55.5t38.5 20.5z" />
<glyph unicode="&#xbf;" horiz-adv-x="757" d="M59 -23q0 117 62 173q65 56 129 65q76 11 184 16q17 0 17 17v219q0 14 14 14h39q14 0 14 -14v-387q0 -27 -22 -19q-45 7 -136 7q-75 0 -143 -39q-72 -38 -72 -123q0 -96 111 -185q74 -59 122 -78.5t116 -19.5q61 0 103 -29t42 -71q0 -29 -24.5 -54.5t-73.5 -25.5 q-82 0 -201 84q-121 87 -199 207q-82 125 -82 243zM367 766q0 50 30.5 81.5t83.5 31.5q43 0 78 -34t35 -77q0 -44 -33.5 -76.5t-83.5 -32.5q-45 0 -77.5 31.5t-32.5 75.5z" />
<glyph unicode="&#xc0;" horiz-adv-x="1521" d="M733 1247q-10 29 -16 29q-11 0 -23 -31l-125 -334q-80 -214 -94 -268h453q-67 208 -101 311q-84 264 -94 293zM305 164q-6 -43 -6 -45q0 -45 70 -45h96q20 0 20 -15v-47q0 -18 -16 -18q-31 0 -45 2q-114 4 -188 4q-61 0 -112.5 -1.5t-79.5 -3t-32 -1.5q-14 0 -14 16v49 q0 15 16 15h72q43 0 69 21t50 73q10 23 25 61t39.5 101t43.5 112q43 110 115 306l70 188q31 83 65 173t47.5 127.5t16.5 47.5q10 33 10 43q0 19 -8 27q-15 18 -15 26q0 13 19 19q42 9 96 43q56 35 74 59q19 19 26 19q11 0 23 -35q5 -23 113 -344q17 -52 47 -139t48 -141 t30 -95q71 -226 110 -338q72 -203 98 -262q47 -92 140 -92h67q17 0 17 -15v-51q0 -14 -21 -14q-31 0 -41 2q-98 4 -205 4q-164 0 -227 -4q-8 0 -28.5 -1t-32.5 -1q-17 0 -17 18v47q0 15 19 15h51q35 0 50 10t15 35q0 17 -4 33q-9 50 -55 188q-48 153 -74 229h-503 q-42 -108 -84 -227q-56 -160 -60 -178zM797 1575l-342 168q-60 28 -60 82q0 29 21.5 50t52.5 21q32 0 84 -41l285 -233q9 -9 0 -18l-25 -29q-6 -6 -16 0z" />
<glyph unicode="&#xc1;" horiz-adv-x="1521" d="M733 1247q-10 29 -16 29q-11 0 -23 -31l-125 -334q-80 -214 -94 -268h453q-67 208 -101 311q-84 264 -94 293zM305 164q-6 -43 -6 -45q0 -45 70 -45h96q20 0 20 -15v-47q0 -18 -16 -18q-31 0 -45 2q-114 4 -188 4q-61 0 -112.5 -1.5t-79.5 -3t-32 -1.5q-14 0 -14 16v49 q0 15 16 15h72q43 0 69 21t50 73q10 23 25 61t39.5 101t43.5 112q43 110 115 306l70 188q31 83 65 173t47.5 127.5t16.5 47.5q10 33 10 43q0 19 -8 27q-15 18 -15 26q0 13 19 19q42 9 96 43q56 35 74 59q19 19 26 19q11 0 23 -35q5 -23 113 -344q17 -52 47 -139t48 -141 t30 -95q71 -226 110 -338q72 -203 98 -262q47 -92 140 -92h67q17 0 17 -15v-51q0 -14 -21 -14q-31 0 -41 2q-98 4 -205 4q-164 0 -227 -4q-8 0 -28.5 -1t-32.5 -1q-17 0 -17 18v47q0 15 19 15h51q35 0 50 10t15 35q0 17 -4 33q-9 50 -55 188q-48 153 -74 229h-503 q-42 -108 -84 -227q-56 -160 -60 -178zM657 1624l281 231q49 41 84 41q31 0 52.5 -21t21.5 -50q0 -54 -60 -82l-344 -168q-8 -6 -14 0l-25 33q-4 13 4 16z" />
<glyph unicode="&#xc2;" horiz-adv-x="1521" d="M733 1247q-10 29 -16 29q-11 0 -23 -31l-125 -334q-80 -214 -94 -268h453q-67 208 -101 311q-84 264 -94 293zM305 164q-6 -43 -6 -45q0 -45 70 -45h96q20 0 20 -15v-47q0 -18 -16 -18q-31 0 -45 2q-114 4 -188 4q-61 0 -112.5 -1.5t-79.5 -3t-32 -1.5q-14 0 -14 16v49 q0 15 16 15h72q43 0 69 21t50 73q10 23 25 61t39.5 101t43.5 112q43 110 115 306l70 188q31 83 65 173t47.5 127.5t16.5 47.5q10 33 10 43q0 19 -8 27q-15 18 -15 26q0 13 19 19q42 9 96 43q56 35 74 59q19 19 26 19q11 0 23 -35q5 -23 113 -344q17 -52 47 -139t48 -141 t30 -95q71 -226 110 -338q72 -203 98 -262q47 -92 140 -92h67q17 0 17 -15v-51q0 -14 -21 -14q-31 0 -41 2q-98 4 -205 4q-164 0 -227 -4q-8 0 -28.5 -1t-32.5 -1q-17 0 -17 18v47q0 15 19 15h51q35 0 50 10t15 35q0 17 -4 33q-9 50 -55 188q-48 153 -74 229h-503 q-42 -108 -84 -227q-56 -160 -60 -178zM774 1694l-244 -117q-14 -6 -20 0l-16 20q-3 10 6 19l252 227q3 1 13 10t13 9q10 0 29 -19l260 -229q8 -8 2 -17l-14 -18q-6 -9 -19 -2z" />
<glyph unicode="&#xc3;" horiz-adv-x="1521" d="M733 1247q-10 29 -16 29q-11 0 -23 -31l-125 -334q-80 -214 -94 -268h453q-67 208 -101 311q-84 264 -94 293zM305 164q-6 -43 -6 -45q0 -45 70 -45h96q20 0 20 -15v-47q0 -18 -16 -18q-31 0 -45 2q-114 4 -188 4q-61 0 -112.5 -1.5t-79.5 -3t-32 -1.5q-14 0 -14 16v49 q0 15 16 15h72q43 0 69 21t50 73q10 23 25 61t39.5 101t43.5 112q43 110 115 306l70 188q31 83 65 173t47.5 127.5t16.5 47.5q10 33 10 43q0 19 -8 27q-15 18 -15 26q0 13 19 19q42 9 96 43q56 35 74 59q19 19 26 19q11 0 23 -35q5 -23 113 -344q17 -52 47 -139t48 -141 t30 -95q71 -226 110 -338q72 -203 98 -262q47 -92 140 -92h67q17 0 17 -15v-51q0 -14 -21 -14q-31 0 -41 2q-98 4 -205 4q-164 0 -227 -4q-8 0 -28.5 -1t-32.5 -1q-17 0 -17 18v47q0 15 19 15h51q35 0 50 10t15 35q0 17 -4 33q-9 50 -55 188q-48 153 -74 229h-503 q-42 -108 -84 -227q-56 -160 -60 -178zM483 1616q0 14 2 20q13 79 58.5 126.5t107.5 47.5q46 0 119 -20l45 -12q95 -27 139 -27q51 0 68 70q3 12 14 12h35q8 0 8 -14q0 -17 -2 -23q-14 -71 -55 -115.5t-102 -44.5q-50 0 -123 23l-47 14q-68 21 -127 21q-26 0 -49.5 -23 t-30.5 -59q-3 -10 -15 -10h-36q-9 0 -9 14z" />
<glyph unicode="&#xc4;" horiz-adv-x="1521" d="M733 1247q-10 29 -16 29q-11 0 -23 -31l-125 -334q-80 -214 -94 -268h453q-67 208 -101 311q-84 264 -94 293zM305 164q-6 -43 -6 -45q0 -45 70 -45h96q20 0 20 -15v-47q0 -18 -16 -18q-31 0 -45 2q-114 4 -188 4q-61 0 -112.5 -1.5t-79.5 -3t-32 -1.5q-14 0 -14 16v49 q0 15 16 15h72q43 0 69 21t50 73q10 23 25 61t39.5 101t43.5 112q43 110 115 306l70 188q31 83 65 173t47.5 127.5t16.5 47.5q10 33 10 43q0 19 -8 27q-15 18 -15 26q0 13 19 19q42 9 96 43q56 35 74 59q19 19 26 19q11 0 23 -35q5 -23 113 -344q17 -52 47 -139t48 -141 t30 -95q71 -226 110 -338q72 -203 98 -262q47 -92 140 -92h67q17 0 17 -15v-51q0 -14 -21 -14q-31 0 -41 2q-98 4 -205 4q-164 0 -227 -4q-8 0 -28.5 -1t-32.5 -1q-17 0 -17 18v47q0 15 19 15h51q35 0 50 10t15 35q0 17 -4 33q-9 50 -55 188q-48 153 -74 229h-503 q-42 -108 -84 -227q-56 -160 -60 -178zM1075 1704q0 -41 -26.5 -66.5t-65.5 -25.5q-42 0 -74 25t-32 75q0 34 27.5 62t78.5 28q38 0 65 -27.5t27 -70.5zM666 1704q0 -40 -26.5 -66t-64.5 -26q-42 0 -74 25t-32 75q0 34 27.5 62t78.5 28q38 0 64.5 -27.5t26.5 -70.5z" />
<glyph unicode="&#xc5;" horiz-adv-x="1521" d="M733 1247q-10 29 -16 29q-11 0 -23 -31l-125 -334q-80 -214 -94 -268h453q-67 208 -101 311q-84 264 -94 293zM305 164q-6 -43 -6 -45q0 -45 70 -45h96q20 0 20 -15v-47q0 -18 -16 -18q-31 0 -45 2q-114 4 -188 4q-61 0 -112.5 -1.5t-79.5 -3t-32 -1.5q-14 0 -14 16v49 q0 15 16 15h72q43 0 69 21t50 73q10 23 25 61t39.5 101t43.5 112q43 110 115 306l70 188q31 83 65 173t47.5 127.5t16.5 47.5q10 33 10 43q0 19 -8 27q-15 18 -15 26q0 14 19 17q105 15 153 30q9 3 24 9t25.5 10t16.5 4q3 0 5.5 -1t4.5 -4t4 -5.5t3.5 -7.5t3 -8t3.5 -9.5 t3 -9.5l57 -170q143 -425 154 -469q40 -138 110 -338q72 -203 98 -262q47 -92 140 -92h67q17 0 17 -15v-51q0 -14 -21 -14q-31 0 -41 2q-98 4 -205 4q-164 0 -227 -4q-8 0 -28.5 -1t-32.5 -1q-17 0 -17 18v47q0 15 19 15h51q35 0 50 10t15 35q0 17 -4 33q-9 50 -55 188 q-48 153 -74 229h-503q-42 -108 -84 -227q-56 -160 -60 -178zM862 1702q0 43 -27 71.5t-65 28.5q-45 -1 -72.5 -31t-27.5 -69q0 -48 25 -76.5t71 -28.5q44 0 70 28t26 77zM563 1692q0 68 62 114.5t149 46.5q92 0 143.5 -39t51.5 -102q0 -82 -62.5 -124t-150.5 -42 q-81 0 -137 40.5t-56 105.5z" />
<glyph unicode="&#xc6;" horiz-adv-x="1892" d="M825 725v557q0 33 -18 33q-17 0 -33 -25l-313 -565h364zM1276 737q45 6 63 23.5t27 64.5l18 101q0 10 4 13t15 1l45 -4q9 0 13 -3.5t3 -10.5q-6 -35 -6 -232q0 -90 12 -213v-4q0 -12 -16 -12l-41 -6h-6q-7 0 -10 12l-27 100q-18 72 -84 78q-99 6 -282 6v-59l2 -250 q0 -15 1 -48.5t1 -51.5q0 -82 22 -116t78 -46q50 -12 170 -12q17 0 158 6q120 8 166 71l159 215q12 21 31 9l25 -15q14 -10 12 -20l-113 -309q-12 -31 -33 -31l-161 4h-160q-22 0 -100.5 1t-153 1.5t-205.5 -0.5l-166 -2l-86 -4q-20 0 -20 18v43q0 19 18 19h117q37 0 48 17 t11 73v487h-407l-131 -256q-70 -134 -92 -186q-23 -57 -23 -88q0 -22 17.5 -34.5t39.5 -12.5h99q20 0 20 -17v-37q0 -17 -3 -21.5t-15 -4.5q-3 0 -31 1.5t-81 3t-118 1.5q-51 0 -101.5 -1.5t-82.5 -3t-39 -1.5q-14 0 -14 26v35q0 19 14 19h70q25 0 48.5 21t61.5 73 q10 13 41.5 70.5t104 191t143.5 260.5l31 55q28 51 155 273q131 223 152 264q14 32 14 57q0 39 -43 39h-37q-18 0 -18 19v43q0 11 5 14.5t18 3.5q6 0 17.5 -0.5t33 -1.5t39.5 -2q126 -4 176 -4h139l510 2q18 0 50.5 3t33.5 3q13 0 16 -10l80 -258l23 -74q9 -15 -6 -18 l-25 -15q-9 -7 -20 4l-195 232q-23 28 -62.5 43.5t-74.5 15.5l-354 6v-659l149 6q108 3 123 6z" />
<glyph unicode="&#xc7;" horiz-adv-x="1527" d="M317 158q-103 97 -163 258q-56 157 -56 315q0 153 52.5 293t156.5 250q88 94 223 150.5t289 56.5q220 0 414 -113q18 -12 29 -12q9 0 12 12l16 59q3 13 27 13q13 0 17.5 -6.5t4.5 -26.5q0 -42 19 -172l33 -225q3 -18 -9 -21l-30 -8l-6 -2q-9 0 -15 20q-63 155 -160 252 q-152 155 -356 158q-102 1 -187.5 -33.5t-145 -94.5t-101 -140.5t-60.5 -171t-18 -185.5q3 -132 45 -264q48 -150 152 -262q89 -102 184 -139q85 -33 209 -33q156 0 290 72.5t216 187.5q8 14 16 6l27 -20q10 -10 4 -19q-110 -160 -264 -252t-344 -92l-86 -108 q58 -18 97.5 -57.5t39.5 -82.5q0 -58 -52.5 -106.5t-126 -73t-145.5 -24.5q-41 0 -41 41q0 28 66 28q62 0 112 32t50 83q0 78 -131 104l131 168q-136 12 -240 57.5t-195 127.5z" />
<glyph unicode="&#xc8;" horiz-adv-x="1413" d="M748 797q44 7 62 25t32 65q13 39 16 100q0 14 14 14l52 -2q16 0 12 -16q-6 -34 -6 -233q0 -84 12 -213q0 -14 -12 -17l-45 -6h-4q-10 0 -13 18q-3 28 -22 97q-21 72 -88 80q-105 10 -271 10v-127l2 -250q0 -15 1.5 -48.5t1.5 -51.5q3 -139 116 -160q66 -14 152 -14 q116 0 180 6q43 5 94.5 24t83.5 47q18 15 82 97t86 118q13 19 25 13l32 -19q9 -6 9 -12l-4 -16l-109 -301q-12 -31 -45 -31l-178 4l-641 2l-174 -2l-88 -4q-19 0 -19 14v55q0 11 21 11h82q70 0 86 15t16 75v686q0 180 -2 264q-1 31 -1 73t-0.5 67.5t-2.5 41.5 q-4 49 -25.5 64.5t-79.5 15.5h-73q-17 0 -17 15v55q0 10 15 10q45 0 61 -2q118 -4 191 -4h90l608 2q26 0 53.5 2t28.5 2q13 0 16 -10l105 -330q3 -15 -6 -18l-31 -17q-13 -5 -17 6q-4 10 -90 113q-77 95 -114 121q-76 52 -156 55l-365 8v-600l144 7q102 3 117 6zM803 1575 l-342 168q-60 28 -60 82q0 29 21.5 50t52.5 21q32 0 84 -41l285 -233q9 -9 0 -18l-25 -29q-6 -6 -16 0z" />
<glyph unicode="&#xc9;" horiz-adv-x="1413" d="M748 797q44 7 62 25t32 65q13 39 16 100q0 14 14 14l52 -2q16 0 12 -16q-6 -34 -6 -233q0 -84 12 -213q0 -14 -12 -17l-45 -6h-4q-10 0 -13 18q-3 28 -22 97q-21 72 -88 80q-105 10 -271 10v-127l2 -250q0 -15 1.5 -48.5t1.5 -51.5q3 -139 116 -160q66 -14 152 -14 q116 0 180 6q43 5 94.5 24t83.5 47q18 15 82 97t86 118q13 19 25 13l32 -19q9 -6 9 -12l-4 -16l-109 -301q-12 -31 -45 -31l-178 4l-641 2l-174 -2l-88 -4q-19 0 -19 14v55q0 11 21 11h82q70 0 86 15t16 75v686q0 180 -2 264q-1 31 -1 73t-0.5 67.5t-2.5 41.5 q-4 49 -25.5 64.5t-79.5 15.5h-73q-17 0 -17 15v55q0 10 15 10q45 0 61 -2q118 -4 191 -4h90l608 2q26 0 53.5 2t28.5 2q13 0 16 -10l105 -330q3 -15 -6 -18l-31 -17q-13 -5 -17 6q-4 10 -90 113q-77 95 -114 121q-76 52 -156 55l-365 8v-600l144 7q102 3 117 6zM594 1624 l280 231q49 41 84 41q31 0 52.5 -21t21.5 -50q0 -55 -59 -82l-344 -168q-9 -6 -15 0l-24 33q-4 13 4 16z" />
<glyph unicode="&#xca;" horiz-adv-x="1413" d="M748 797q44 7 62 25t32 65q13 39 16 100q0 14 14 14l52 -2q16 0 12 -16q-6 -34 -6 -233q0 -84 12 -213q0 -14 -12 -17l-45 -6h-4q-10 0 -13 18q-3 28 -22 97q-21 72 -88 80q-105 10 -271 10v-127l2 -250q0 -15 1.5 -48.5t1.5 -51.5q3 -139 116 -160q66 -14 152 -14 q116 0 180 6q43 5 94.5 24t83.5 47q18 15 82 97t86 118q13 19 25 13l32 -19q9 -6 9 -12l-4 -16l-109 -301q-12 -31 -45 -31l-178 4l-641 2l-174 -2l-88 -4q-19 0 -19 14v55q0 11 21 11h82q70 0 86 15t16 75v686q0 180 -2 264q-1 31 -1 73t-0.5 67.5t-2.5 41.5 q-4 49 -25.5 64.5t-79.5 15.5h-73q-17 0 -17 15v55q0 10 15 10q45 0 61 -2q118 -4 191 -4h90l608 2q26 0 53.5 2t28.5 2q13 0 16 -10l105 -330q3 -15 -6 -18l-31 -17q-13 -5 -17 6q-4 10 -90 113q-77 95 -114 121q-76 52 -156 55l-365 8v-600l144 7q102 3 117 6zM731 1694 l-244 -117q-14 -6 -20 0l-16 20q-3 10 6 19l252 227q3 1 13 10t13 9q10 0 29 -19l260 -229q8 -8 2 -17l-14 -18q-6 -9 -19 -2z" />
<glyph unicode="&#xcb;" horiz-adv-x="1413" d="M748 797q44 7 62 25t32 65q13 39 16 100q0 14 14 14l52 -2q16 0 12 -16q-6 -34 -6 -233q0 -84 12 -213q0 -14 -12 -17l-45 -6h-4q-10 0 -13 18q-3 28 -22 97q-21 72 -88 80q-105 10 -271 10v-127l2 -250q0 -15 1.5 -48.5t1.5 -51.5q3 -139 116 -160q66 -14 152 -14 q116 0 180 6q43 5 94.5 24t83.5 47q18 15 82 97t86 118q13 19 25 13l32 -19q9 -6 9 -12l-4 -16l-109 -301q-12 -31 -45 -31l-178 4l-641 2l-174 -2l-88 -4q-19 0 -19 14v55q0 11 21 11h82q70 0 86 15t16 75v686q0 180 -2 264q-1 31 -1 73t-0.5 67.5t-2.5 41.5 q-4 49 -25.5 64.5t-79.5 15.5h-73q-17 0 -17 15v55q0 10 15 10q45 0 61 -2q118 -4 191 -4h90l608 2q26 0 53.5 2t28.5 2q13 0 16 -10l105 -330q3 -15 -6 -18l-31 -17q-13 -5 -17 6q-4 10 -90 113q-77 95 -114 121q-76 52 -156 55l-365 8v-600l144 7q102 3 117 6zM1030 1704 q0 -41 -26.5 -66.5t-65.5 -25.5q-42 0 -74.5 25t-32.5 75q0 34 28 62t79 28q38 0 65 -27.5t27 -70.5zM621 1704q0 -40 -26.5 -66t-64.5 -26q-42 0 -74 25t-32 75q0 34 27.5 62t78.5 28q38 0 64.5 -27.5t26.5 -70.5z" />
<glyph unicode="&#xcc;" horiz-adv-x="759" d="M279 1307q-3 39 -25 54t-78 15h-119q-16 0 -16 13v55q0 12 14 12q3 0 45.5 -1.5t117.5 -3t157 -1.5q77 0 141 1.5t98 3t37 1.5q15 0 15 -14v-51q0 -15 -17 -15h-96q-72 0 -72 -57l-6 -498v-157l6 -517q0 -43 21 -58t76 -15h84q16 0 16 -15v-53q0 -12 -19 -12 q-2 0 -38.5 1.5t-103 3t-142.5 1.5q-86 0 -158 -1.5t-108.5 -3t-38.5 -1.5q-17 0 -17 12v55q0 13 17 13h114q42 0 64 12.5t28 46.5q4 29 7 234q4 286 4 348v143q0 37 -4 229q-1 36 -1 84.5t-0.5 81t-2.5 54.5zM436 1575l-342 168q-59 27 -59 82q0 29 21.5 50t52.5 21 q32 0 84 -41l284 -233q9 -9 0 -18l-24 -29q-7 -7 -17 0z" />
<glyph unicode="&#xcd;" horiz-adv-x="759" d="M279 1307q-3 39 -25 54t-78 15h-119q-16 0 -16 13v55q0 12 14 12q3 0 45.5 -1.5t117.5 -3t157 -1.5q77 0 141 1.5t98 3t37 1.5q15 0 15 -14v-51q0 -15 -17 -15h-96q-72 0 -72 -57l-6 -498v-157l6 -517q0 -43 21 -58t76 -15h84q16 0 16 -15v-53q0 -12 -19 -12 q-2 0 -38.5 1.5t-103 3t-142.5 1.5q-86 0 -158 -1.5t-108.5 -3t-38.5 -1.5q-17 0 -17 12v55q0 13 17 13h114q42 0 64 12.5t28 46.5q4 29 7 234q4 286 4 348v143q0 37 -4 229q-1 36 -1 84.5t-0.5 81t-2.5 54.5zM287 1624l280 231q49 41 84 41q31 0 52.5 -21t21.5 -50 q0 -55 -59 -82l-344 -168q-9 -6 -15 0l-24 33q-3 9 4 16z" />
<glyph unicode="&#xce;" horiz-adv-x="759" d="M279 1307q-3 39 -25 54t-78 15h-119q-16 0 -16 13v55q0 12 14 12q3 0 45.5 -1.5t117.5 -3t157 -1.5q77 0 141 1.5t98 3t37 1.5q15 0 15 -14v-51q0 -15 -17 -15h-96q-72 0 -72 -57l-6 -498v-157l6 -517q0 -43 21 -58t76 -15h84q16 0 16 -15v-53q0 -12 -19 -12 q-2 0 -38.5 1.5t-103 3t-142.5 1.5q-86 0 -158 -1.5t-108.5 -3t-38.5 -1.5q-17 0 -17 12v55q0 13 17 13h114q42 0 64 12.5t28 46.5q4 29 7 234q4 286 4 348v143q0 37 -4 229q-1 36 -1 84.5t-0.5 81t-2.5 54.5zM373 1694l-244 -117q-14 -6 -20 0l-17 20q-3 10 6 19l252 227 q3 1 13.5 10t13.5 9q10 0 29 -19l260 -229q8 -8 2 -17l-15 -18q-5 -8 -18 -2z" />
<glyph unicode="&#xcf;" horiz-adv-x="759" d="M279 1307q-3 39 -25 54t-78 15h-119q-16 0 -16 13v55q0 12 14 12q3 0 45.5 -1.5t117.5 -3t157 -1.5q77 0 141 1.5t98 3t37 1.5q15 0 15 -14v-51q0 -15 -17 -15h-96q-72 0 -72 -57l-6 -498v-157l6 -517q0 -43 21 -58t76 -15h84q16 0 16 -15v-53q0 -12 -19 -12 q-2 0 -38.5 1.5t-103 3t-142.5 1.5q-86 0 -158 -1.5t-108.5 -3t-38.5 -1.5q-17 0 -17 12v55q0 13 17 13h114q42 0 64 12.5t28 46.5q4 29 7 234q4 286 4 348v143q0 37 -4 229q-1 36 -1 84.5t-0.5 81t-2.5 54.5zM684 1704q0 -41 -26.5 -66.5t-65.5 -25.5q-42 0 -74.5 25 t-32.5 75q0 34 28 62t79 28q38 0 65 -27.5t27 -70.5zM274 1704q0 -40 -26 -66t-64 -26q-42 0 -74 25t-32 75q0 34 27.5 62t78.5 28q38 0 64 -27.5t26 -70.5z" />
<glyph unicode="&#xd0;" horiz-adv-x="1665" d="M481 770h348q12 0 15.5 -3.5t3.5 -14.5v-41q0 -19 -19 -19h-348l4 -452q0 -66 35 -115q45 -66 219 -66q150 0 274.5 59t205.5 163q69 87 109 207.5t40 252.5q0 118 -47 244.5t-121 208.5q-83 92 -217 144.5t-297 52.5q-130 0 -164 -21q-36 -22 -39 -96q-2 -57 -2 -387 v-117zM74 74h139q57 0 68 61q5 37 8 193q4 230 4 309v55h-199q-18 0 -18 19v41q0 11 3 14.5t15 3.5h199v170q0 31 -4 215q-3 143 -6 164q-3 57 -88 57h-117q-12 0 -12 19v45q0 10 3 13t13 3q1 0 35 -1.5t104 -3t160 -1.5q16 0 192 4l113 2q226 5 385 -37.5t281 -146.5 q227 -198 227 -522q0 -169 -48.5 -295.5t-154.5 -243.5q-86 -100 -205 -148q-106 -43 -200.5 -56t-231.5 -13q-20 0 -57 1t-55 1l-265 4q-76 1 -143 -0.5t-105 -3.5l-38 -2q-11 0 -14 3t-3 13v49q0 15 15 15z" />
<glyph unicode="&#xd1;" horiz-adv-x="1628" d="M141 1374l-84 2q-12 0 -12 15v53q0 12 12 12q1 0 19.5 -1t38.5 -1q82 -4 145 -4q45 0 88.5 2t48.5 2q41 0 60 -27l430 -557l92 -112l326 -406h8v244q0 232 -6 385q-4 99 -11 186q-6 111 -14 129q-24 80 -113 80h-65q-12 0 -12 15v53q0 12 12 12q7 0 38.5 -1.5t82.5 -3 t104 -1.5q50 0 95 1.5t72 3t32 1.5q16 0 16 -14v-51q0 -15 -12 -15h-55q-41 0 -58 -25.5t-22 -86.5q-8 -123 -8 -473v-766q0 -50 -11 -50q-26 0 -49 33l-250 316l-147 184l-158 194q-5 4 -180 220q-150 186 -232 290h-12v-454q0 -149 8 -326l13 -239q3 -66 20 -92.5 t55 -26.5h62q10 0 13 -4t3 -15v-45q0 -10 -3 -13t-13 -3t-29 1t-28 1l-142 4l-135 -4l-70 -2q-10 0 -10 14v53q0 13 12 13h70q45 0 65 26t27 99q8 68 8 637v348q0 86 -38 137t-97 53zM557 1616q0 14 2 20q13 79 58.5 126.5t107.5 47.5q46 0 119 -20l45 -12q95 -27 139 -27 q51 0 68 70q3 12 14 12h35q8 0 8 -14q0 -17 -2 -23q-14 -71 -55.5 -115.5t-102.5 -44.5q-47 0 -123 23l-47 14q-67 21 -127 21q-26 0 -49.5 -23t-30.5 -59q-3 -10 -14 -10h-37q-8 0 -8 14z" />
<glyph unicode="&#xd2;" horiz-adv-x="1681" d="M1382 690q2 122 -31.5 234.5t-91 196.5t-129.5 147.5t-148 97.5t-146 37l-43 2q-146 6 -281 -123q-99 -95 -152 -233q-50 -131 -53 -273q-2 -143 35.5 -267t98 -207t135.5 -142.5t147 -86.5t133 -26q206 0 322 113q117 111 161 260q40 134 43 270zM399 102 q-125 76 -213 240.5t-88 368.5q0 277 191 510q117 142 253.5 201t301.5 59q274 0 459 -162q131 -112 205.5 -267t74.5 -345q0 -243 -153 -449q-217 -289 -590 -289q-96 0 -216 34.5t-225 98.5zM918 1575l-343 168q-59 27 -59 82q0 29 21.5 50t52.5 21q32 0 84 -41l284 -233 q9 -9 0 -18l-24 -29q-6 -6 -16 0z" />
<glyph unicode="&#xd3;" horiz-adv-x="1681" d="M1382 690q2 122 -31.5 234.5t-91 196.5t-129.5 147.5t-148 97.5t-146 37l-43 2q-146 6 -281 -123q-99 -95 -152 -233q-50 -131 -53 -273q-2 -143 35.5 -267t98 -207t135.5 -142.5t147 -86.5t133 -26q206 0 322 113q117 111 161 260q40 134 43 270zM399 102 q-125 76 -213 240.5t-88 368.5q0 277 191 510q117 142 253.5 201t301.5 59q274 0 459 -162q131 -112 205.5 -267t74.5 -345q0 -243 -153 -449q-217 -289 -590 -289q-96 0 -216 34.5t-225 98.5zM707 1624l280 231q49 41 84 41q31 0 52.5 -21t21.5 -50q0 -54 -60 -82 l-344 -168q-8 -6 -14 0l-25 33q-4 13 5 16z" />
<glyph unicode="&#xd4;" horiz-adv-x="1681" d="M1382 690q2 122 -31.5 234.5t-91 196.5t-129.5 147.5t-148 97.5t-146 37l-43 2q-146 6 -281 -123q-99 -95 -152 -233q-50 -131 -53 -273q-2 -143 35.5 -267t98 -207t135.5 -142.5t147 -86.5t133 -26q206 0 322 113q117 111 161 260q40 134 43 270zM399 102 q-125 76 -213 240.5t-88 368.5q0 277 191 510q117 142 253.5 201t301.5 59q274 0 459 -162q131 -112 205.5 -267t74.5 -345q0 -243 -153 -449q-217 -289 -590 -289q-96 0 -216 34.5t-225 98.5zM834 1694l-244 -117q-15 -6 -21 0l-16 20q-3 10 6 19l252 227q3 1 13.5 10 t13.5 9q9 0 28 -19l260 -229q8 -8 2 -17l-14 -18q-6 -8 -18 -2z" />
<glyph unicode="&#xd5;" horiz-adv-x="1681" d="M1382 690q2 122 -31.5 234.5t-91 196.5t-129.5 147.5t-148 97.5t-146 37l-43 2q-146 6 -281 -123q-99 -95 -152 -233q-50 -131 -53 -273q-2 -143 35.5 -267t98 -207t135.5 -142.5t147 -86.5t133 -26q206 0 322 113q117 111 161 260q40 134 43 270zM399 102 q-125 76 -213 240.5t-88 368.5q0 277 191 510q117 142 253.5 201t301.5 59q274 0 459 -162q131 -112 205.5 -267t74.5 -345q0 -243 -153 -449q-217 -289 -590 -289q-96 0 -216 34.5t-225 98.5zM543 1616q0 14 2 20q13 79 58.5 126.5t107.5 47.5q45 0 118 -20l45 -12 q95 -27 140 -27q29 0 44 18t23 52q3 12 15 12h34q9 0 9 -14q0 -17 -2 -23q-14 -71 -55.5 -115.5t-102.5 -44.5q-47 0 -123 23l-47 14q-68 21 -127 21q-26 0 -49.5 -23t-30.5 -59q-3 -10 -14 -10h-37q-8 0 -8 14z" />
<glyph unicode="&#xd6;" horiz-adv-x="1681" d="M1382 690q2 122 -31.5 234.5t-91 196.5t-129.5 147.5t-148 97.5t-146 37l-43 2q-146 6 -281 -123q-99 -95 -152 -233q-50 -131 -53 -273q-2 -143 35.5 -267t98 -207t135.5 -142.5t147 -86.5t133 -26q206 0 322 113q117 111 161 260q40 134 43 270zM399 102 q-125 76 -213 240.5t-88 368.5q0 277 191 510q117 142 253.5 201t301.5 59q274 0 459 -162q131 -112 205.5 -267t74.5 -345q0 -243 -153 -449q-217 -289 -590 -289q-96 0 -216 34.5t-225 98.5zM1145 1704q0 -41 -26.5 -66.5t-65.5 -25.5q-42 0 -74.5 25t-32.5 75q0 34 28 62 t79 28q38 0 65 -27.5t27 -70.5zM735 1704q0 -40 -26 -66t-64 -26q-42 0 -74 25t-32 75q0 34 27.5 62t78.5 28q38 0 64 -27.5t26 -70.5z" />
<glyph unicode="&#xd7;" d="M803 121l-297 299l-297 -299l-72 86l293 289l-291 286l82 84l293 -295l293 295l78 -75l-295 -291l297 -293z" />
<glyph unicode="&#xd8;" horiz-adv-x="1681" d="M856 47q206 0 322 113q117 111 161 260q43 145 43 270q0 224 -102 406l-817 -828q82 -104 192 -162.5t201 -58.5zM836 1403q1 2 -19 3t-54 -4.5t-74.5 -17t-88 -39t-86.5 -65.5q-104 -99 -154 -231q-53 -139 -53 -273q0 -243 101 -420l815 826q-84 105 -186.5 163 t-200.5 58zM98 33q0 5 8 18l164 166q-80 95 -126 222.5t-46 271.5q0 277 191 510q117 142 253.5 201t301.5 59q286 0 459 -162l28 -27l178 181q8 8 13 8q2 0 10 -8l51 -41q10 -10 10 -13q0 -4 -6 -10l-186 -190q182 -215 182 -512q0 -243 -153 -449q-217 -289 -590 -289 q-98 0 -217.5 34t-223.5 99q-10 6 -57 43l-162 -163q-13 -13 -16 -13q-6 0 -17 11l-41 38q-8 11 -8 15z" />
<glyph unicode="&#xd9;" horiz-adv-x="1527" d="M481 12q-101 41 -158.5 107t-84.5 168q-33 129 -33 497v488q0 58 -17 81t-61 23h-96q-15 0 -15 19v45q0 10 3.5 13t15.5 3q3 0 41.5 -1.5t104 -3t134.5 -1.5t134.5 1.5t104 3t42.5 1.5q18 0 18 -12v-53q0 -8 -3 -11.5t-13 -3.5h-102q-41 0 -67.5 -23.5t-31.5 -60.5 q-4 -50 -4 -266v-135q0 -69 10 -434q3 -166 66 -260q52 -75 137.5 -111.5t188.5 -36.5q93 0 174 29.5t133 83.5q106 109 106 360v439q0 230 -10 325q-5 41 -29.5 65.5t-62.5 24.5h-90q-15 0 -15 17v49q0 14 15 14q3 0 39.5 -1.5t95.5 -3t117 -1.5q61 0 113.5 1.5t81 3 t30.5 1.5q20 0 20 -14v-45q0 -21 -12 -21h-84q-24 0 -39 -5t-24.5 -18.5t-13.5 -24t-11 -34.5q-4 -28 -4 -340q0 -15 -4 -245q-3 -169 -6 -222q-11 -131 -52 -226.5t-120 -168.5q-138 -123 -385 -123q-176 0 -277 43zM860 1575l-342 168q-59 27 -59 82q0 29 21 50t52 21 q32 0 84 -41l285 -233q9 -9 0 -18l-24 -29q-7 -7 -17 0z" />
<glyph unicode="&#xda;" horiz-adv-x="1527" d="M481 12q-101 41 -158.5 107t-84.5 168q-33 129 -33 497v488q0 58 -17 81t-61 23h-96q-15 0 -15 19v45q0 10 3.5 13t15.5 3q3 0 41.5 -1.5t104 -3t134.5 -1.5t134.5 1.5t104 3t42.5 1.5q18 0 18 -12v-53q0 -8 -3 -11.5t-13 -3.5h-102q-41 0 -67.5 -23.5t-31.5 -60.5 q-4 -50 -4 -266v-135q0 -69 10 -434q3 -166 66 -260q52 -75 137.5 -111.5t188.5 -36.5q93 0 174 29.5t133 83.5q106 109 106 360v439q0 230 -10 325q-5 41 -29.5 65.5t-62.5 24.5h-90q-15 0 -15 17v49q0 14 15 14q3 0 39.5 -1.5t95.5 -3t117 -1.5q61 0 113.5 1.5t81 3 t30.5 1.5q20 0 20 -14v-45q0 -21 -12 -21h-84q-24 0 -39 -5t-24.5 -18.5t-13.5 -24t-11 -34.5q-4 -28 -4 -340q0 -15 -4 -245q-3 -169 -6 -222q-11 -131 -52 -226.5t-120 -168.5q-138 -123 -385 -123q-176 0 -277 43zM733 1624l281 231q49 41 84 41q31 0 52 -21t21 -50 q0 -55 -59 -82l-344 -168q-8 -6 -14 0l-25 33q-4 13 4 16z" />
<glyph unicode="&#xdb;" horiz-adv-x="1527" d="M481 12q-101 41 -158.5 107t-84.5 168q-33 129 -33 497v488q0 58 -17 81t-61 23h-96q-15 0 -15 19v45q0 10 3.5 13t15.5 3q3 0 41.5 -1.5t104 -3t134.5 -1.5t134.5 1.5t104 3t42.5 1.5q18 0 18 -12v-53q0 -8 -3 -11.5t-13 -3.5h-102q-41 0 -67.5 -23.5t-31.5 -60.5 q-4 -50 -4 -266v-135q0 -69 10 -434q3 -166 66 -260q52 -75 137.5 -111.5t188.5 -36.5q93 0 174 29.5t133 83.5q106 109 106 360v439q0 230 -10 325q-5 41 -29.5 65.5t-62.5 24.5h-90q-15 0 -15 17v49q0 14 15 14q3 0 39.5 -1.5t95.5 -3t117 -1.5q61 0 113.5 1.5t81 3 t30.5 1.5q20 0 20 -14v-45q0 -21 -12 -21h-84q-24 0 -39 -5t-24.5 -18.5t-13.5 -24t-11 -34.5q-4 -28 -4 -340q0 -15 -4 -245q-3 -169 -6 -222q-11 -131 -52 -226.5t-120 -168.5q-138 -123 -385 -123q-176 0 -277 43zM799 1694l-244 -117q-14 -6 -20 0l-17 20q-3 10 6 19 l252 227q3 1 13.5 10t13.5 9q9 0 28 -19l261 -229q8 -8 2 -17l-15 -18q-5 -8 -18 -2z" />
<glyph unicode="&#xdc;" horiz-adv-x="1527" d="M481 12q-101 41 -158.5 107t-84.5 168q-33 129 -33 497v488q0 58 -17 81t-61 23h-96q-15 0 -15 19v45q0 10 3.5 13t15.5 3q3 0 41.5 -1.5t104 -3t134.5 -1.5t134.5 1.5t104 3t42.5 1.5q18 0 18 -12v-53q0 -8 -3 -11.5t-13 -3.5h-102q-41 0 -67.5 -23.5t-31.5 -60.5 q-4 -50 -4 -266v-135q0 -69 10 -434q3 -166 66 -260q52 -75 137.5 -111.5t188.5 -36.5q93 0 174 29.5t133 83.5q106 109 106 360v439q0 230 -10 325q-5 41 -29.5 65.5t-62.5 24.5h-90q-15 0 -15 17v49q0 14 15 14q3 0 39.5 -1.5t95.5 -3t117 -1.5q61 0 113.5 1.5t81 3 t30.5 1.5q20 0 20 -14v-45q0 -21 -12 -21h-84q-24 0 -39 -5t-24.5 -18.5t-13.5 -24t-11 -34.5q-4 -28 -4 -340q0 -15 -4 -245q-3 -169 -6 -222q-11 -131 -52 -226.5t-120 -168.5q-138 -123 -385 -123q-176 0 -277 43zM1087 1704q0 -41 -26.5 -66.5t-65.5 -25.5q-42 0 -74 25 t-32 75q0 34 27.5 62t78.5 28q38 0 65 -27.5t27 -70.5zM678 1704q0 -40 -26 -66t-64 -26q-42 0 -74.5 25t-32.5 75q0 34 28 62t79 28q38 0 64 -27.5t26 -70.5z" />
<glyph unicode="&#xdd;" horiz-adv-x="1361" d="M764 145q3 -42 23 -56.5t67 -14.5h80q10 0 12 -3t2 -12v-47q0 -12 -2 -15t-12 -3q-3 0 -39 1.5t-100.5 3t-137.5 1.5q-81 0 -144 -1.5t-94 -3t-32 -1.5q-12 0 -12 16v49q0 15 14 15h100q69 0 72 51q6 85 6 381v119q-36 70 -207 354q-188 313 -219 348q-18 22 -48 35.5 t-58 13.5h-51q-15 0 -15 15v53q0 12 15 12q4 0 39 -1.5t91 -3t109 -1.5q95 0 167 1.5t105 2.5l33 2q15 0 15 -10v-51q0 -19 -15 -19h-67q-37 0 -50.5 -9t-13.5 -32q0 -20 2 -26q2 -13 93 -181l116 -210l111 -203l102 157q31 48 68.5 105.5t60 92.5t48 74.5t39.5 62 t27.5 43.5t19 31.5t6.5 14.5q6 30 6 33q0 47 -74 47h-55q-15 0 -15 19v49q0 12 15 12q3 0 37 -1.5t90 -3t114 -1.5q51 0 93.5 1.5t65.5 3t26 1.5q16 0 16 -12v-49q0 -11 -3 -15t-13 -4h-52q-55 0 -100 -45q-38 -38 -485 -682v-268q0 -142 8 -236zM700 1624l281 231 q49 41 84 41q31 0 52.5 -21t21.5 -50q0 -54 -60 -82l-344 -168q-8 -6 -14 0l-25 33q-4 13 4 16z" />
<glyph unicode="&#xde;" horiz-adv-x="1243" d="M649 432q136 0 228.5 93t93.5 237q1 70 -23.5 128.5t-63.5 95.5t-87.5 63t-93 36.5t-82.5 10.5q-106 0 -160 -13v-630q58 -21 188 -21zM465 139q6 -65 72 -65h127q16 0 16 -15v-49q0 -8 -3.5 -12t-14.5 -4q-3 0 -36.5 1.5t-100 3t-148.5 1.5q-87 0 -153.5 -1.5t-97.5 -3 t-32 -1.5q-16 0 -16 14v51q0 15 12 15h94q48 0 64.5 12t19.5 53q2 19 2.5 50t0.5 84t1 94q4 218 4 350v235q0 325 -4 379q-2 25 -21.5 35t-66.5 10h-106q-15 0 -15 17v49q0 14 13 14l32 -2q32 -1 102.5 -2.5t164.5 -1.5q75 0 141.5 1.5t104.5 3t43 1.5q16 0 16 -16v-41 q0 -13 -4.5 -18t-16.5 -5h-122q-38 0 -53.5 -6t-16.5 -24q-6 -55 -6 -189l131 4q152 5 266 -20q98 -22 180 -80q69 -51 107.5 -127.5t38.5 -161.5q0 -186 -135.5 -295.5t-364.5 -109.5q-131 0 -223 10v-68q0 -92 4 -170z" />
<glyph unicode="&#xdf;" horiz-adv-x="1132" d="M369 117q2 -27 11.5 -38t33.5 -11h65q14 0 18.5 -3.5t4.5 -13.5v-33q0 -24 -15 -24q-2 0 -11 0.5t-26 1.5l-34 2q-41 2 -115 2q-114 0 -186 -4l-47 -2q-17 0 -17 14v45q0 15 21 15h96q29 0 40 16t11 57v586l-121 6q-12 3 -12 17v38q0 15 16 15l117 10v76q0 272 141 428 q71 76 155 120t155 44q94 0 167.5 -64.5t73.5 -163.5q0 -154 -120 -292q-59 -65 -84 -113t-25 -105q0 -51 32.5 -82t123.5 -79l51 -27q104 -56 149 -121.5t45 -175.5q0 -117 -86.5 -200t-222.5 -83q-38 0 -89 19.5t-79 40.5q-12 10 -12 28l-16 130q-3 18 8 22l37 8h4 q9 0 12 -14l25 -57q46 -111 151 -111q60 0 106 40t46 105q0 156 -150 232q-59 30 -88.5 46.5t-66 42.5t-53.5 49.5t-29.5 57.5t-14.5 76q-1 58 25 111t88 135q32 41 39 53q57 86 57 219q0 68 -50.5 119t-121.5 51q-92 0 -158 -69q-46 -50 -61.5 -130.5t-15.5 -213.5v-70 v-322q0 -438 2 -456z" />
<glyph unicode="&#xe0;" horiz-adv-x="874" d="M465 410q-104 -49 -152.5 -98t-48.5 -128q0 -54 29 -83t78 -29q46 0 107 44.5t61 82.5v252q-20 -16 -74 -41zM750 90q23 0 43 9.5t28 21.5q11 15 21 8l20 -16q6 -6 6 -15t-8 -22q-53 -101 -160 -101q-55 0 -93 37t-52 101h-4q-70 -82 -203 -125q-38 -13 -121 -13 q-49 0 -86 44t-37 126q0 81 46.5 140t158.5 108q198 87 232 119v131q0 20 -8.5 60t-20.5 55q-39 45 -123 45q-34 0 -73.5 -12.5t-59.5 -30.5q-16 -16 -16 -37q0 -8 3 -26.5t3 -30.5q0 -59 -25.5 -88t-83.5 -29q-49 0 -49 65q0 49 39 102.5t102 90.5q119 72 250 72 q62 0 99 -14t65 -42t36.5 -59t8.5 -86v-434q0 -154 62 -154zM518 995l-270 193q-41 27 -41 67q0 27 20 47.5t49 20.5q43 0 84 -51l197 -244q3 -8 -2 -10l-25 -23q-6 -6 -12 0z" />
<glyph unicode="&#xe1;" horiz-adv-x="874" d="M465 410q-104 -49 -152.5 -98t-48.5 -128q0 -54 29 -83t78 -29q46 0 107 44.5t61 82.5v252q-20 -16 -74 -41zM750 90q23 0 43 9.5t28 21.5q11 15 21 8l20 -16q6 -6 6 -15t-8 -22q-53 -101 -160 -101q-55 0 -93 37t-52 101h-4q-70 -82 -203 -125q-38 -13 -121 -13 q-49 0 -86 44t-37 126q0 81 46.5 140t158.5 108q198 87 232 119v131q0 20 -8.5 60t-20.5 55q-39 45 -123 45q-34 0 -73.5 -12.5t-59.5 -30.5q-16 -16 -16 -37q0 -8 3 -26.5t3 -30.5q0 -59 -25.5 -88t-83.5 -29q-49 0 -49 65q0 49 39 102.5t102 90.5q119 72 250 72 q62 0 99 -14t65 -42t36.5 -59t8.5 -86v-434q0 -154 62 -154zM326 1028l196 244q42 51 86 51q26 0 46 -20t20 -46q0 -39 -43 -69l-269 -193q-6 -6 -12 0l-24 21q-6 6 0 12z" />
<glyph unicode="&#xe2;" horiz-adv-x="874" d="M465 410q-104 -49 -152.5 -98t-48.5 -128q0 -54 29 -83t78 -29q46 0 107 44.5t61 82.5v252q-20 -16 -74 -41zM750 90q23 0 43 9.5t28 21.5q11 15 21 8l20 -16q6 -6 6 -15t-8 -22q-53 -101 -160 -101q-55 0 -93 37t-52 101h-4q-70 -82 -203 -125q-38 -13 -121 -13 q-49 0 -86 44t-37 126q0 81 46.5 140t158.5 108q198 87 232 119v131q0 20 -8.5 60t-20.5 55q-39 45 -123 45q-34 0 -73.5 -12.5t-59.5 -30.5q-16 -16 -16 -37q0 -8 3 -26.5t3 -30.5q0 -59 -25.5 -88t-83.5 -29q-49 0 -49 65q0 49 39 102.5t102 90.5q119 72 250 72 q62 0 99 -14t65 -42t36.5 -59t8.5 -86v-434q0 -154 62 -154zM422 1157l-207 -156q-11 -9 -18 -2l-19 19q-2 2 -2 6q0 6 8 14l215 269q18 18 25 18q10 0 27 -20l225 -269q10 -10 4 -16l-16 -19q-7 -11 -19 -2z" />
<glyph unicode="&#xe3;" horiz-adv-x="874" d="M465 410q-104 -49 -152.5 -98t-48.5 -128q0 -54 29 -83t78 -29q46 0 107 44.5t61 82.5v252q-20 -16 -74 -41zM750 90q23 0 43 9.5t28 21.5q11 15 21 8l20 -16q6 -6 6 -15t-8 -22q-53 -101 -160 -101q-55 0 -93 37t-52 101h-4q-70 -82 -203 -125q-38 -13 -121 -13 q-49 0 -86 44t-37 126q0 81 46.5 140t158.5 108q198 87 232 119v131q0 20 -8.5 60t-20.5 55q-39 45 -123 45q-34 0 -73.5 -12.5t-59.5 -30.5q-16 -16 -16 -37q0 -8 3 -26.5t3 -30.5q0 -59 -25.5 -88t-83.5 -29q-49 0 -49 65q0 49 39 102.5t102 90.5q119 72 250 72 q62 0 99 -14t65 -42t36.5 -59t8.5 -86v-434q0 -154 62 -154zM715 1229q0 -17 -2 -23q-14 -69 -55.5 -112t-102.5 -43q-70 0 -149 34q-71 23 -127 23q-27 0 -50 -23t-30 -63q-3 -10 -15 -10h-37q-8 0 -8 14q0 15 2 21q13 78 56.5 124t101.5 46q50 0 152 -31q91 -29 139 -29 q29 0 44 18t23 56q3 12 15 12h35q8 0 8 -14z" />
<glyph unicode="&#xe4;" horiz-adv-x="874" d="M465 410q-104 -49 -152.5 -98t-48.5 -128q0 -54 29 -83t78 -29q46 0 107 44.5t61 82.5v252q-20 -16 -74 -41zM750 90q23 0 43 9.5t28 21.5q11 15 21 8l20 -16q6 -6 6 -15t-8 -22q-53 -101 -160 -101q-55 0 -93 37t-52 101h-4q-70 -82 -203 -125q-38 -13 -121 -13 q-49 0 -86 44t-37 126q0 81 46.5 140t158.5 108q198 87 232 119v131q0 20 -8.5 60t-20.5 55q-39 45 -123 45q-34 0 -73.5 -12.5t-59.5 -30.5q-16 -16 -16 -37q0 -8 3 -26.5t3 -30.5q0 -59 -25.5 -88t-83.5 -29q-49 0 -49 65q0 49 39 102.5t102 90.5q119 72 250 72 q62 0 99 -14t65 -42t36.5 -59t8.5 -86v-434q0 -154 62 -154zM709 1204q0 -38 -27 -64t-64 -26q-41 0 -73.5 25.5t-32.5 72.5q0 34 27.5 63.5t78.5 29.5q37 0 64 -29t27 -72zM362 1204q0 -38 -27.5 -64t-64.5 -26q-41 0 -72.5 25.5t-31.5 72.5q0 34 27 63.5t77 29.5 q38 0 65 -29t27 -72z" />
<glyph unicode="&#xe5;" horiz-adv-x="874" d="M465 410q-104 -49 -152.5 -98t-48.5 -128q0 -54 29 -83t78 -29q46 0 107 44.5t61 82.5v252q-20 -16 -74 -41zM750 90q23 0 43 9.5t28 21.5q11 15 21 8l20 -16q6 -6 6 -15t-8 -22q-53 -101 -160 -101q-55 0 -93 37t-52 101h-4q-70 -82 -203 -125q-38 -13 -121 -13 q-49 0 -86 44t-37 126q0 81 46.5 140t158.5 108q198 87 232 119v131q0 20 -8.5 60t-20.5 55q-39 45 -123 45q-34 0 -73.5 -12.5t-59.5 -30.5q-16 -16 -16 -37q0 -8 3 -26.5t3 -30.5q0 -59 -25.5 -88t-83.5 -29q-49 0 -49 65q0 49 39 102.5t102 90.5q119 72 250 72 q62 0 99 -14t65 -42t36.5 -59t8.5 -86v-434q0 -154 62 -154zM512 1161q0 38 -24.5 64t-59.5 26q-43 0 -70.5 -27.5t-27.5 -68.5t24.5 -66.5t65.5 -25.5q43 0 67.5 25.5t24.5 72.5zM229 1149q0 68 55.5 111t145.5 43q83 0 132.5 -38.5t49.5 -95.5q0 -72 -54 -113.5 t-146 -41.5q-83 0 -133 38.5t-50 96.5z" />
<glyph unicode="&#xe6;" horiz-adv-x="1300" d="M367 72q49 0 108 39t96 100q-30 88 -30 227q-20 -10 -49 -22q-58 -26 -94.5 -46t-70 -47t-48.5 -58.5t-15 -71.5q0 -121 103 -121zM1059 651q0 63 -43 114.5t-113 51.5q-71 0 -125.5 -64.5t-79.5 -197.5l291 35q70 9 70 61zM686 426q0 -82 28.5 -155.5t90.5 -124 t145 -50.5q162 0 238 123q12 19 17.5 23t13.5 0l22 -13q6 -3 6 -10q0 -8 -6 -20q-42 -98 -131 -161t-190 -63q-185 0 -320 166h-8q-100 -125 -219 -153q-54 -13 -135 -13q-57 0 -95.5 50.5t-38.5 130.5q0 72 47.5 131t161.5 110l78 35l152 72v133q0 82 -35 123 q-12 18 -45.5 30.5t-73.5 12.5q-32 0 -72.5 -12t-60.5 -29q-18 -15 -18 -41q0 -7 4 -32.5t4 -33.5q0 -55 -24 -80.5t-77 -25.5q-57 0 -57 55t31 104t112 101q107 70 234 70q63 0 97.5 -13t62.5 -39q29 -29 37 -75q64 71 126.5 99t145.5 28q63 0 115.5 -21t85 -53t55 -72.5 t32 -78t9.5 -70.5q0 -24 -12 -33.5t-39 -11.5l-490 -43q-4 -28 -4 -70z" />
<glyph unicode="&#xe7;" horiz-adv-x="854" d="M164 119q-51 65 -70.5 129.5t-21.5 148.5q-1 90 31.5 177t89.5 155.5t140 109.5t177 40q70 -1 127 -19t88.5 -44.5t47.5 -53.5t15 -49q0 -34 -21 -53t-54 -19q-67 0 -113 82q-29 54 -59 72t-78 18q-98 0 -170 -86t-72 -231q0 -78 30 -164t75 -148q76 -104 223 -104 q74 0 122.5 19t102.5 69q8 8 17 0l20 -21q13 -13 0 -26q-44 -47 -112 -85.5t-140 -51.5l-98 -123q51 -14 89 -55t38 -85q0 -58 -50 -106.5t-121.5 -73t-142.5 -24.5q-41 0 -41 41q0 28 66 28q62 0 114 32t52 83q0 80 -135 104l133 172q-184 0 -299 142z" />
<glyph unicode="&#xe8;" horiz-adv-x="872" d="M616 635q0 62 -36 121q-34 61 -121 61q-74 0 -130.5 -52.5t-84.5 -158.5h317q55 0 55 29zM229 446q0 -148 85 -250t206 -102q84 0 150.5 39.5t97.5 99.5q6 14 18 11l27 -15q6 -3 6 -10q0 -5 -6 -20q-38 -83 -121 -154q-82 -70 -205 -70q-220 0 -321 146 q-53 77 -71.5 144.5t-18.5 178.5q0 86 31 172.5t98 153.5q59 59 129.5 83t163.5 26q61 1 113.5 -20.5t86 -56t57 -76t34 -79.5t10.5 -69q0 -19 -13.5 -26t-44.5 -7h-505q-7 -31 -7 -99zM557 995l-270 193q-41 27 -41 67q0 27 20 47.5t49 20.5q43 0 84 -51l197 -244 q3 -8 -2 -10l-25 -23q-6 -6 -12 0z" />
<glyph unicode="&#xe9;" horiz-adv-x="872" d="M616 635q0 62 -36 121q-34 61 -121 61q-74 0 -130.5 -52.5t-84.5 -158.5h317q55 0 55 29zM229 446q0 -148 85 -250t206 -102q84 0 150.5 39.5t97.5 99.5q6 14 18 11l27 -15q6 -3 6 -10q0 -5 -6 -20q-38 -83 -121 -154q-82 -70 -205 -70q-220 0 -321 146 q-53 77 -71.5 144.5t-18.5 178.5q0 86 31 172.5t98 153.5q59 59 129.5 83t163.5 26q61 1 113.5 -20.5t86 -56t57 -76t34 -79.5t10.5 -69q0 -19 -13.5 -26t-44.5 -7h-505q-7 -31 -7 -99zM365 1028l196 244q42 51 86 51q26 0 46 -20t20 -46q0 -39 -43 -69l-269 -193 q-6 -6 -12 0l-24 21q-6 6 0 12z" />
<glyph unicode="&#xea;" horiz-adv-x="872" d="M616 635q0 62 -36 121q-34 61 -121 61q-74 0 -130.5 -52.5t-84.5 -158.5h317q55 0 55 29zM229 446q0 -148 85 -250t206 -102q84 0 150.5 39.5t97.5 99.5q6 14 18 11l27 -15q6 -3 6 -10q0 -5 -6 -20q-38 -83 -121 -154q-82 -70 -205 -70q-220 0 -321 146 q-53 77 -71.5 144.5t-18.5 178.5q0 86 31 172.5t98 153.5q59 59 129.5 83t163.5 26q61 1 113.5 -20.5t86 -56t57 -76t34 -79.5t10.5 -69q0 -19 -13.5 -26t-44.5 -7h-505q-7 -31 -7 -99zM471 1157l-207 -156q-11 -9 -18 -2l-19 19q-2 2 -2 6q0 6 8 14l216 269q18 18 24 18 q10 0 27 -20l225 -269q10 -10 4 -16l-16 -19q-7 -11 -19 -2z" />
<glyph unicode="&#xeb;" horiz-adv-x="872" d="M244 606h317q55 0 55 29q0 62 -36 121q-34 61 -121 61q-74 0 -130.5 -52.5t-84.5 -158.5zM741 545h-505q-7 -31 -7 -99q0 -148 85 -250t206 -102q84 0 150.5 39.5t97.5 99.5q6 14 18 11l27 -15q6 -3 6 -10q0 -5 -6 -20q-38 -83 -121 -154q-82 -70 -205 -70 q-220 0 -321 146q-53 77 -71.5 144.5t-18.5 178.5q0 86 31 172.5t98 153.5q59 59 129.5 83t163.5 26q61 1 113.5 -20.5t86 -56t57 -76t34 -79.5t10.5 -69q0 -19 -13.5 -26t-44.5 -7zM750 1204q0 -38 -27 -64t-64 -26q-41 0 -73.5 25.5t-32.5 72.5q0 34 27.5 63.5t78.5 29.5 q37 0 64 -29t27 -72zM403 1204q0 -38 -27.5 -64t-64.5 -26q-41 0 -72.5 25.5t-31.5 72.5q0 34 27 63.5t77 29.5q38 0 65 -29t27 -72z" />
<glyph unicode="&#xec;" horiz-adv-x="546" d="M94 719q-18 3 -18 14v19q0 8 14 14q113 43 221 100q26 13 39 13t10 -25q-4 -46 -4 -334v-223q0 -162 2 -176q5 -32 10.5 -42.5t22.5 -10.5h94q21 0 21 -19v-35q0 -20 -19 -20q-3 0 -12.5 0.5t-27 1.5t-35.5 2q-41 2 -121 2q-48 0 -99 -1.5t-84 -3t-38 -1.5q-17 0 -17 16 v41q0 17 21 17h100q18 0 25 8.5t8 32.5q2 41 2 186v301q0 59 -22.5 85t-92.5 38zM365 995l-271 193q-41 27 -41 67q0 27 20.5 47.5t49.5 20.5q43 0 84 -51l196 -244q3 -8 -2 -10l-24 -23q-6 -6 -12 0z" />
<glyph unicode="&#xed;" horiz-adv-x="546" d="M94 719q-18 3 -18 14v19q0 8 14 14q113 43 221 100q26 13 39 13t10 -25q-4 -46 -4 -334v-223q0 -162 2 -176q5 -32 10.5 -42.5t22.5 -10.5h94q21 0 21 -19v-35q0 -20 -19 -20q-3 0 -12.5 0.5t-27 1.5t-35.5 2q-41 2 -121 2q-48 0 -99 -1.5t-84 -3t-38 -1.5q-17 0 -17 16 v41q0 17 21 17h100q18 0 25 8.5t8 32.5q2 41 2 186v301q0 59 -22.5 85t-92.5 38zM182 1028l197 244q42 51 86 51q26 0 45.5 -20t19.5 -46q0 -39 -43 -69l-268 -193q-6 -6 -12 0l-25 21q-6 6 0 12z" />
<glyph unicode="&#xee;" horiz-adv-x="546" d="M94 719q-18 3 -18 14v19q0 8 14 14q113 43 221 100q26 13 39 13t10 -25q-4 -46 -4 -334v-223q0 -162 2 -176q5 -32 10.5 -42.5t22.5 -10.5h94q21 0 21 -19v-35q0 -20 -19 -20q-3 0 -12.5 0.5t-27 1.5t-35.5 2q-41 2 -121 2q-48 0 -99 -1.5t-84 -3t-38 -1.5q-17 0 -17 16 v41q0 17 21 17h100q18 0 25 8.5t8 32.5q2 41 2 186v301q0 59 -22.5 85t-92.5 38zM276 1157l-206 -156q-12 -9 -19 -2l-18 19q-2 2 -2 6q0 6 8 14l215 269q18 18 25 18q9 0 26 -20l225 -269q10 -10 5 -16l-17 -19q-7 -10 -18 -2z" />
<glyph unicode="&#xef;" horiz-adv-x="546" d="M209 295v301q0 59 -22.5 85t-92.5 38q-18 3 -18 14v19q0 8 14 14q113 43 221 100q26 13 39 13t10 -25q-4 -46 -4 -334v-223q0 -162 2 -176q5 -32 10.5 -42.5t22.5 -10.5h94q21 0 21 -19v-35q0 -20 -19 -20q-3 0 -12.5 0.5t-27 1.5t-35.5 2q-41 2 -121 2q-48 0 -99 -1.5 t-84 -3t-38 -1.5q-17 0 -17 16v41q0 17 21 17h100q18 0 25 8.5t8 32.5q2 41 2 186zM545 1204q0 -38 -26.5 -64t-63.5 -26q-42 0 -74.5 25.5t-32.5 72.5q0 34 28 63.5t79 29.5q37 0 63.5 -28.5t26.5 -72.5zM199 1204q0 -38 -28 -64t-65 -26q-41 0 -72.5 25.5t-31.5 72.5 q0 34 27 63.5t77 29.5q38 0 65.5 -29t27.5 -72z" />
<glyph unicode="&#xf0;" horiz-adv-x="999" d="M739 494q0 189 -61 256t-156 67q-106 0 -188 -76q-49 -43 -77 -131t-28 -188q0 -67 19.5 -141t50.5 -129q31 -52 80.5 -83.5t95.5 -31.5q142 0 203 131t61 326zM231 1395q-32 10 -32 22q0 10 6 19l18 37q3 8 10 8q13 0 17 -2q129 -48 287 -158l219 125q6 4 14 3.5 t10 -5.5l27 -47q2 -2 2 -11q0 -11 -8 -14l-199 -108q47 -39 121 -138q83 -110 128.5 -263t45.5 -328q0 -112 -27 -211.5t-79.5 -178t-138.5 -124.5t-195 -46q-140 0 -230 68q-79 63 -115 147t-36 216q0 99 46 201.5t130 168.5q68 54 132 78.5t142 24.5q99 0 181 -64l4 4 q-51 183 -146 301q-14 31 -67 84l-242 -141q-2 -2 -8 -2q-10 0 -15 8l-28 47q-6 12 6 21l223 123q-103 95 -203 135z" />
<glyph unicode="&#xf1;" horiz-adv-x="1089" d="M963 68h65q23 0 23 -19v-33q0 -22 -17 -22q-1 0 -26.5 1.5t-71 3t-96.5 1.5q-44 0 -87.5 -1.5t-69.5 -3t-28 -1.5q-16 0 -16 22v33q0 11 5 15t22 4h59q38 0 41 47q4 144 4 172v270q0 83 -10 120t-49 64q-30 23 -62 30t-88 7q-36 0 -82 -20t-84 -60q-47 -53 -47 -139v-424 q0 -43 9 -55t40 -12h52q20 0 20 -21v-35q0 -18 -14 -18q-1 0 -24.5 1.5t-65.5 3t-89 1.5q-46 0 -88.5 -1.5t-67 -3t-26.5 -1.5q-14 0 -14 18v37q0 19 20 19h60q24 0 32.5 8.5t8.5 32.5v479q0 80 -84 121l-17 8q-16 6 -16 18v10q0 12 18 21l177 98q27 15 36 15q14 0 17 -25 l14 -125h4q46 57 127 105q77 45 154 45q109 0 174 -45q42 -26 78 -93q35 -62 35 -102v-528q0 -43 45 -43zM834 1229q0 -14 -3 -23q-14 -69 -55 -112t-102 -43q-71 0 -150 34q-71 23 -127 23q-27 0 -50 -23t-30 -63q-3 -10 -14 -10h-37q-8 0 -8 14q0 15 2 21q13 78 56.5 124 t101.5 46q49 0 151 -31q91 -29 140 -29q29 0 44 18t23 56q3 12 15 12h34q9 0 9 -14z" />
<glyph unicode="&#xf2;" horiz-adv-x="1019" d="M776 446q0 151 -89.5 261t-180.5 110q-96 0 -158 -65q-60 -61 -84 -133t-24 -189q0 -97 16 -159.5t61 -127.5q72 -106 203 -106q113 0 184.5 119.5t71.5 289.5zM184 117q-71 87 -90 151q-22 74 -22 183q0 87 46 175t130 154q126 99 274 99q77 0 156.5 -34t130.5 -85 q136 -142 139 -334q1 -80 -36 -162t-97.5 -146.5t-145 -104t-173.5 -38.5q-87 2 -171 37.5t-141 104.5zM590 995l-271 193q-40 27 -40 67q0 27 20 47.5t49 20.5q43 0 84 -51l197 -244q3 -8 -2 -10l-25 -23q-6 -6 -12 0z" />
<glyph unicode="&#xf3;" horiz-adv-x="1019" d="M776 446q0 151 -89.5 261t-180.5 110q-96 0 -158 -65q-60 -61 -84 -133t-24 -189q0 -97 16 -159.5t61 -127.5q72 -106 203 -106q113 0 184.5 119.5t71.5 289.5zM184 117q-71 87 -90 151q-22 74 -22 183q0 87 46 175t130 154q126 99 274 99q77 0 156.5 -34t130.5 -85 q136 -142 139 -334q1 -80 -36 -162t-97.5 -146.5t-145 -104t-173.5 -38.5q-87 2 -171 37.5t-141 104.5zM438 1028l197 244q42 51 86 51q26 0 45.5 -20t19.5 -46q0 -39 -43 -69l-268 -193q-6 -6 -12 0l-25 21q-6 6 0 12z" />
<glyph unicode="&#xf4;" horiz-adv-x="1019" d="M776 446q0 151 -89.5 261t-180.5 110q-96 0 -158 -65q-60 -61 -84 -133t-24 -189q0 -97 16 -159.5t61 -127.5q72 -106 203 -106q113 0 184.5 119.5t71.5 289.5zM184 117q-71 87 -90 151q-22 74 -22 183q0 87 46 175t130 154q126 99 274 99q77 0 156.5 -34t130.5 -85 q136 -142 139 -334q1 -80 -36 -162t-97.5 -146.5t-145 -104t-173.5 -38.5q-87 2 -171 37.5t-141 104.5zM504 1157l-207 -156q-11 -9 -18 -2l-19 19q-2 2 -2 6q0 6 8 14l215 269q18 18 25 18q9 0 26 -20l226 -269q10 -10 4 -16l-17 -19q-7 -10 -18 -2z" />
<glyph unicode="&#xf5;" horiz-adv-x="1019" d="M776 446q0 151 -89.5 261t-180.5 110q-96 0 -158 -65q-60 -61 -84 -133t-24 -189q0 -97 16 -159.5t61 -127.5q72 -106 203 -106q113 0 184.5 119.5t71.5 289.5zM184 117q-71 87 -90 151q-22 74 -22 183q0 87 46 175t130 154q126 99 274 99q77 0 156.5 -34t130.5 -85 q136 -142 139 -334q1 -80 -36 -162t-97.5 -146.5t-145 -104t-173.5 -38.5q-87 2 -171 37.5t-141 104.5zM799 1229q0 -17 -2 -23q-14 -69 -55.5 -112t-102.5 -43q-71 0 -150 34q-71 23 -127 23q-27 0 -49.5 -23t-29.5 -63q-3 -10 -15 -10h-37q-8 0 -8 14q0 15 2 21 q13 78 56.5 124t101.5 46q50 0 152 -31q91 -29 139 -29q29 0 44 18t23 56q3 12 15 12h35q8 0 8 -14z" />
<glyph unicode="&#xf6;" horiz-adv-x="1019" d="M776 446q0 151 -89.5 261t-180.5 110q-96 0 -158 -65q-60 -61 -84 -133t-24 -189q0 -97 16 -159.5t61 -127.5q72 -106 203 -106q113 0 184.5 119.5t71.5 289.5zM184 117q-71 87 -90 151q-22 74 -22 183q0 87 46 175t130 154q126 99 274 99q77 0 156.5 -34t130.5 -85 q136 -142 139 -334q1 -80 -36 -162t-97.5 -146.5t-145 -104t-173.5 -38.5q-87 2 -171 37.5t-141 104.5zM782 1204q0 -38 -26.5 -64t-63.5 -26q-41 0 -73.5 25.5t-32.5 72.5q0 34 27.5 63.5t78.5 29.5q37 0 63.5 -28.5t26.5 -72.5zM436 1204q0 -38 -27.5 -64t-64.5 -26 q-41 0 -72.5 25.5t-31.5 72.5q0 34 27 63.5t77 29.5q38 0 65 -29t27 -72z" />
<glyph unicode="&#xf7;" d="M399 174q0 44 33 74.5t82 30.5q47 0 80 -30.5t33 -74.5t-33 -75t-80 -31q-49 0 -82 30.5t-33 75.5zM909 549v-115h-794v115h794zM399 811q0 44 33 74t82 30q47 0 80 -30t33 -74t-33 -75t-80 -31q-49 0 -82 30.5t-33 75.5z" />
<glyph unicode="&#xf8;" horiz-adv-x="1019" d="M303 160l10 -19q76 -104 207 -104q117 0 187 119q69 117 69 290q0 97 -37 175zM506 817q-93 0 -158 -65q-60 -61 -84 -133t-24 -189q0 -118 28 -197l430 459q-41 56 -94 90.5t-98 34.5zM221 76l-84 -90q-11 -11 -14 -11q-5 0 -12 7l-27 28q-10 10 -10 17q0 6 18 24l78 82 q-63 83 -80 143q-18 58 -18 175q0 87 47 174.5t131 150.5q139 103 272 103q70 0 139.5 -28t112.5 -71l96 90q9 9 13 9q3 0 8 -5l39 -34q6 -6 6 -11q0 -4 -4 -8l-98 -98q111 -120 114 -297q2 -108 -59.5 -213t-168.5 -172.5t-226 -65.5q-68 2 -143.5 28t-129.5 73z" />
<glyph unicode="&#xf9;" horiz-adv-x="1036" d="M858 174q4 -41 16.5 -56.5t36.5 -15.5q40 0 68 7q2 2 10 2q11 0 15 -11l6 -26v-6q0 -9 -11 -13l-215 -71q-24 -9 -41 -9q-15 0 -18 25l-16 119h-4q-43 -61 -123.5 -102.5t-155.5 -41.5q-62 0 -107 19.5t-86 75.5q-43 55 -57 100q-18 58 -20 104q-2 37 -2 197v238 q0 40 -19 57t-59 20q-29 3 -37 5.5t-8 9.5v37q0 10 4 13t18 3h183q8 0 28 4l23 2q10 0 16 -6t6 -14l-5 -81l-3 -159v-145l-2 -111q-3 -131 47 -197q33 -47 69 -62t95 -15q38 0 91.5 31.5t84.5 70.5q7 8 14 26t7 29v488q0 36 -21.5 51t-67.5 20q-45 0 -45 15v35q0 12 4 15 t21 3h190q7 0 35 4l25 2q8 0 13.5 -6.5t4.5 -13.5q-12 -111 -12 -273v-151q0 -184 4 -242zM539 995l-271 193q-41 27 -41 67q0 27 20.5 47.5t49.5 20.5q43 0 84 -51l197 -244q2 -7 -3 -10l-24 -23q-6 -6 -12 0z" />
<glyph unicode="&#xfa;" horiz-adv-x="1036" d="M858 174q4 -41 16.5 -56.5t36.5 -15.5q40 0 68 7q2 2 10 2q11 0 15 -11l6 -26v-6q0 -9 -11 -13l-215 -71q-24 -9 -41 -9q-15 0 -18 25l-16 119h-4q-43 -61 -123.5 -102.5t-155.5 -41.5q-62 0 -107 19.5t-86 75.5q-43 55 -57 100q-18 58 -20 104q-2 37 -2 197v238 q0 40 -19 57t-59 20q-29 3 -37 5.5t-8 9.5v37q0 10 4 13t18 3h183q8 0 28 4l23 2q10 0 16 -6t6 -14l-5 -81l-3 -159v-145l-2 -111q-3 -131 47 -197q33 -47 69 -62t95 -15q38 0 91.5 31.5t84.5 70.5q7 8 14 26t7 29v488q0 36 -21.5 51t-67.5 20q-45 0 -45 15v35q0 12 4 15 t21 3h190q7 0 35 4l25 2q8 0 13.5 -6.5t4.5 -13.5q-12 -111 -12 -273v-151q0 -184 4 -242zM406 1028l196 244q42 51 86 51q26 0 46 -20t20 -46q0 -39 -43 -69l-269 -193q-6 -6 -12 0l-24 21q-6 6 0 12z" />
<glyph unicode="&#xfb;" horiz-adv-x="1036" d="M858 174q4 -41 16.5 -56.5t36.5 -15.5q40 0 68 7q2 2 10 2q11 0 15 -11l6 -26v-6q0 -9 -11 -13l-215 -71q-24 -9 -41 -9q-15 0 -18 25l-16 119h-4q-43 -61 -123.5 -102.5t-155.5 -41.5q-62 0 -107 19.5t-86 75.5q-43 55 -57 100q-18 58 -20 104q-2 37 -2 197v238 q0 40 -19 57t-59 20q-29 3 -37 5.5t-8 9.5v37q0 10 4 13t18 3h183q8 0 28 4l23 2q10 0 16 -6t6 -14l-5 -81l-3 -159v-145l-2 -111q-3 -131 47 -197q33 -47 69 -62t95 -15q38 0 91.5 31.5t84.5 70.5q7 8 14 26t7 29v488q0 36 -21.5 51t-67.5 20q-45 0 -45 15v35q0 12 4 15 t21 3h190q7 0 35 4l25 2q8 0 13.5 -6.5t4.5 -13.5q-12 -111 -12 -273v-151q0 -184 4 -242zM512 1157l-207 -156q-11 -9 -18 -2l-19 19q-2 2 -2 6q0 6 8 14l215 269q18 18 25 18q10 0 27 -20l225 -269q10 -10 4 -16l-16 -19q-7 -11 -19 -2z" />
<glyph unicode="&#xfc;" horiz-adv-x="1036" d="M854 567v-151q0 -184 4 -242q4 -41 16.5 -56.5t36.5 -15.5q40 0 68 7q2 2 10 2q11 0 15 -11l6 -26v-6q0 -9 -11 -13l-215 -71q-24 -9 -41 -9q-15 0 -18 25l-16 119h-4q-43 -61 -123.5 -102.5t-155.5 -41.5q-62 0 -107 19.5t-86 75.5q-43 55 -57 100q-18 58 -20 104 q-2 37 -2 197v238q0 39 -18.5 55.5t-59.5 21.5q-34 0 -45 10q-3 2 0 5v37q0 10 4 13t18 3h183q8 0 28 4l23 2q10 0 16 -6t6 -14l-5 -81l-3 -159v-145l-2 -111q-3 -131 47 -197q33 -47 69 -62t95 -15q38 0 91.5 31.5t84.5 70.5q7 8 14 26t7 29v488q0 37 -22 53t-67 18 q-27 2 -36 5t-9 10v35q0 12 4 15t21 3h190q7 0 35 4l25 2q8 0 13.5 -6.5t4.5 -13.5q-12 -111 -12 -273zM791 1204q0 -38 -27 -64t-64 -26q-41 0 -73.5 25.5t-32.5 72.5q0 34 27.5 63.5t78.5 29.5q37 0 64 -29t27 -72zM444 1204q0 -38 -27.5 -64t-64.5 -26q-41 0 -72.5 25.5 t-31.5 72.5q0 34 27 63.5t77 29.5q38 0 65 -29t27 -72z" />
<glyph unicode="&#xfd;" horiz-adv-x="892" d="M-2 -453q0 32 28.5 56t65.5 24q21 0 58 -11l36 -11h11q20 0 32 12q22 29 80 156q64 138 84 194q-5 26 -102 320q-87 268 -141 413q-25 50 -43.5 68t-53.5 18h-53q-10 0 -13 4t-3 15v41q0 14 16 14q3 0 27 -1.5t67 -3t94 -1.5q42 0 85.5 1.5t72 3t33.5 1.5q18 0 18 -14 v-43q0 -17 -12 -17h-39q-33 0 -27 -45q2 -28 78 -272q66 -213 90 -268h9q20 36 108 248q95 226 103 260q1 6 2 13.5t1.5 11t0.5 5.5q0 47 -39 47h-33q-14 0 -14 17v41q0 16 12 16l57 -3q58 -3 111 -3q24 0 70 3t55 3q12 0 12 -16v-39q0 -19 -10 -19h-33q-46 0 -72 -36 q-47 -63 -292 -623l-29 -66l-84 -190q-131 -291 -133 -295q-18 -33 -25 -44.5t-23.5 -33.5t-31 -30t-39 -16t-55.5 -9q-55 -3 -86 26t-31 78zM457 1028l196 244q42 51 86 51q26 0 46 -20t20 -46q0 -39 -43 -69l-268 -193q-6 -7 -13 0l-24 21q-6 6 0 12z" />
<glyph unicode="&#xfe;" horiz-adv-x="1050" d="M373 96q94 -55 205 -55q103 0 171 88.5t68 253.5q0 184 -69 292.5t-199 108.5q-66 0 -124 -36t-95 -99v-440q0 -89 43 -113zM182 307l-2 512q0 22 -1 88.5t-1 110.5q0 103 -21.5 151.5t-62.5 59.5l-35 10q-12 3 -12 16v15q0 8 14 14l205 98q38 17 47 17q19 0 19 -41 l-2 -621h4q46 62 123.5 102t165.5 40q81 0 137 -23t110 -84q8 -12 39 -43q66 -72 66 -266q0 -213 -124 -350.5t-310 -137.5q-129 0 -211 39v-446q0 -60 51 -60h84q11 0 14.5 -4.5t3.5 -15.5v-33q0 -18 -18 -18l-28 1q-28 2 -78.5 3.5t-104.5 1.5q-57 0 -106 -1.5t-74.5 -3 t-26.5 -1.5q-18 0 -18 18v37q0 16 24 16h70q29 0 41.5 11.5t13.5 42.5q4 62 4 356v389z" />
<glyph unicode="&#xff;" horiz-adv-x="892" d="M-2 -453q0 32 28.5 56t65.5 24q21 0 58 -11l36 -11h11q20 0 32 12q22 29 80 156q64 138 84 194q-7 39 -117 365q-109 325 -126 368q-22 47 -42 66.5t-55 19.5h-53q-10 0 -13 4t-3 15v41q0 14 16 14q3 0 27 -1.5t67 -3t94 -1.5q42 0 85.5 1.5t72 3t33.5 1.5q18 0 18 -14 v-43q0 -17 -12 -17h-39q-33 0 -27 -45q2 -28 78 -272q66 -213 90 -268h9q20 36 108 248q95 226 103 260q1 6 2 13.5t1.5 11t0.5 5.5q0 47 -39 47h-33q-14 0 -14 17v41q0 16 12 16l57 -3q58 -3 111 -3q24 0 70 3t55 3q12 0 12 -16v-39q0 -19 -10 -19h-33q-46 0 -72 -36 q-47 -63 -292 -623l-29 -66l-84 -190q-131 -291 -133 -295q-18 -33 -25 -44.5t-23.5 -33.5t-31 -30t-39 -16t-55.5 -9q-55 -3 -86 26t-31 78zM760 1204q0 -38 -26.5 -64t-63.5 -26q-42 0 -74.5 25.5t-32.5 72.5q0 34 28 63.5t79 29.5q37 0 63.5 -28.5t26.5 -72.5zM414 1204 q0 -38 -27.5 -64t-64.5 -26q-41 0 -73 25.5t-32 72.5q0 34 27.5 63.5t77.5 29.5q38 0 65 -29t27 -72z" />
<glyph unicode="&#x152;" horiz-adv-x="2291" d="M868 1401h-65q-66 0 -148 -25q-86 -26 -149 -80q-196 -175 -199 -520q-1 -149 35.5 -274.5t95.5 -208t135.5 -140.5t153 -83.5t150.5 -24.5q129 1 202.5 40t104.5 118v1024q-48 86 -142 131q-90 43 -174 43zM1634 797q44 7 61 24.5t31 65.5q15 57 17 100q0 10 3.5 13 t14.5 1l45 -4q9 0 13.5 -3.5t3.5 -10.5q-6 -34 -6 -233q0 -84 12 -213v-5q0 -12 -17 -12l-40 -6h-7q-7 0 -10 12l-24 103q-15 71 -86 80q-110 10 -283 10v-127l2 -250q0 -15 1 -48.5t1 -51.5q0 -82 22 -116t78 -46q52 -12 170 -12q58 0 199 6q92 7 160 69q16 16 84 103 t82 114q12 21 30 9l25 -15q14 -10 12 -20l-112 -309q-4 -13 -14 -22t-21 -9l-178 4l-641 2q-32 0 -72 -3t-80 -7t-41 -4q-143 -17 -209 -17q-289 0 -463 133q-299 232 -299 641q0 111 38.5 232.5t123.5 228.5q101 128 258 201q162 76 326 76q137 0 248 -15l73 -10 q39 -6 92 -6h664q22 0 68 4l32 4q14 0 17 -10l80 -258l22 -74q9 -15 -6 -18l-25 -15q-14 -5 -20 4l-90 113q-84 104 -111 125q-68 51 -131 51l-395 6v-598l149 7q108 3 123 6z" />
<glyph unicode="&#x153;" horiz-adv-x="1556" d="M1303 637q0 62 -35 121t-125 59q-70 0 -126.5 -54t-84.5 -157h319q52 0 52 31zM772 418q0 106 -22 186t-59 125t-78.5 66.5t-86.5 21.5q-95 0 -174 -69q-55 -46 -83.5 -123t-28.5 -170q1 -112 17 -177.5t54 -119.5q84 -121 207 -121q104 0 179 98t75 283zM182 119 q-110 131 -110 313q0 91 38.5 179t116.5 151q138 117 305 117q202 0 328 -164q114 161 320 164q69 1 124 -22.5t87.5 -58.5t54 -78.5t29.5 -79.5t8 -65q0 -18 -9.5 -24t-31.5 -6h-522q-7 -58 -7 -92q0 -152 83.5 -256.5t207.5 -104.5q87 0 150 38t98 99q10 19 25 13l20 -13 q6 -3 6 -8q0 -8 -6 -20q-37 -88 -119 -156q-82 -70 -200 -70q-97 0 -182 41t-140 121q-78 -86 -165.5 -124t-203.5 -38q-86 0 -167.5 38t-137.5 106z" />
<glyph unicode="&#x178;" horiz-adv-x="1361" d="M764 145q3 -42 23 -56.5t67 -14.5h80q10 0 12 -3t2 -12v-47q0 -12 -2 -15t-12 -3q-3 0 -39 1.5t-100.5 3t-137.5 1.5q-81 0 -144 -1.5t-94 -3t-32 -1.5q-12 0 -12 16v49q0 15 14 15h100q69 0 72 51q6 85 6 381v119q-36 70 -207 354q-188 313 -219 348q-18 22 -48 35.5 t-58 13.5h-51q-15 0 -15 15v53q0 12 15 12q4 0 39 -1.5t91 -3t109 -1.5q95 0 167 1.5t105 2.5l33 2q15 0 15 -10v-51q0 -19 -15 -19h-67q-37 0 -50.5 -9t-13.5 -32q0 -20 2 -26q2 -13 93 -181l116 -210l111 -203l102 157q31 48 68.5 105.5t60 92.5t48 74.5t39.5 62 t27.5 43.5t19 31.5t6.5 14.5q6 30 6 33q0 47 -74 47h-55q-15 0 -15 19v49q0 12 15 12q3 0 37 -1.5t90 -3t114 -1.5q51 0 93.5 1.5t65.5 3t26 1.5q16 0 16 -12v-49q0 -11 -3 -15t-13 -4h-52q-55 0 -100 -45q-38 -38 -485 -682v-268q0 -142 8 -236zM1047 1704q0 -40 -27 -66 t-66 -26q-42 0 -74 25t-32 75q0 34 27.5 62t78.5 28q38 0 65.5 -27.5t27.5 -70.5zM637 1704q0 -40 -26 -66t-64 -26q-42 0 -74.5 25t-32.5 75q0 34 28 62t79 28q38 0 64 -27.5t26 -70.5z" />
<glyph unicode="&#x192;" d="M805 797l-14 -49q-3 -13 -25 -13h-205l-47 -428q-31 -286 -134.5 -428.5t-258.5 -142.5q-78 0 -130 36.5t-52 88.5q0 36 18.5 58t50.5 22q35 0 63 -27t42 -68q6 -14 23.5 -24t39.5 -10q83 0 123 98.5t68 359.5l49 465h-158q-18 0 -12 19l14 43q2 12 19 12h147 q20 149 56.5 251.5t107.5 190.5q59 75 125.5 111.5t154.5 36.5q85 0 142 -38t57 -89q0 -35 -28 -57.5t-72 -22.5q-63 0 -80 82q-2 19 -24 34t-60 15q-97 0 -152.5 -120t-81.5 -394h215q11 0 15.5 -3t3.5 -9z" />
<glyph unicode="&#x2c6;" horiz-adv-x="628" d="M307 1157l-207 -156q-11 -9 -18 -2l-19 19q-2 2 -2 6q0 5 9 14l215 269q18 18 24 18q10 0 27 -20l225 -269q10 -10 4 -16l-16 -19q-7 -11 -19 -2z" />
<glyph unicode="&#x2da;" horiz-adv-x="505" d="M344 1161q0 38 -24.5 64t-59.5 26q-43 0 -70.5 -27.5t-27.5 -68.5t24.5 -66.5t65.5 -25.5q43 0 67.5 25.5t24.5 72.5zM61 1149q0 68 55.5 111t145.5 43q83 0 132.5 -38.5t49.5 -95.5q0 -72 -54 -113.5t-146 -41.5q-83 0 -133 38.5t-50 96.5z" />
<glyph unicode="&#x2dc;" horiz-adv-x="698" d="M637 1229q0 -17 -2 -23q-14 -69 -55.5 -112t-102.5 -43q-70 0 -149 34q-71 23 -127 23q-27 0 -50 -23t-30 -63q-3 -10 -15 -10h-36q-9 0 -9 14q0 15 2 21q13 78 56.5 124t101.5 46q50 0 152 -31q91 -29 139 -29q29 0 44.5 18t23.5 56q3 12 14 12h35q8 0 8 -14z" />
<glyph unicode="&#x2000;" horiz-adv-x="948" />
<glyph unicode="&#x2001;" horiz-adv-x="1896" />
<glyph unicode="&#x2002;" horiz-adv-x="948" />
<glyph unicode="&#x2003;" horiz-adv-x="1896" />
<glyph unicode="&#x2004;" horiz-adv-x="632" />
<glyph unicode="&#x2005;" horiz-adv-x="474" />
<glyph unicode="&#x2006;" horiz-adv-x="316" />
<glyph unicode="&#x2007;" horiz-adv-x="316" />
<glyph unicode="&#x2008;" horiz-adv-x="237" />
<glyph unicode="&#x2009;" horiz-adv-x="379" />
<glyph unicode="&#x200a;" horiz-adv-x="105" />
<glyph unicode="&#x2010;" horiz-adv-x="827" d="M125 602h573q13 0 18 -4.5t5 -17.5v-78q0 -15 -25 -15h-571q-19 -3 -19 11v90q0 14 19 14z" />
<glyph unicode="&#x2011;" horiz-adv-x="827" d="M125 602h573q13 0 18 -4.5t5 -17.5v-78q0 -15 -25 -15h-571q-19 -3 -19 11v90q0 14 19 14z" />
<glyph unicode="&#x2012;" horiz-adv-x="827" d="M125 602h573q13 0 18 -4.5t5 -17.5v-78q0 -15 -25 -15h-571q-19 -3 -19 11v90q0 14 19 14z" />
<glyph unicode="&#x2013;" d="M0 487v115h1024v-115h-1024z" />
<glyph unicode="&#x2014;" horiz-adv-x="2048" d="M2048 487h-2048v115h2048v-115z" />
<glyph unicode="&#x2018;" horiz-adv-x="389" d="M59 1118q0 127 76 215q77 92 139 131q17 17 37 17q21 0 21 -17q0 -15 -17 -26q-129 -123 -129 -232q0 -18 9.5 -35t21.5 -22q1 0 12 -4.5t21 -9t24 -14.5t24 -21.5t17 -30t7 -39.5q0 -38 -28.5 -63t-74.5 -25q-57 0 -108.5 50.5t-51.5 125.5z" />
<glyph unicode="&#x2019;" horiz-adv-x="389" d="M332 1305q0 -124 -76 -215q-79 -94 -139 -132q-2 -1 -8 -5t-14 -7.5t-15 -3.5q-21 0 -21 16t17 27q129 123 129 232q0 18 -9.5 35t-21.5 22q-1 0 -12 4.5t-20.5 9t-23.5 14.5t-24 21.5t-17 30t-7 39.5q0 38 28 63t74 25q57 0 108.5 -50.5t51.5 -125.5z" />
<glyph unicode="&#x201a;" horiz-adv-x="389" d="M332 53q0 -125 -76 -213q-77 -92 -139 -131q-16 -16 -39 -16q-19 0 -19 16t15 27q55 48 93 108t38 121q0 19 -9.5 36t-21.5 22l-12 5q-11 4 -20.5 8.5t-23.5 15t-24 22t-17 30t-7 39.5q0 36 28 61t74 25q57 0 108.5 -50.5t51.5 -125.5z" />
<glyph unicode="&#x201c;" horiz-adv-x="737" d="M399 1118q0 127 76 215q77 92 139 131q17 17 39 17q21 0 21 -17q0 -15 -17 -26q-131 -117 -131 -232q0 -18 9.5 -35t21.5 -22l15 -5q14 -6 27.5 -14.5t29 -21t25.5 -33t10 -45.5q0 -37 -29.5 -62.5t-75.5 -25.5q-56 0 -108 50.5t-52 125.5zM63 1118q0 127 76 215 q76 91 140 131q17 17 36 17q21 0 21 -17q0 -15 -17 -26q-129 -123 -129 -232q0 -18 9.5 -35t21.5 -22q1 0 12 -4.5t21 -9t24 -14.5t24 -21.5t17 -30t7 -39.5q0 -38 -28.5 -63t-74.5 -25q-57 0 -108.5 50.5t-51.5 125.5z" />
<glyph unicode="&#x201d;" horiz-adv-x="737" d="M676 1305q0 -124 -76 -215q-79 -94 -139 -132q-16 -16 -39 -16q-21 0 -21 16t17 27q129 115 129 232q0 18 -9.5 35t-21.5 22q-1 0 -12 4.5t-20.5 9t-23.5 14.5t-24 21.5t-17 30t-7 39.5q0 38 28 63t74 25q57 0 109.5 -50.5t52.5 -125.5zM334 1305q0 -124 -76 -215 q-79 -94 -139 -132q-2 -1 -8 -5t-14 -7.5t-15 -3.5q-21 0 -21 16t17 27q129 123 129 232q0 18 -9.5 35t-21.5 22q-1 0 -12 4.5t-20.5 9t-23.5 14.5t-24 21.5t-17 30t-7 39.5q0 38 28 63t74 25q57 0 108.5 -50.5t51.5 -125.5z" />
<glyph unicode="&#x201e;" horiz-adv-x="737" d="M676 53q0 -125 -76 -213q-77 -92 -139 -131q-16 -16 -39 -16q-21 0 -21 16t17 27q54 47 91.5 107.5t37.5 121.5q0 19 -9.5 36t-21.5 22l-12 5q-11 4 -20.5 8.5t-23.5 15t-24 22t-17 30t-7 39.5q0 36 29 61t73 25q57 0 109.5 -50.5t52.5 -125.5zM334 53q0 -125 -76 -213 q-77 -92 -139 -131q-2 -1 -8 -5t-14 -7.5t-15 -3.5q-21 0 -21 16t17 27q129 117 129 229q0 19 -9.5 36t-21.5 22l-12 5q-11 4 -20.5 8.5t-23.5 15t-24 22t-17 30t-7 39.5q0 36 28 61t74 25q57 0 108.5 -50.5t51.5 -125.5z" />
<glyph unicode="&#x2020;" d="M477 -252q-3 175 -31 496q-27 312 -53 374q37 44 56.5 102t19.5 163q-89 0 -236 -41q-82 -21 -94 -21q-44 0 -66 24t-22 58q0 36 26.5 60t69.5 24q3 0 78 -14l99 -19q74 -14 145 -14q0 94 -35 287q-18 111 -18 143q0 45 29.5 78t70.5 33q48 0 74 -30t26 -81 q0 -24 -22 -143q-39 -183 -39 -287q80 0 238 31q67 16 104 16q36 0 57 -25t21 -59q0 -33 -21 -57.5t-65 -24.5q-3 0 -80 17q-177 45 -254 45q0 -105 19 -160.5t57 -104.5q-26 -62 -53 -368q-26 -288 -29 -508q0 -18 -14 -18h-43q-15 0 -15 24z" />
<glyph unicode="&#x2021;" d="M616 1370q0 -24 -22 -143q-39 -183 -39 -287q76 0 254 35q73 12 78 12q42 0 64 -24.5t22 -59.5q0 -33 -20 -57.5t-58 -24.5q-11 0 -92 19q-174 43 -248 43q0 -85 12.5 -142t44.5 -125q-24 -39 -40.5 -122t-16.5 -172q93 0 236 40q82 21 94 21q44 0 66 -24t22 -58 q0 -36 -26.5 -60t-69.5 -24q-3 0 -78 14l-99 19q-74 14 -145 14q0 -88 35 -284q20 -117 20 -146q0 -44 -31.5 -77t-72.5 -33q-44 0 -70 30t-26 80q0 27 22 150q37 214 39 280q-76 0 -254 -35q-74 -12 -78 -12q-36 0 -61 26.5t-25 57.5q0 33 21 57.5t65 24.5q17 0 78 -16 q177 -45 254 -45q0 83 -17.5 168t-39.5 126q32 74 44.5 129.5t12.5 137.5q-88 0 -235 -41q-82 -21 -95 -21q-44 0 -66 24t-22 58q0 36 27 60t70 24q2 0 77 -14l99 -19q74 -14 145 -14q0 94 -35 287q-20 117 -20 143q0 44 30.5 77.5t69.5 33.5q48 0 74 -30t26 -81z" />
<glyph unicode="&#x2022;" horiz-adv-x="696" d="M348 508q-94 0 -169 68t-75 161q0 104 68 173t172 69q110 0 179 -66.5t69 -175.5q0 -102 -68.5 -165.5t-175.5 -63.5z" />
<glyph unicode="&#x2026;" horiz-adv-x="2048" d="M1585 96q0 43 34 79t97 36q46 0 80.5 -34.5t34.5 -88.5q0 -49 -33.5 -81t-81.5 -32q-53 0 -92 31t-39 90zM903 96q0 44 32.5 79.5t94.5 35.5q49 0 83 -34.5t34 -88.5q0 -49 -33.5 -81t-83.5 -32t-88.5 31.5t-38.5 89.5zM219 96q0 43 33 79t94 36q50 0 84.5 -34.5 t34.5 -88.5q0 -49 -34 -81t-85 -32q-50 0 -88.5 31.5t-38.5 89.5z" />
<glyph unicode="&#x202f;" horiz-adv-x="379" />
<glyph unicode="&#x2039;" horiz-adv-x="520" d="M53 434q0 5 10 15l318 317q8 8 12 8t10 -6l29 -29q6 -6 6 -10q0 -6 -8 -14l-186 -281l188 -282q6 -9 6 -15q0 -4 -6 -10l-31 -29l-8 -4q-3 0 -14 8l-318 320q-8 8 -8 12z" />
<glyph unicode="&#x203a;" horiz-adv-x="520" d="M125 94q-4 0 -10 6l-27 27q-6 6 -6 10q0 7 8 15l186 282l-188 281q-6 9 -6 14q0 4 6 10l29 31l8 4q4 0 14 -10l320 -318q8 -8 8 -12t-10 -14l-320 -318q-8 -8 -12 -8z" />
<glyph unicode="&#x205f;" horiz-adv-x="474" />
<glyph unicode="&#x20ac;" d="M655 51q107 0 171 73t102 210q6 17 18 14l31 -8q6 -3 6 -21l-12 -149l-8 -137q-2 -21 -6 -27t-17 -6q-18 0 -25 12l-24 58q-6 14 -17 14q-8 0 -18 -10q-36 -41 -95 -73t-122 -32q-200 0 -315 158q-115 161 -142 395h-139q-10 0 -14 3.5t-2 11.5l18 47q3 12 21 12h110 q-4 46 -4 94q0 54 2 72h-123q-10 0 -14 3t-2 11l16 47q3 13 21 13h112q13 86 38 166t65.5 152.5t91.5 126.5t118 86t142 32q64 0 110 -25t99 -78q10 -10 16 -10q12 0 21 21l14 39q7 12 27 12q7 0 10.5 -0.5t5.5 -5t2.5 -9t1.5 -18.5l8 -141l13 -152l2 -10q0 -7 -17 -14 l-16 -7l-8 -2q-11 0 -15 19q-32 95 -63 162q-28 65 -82 105t-131 40q-132 0 -203 -139q-73 -143 -82 -350h500q7 0 12.5 -4t3.5 -9l-18 -49q-2 -12 -27 -12h-473v-74q0 -26 2 -52t2 -40h424q8 0 13 -4t4 -8l-19 -49q-3 -13 -26 -13h-390q18 -222 92 -346.5t203 -124.5z" />
<glyph unicode="&#x2122;" horiz-adv-x="1859" d="M1530 1452h170q11 0 20 0.5t14 1.5h5q8 0 8 -10v-35q0 -14 -8 -14h-21q-28 0 -36.5 -9t-8.5 -34l-4 -271l4 -252q0 -55 35 -55h49q8 0 8 -12v-35q0 -12 -10 -12l-147 2l-152 -2q-10 0 -10 12v33q0 14 10 14h41q38 0 47 37q2 12 2 256v311h-6l-278 -622q-16 -25 -27 -25 q-15 0 -21 19l-253 626h-13v-276l-2 -174q0 -70 2 -78q4 -40 21 -57t49 -17h24q9 0 9 -14v-33q0 -12 -11 -12l-131 2l-135 -2q-10 0 -10 12v33q0 14 8 14h25q26 0 44 16.5t23 43.5q7 35 10 165q1 33 3 94t2 81v163q0 58 -58 58h-33q-6 0 -6 10v37q0 12 9 12l129 -4 q26 0 108 4q20 0 26.5 -3.5t12.5 -16.5l203 -508l223 510q4 10 11.5 13t25.5 3zM432 1116v-219v-82q5 -22 12 -31.5t25 -9.5h55q11 0 11 -12v-39q0 -8 -11 -8l-149 2l-160 -2q-12 0 -12 10v37q0 12 10 12h57q34 0 37 23q2 20 2 346v248q-121 0 -164 -15q-46 -15 -94 -100 q-3 -14 -18 -8l-19 8q-7 0 -4 8q6 25 14.5 61t16.5 72.5t10 46.5q3 17 12 17q1 0 4.5 -1.5t6.5 -2.5l14 -9q31 -16 62 -18l57 -2q132 -4 162 -4q34 0 194 4q10 2 43 2q31 2 58 14l20 13q2 1 4.5 2t3.5 1.5t2 0.5q8 0 11 -17q1 -3 2 -13.5t3.5 -31t4.5 -39.5q11 -83 14 -100 q0 -7 -6 -10l-16 -6q-14 -3 -17 10q-41 81 -76 98q-40 19 -182 19v-275z" />
<glyph unicode="&#x25ca;" horiz-adv-x="1155" d="M575 1368l-337 -674l337 -678h7l333 676l-333 676h-7zM627 1493l409 -803l-409 -799h-99l-409 799l411 803h97z" />
<glyph unicode="&#x25fc;" horiz-adv-x="860" d="M0 860h860v-860h-860v860z" />
<glyph unicode="&#xfb01;" horiz-adv-x="1120" d="M219 756h-137q-7 0 -11.5 6t-2.5 14l8 64q3 14 24 14h119v35q0 135 39 235t115 187q73 81 175 125.5t195 44.5q83 0 143 -43.5t62 -100.5q0 -46 -28 -73t-68 -27q-35 0 -64 18.5t-61 61.5q-25 33 -47.5 47t-56.5 14q-94 0 -156 -71q-59 -65 -79.5 -161t-20.5 -251v-41 h297q86 0 225 31q33 8 41 8q10 0 12 -5.5t0 -19.5q-6 -34 -6 -348v-223q0 -162 2 -176q0 -30 8 -41.5t31 -11.5h88q18 0 18 -19v-37q0 -18 -16 -18q-1 0 -25 1.5t-70.5 3t-101.5 1.5q-51 0 -97 -1.5t-72.5 -3t-30.5 -1.5q-17 0 -17 16v41q0 17 21 17h82q17 0 24.5 10.5 t7.5 36.5v487q0 94 -32.5 124t-139.5 30h-249v-183q0 -424 4 -452q0 -28 7.5 -40.5t29.5 -12.5h92q12 0 16 -3.5t4 -13.5v-37q0 -20 -12 -20q-2 0 -11 0.5t-26 1.5t-39.5 2t-57.5 1.5t-73 0.5q-60 0 -114.5 -1.5t-85.5 -3t-33 -1.5q-17 0 -17 14v45q0 15 21 15h106 q23 0 32 16t9 55v617z" />
<glyph unicode="&#xfb02;" horiz-adv-x="1116" d="M367 854h421q0 28 -6 340q-3 90 -43 137t-112 47q-113 0 -181 -71q-47 -51 -63 -131t-16 -213v-68v-41zM219 756h-137q-7 0 -11.5 6t-2.5 14l8 64q3 14 24 14h119v35q0 266 131 428q65 82 155.5 123t190.5 41q60 0 127.5 -15t98.5 -34q18 -9 18 -43q-4 -82 -4 -596v-183 q0 -434 2 -471q1 -41 12 -56t35 -15h96q25 0 25 -19v-35q0 -20 -14 -20q-2 0 -13 0.5t-31 1.5t-46 2t-63.5 1.5t-76.5 0.5q-57 0 -106 -1.5t-75.5 -3t-29.5 -1.5q-14 0 -14 20v35q0 11 5 15t22 4h79q40 0 43 45q2 47 2 540v103h-421v-183q0 -440 2 -460q2 -24 10.5 -34.5 t30.5 -10.5h100q12 0 16 -3.5t4 -13.5v-33q0 -24 -14 -24q-2 0 -12 0.5t-27.5 1.5t-41.5 2t-59.5 1.5t-74.5 0.5q-64 0 -119.5 -1.5t-84.5 -2.5l-29 -2q-17 0 -17 14v45q0 15 21 15h102q25 0 35 14t10 49v625z" />
<glyph unicode="&#xfb03;" horiz-adv-x="1689" d="M367 854h421v39q0 221 91 338l-2 4q-50 -1 -95 19t-69 53q-26 36 -107 36q-109 0 -168 -71q-45 -56 -58 -138.5t-13 -218.5v-61zM219 756h-137q-17 0 -14 22l8 62q3 14 24 14h119v39q0 228 137 385q146 162 332 162q83 0 154 -31.5t108 -89.5q64 78 165 120t198 42 q84 0 143.5 -42t61.5 -98q0 -45 -28.5 -72.5t-68.5 -27.5q-35 0 -64 18.5t-61 61.5q-25 33 -47.5 47t-56.5 14q-94 0 -156 -71q-59 -65 -79.5 -162t-20.5 -254v-41h297q85 0 225 31q33 8 41 8q10 0 12 -5.5t0 -19.5q-6 -34 -6 -348v-223q0 -162 2 -176q0 -30 8 -41.5 t31 -11.5h88q19 0 19 -19v-35q0 -20 -17 -20q-1 0 -24.5 1.5t-70 3t-101.5 1.5q-51 0 -97 -1.5t-73 -3t-31 -1.5q-16 0 -16 16v41q0 17 20 17h82q18 0 25.5 10.5t7.5 36.5v475q0 103 -32 134.5t-140 31.5h-250v-183q0 -424 4 -452q0 -28 7.5 -40.5t29.5 -12.5h92 q12 0 16.5 -3.5t4.5 -13.5v-33q0 -24 -13 -24q-1 0 -10.5 0.5t-27 1.5t-41 2t-61.5 1.5t-81 0.5q-68 0 -111 -2l-36 -2t-27.5 -1.5t-13.5 -0.5q-17 0 -17 14v45q0 15 21 15h67q26 0 37.5 16.5t11.5 54.5v617h-421v-183q0 -438 2 -452q5 -31 14.5 -42t38.5 -11h55 q14 0 18.5 -3.5t4.5 -13.5v-33q0 -24 -15 -24q-2 0 -28.5 1.5t-70 3t-85.5 1.5q-48 0 -102.5 -1.5t-90.5 -3t-40 -1.5q-17 0 -17 14v45q0 15 21 15h98q26 0 37.5 16.5t11.5 54.5v617z" />
<glyph unicode="&#xfb04;" horiz-adv-x="1685" d="M367 854h421v39q0 224 84 346l-2 4l-20 -2q-41 0 -79 18.5t-58 47.5q-26 36 -107 36q-109 0 -168 -71q-45 -56 -58 -138.5t-13 -218.5v-61zM1352 1188q-5 91 -46 142.5t-110 51.5q-112 0 -180 -71q-47 -51 -63.5 -131.5t-16.5 -214.5v-70v-41h422q0 190 -6 334zM219 756 h-133q-19 0 -16 26l6 58q3 14 24 14h119v39q0 228 137 385q146 162 332 162q80 0 146.5 -30.5t101.5 -84.5q126 156 330 156q59 0 125 -14t100 -31q13 -7 15.5 -14t2.5 -29q-4 -82 -4 -600v-183q0 -434 2 -471q1 -41 12 -56t35 -15h97q24 0 24 -19v-35q0 -20 -14 -20 q-2 0 -13 0.5t-31 1.5t-45.5 2t-63 1.5t-76.5 0.5q-57 0 -106 -1.5t-75.5 -3t-29.5 -1.5q-15 0 -15 20v35q0 11 5 15t22 4h80q40 0 43 45q2 47 2 540v103h-422v-183q0 -438 2 -452q5 -31 14.5 -42t38.5 -11h86q14 0 18.5 -3.5t4.5 -13.5v-33q0 -24 -15 -24q-2 0 -13 0.5 t-29.5 1.5t-43 2t-59 1.5t-70.5 0.5q-79 0 -122 -2q-17 -1 -36 -2t-29.5 -1.5t-14.5 -0.5q-17 0 -17 14v45q0 15 21 15h67q26 0 37.5 16.5t11.5 54.5v617h-421v-183q0 -438 2 -452q5 -31 14.5 -42t38.5 -11h55q14 0 18.5 -3.5t4.5 -13.5v-33q0 -24 -15 -24q-2 0 -28.5 1.5 t-70 3t-85.5 1.5q-48 0 -102.5 -1.5t-90.5 -3t-40 -1.5q-17 0 -17 14v45q0 15 21 15h98q26 0 37.5 16.5t11.5 54.5v617z" />
</font>
</defs>
</svg>
