<?xml version="1.0" standalone="no"?>
<!DOCTYPE svg PUBLIC "-//W3C//DTD SVG 1.1//EN" "http://www.w3.org/Graphics/SVG/1.1/DTD/svg11.dtd" >
<svg xmlns="http://www.w3.org/2000/svg" xmlns:xlink="http://www.w3.org/1999/xlink" version="1.1">
<metadata></metadata>
<defs>
<font id="ac_italicregular_italic" horiz-adv-x="1024" >
<font-face units-per-em="2048" ascent="1505" descent="-543" />
<missing-glyph horiz-adv-x="471" />
<glyph horiz-adv-x="0" />
<glyph horiz-adv-x="682" />
<glyph unicode=" "  horiz-adv-x="471" />
<glyph unicode="&#x09;" horiz-adv-x="471" />
<glyph unicode="&#xa0;" horiz-adv-x="471" />
<glyph unicode="!" horiz-adv-x="552" d="M70 86q0 45 31 78t75 33q41 0 69.5 -32.5t28.5 -70.5q0 -50 -30.5 -82t-79.5 -32q-33 0 -63.5 29.5t-30.5 76.5zM250 397q0 1 4 21q21 59 160 715l35 161q12 53 38.5 81t63.5 28q40 0 65 -26.5t25 -63.5q0 -28 -31 -107l-75 -194q-71 -182 -134 -340.5t-88 -220 t-24 -60.5q-4 -8 -7.5 -11.5t-6.5 -4t-11 -0.5q-14 0 -14 22z" />
<glyph unicode="&#x22;" horiz-adv-x="479" d="M516 958l31 150q50 231 51 235q11 35 32.5 47.5t59.5 12.5q25 0 43.5 -19t18.5 -45q0 -12 -47 -108q-13 -26 -26 -53t-19 -40.5t-9 -17.5q-71 -140 -84 -178zM270 958l31 150q50 231 51 235q11 35 32.5 47.5t59.5 12.5q25 0 43.5 -19t18.5 -45q0 -12 -47 -108 q-13 -26 -25.5 -53t-19 -40.5t-8.5 -17.5q-71 -140 -84 -178z" />
<glyph unicode="#" d="M729 807h-201l-102 -299h201zM397 406l-139 -406q-10 -31 -20 -31h-84q-11 0 -11 11l4 16l142 410h-193q-16 0 -10 16l25 72q3 10 7 12t15 2h186l103 299h-195q-17 0 -22.5 3t-3.5 11l24 76q3 12 23 12h198l136 394q6 18 20 18h82q8 0 8 -10l-4 -19l-131 -383h199 l131 385q9 27 24 27h78q10 0 10 -10l-4 -17l-131 -385h191q10 0 14 -3t2 -9l-24 -76q-1 -10 -6 -12t-23 -2h-182l-103 -299h209q25 0 19 -16l-25 -78q-2 -8 -27 -8h-204l-142 -414q-7 -23 -20 -23h-84q-10 0 -4 21l143 416h-201z" />
<glyph unicode="$" d="M745 324q0 91 -65 165l-88 -362q68 17 110.5 71.5t42.5 125.5zM526 117l105 426l-43 41l-39 37l-119 -484q39 -20 96 -20zM483 999q0 -100 60 -172l86 359q-66 -13 -106 -66t-40 -121zM690 1190l-100 -412l39 -37q12 -11 43 -34l108 458q-39 22 -90 25zM264 518l23 -6 q14 -6 8 -25q-14 -52 -14 -104q0 -138 94 -209l125 498q-76 76 -110 139t-34 139q0 47 20 96.5t55.5 93t91 73.5t120.5 36l41 160q3 17 16 14l37 -6q10 -7 4 -24l-36 -144q46 -3 92 -20l41 170q3 15 18 12l33 -6q12 -3 6 -25l-43 -178q9 -4 25.5 -13.5t29.5 -16.5t19 -7 q25 0 37 56q3 10 12 10h18q9 0 6 -19l-51 -317q-3 -12 -10 -12h-29q-10 0 -10 30q0 127 -65 209l-111 -458q141 -131 141 -277q0 -139 -81 -226.5t-208 -101.5l-47 -194q-6 -25 -20 -19l-33 11q-12 3 -6 28l43 172q-40 2 -98 15l-54 -213q-4 -14 -16 -11l-35 9q-12 3 -6 24 l53 215q-44 20 -92 68q-31 31 -43 31q-18 0 -32.5 -16t-34.5 -58q-7 -11 -15 -8l-16 8q-8 2 -4 18l129 365q6 17 16 14z" />
<glyph unicode="%" horiz-adv-x="1433" d="M1333 608q0 56 -29 89.5t-73 33.5q-74 0 -144 -94q-65 -84 -114 -221q-43 -128 -43 -223q0 -66 28.5 -109t65.5 -43q82 0 154 96q72 101 112 234q43 133 43 237zM817 233q-1 89 33.5 189.5t91.5 183t137 136t160 51.5q98 -3 151.5 -63t55.5 -161q2 -132 -55.5 -268.5 t-156 -227t-202.5 -87.5t-158.5 67t-56.5 180zM672 1137q0 56 -29.5 89.5t-73.5 33.5q-72 0 -143 -95q-66 -86 -115 -221q-43 -128 -43 -223q0 -66 28.5 -109t65.5 -43q82 0 154 97q74 105 113 233q43 133 43 238zM336 12q0 12 8 25l836 1276q5 8 12 8q2 0 14 -4l45 -29 q9 -3 9 -10q0 -4 -7 -14l-839 -1280q-9 -15 -17 -15q-7 0 -16 6l-39 27q-6 3 -6 10zM156 762q-2 120 56 251t159 221t207 87q98 -3 151 -62.5t55 -160.5q1 -98 -33 -204t-90 -190.5t-133.5 -138t-156.5 -51.5q-103 3 -158 67.5t-57 180.5z" />
<glyph unicode="&#x26;" horiz-adv-x="1744" d="M205 483q0 81 23 154.5t60 125t76 87t78 53.5q-75 100 -75 244q0 121 86 208t221 87q87 0 142.5 -44.5t55.5 -117.5q0 -56 -34 -95.5t-62 -39.5q-8 0 -8 16q0 15 2 21t2 24q0 50 -36.5 82.5t-88.5 32.5q-85 0 -140.5 -66.5t-55.5 -169.5q0 -93 51 -161q33 10 71 10 q35 0 70 -15t35 -34q0 -37 -18 -67t-42 -30q-23 0 -61.5 14.5t-52.5 26.5q-21 21 -35 21q-10 0 -27 -10q-54 -35 -86 -110t-32 -167q0 -195 163 -323t437 -131q128 -1 239 39t182.5 104t112 141.5t39.5 153.5q-2 128 -89 223.5t-216 95.5q-53 0 -93 -20.5t-60.5 -52t-30 -61 t-9.5 -54.5q0 -60 23 -104t43 -44q8 0 13 9t5 22q0 28 24.5 55t63.5 27q44 0 70.5 -28.5t26.5 -75.5q0 -39 -33.5 -70t-91.5 -31q-74 0 -145.5 70t-71.5 182q0 75 34 140t107 108t172 43q68 0 147 -8q46 -6 72 -6q328 0 328 180q0 55 -37 99t-80 44q-24 0 -24 -28 q0 -13 2 -17q5 -29 -19 -57.5t-65 -28.5t-64.5 22.5t-23.5 51.5q0 59 45 93t110 34q99 0 167.5 -65t68.5 -150q0 -265 -334 -311q-41 -5 -41 -25q0 -13 12 -31q71 -110 74 -266q2 -163 -90 -292t-242 -197t-327 -68q-155 0 -280 32.5t-204.5 85t-132.5 123t-75 142 t-21 145.5z" />
<glyph unicode="'" horiz-adv-x="294" d="M281 958l30 150q50 231 51 235q11 35 33 47.5t60 12.5q25 0 43 -19t18 -45q0 -12 -47 -108q-13 -26 -25.5 -53t-19 -40.5t-8.5 -17.5q-71 -140 -84 -178z" />
<glyph unicode="(" horiz-adv-x="704" d="M874 1468q10 7 17 7q10 0 22 -21q9 -9 9 -20t-19 -27q-269 -219 -439 -578t-167 -739q0 -200 12 -295q15 -116 31 -182l2 -8q0 -11 -29 -21q-15 -6 -22 -6q-11 0 -17 12q-31 66 -67 240q-31 169 -31 311q0 392 186 736q190 350 512 591z" />
<glyph unicode=")" horiz-adv-x="704" d="M-53 -416q-9 -6 -17 -6q-10 0 -22 21q-8 8 -8 20t18 27q269 219 439 578t167 739q0 199 -12 294q-15 118 -31 183l-2 8q0 10 29 20q18 7 22 7q10 0 17 -13q28 -59 65 -239q33 -180 33 -312q0 -393 -186 -737q-189 -349 -512 -590z" />
<glyph unicode="*" horiz-adv-x="614" d="M586 1364q0 -29 -35 -113q-39 -93 -64 -147l2 -4q6 4 64 51q140 123 176 123q25 0 40 -18.5t15 -43.5q0 -43 -82 -67q-67 -20 -213 -51v-7q42 -10 127 -36q92 -25 101 -31q35 -15 35 -37q0 -25 -26.5 -51.5t-55.5 -26.5q-25 -4 -61.5 29t-79 87.5t-42.5 55.5l-4 -4 q8 -80 9 -106q6 -76 6 -113q0 -34 -18 -58t-56 -24q-51 0 -51 45q0 43 98 256l-4 4l-35 -30q-90 -79 -136.5 -114.5t-70.5 -35.5q-21 0 -37 13.5t-16 37.5q0 44 51 70q13 8 125 39q111 30 119 30v5l-100 24l-103 31q-29 12 -41 22t-12 29q0 27 22 50.5t48 23.5 q25 0 59 -28.5t92 -96.5l41 -47l2 4q0 18 -8 94q-8 79 -8 129q0 29 20 52.5t53 23.5q54 0 54 -39z" />
<glyph unicode="+" d="M485 82v354h-338v111h338v354h121v-354h336v-111h-336v-354h-121z" />
<glyph unicode="," horiz-adv-x="512" d="M23 -260h-9q-13 0 -16 18v6q0 10 4.5 14t17.5 9q54 15 107 63q57 48 57 113q0 35 -9.5 55t-39.5 50l-3 2q-4 3 -9 7t-11 10t-12 13.5t-11 16.5t-8 20t-3 23q0 39 25 66.5t65 27.5q61 0 103 -65.5t44 -133.5q2 -62 -22.5 -116.5t-61 -89.5t-79 -60.5t-76.5 -37t-53 -11.5z " />
<glyph unicode="-" horiz-adv-x="856" d="M145 555h662q18 0 18 -16v-70q0 -25 -18 -25h-662q-16 0 -16 15v76q0 20 16 20z" />
<glyph unicode="." horiz-adv-x="512" d="M84 90q0 40 29 73.5t77 33.5q55 0 86 -35t31 -72q0 -44 -33 -77t-81 -33q-47 0 -78 31.5t-31 78.5z" />
<glyph unicode="/" horiz-adv-x="675" d="M909 1399l60 -27q6 -3 6 -10q0 -10 -6 -19l-985 -1355q-19 -26 -31 -17l-62 35q-4 4 -4 6q0 6 11 21l983 1353q13 19 28 13z" />
<glyph unicode="0" horiz-adv-x="1044" d="M852 492q0 119 -74.5 197.5t-167.5 78.5q-63 0 -104 -11.5t-86 -45.5q-71 -55 -110.5 -153.5t-39.5 -207.5q0 -133 77.5 -210t176.5 -77q173 0 250 127q78 132 78 302zM995 463q1 -91 -35.5 -180.5t-96 -156t-140.5 -107t-164 -39.5q-204 3 -319 118q-106 109 -109 289 q-1 60 19 125t60 126t93 109.5t125 77t150 27.5q191 -3 303 -109t114 -280z" />
<glyph unicode="1" d="M676 717q0 49 -82 49h-55q-16 0 -13 18l11 37q7 17 20 17q4 0 35.5 -2t85 -3.5t110.5 -1.5q53 0 104 1.5t82 3.5t36 2q19 0 16 -17l-8 -35q-5 -12 -9 -16t-14 -4h-61q-53 0 -79.5 -22t-51.5 -85l-193 -491q-14 -35 -14 -59q0 -28 20 -35.5t74 -7.5h41q13 0 10 -17 l-10 -39q-6 -16 -20 -16q-4 0 -36 1.5t-85.5 3t-110.5 1.5q-61 0 -113.5 -1.5t-80.5 -3t-29 -1.5q-13 0 -10 16l10 43q3 13 18 13h45q74 0 98.5 16.5t53.5 91.5l195 502q10 30 10 41z" />
<glyph unicode="2" d="M106 18q0 19 23 29q87 38 236 129q154 97 272 209q123 114 123 213q0 65 -46 109.5t-122 44.5q-63 0 -118.5 -27t-94.5 -72q-19 -22 -31 -22q-10 0 -21.5 8t-11.5 16q0 6 13 29q126 168 340 168q94 0 170 -55q77 -56 77 -164q0 -123 -122 -234.5t-377 -251.5 q-21 -12 -21 -22t17 -10l282 6q62 0 107 63q10 13 14 13q5 0 16 -7q19 -13 13 -22l-88 -158q-9 -16 -15.5 -21t-17.5 -5q-3 0 -14 8t-33 8h-547q-23 0 -23 18z" />
<glyph unicode="3" d="M-94 -272q0 26 21 51.5t50 25.5q42 0 67 -34t19 -76q-1 -6 -2 -13.5t-1.5 -11.5t-0.5 -6q0 -18 19 -37q13 -21 54.5 -37t94.5 -16q137 0 235.5 116t98.5 265q0 118 -48 194t-128 111q-23 13 -23 25q0 10 5.5 14.5t19.5 9.5q127 36 229.5 124.5t102.5 178.5q0 60 -41 99 t-113 39q-117 0 -205 -91q-25 -28 -36 -28q-5 0 -18 12.5t-13 18.5q0 8 20 34q55 68 144.5 112t179.5 44q110 0 170.5 -57.5t60.5 -135.5q0 -107 -102 -202q-103 -95 -221 -150q68 -35 119 -121q48 -78 51 -188q1 -84 -38 -172t-104.5 -159t-159 -115.5t-192.5 -43.5 q-132 3 -223.5 68.5t-91.5 151.5z" />
<glyph unicode="4" d="M608 102l213 500q1 3 2 6.5t1.5 5t0.5 2.5q0 17 -14 17t-29 -15l-512 -473q-16 -16 -16 -26q0 -17 29 -17h325zM698 0l-143 -371q-12 -30 -33 -30h-100q-14 0 -14 14l4 18l155 369h-467q-37 0 -37 25q0 18 21 36l901 813q31 27 47 27q13 0 21.5 -11t3.5 -22l-316 -766 h209q23 0 13 -26l-25 -62q-4 -10 -11.5 -12t-29.5 -2h-199z" />
<glyph unicode="5" d="M946 870q3 3 7.5 8.5t6.5 8t5 5.5t5.5 4t4.5 1h22q5 0 5.5 -6.5t-3.5 -13.5l-73 -162q-11 -25 -82 -25h-330l-72 -229q139 -75 217 -168q97 -114 97 -273q0 -107 -37 -203.5t-98.5 -164t-144.5 -107t-173 -39.5q-110 0 -192 52q-80 53 -80 125q0 32 17.5 54.5t47.5 22.5 q29 0 46 -22.5t40 -77.5q14 -38 57 -63t99 -25q108 0 194 107t86 253q0 84 -16 141t-55 113q-31 43 -85.5 87.5t-109.5 70.5q-18 9 -18 25l4 20l143 424q4 12 11 15t28 3h326q44 0 63.5 7.5t36.5 31.5z" />
<glyph unicode="6" d="M864 547q0 89 -48 142.5t-118 55.5q-74 2 -135.5 -44.5t-99 -119t-57.5 -153.5t-19 -154q0 -112 45.5 -175.5t110.5 -63.5q96 0 166 94q74 95 114 217q41 128 41 201zM248 299q0 187 88 370t254 351q167 170 418 291q40 18 55 18q10 0 17 -12t7 -25q0 -18 -38 -32 q-124 -48 -283 -200.5t-219 -283.5l-2 -8q0 -13 20 -4q81 47 174 47q127 0 197 -81.5t72 -217.5q1 -63 -21 -136.5t-65.5 -144t-99.5 -128t-130 -91.5t-151 -32q-122 3 -207 79q-86 80 -86 240z" />
<glyph unicode="7" d="M1026 811q0 -18 -16 -37q-4 -6 -15.5 -26t-34 -60.5t-45.5 -79.5l-94 -162q-35 -60 -125.5 -213.5t-161 -277t-135.5 -244.5q-54 -101 -102 -184q-22 -39 -43 -56.5t-55 -17.5q-25 0 -39.5 14.5t-14.5 40.5q0 36 35 86q16 22 297 451q273 417 371 580q16 29 16 45 q0 35 -55 35h-334q-30 0 -57.5 -10.5t-47 -25.5t-38 -36t-28 -36t-19.5 -31.5t-11 -18.5q-7 -10 -18 -10q-29 0 -29 14q0 7 6 16l156 320q9 18 27 18q14 0 14 -24q6 -52 78 -52l483 2q16 0 25.5 -6t9.5 -14z" />
<glyph unicode="8" d="M782 307q0 63 -26.5 118t-85.5 134l-33 45q-303 -134 -303 -358q0 -92 62 -148.5t136 -56.5q110 0 180 70.5t70 195.5zM569 1018q3 -98 19 -133.5t100 -134.5l33 -39q141 80 205.5 157t64.5 193q0 71 -59 131.5t-135 60.5q-51 0 -92.5 -18.5t-66.5 -46.5t-41.5 -61 t-22.5 -61t-5 -48zM203 233q0 136 95.5 234t295.5 188q-92 122 -107 146q-30 46 -42 86t-11 98q2 58 26 116t67.5 108t111.5 81t149 31q85 0 151.5 -23.5t104.5 -61.5t57 -80t19 -83q0 -144 -88.5 -237.5t-267.5 -173.5q94 -116 128 -188.5t34 -139.5q-1 -46 -15 -93 t-45.5 -94.5t-77 -84t-115 -59.5t-153.5 -23q-73 0 -134.5 24t-100.5 61.5t-60.5 81t-21.5 86.5z" />
<glyph unicode="9" d="M330 295q2 -91 39.5 -150t111.5 -59q97 0 173 68.5t116.5 181.5t40.5 248q0 87 -47 144t-121 60q-66 3 -127.5 -51.5t-101 -134t-62.5 -163t-22 -144.5zM874 748q68 -88 72 -234q3 -138 -69 -298t-188 -299.5t-266.5 -254.5t-299.5 -170q-15 -6 -27 -6q-7 0 -12.5 10.5 t-5.5 22.5q0 13 26 22q76 30 195.5 133.5t217.5 218.5t124 181l-12 8q-31 -24 -78.5 -39.5t-91.5 -15.5q-59 0 -107 19.5t-78 50t-51 71t-29.5 80.5t-9.5 80q-2 112 59 234.5t169.5 207.5t226.5 82q157 -6 235 -104z" />
<glyph unicode=":" horiz-adv-x="512" d="M57 90q0 40 29.5 73.5t77.5 33.5q55 0 86 -35t31 -72q0 -44 -33.5 -77t-81.5 -33q-47 0 -78 31.5t-31 78.5zM285 745q0 40 29 73.5t77 33.5q55 0 86 -35t31 -72q0 -44 -33.5 -77t-81.5 -33q-47 0 -77.5 31.5t-30.5 78.5z" />
<glyph unicode=";" horiz-adv-x="512" d="M29 -260h-9q-13 0 -16 18v6q0 10 4.5 14t18.5 9q52 15 106 63q57 48 57 113q0 35 -9.5 55t-39.5 50l-3 2q-4 3 -9 7t-11 10t-12 13.5t-11 16.5t-8 20t-3 23q0 39 25 66.5t65 27.5q61 0 103.5 -65.5t44.5 -133.5q2 -62 -22.5 -116.5t-61.5 -89.5t-79.5 -60.5t-76.5 -37 t-53 -11.5zM250 745q0 40 29 73.5t77 33.5q55 0 86 -35t31 -72q0 -44 -33.5 -77t-81.5 -33q-47 0 -77.5 31.5t-30.5 78.5z" />
<glyph unicode="&#x3c;" d="M172 461v65l637 375v-135l-453 -262v-10l453 -273v-139z" />
<glyph unicode="=" d="M942 399v-110h-795v110h795zM942 709v-111h-795v111h795z" />
<glyph unicode="&#x3e;" d="M893 522v-65l-637 -375v135l453 262v10l-453 273v139z" />
<glyph unicode="?" horiz-adv-x="878" d="M264 80q0 44 28 75t75 31q44 0 74 -31.5t30 -74.5q0 -35 -29.5 -67.5t-70.5 -32.5q-40 0 -73.5 29t-33.5 71zM950 1135q0 -123 -57 -203q-61 -86 -131 -133q-75 -51 -193 -111q-143 -71 -191 -111.5t-48 -99.5q0 -46 40 -74t103 -28q47 0 94 24t70 52q8 8 18 -5l15 -16 q7 -7 4 -16q-43 -48 -101 -82.5t-118 -34.5q-86 0 -143.5 56.5t-57.5 156.5q0 47 18 87t59 78t83.5 68t113.5 72l52 31q80 47 147 98q115 85 115 219q0 60 -55 114t-150 54q-99 0 -169.5 -54t-70.5 -132q0 -40 20 -66t42 -26q24 0 33 18q-3 21 -3 31q0 34 28.5 64t74.5 30 q35 0 55.5 -21.5t20.5 -48.5q0 -61 -50 -102t-114 -41q-71 0 -119.5 40.5t-48.5 117.5q0 98 88 180t225 82q85 0 147.5 -27.5t94 -71t45.5 -85.5t14 -84z" />
<glyph unicode="@" horiz-adv-x="1433" d="M621 428q53 0 133 68q79 70 149 155q75 91 90 125q51 99 51 152q0 44 -22 74t-57 30q-77 0 -168 -98q-98 -106 -158 -229q-66 -135 -66 -216q0 -61 48 -61zM721 -31q-278 0 -441 150t-163 393q0 226 125 430q128 209 329 334q204 127 418 127q247 0 380 -136.5 t136 -381.5q1 -77 -24.5 -155.5t-74.5 -149t-115 -125.5t-154 -86t-183 -29q-29 0 -50 19t-21 44q0 67 67 232l-8 4q-79 -112 -192 -203q-116 -96 -213 -96q-43 0 -71 30.5t-28 82.5q0 121 90 274q88 150 222 256q131 104 239 104q82 0 119 -67l25 37q8 14 18 14h74 q19 0 10 -20q-13 -26 -111 -256l-30 -72q-39 -94 -56 -145q-26 -79 -26 -123q0 -39 57 -39q44 -1 98 33.5t104 94.5t83 156t32 205q-1 210 -109 318t-310 108q-191 0 -355 -117t-258 -301t-94 -372q0 -227 136.5 -361.5t348.5 -134.5q246 0 373 80l27 -49q-48 -39 -172 -74 q-115 -33 -252 -33z" />
<glyph unicode="A" horiz-adv-x="1267" d="M989 688l158 541l2 8q0 16 -23 16q-14 0 -24 -10l-447 -555h334zM602 616l-287 -360q-84 -106 -84 -137q0 -23 19.5 -36t52.5 -13h74q17 0 14 -21l-8 -39q-3 -16 -21 -16q-3 0 -38.5 1.5t-98 3t-131.5 1.5q-57 0 -110 -1.5t-84 -3t-35 -1.5q-11 0 -15.5 3.5t-3.5 10.5 l11 45q3 17 14 17h31q123 0 248 149l948 1133q10 11 19.5 15t37.5 5q52 2 96 14q3 1 17.5 5.5t29 8t21.5 3.5q26 0 20 -21l-301 -1136q-20 -81 -20 -119q0 -24 22.5 -40.5t53.5 -16.5h55q19 0 16 -21l-6 -37q-1 -10 -6.5 -14t-17.5 -4q-4 0 -39 1.5t-92 3t-115 1.5 q-95 0 -197 -4q-12 -2 -43 -2q-23 0 -20 20l8 39q3 17 16 17h39q69 0 107 32.5t65 135.5l103 378h-365z" />
<glyph unicode="B" horiz-adv-x="1267" d="M424 137q0 -35 33 -53q18 -8 60.5 -16.5t66.5 -8.5q187 0 288 95.5t101 236.5q0 74 -35.5 130.5t-93.5 88t-123 47t-133 15.5h-29l-125 -471q-10 -38 -10 -64zM700 733q175 0 291 84q117 88 117 252q2 100 -89 172t-231 72q-13 0 -59 -4l-151 -568q41 -8 122 -8z M535 1241q0 55 -113 55h-53q-8 0 -13 6t-4 13l8 43q3 14 27 14l166 2l289 4q197 4 317 -67q59 -37 94 -91.5t35 -119.5q0 -176 -123 -271q-124 -98 -284 -124q-17 -3 -4 -13q131 -42 204.5 -127t73.5 -205q0 -54 -27 -120t-92 -127q-131 -122 -432 -119l-137 2q-35 0 -81 2 t-58 2t-59 -2t-83 -2l-143 -2q-21 0 -18 16l8 43q3 17 18 17h80q54 0 83.5 30t47.5 95l260 972q13 50 13 74z" />
<glyph unicode="C" horiz-adv-x="1363" d="M1143 -45l-37 10q-9 3 -6 17q0 2 3 14t3 20q0 17 -9.5 28t-23.5 11q-23 0 -90 -28q-42 -20 -125 -37q-88 -21 -158 -21q-209 0 -350 136t-141 352q0 174 78 368q79 190 219 342q100 110 231 173t262 63q76 0 138 -19.5t133 -68.5q8 -5 29 -21t39 -26.5t34 -10.5 q39 0 53 64q6 18 19 12l26 -6q19 -3 13 -20l-109 -424q-4 -10 -7.5 -12.5t-14.5 -0.5l-29 4q-15 3 -12 21q10 52 10 90q0 142 -83.5 243t-223.5 101q-120 0 -210.5 -58.5t-182.5 -191.5q-101 -148 -152 -319.5t-51 -323.5q0 -98 29.5 -174.5t77 -120.5t100.5 -66t106 -22 q360 0 510 363q6 13 9.5 15.5t11.5 0.5l34 -10q14 -3 11 -19l-146 -438q-5 -13 -18 -10z" />
<glyph unicode="D" horiz-adv-x="1591" d="M430 131q0 -61 145 -61q386 0 586 170q98 79 174 241q76 158 76 328q0 98 -35.5 189t-95.5 151q-90 93 -233 133q-105 27 -211 27q-103 0 -127 -6l-265 -1086q-14 -60 -14 -86zM514 1225q0 71 -108 71h-93q-14 0 -19 3.5t-1 13.5l12 45q4 10 9 12t24 2q50 0 170 6 q11 0 47.5 2t62.5 2l111 2q251 5 430 -40t289 -158q86 -86 120 -173.5t34 -197.5q0 -262 -121 -430q-120 -167 -258 -246q-155 -87 -316.5 -117.5t-353.5 -27.5l-147 2l-152 4q-48 1 -83 1t-62.5 -1t-43.5 -2.5t-27 -2.5t-13 -1q-10 0 -14.5 4t-2.5 12l12 45q3 15 21 15h61 q67 0 108.5 35.5t63.5 125.5l236 963q1 6 2 13.5t1.5 11.5t0.5 6z" />
<glyph unicode="E" horiz-adv-x="1370" d="M561 1210q0 47 -34 70t-89 23h-65q-19 0 -13 22l11 39q3 14 24 14l25 -1q24 -1 53 -1q114 -4 205 -4h131q130 0 356 4q42 0 77.5 0.5t55.5 1t25 0.5q23 0 30 -7t13 -32l66 -280v-6q0 -10 -13 -13l-22 -8q-11 -7 -21 6l-192 248q-10 17 -33 17h-373l-176 -539h197 q47 0 72.5 2.5t53 11t45 27.5t35.5 50t37 81q3 14 15 10l30 -6q16 -3 13 -16l-111 -408q-3 -15 -14 -12l-33 4q-11 2 -8 16q2 8 2 35q-2 29 -7 49.5t-12 36t-22 25t-29 15.5t-41.5 8.5t-52 3.5t-67.5 1h-123l-199 -628h530q94 0 164 86l164 206q9 15 25 5l20 -13 q12 -12 6 -28l-104 -297q-7 -23 -15.5 -29t-29.5 -6l-228 4l-413 2h-238l-192 -2l-62 -4q-22 0 -16 16l6 43q3 17 16 17h76q59 0 94 28t54 86l311 973q10 38 10 53z" />
<glyph unicode="F" horiz-adv-x="1269" d="M575 1257q0 46 -63 46h-70q-10 0 -13 3.5t-1 14.5l12 41q3 16 25 16q35 0 49 -2q114 -4 176 -4q277 0 547 6q39 1 79 6t66.5 10t32.5 5q21 0 21 -33q7 -85 16 -152q11 -84 25 -167v-5q0 -10 -11 -14l-30 -12q-14 -7 -17 10q-7 24 -59 115q-55 96 -68 114q-21 27 -28 29 q-11 5 -47 8q-24 3 -195 6q-44 1 -132.5 3t-119.5 2l-172 -549l305 4q92 1 122 36.5t67 155.5q4 12 6 19q1 9 7.5 11t16.5 -1l33 -6q11 -3 8 -19l-121 -514q-6 -16 -20 -10l-35 4q-15 3 -12 19q12 67 12 114q0 55 -24 80.5t-80 26.5l-308 12l-139 -465q-18 -61 -18 -92 q0 -32 18.5 -45.5t57.5 -13.5h57q21 0 18 -17l-14 -47q-3 -12 -25 -12q-3 0 -33 1.5t-88 3t-128 1.5q-75 0 -133 -1.5t-86 -3t-29 -1.5q-18 0 -15 16l9 43q3 17 20 17h59q102 0 142 125l321 1030q6 18 6 32z" />
<glyph unicode="G" horiz-adv-x="1452" d="M1194 61q-223 -92 -397 -92q-173 0 -307.5 76.5t-206.5 206.5t-74 291q-2 171 68.5 332t186.5 277t270.5 185t312.5 66q107 -1 194 -31t137 -72q35 -24 56 -24q20 0 31 14.5t22 50.5q3 12 20 9l25 -7q15 -3 12 -16l-117 -412q-3 -15 -24 -12l-27 4q-19 3 -12 21 q10 52 10 82q0 85 -37 157t-113 118.5t-177 47.5q-175 3 -323.5 -112t-233 -306.5t-82.5 -410.5q1 -112 32 -201.5t83.5 -145.5t119.5 -85t143 -29q154 0 256 86q26 22 37 70l41 198q4 20 4 39q0 34 -20 47t-66 13h-75q-24 0 -15 20l8 39q1 10 6 13t17 3q31 0 43 -2 q110 -4 195 -4q57 0 106.5 1.5t78 3t32.5 1.5q21 0 18 -20l-6 -39q-3 -16 -19 -16h-32q-39 0 -61 -17t-31 -57l-72 -316q-4 -20 -11.5 -28.5t-25.5 -16.5z" />
<glyph unicode="H" horiz-adv-x="1605" d="M539 664l-148 -459q-16 -50 -16 -82q0 -30 18 -41.5t60 -11.5h71q8 0 13 -5.5t4 -11.5l-9 -41q-3 -18 -22 -18q-3 0 -37 1.5t-94.5 3t-128.5 1.5q-61 0 -115.5 -1.5t-84.5 -3t-32 -1.5q-17 0 -14 24l8 35q3 17 19 17h49q49 0 80.5 36t58.5 119l320 981q6 18 6 33 q0 30 -21 47t-57 17h-74q-16 0 -12 20l10 39q7 16 21 16q3 0 41 -1.5t99 -3t118 -1.5q51 0 108 1.5t94.5 3t42.5 1.5q10 0 15.5 -4t3.5 -12l-14 -45q-3 -14 -19 -14h-53q-60 0 -87 -22.5t-48 -86.5l-148 -457h744l151 477q4 16 4 31q0 58 -69 58h-49q-7 0 -12 6t-3 14l10 43 q3 12 21 12q4 0 41 -1.5t90.5 -3t99.5 -1.5t97 1.5t85.5 3t39.5 1.5q12 0 17 -4t3 -10l-12 -45q-6 -16 -19 -16h-59q-43 0 -67 -23.5t-44 -85.5l-317 -981q-14 -43 -14 -72q0 -33 16.5 -52t46.5 -19h74q22 0 16 -21l-10 -41q-3 -14 -25 -14q-2 0 -32.5 1.5t-89 3t-128.5 1.5 q-64 0 -122.5 -1.5t-92 -3t-36.5 -1.5q-20 0 -17 24l4 31q3 21 19 21h57q63 0 98.5 37t69.5 141l135 416h-747z" />
<glyph unicode="I" horiz-adv-x="735" d="M532 1231q0 72 -83 72h-95q-13 0 -17 3t-1 13l10 47q3 12 27 12q29 0 41 -2q15 0 92 -2t143 -2q70 0 135.5 1.5t104.5 3t45 1.5q28 0 22 -20l-10 -39q-3 -16 -22 -16h-39q-97 0 -131 -25.5t-60 -120.5l-256 -948q-10 -42 -10 -59q0 -41 29 -60.5t90 -19.5h71q16 0 13 -21 l-6 -39q-1 -10 -6 -13t-19 -3q-2 0 -41 1.5t-109 3t-147 1.5q-71 0 -142 -1.5t-114.5 -3t-46.5 -1.5q-19 0 -16 16l8 39q5 13 8 17t10 4h88q32 0 52.5 2t38 10t26.5 16t19 29t16 39t16 55l256 946q10 45 10 64z" />
<glyph unicode="J" horiz-adv-x="706" d="M252 -238q-132 -172 -322 -172q-98 0 -147 45t-49 93q0 45 26 76.5t66 31.5q39 0 64.5 -26.5t25.5 -59.5t-12 -51q-9 -13 0 -25q14 -14 69 -14q135 0 240 360l334 1156q12 46 12 61q0 66 -88 66h-68q-21 0 -18 16l10 43q3 16 21 16q2 0 36.5 -1.5t96 -3t127.5 -1.5 q65 0 124 1.5t92.5 3t35.5 1.5q21 0 18 -20l-8 -41q-3 -14 -20 -14h-54q-56 0 -90.5 -35.5t-62.5 -132.5l-265 -926q-32 -113 -88 -248q-54 -129 -106 -199z" />
<glyph unicode="K" horiz-adv-x="1400" d="M410 145q0 -36 21 -55.5t58 -19.5h52q17 0 14 -21l-8 -39q-3 -16 -27 -16q-4 0 -40.5 1.5t-95 3t-116.5 1.5q-44 0 -82.5 -0.5t-63.5 -1.5t-43.5 -2t-28.5 -1.5t-11 -0.5q-8 0 -13.5 6t-2.5 16l8 37q3 17 22 17h58q42 0 76.5 31.5t54.5 91.5l315 978q12 41 12 68 q0 64 -80 64h-51q-24 0 -18 20l14 43q3 12 25 12q3 0 33 -1.5t83.5 -3t112.5 -1.5q70 0 128 1.5t88.5 3t33.5 1.5q15 0 12 -20l-6 -39q-1 -10 -6 -13t-18 -3h-50q-51 0 -82.5 -26t-50.5 -83l-153 -483q68 0 98.5 10t71.5 47l82 72q82 73 278 250q93 87 139 145q17 24 17 37 q0 33 -51 33h-25q-22 0 -16 20l8 37q6 16 22 16q4 0 37.5 -1.5t86 -3t102.5 -1.5q52 0 97.5 1.5t71.5 3t29 1.5q13 0 19 -4.5t4 -13.5l-8 -37q-4 -20 -21 -20h-63q-76 0 -162 -68q-47 -35 -328 -285q-270 -240 -289 -264q1 -2 170 -252q136 -198 195 -272q32 -37 74.5 -64.5 t72.5 -27.5h60q10 0 15 -6.5t3 -14.5l-8 -35q-5 -13 -9.5 -16.5t-17.5 -3.5q-5 0 -32.5 1.5t-75.5 3t-101 1.5q-76 0 -212 -4q-14 -2 -46 -2q-21 0 -18 22l4 33q3 21 19 21h30q27 0 46.5 12t19.5 29q0 8 -4 16l-27 43l-156 233q-135 203 -149 222q-13 17 -27 22.5t-45 5.5 l-145 -448q-10 -31 -10 -60z" />
<glyph unicode="L" horiz-adv-x="1280" d="M555 1239q0 35 -23 49.5t-77 14.5h-76q-10 0 -14.5 4t-2.5 12l15 47q2 12 24 12q2 0 38.5 -1.5t103 -3t141.5 -1.5q76 0 144.5 1.5t106.5 3t40 1.5q19 0 16 -16l-10 -43q-6 -16 -25 -16h-92q-61 0 -91 -28.5t-56 -113.5l-320 -1032l-4 -25q0 -34 56 -34h81q377 0 424 8 q45 6 72 33q24 21 90 118q64 94 74 117q3 14 20 4l21 -8q15 -6 12 -18l-49 -170q-26 -87 -37 -152q-1 -13 -8.5 -23t-15.5 -10q-4 0 -54 13q-47 12 -75 12q-19 0 -54.5 1t-52.5 1q-137 4 -373 4q-54 0 -205.5 -3t-248.5 -3h-52q-19 0 -16 20l8 39q3 17 19 17h51 q71 0 105 29.5t63 121.5l295 955q12 38 12 63z" />
<glyph unicode="M" horiz-adv-x="1921" d="M567 1245q0 28 -28.5 43t-77.5 15h-74q-28 0 -25 20l9 35q5 13 8.5 16.5t13.5 3.5q2 0 12.5 -0.5t31 -1.5t42.5 -2q53 -2 316 -2q23 0 30.5 -8.5t10.5 -38.5l98 -989q3 -43 20 -43q11 0 31 26l723 1020q23 33 53 33q100 0 175.5 1.5t109.5 3t35 1.5q21 0 18 -16l-8 -43 q-1 -10 -5 -13t-15 -3h-62q-35 0 -58.5 -35.5t-45.5 -116.5l-265 -954q-8 -27 -8 -54q0 -73 70 -73h63q18 0 15 -17l-8 -43q-1 -10 -6 -13t-19 -3q-4 0 -36 1.5t-87 3t-115 1.5q-73 0 -135.5 -1.5t-95.5 -3t-35 -1.5q-12 0 -15.5 4t-2.5 16l4 35q3 21 22 21h54 q70 0 109.5 35.5t60.5 109.5l274 989q2 2 2 10q0 17 -12 17q-15 0 -23 -14l-839 -1186q-23 -33 -48 -33q-28 0 -34 47l-117 1153q-3 31 -16 31q-11 0 -17 -21l-336 -993q-16 -50 -16 -82q0 -63 61 -63h72q10 0 13 -4.5t1 -16.5l-6 -39q-3 -16 -24 -16q-4 0 -33 1.5t-77.5 3 t-100.5 1.5q-47 0 -92.5 -1.5t-74 -3t-32.5 -1.5q-15 0 -12 16l8 43q0 17 14 17h41q71 0 104.5 31t61.5 110l336 967q14 38 14 67z" />
<glyph unicode="N" horiz-adv-x="1527" d="M532 1229q0 74 -126 74h-78q-20 0 -17 24l8 31q2 6 3 8t3 5.5t4 4.5t5 1.5t8 0.5l39 -2q39 -1 122 -2.5t191 -1.5q12 0 20 -6.5t11 -13t6.5 -18t5.5 -15.5l441 -983q10 -23 16 -23q11 0 35 70l268 801q10 29 10 53q0 66 -75 66h-72q-14 0 -19 5t-4 17l6 37q3 16 21 16 q4 0 34.5 -1.5t84.5 -3t114 -1.5q55 0 114.5 3t62.5 3q24 0 18 -26l-6 -33q-1 -10 -4.5 -13t-14.5 -3h-51q-42 0 -65 -22.5t-47 -90.5l-398 -1137q-17 -51 -43 -51q-24 0 -41 39l-487 1087q-9 21 -21 21q-9 0 -16 -23l-262 -866q-19 -65 -19 -104q0 -86 89 -86h79 q22 0 19 -21l-6 -39q-5 -11 -9 -13.5t-16 -2.5q-3 0 -38 1.5t-95.5 3t-124.5 1.5q-61 0 -114 -1.5t-83 -3t-32 -1.5q-20 0 -17 22l6 37q3 17 19 17h55q73 0 114.5 46t78.5 165l282 901q8 19 8 47z" />
<glyph unicode="O" horiz-adv-x="1452" d="M1305 922q0 176 -89.5 283.5t-250.5 107.5q-85 0 -154.5 -35.5t-146.5 -112.5q-132 -132 -215 -338q-84 -209 -84 -370q0 -101 27.5 -181t74.5 -128.5t104 -73.5t119 -25q162 0 303 129q146 131 228 332q84 206 84 412zM381 109q-166 169 -172 481q-2 150 59 300t160 263 t231.5 182.5t266.5 67.5q153 -3 275 -80.5t192 -217t71 -317.5q1 -115 -31.5 -233.5t-97 -224t-151.5 -187.5t-203.5 -129t-243.5 -45q-225 3 -356 140z" />
<glyph unicode="P" horiz-adv-x="1208" d="M731 635q106 0 190.5 34t135 90t76.5 123t26 138q0 164 -106 227q-107 66 -242 66q-60 0 -80 -4l-174 -641q44 -33 174 -33zM528 1227q0 69 -77 69h-97q-13 0 -10 21l10 39q1 10 6.5 13t22.5 3l428 6q150 3 246 -20q91 -18 160 -76q69 -57 95.5 -116.5t26.5 -161.5 q0 -85 -37 -161.5t-107 -138.5t-185.5 -98.5t-259.5 -36.5q-120 0 -207 25l-101 -375q-10 -45 -10 -69q0 -80 76 -80h78q19 0 16 -21l-6 -39q-1 -10 -6 -13t-19 -3q-4 0 -40 1.5t-99 3t-133 1.5q-57 0 -112 -1.5t-89 -3t-41 -1.5q-19 0 -16 20l4 35q3 21 23 21h43 q70 0 103.5 38t57.5 125l244 926q12 47 12 68z" />
<glyph unicode="Q" horiz-adv-x="1515" d="M1354 948q0 171 -91 276t-243 105q-182 0 -326 -147t-221 -351q-78 -206 -78 -354q0 -267 111 -346q111 -80 235 -80q155 0 295 131q145 133 230 340q88 207 88 426zM1528 829q0 -146 -66 -319q-66 -174 -176 -301q-70 -85 -171 -143t-197 -80q-165 -41 -285 -80 q-139 -45 -199 -74l4 -10q96 12 189 12q150 0 244.5 -48.5t162.5 -141.5q33 -45 61 -65.5t60 -20.5q35 0 56.5 20.5t21.5 46.5q0 7 -2.5 15t-6 15.5t-3.5 8.5q-17 31 -17 68q0 31 24.5 55.5t59.5 24.5t55.5 -25.5t20.5 -54.5q0 -106 -88 -175t-191 -69q-116 0 -204 94 q-81 84 -174 127q-90 43 -261 43q-84 0 -108 -24q-45 -45 -80 -45q-23 0 -36 19.5t-13 49.5q-5 33 77.5 83.5t183.5 90t177 58.5v8q-190 35 -305 186q-112 146 -115 402q-1 180 90.5 361t192.5 265q71 63 135 107q141 90 356 90q112 0 207 -37t167 -108t112.5 -181 t40.5 -248z" />
<glyph unicode="R" horiz-adv-x="1421" d="M578 731h81q171 0 295 51q96 39 155.5 120t59.5 183q0 38 -18.5 76.5t-55 73.5t-102 56.5t-149.5 21.5q-68 0 -84 -2zM561 1247q0 49 -69 49h-80q-20 0 -17 17l11 43q1 10 6.5 13t19.5 3q225 0 393 4l66 2q167 6 321 -55q142 -56 142 -238q0 -97 -65 -184t-170 -143 t-226 -70v-4q30 -10 52.5 -38.5t49.5 -84.5l80 -164q63 -129 109 -209q42 -67 80 -92.5t100 -25.5h51q18 0 15 -21l-7 -39q-3 -16 -20 -16q-4 0 -23.5 1.5t-54 3t-74.5 1.5q-48 0 -99 -3l-52 -3q-12 0 -22.5 12t-33.5 53q-14 25 -71 150q-23 51 -56 120t-34 72l-74 160 q-25 54 -70 76q-27 15 -55 21.5t-47.5 7t-79.5 0.5l-145 -449q-17 -52 -17 -82q0 -36 21 -50.5t71 -14.5h84q18 0 15 -17l-6 -47q-3 -12 -25 -12q-2 0 -39.5 1.5t-105 3t-142.5 1.5q-68 0 -146 -3l-79 -3q-15 0 -12 16l8 43q1 10 5 13.5t15 3.5h39q92 0 127 102l326 1022 q10 38 10 53z" />
<glyph unicode="S" horiz-adv-x="1032" d="M291 522l20 -6q11 -5 13.5 -8.5t1.5 -13.5q-17 -73 -17 -134q0 -74 23 -134.5t60 -98t81 -58t88 -20.5q98 0 168 70t70 172q0 73 -32.5 128t-117.5 144l-41 43q-73 76 -129 148q-98 127 -98 288q0 60 24 123t67 116.5t110.5 87.5t146.5 34q65 0 121 -24t121 -68 q18 -11 28 -11q21 0 33 72q3 9 21 6l26 -2q8 -2 12 -5t3 -9l-74 -389q-3 -12 -16 -12l-29 2q-11 2 -15.5 6.5t-3.5 11.5q2 6 2 39q0 110 -53 205q-52 98 -176 98q-88 0 -147 -68q-56 -68 -56 -155q0 -91 33 -144q31 -47 111 -127l41 -41q80 -80 116 -124q46 -53 76.5 -130.5 t30.5 -168.5q0 -125 -54.5 -217t-137 -135.5t-179.5 -43.5q-83 0 -152.5 38.5t-148.5 117.5q-10 10 -22 10q-17 0 -25 -14q-19 -25 -43 -78q-6 -12 -20 -6l-27 10q-7 4 -8.5 7.5t0.5 13.5l151 446q2 12 23 8z" />
<glyph unicode="T" horiz-adv-x="1359" d="M1534 1393q14 4 26.5 8.5t19 7t7.5 2.5q12 0 12 -14q0 17 -2 -6l-4 -54q-8 -113 -10 -200q-4 -129 -2 -152q0 -14 -16 -16l-27 -2h-6q-8 0 -12.5 5t-8.5 21q-6 34 -32 142q-26 97 -43 129q-45 17 -148 28q-108 15 -166 15h-43l-338 -1061q-20 -68 -20 -103 q0 -39 24.5 -56t83.5 -17h80q18 0 15 -21l-9 -39q-3 -16 -26 -16q-3 0 -41.5 1.5t-110.5 3t-155 1.5q-62 0 -127 -1.5t-106.5 -3t-45.5 -1.5q-12 0 -15 4t-1 16l6 39q3 17 22 17h56q89 0 129 43q40 46 80 168l327 1026h-53q-235 0 -369 -41q-50 -40 -118 -121t-91 -121 q-9 -12 -26 -6l-27 12q-13 6 -4 21l84 180q63 137 72 160q4 20 16 20q3 0 68 -20q56 -19 266 -19h612q123 0 197 21z" />
<glyph unicode="U" horiz-adv-x="1497" d="M737 -31q-220 0 -348.5 97t-128.5 278q0 114 43 256l174 576q15 46 15 67q0 60 -72 60h-74q-17 0 -14 16l10 43q1 10 7 13t20 3q4 0 36.5 -1.5t89 -3t117.5 -1.5q72 0 132.5 1.5t91 3t32.5 1.5q22 0 19 -20l-8 -39q-3 -16 -21 -16h-65q-51 0 -80 -23.5t-51 -93.5 l-168 -547l-31 -111q-29 -106 -29 -178q0 -68 24.5 -121.5t60 -84t82 -50.5t84.5 -26.5t73 -6.5q67 0 141.5 29t124.5 74q73 67 126 164t103 260l181 590q10 31 10 57q0 68 -86 68h-78q-21 0 -18 16l6 39q5 12 9.5 16t16.5 4q4 0 38.5 -1.5t92.5 -3t119 -1.5q50 0 93 1.5 t67 3t27 1.5q12 0 15.5 -4t2.5 -16l-6 -39q-3 -16 -23 -16h-43q-90 0 -118 -95l-201 -637q-96 -303 -245 -452.5t-376 -149.5z" />
<glyph unicode="V" horiz-adv-x="1253" d="M520 326q0 -21 12 -21q14 0 39 31l627 833q41 53 41 93q0 19 -12.5 30t-32.5 11h-64q-13 0 -17.5 5t-2.5 19l8 35q1 10 7 13t20 3l76 -3q76 -3 145 -3q47 0 91.5 1.5t72.5 3t33 1.5q13 0 18.5 -4.5t3.5 -15.5l-8 -35q-6 -20 -18 -20h-62q-49 0 -98 -39.5t-115 -122.5 l-889 -1147q-27 -35 -59 -35q-33 0 -33 49q0 17 2 23l168 1159q2 6 2 29q0 84 -92 84h-64q-27 0 -24 14l12 41q3 12 7 16t16 4q6 0 43.5 -1.5t97.5 -3t121 -1.5q62 0 122 1.5t96 3t40 1.5q13 0 18.5 -4t3.5 -12l-8 -43q-1 -10 -5.5 -13t-16.5 -3h-66q-56 0 -84 -21t-35 -70 l-135 -868q-2 -4 -2 -18z" />
<glyph unicode="W" horiz-adv-x="1789" d="M502 303v-6q0 -12 8 -12t22 14q46 46 564 774q67 97 67 170q0 24 -17.5 42t-45.5 18h-35q-9 0 -13 3t-3 9l10 47q3 11 7 13.5t17 2.5q4 0 29 -1.5t65.5 -3t82.5 -1.5q46 0 89.5 1.5t70.5 3t32 1.5q24 0 18 -20l-10 -39q-5 -11 -8.5 -13.5t-13.5 -2.5h-45 q-33 0 -49.5 -23.5t-22.5 -79.5l-109 -901v-10q0 -23 21 -8q31 28 143 206q94 150 166 271q67 114 150 262q73 130 88 172q10 38 10 55q0 56 -51 56h-33q-15 0 -12 16l8 39q3 20 22 20q4 0 63 -3t109 -3q68 0 154 4q10 2 41 2q21 0 18 -20l-8 -39q-3 -16 -16 -16h-35 q-71 0 -119 -60l-192 -315q-153 -249 -187 -305q-79 -126 -209 -316q-151 -218 -215 -295q-2 -2 -9.5 -10t-14 -14t-14.5 -13.5t-15.5 -11.5t-13.5 -4q-39 0 -33 61l98 918v8q0 17 -10 17q-3 0 -14 -11q-4 -7 -14.5 -20t-27.5 -35t-32 -43q-56 -74 -181 -246.5t-196 -267.5 q-204 -278 -256 -334q-19 -20 -27 -27.5t-19.5 -13.5t-24.5 -6q-21 0 -21 41q0 21 4 49l182 1145q5 29 5 45q0 64 -70 64h-49q-13 0 -18.5 4.5t-2.5 15.5l8 39q3 16 25 16q5 0 37.5 -1.5t80.5 -3t91 -1.5q51 0 104 1.5t86.5 3t38.5 1.5q13 0 18 -4.5t3 -15.5l-8 -39 q-3 -16 -21 -16h-45q-51 0 -73.5 -24t-34.5 -91z" />
<glyph unicode="X" horiz-adv-x="1415" d="M1303 1217q10 17 10 34q0 24 -15.5 38t-44.5 14h-30q-11 0 -14.5 3t-2.5 13l6 39q2 12 7 16t18 4q29 0 43 -2q98 -4 166 -4q43 0 86 1.5t71 3t33 1.5q24 0 21 -16l-6 -43q-1 -10 -4.5 -13t-14.5 -3h-35q-51 0 -161 -78q-3 -2 -254 -244q-194 -191 -248 -240l203 -565 q17 -47 56.5 -76.5t84.5 -29.5h47q10 0 13 -4t3 -17l-2 -35q0 -12 -4.5 -16t-17.5 -4q-4 0 -32.5 1.5t-78 3t-102.5 1.5q-83 0 -193 -4q-14 -2 -45 -2q-17 0 -22 5t0 19l6 35q3 17 18 17h37q62 0 62 53q0 17 -4 29q-5 19 -166 483l-109 -111q-42 -44 -102 -105t-90.5 -92 t-65.5 -67.5t-55 -58.5t-31 -37q-20 -20 -20 -51q0 -43 49 -43h39q13 0 10 -21l-4 -35q-3 -20 -25 -20q-5 0 -37.5 1.5t-85.5 3t-106 1.5q-58 0 -168 -4q-14 -2 -43 -2q-10 0 -15.5 4t-3.5 12l9 39q1 2 2 5.5t1.5 4.5t1.5 3.5t2 3t2 2t2.5 1.5t3.5 0.5t5 0.5h45q47 0 83 19 t95 67l39 32q38 33 234 218q279 263 311 294l-166 476q-25 70 -51.5 98.5t-77.5 28.5h-53q-19 0 -16 20l6 35q1 9 2.5 12.5t6.5 5.5t17 2q31 0 45 -2q110 -4 170 -4q51 0 100.5 1.5t80.5 3t38 1.5q22 0 19 -20l-6 -39q-3 -16 -19 -16h-39q-59 0 -59 -56q0 -21 10 -51 l131 -385q41 37 217 213q163 166 177 193z" />
<glyph unicode="Y" horiz-adv-x="1105" d="M514 504q0 53 -12 88l-221 633q-28 78 -125 78h-47q-18 0 -15 16l8 43q1 10 5.5 13t15.5 3q5 0 33 -1.5t77.5 -3t104.5 -1.5q65 0 123.5 1.5t91.5 3t37 1.5q21 0 18 -16l-4 -43q-3 -16 -18 -16h-54q-73 0 -73 -58q0 -17 8 -41l190 -569q6 -21 15 -21q6 0 16 13 q76 104 213 307q148 214 164 258q10 30 10 53q0 31 -20.5 44.5t-65.5 13.5h-41q-17 0 -14 20l4 39q1 10 6 13t19 3q31 0 45 -2q110 -4 180 -4q60 0 129.5 3t71.5 3q12 0 17 -4t3 -12l-6 -39q-3 -20 -17 -20h-38q-49 0 -84 -22t-76 -79l-217 -301l-215 -303q-44 -60 -56 -88 q-15 -30 -30 -94l-52 -232q-6 -30 -6 -53q0 -37 19.5 -49t66.5 -12h62q17 0 14 -17l-6 -43q-3 -16 -23 -16q-6 0 -40 1.5t-90 3t-117 1.5q-73 0 -133 -1.5t-90.5 -3t-32.5 -1.5q-9 0 -13.5 4.5t-3.5 11.5l8 43q0 17 19 17h59q63 0 91.5 25.5t41.5 82.5l68 303q2 4 2 23z" />
<glyph unicode="Z" horiz-adv-x="1386" d="M123 20q0 8 10 25l1079 1253q-161 0 -395 -4q-162 -3 -229 -10q-64 -6 -116 -49.5t-79 -101.5q-9 -14 -18 -11l-29 11q-11 2 -8 16l78 233q2 7 8 14t12 7q14 0 35 -12q10 -7 119 -13q108 -6 176 -6h664q12 0 19 -6t7 -14q0 -15 -10 -25l-1071 -1251q264 0 444 4 q135 6 238 24q77 13 124.5 53t100.5 128q9 12 21 6l28 -15q13 -3 6 -20l-96 -268q-3 -13 -18 -13q-18 0 -39 9q-24 6 -166 12q-188 4 -221 4h-647q-27 0 -27 20z" />
<glyph unicode="[" horiz-adv-x="663" d="M31 -375l499 1835q1 12 8.5 16.5t24.5 4.5h400q10 0 14 -3.5t2 -11.5l-14 -51q-3 -10 -29 -10h-262q-20 0 -29 -31l-461 -1681v-8q0 -13 13 -13h288q8 0 12 -3.5t3 -10.5l-13 -47q-3 -14 -30 -14h-416q-16 0 -10 28z" />
<glyph unicode="\" horiz-adv-x="655" d="M522 -25q-6 0 -12 25l-277 1356v8q0 13 13 16l69 19h4q12 0 15 -10l274 -1369q2 -2 2 -10q0 -11 -12 -14l-70 -21h-6z" />
<glyph unicode="]" horiz-adv-x="663" d="M770 1452l-500 -1835q-1 -12 -8 -16t-24 -4h-400q-10 0 -14 3t-2 11l14 51q3 10 21 10h270q20 0 29 31l460 1681v9q0 12 -12 12h-289q-17 0 -14 14l12 47q3 15 31 15h416q16 0 10 -29z" />
<glyph unicode="^" d="M530 1403h66l434 -871h-133l-336 672h-10l-326 -672h-127z" />
<glyph unicode="_" d="M0 -154h1024v-102h-1024v102z" />
<glyph unicode="`" horiz-adv-x="481" d="M530 956l-245 187q-29 23 -29 55q0 27 18.5 47.5t44.5 20.5q22 0 35.5 -9.5t36.5 -39.5l172 -228q8 -8 0 -16l-14 -17q-1 -4 -8 -4t-11 4z" />
<glyph unicode="a" horiz-adv-x="931" d="M674 496q49 101 49 170q0 53 -24 86.5t-72 33.5q-92 0 -185 -112q-94 -114 -159 -264q-64 -149 -64 -250q0 -72 55 -72q49 0 132 80q93 90 165 182q81 100 103 146zM938 834q-27 -55 -80 -195q-50 -132 -74 -205l-27 -81t-32 -97q-39 -113 -39 -129q0 -25 23 -25 q16 0 71 52q61 58 72 73q13 13 16 4l19 -20q7 -7 4 -16q-26 -46 -139 -132.5t-179 -82.5q-43 3 -43 34q0 28 19 84l80 228l-11 4q-48 -74 -123 -153t-164 -139t-151 -58q-45 2 -77.5 36.5t-32.5 94.5q0 146 94 321q97 181 231 297q138 123 260 123q103 0 146 -70l39 56 q8 14 20 14h72q6 0 8 -6t-2 -12z" />
<glyph unicode="b" horiz-adv-x="913" d="M307 49q58 -3 139 59t152 153t120 203t46 200q-1 43 -20 65.5t-50 22.5q-57 0 -155 -82q-101 -84 -179 -193q-55 -75 -100 -186q-41 -109 -41 -154q0 -52 20 -68.5t68 -19.5zM406 1333l12 33q7 16 20 16h260q19 0 19 -20l-4 -16l-330 -744l12 -4q82 102 187 178 q104 76 184 76q73 0 109 -41t36 -115q0 -109 -69 -248.5t-199 -269.5q-100 -98 -203.5 -148t-230.5 -50q-61 0 -99 38.5t-38 96.5q0 47 30 118l35 80l389 914q15 35 15 55q0 14 -16 22.5t-42 8.5h-59q-27 0 -18 20z" />
<glyph unicode="c" horiz-adv-x="618" d="M88 168q0 136 68 301q65 158 176 272q108 111 221 111q58 0 87.5 -35.5t29.5 -79.5q0 -34 -27 -60t-57 -26q-42 0 -54 45q-7 21 -24 37.5t-39 16.5q-39 0 -78.5 -37t-71.5 -105q-38 -78 -63 -192q-25 -116 -25 -166q0 -170 82 -170q47 0 97 33.5t84 76.5q9 15 18 9 l23 -21q6 -3 6 -10q2 -12 -45.5 -58t-122 -89.5t-131.5 -40.5q-66 3 -110 51t-44 137z" />
<glyph unicode="d" horiz-adv-x="964" d="M610 365q56 75 94.5 154.5t38.5 131.5q0 135 -108 135q-92 0 -186 -116q-96 -115 -160 -271q-64 -152 -64 -249q0 -30 18 -48t42 -18q59 0 155 90q100 93 170 191zM836 1327l12 43q3 12 24 12h252q19 0 25.5 -11t-0.5 -25q-26 -65 -215 -570q-189 -506 -209 -583 q-14 -46 -14 -68q0 -27 22 -27t74 43q64 56 70 64q14 8 22 -2l21 -21q9 -6 0 -20q-12 -18 -64 -60.5t-122.5 -83t-112.5 -38.5q-56 3 -56 47q0 29 27 114q32 105 63 183l-16 4q-85 -135 -209 -242q-124 -106 -223 -106q-57 0 -94 36.5t-37 98.5q0 117 78 284q81 167 204 287 q172 166 322 166q70 0 129 -68l158 449q6 15 6 31q0 49 -58 49h-63q-10 0 -14 3t-2 11z" />
<glyph unicode="e" horiz-adv-x="714" d="M272 453q42 -3 125 24q93 34 154 88t61 119q0 34 -17 56t-48 22q-41 4 -89 -32t-86 -88t-65.5 -104.5t-34.5 -84.5zM90 180q0 127 74 275q72 144 188 260q58 58 134 97.5t141 39.5q53 0 84.5 -32.5t31.5 -76.5q0 -76 -52.5 -150t-137.5 -116q-141 -72 -297 -84 q-27 -60 -27 -188q0 -58 33.5 -93.5t73.5 -35.5q66 0 130 42t103 103q9 12 19 2l22 -18q15 -9 2 -19q-59 -81 -141 -143q-84 -63 -190 -63q-98 0 -144.5 48.5t-46.5 151.5z" />
<glyph unicode="f" horiz-adv-x="571" d="M129 741l8 35q5 13 9.5 17t15.5 4h178q60 168 115.5 279t124.5 188q52 60 133.5 99.5t169.5 39.5q79 0 131.5 -39.5t52.5 -81.5q0 -43 -24 -68.5t-58 -25.5q-80 0 -90 82q-3 23 -24.5 41t-59.5 18q-84 0 -141 -69q-55 -63 -90 -150.5t-86 -263.5l-15 -49h199q18 0 12 -25 l-10 -37q-3 -14 -23 -14h-194q-1 -4 -8 -25t-21 -66t-28 -95q-113 -386 -193 -596q-107 -275 -223.5 -411t-265.5 -136q-61 0 -104.5 35.5t-43.5 85.5q0 37 25 62.5t63 25.5t63.5 -28.5t32.5 -64.5q1 -16 11.5 -25t23.5 -9q76 0 157.5 139t162.5 412l207 696h-183 q-16 0 -10 20z" />
<glyph unicode="g" horiz-adv-x="884" d="M354 -545q116 0 186 42.5t70 121.5q0 56 -33 94.5t-104 85.5l-180 117q-258 -105 -258 -242q0 -64 50 -115.5t122 -77.5t147 -26zM627 664q0 66 -24 100.5t-68 36.5q-54 3 -109 -64t-87.5 -160t-31.5 -169q3 -137 96 -140q66 -3 120 65t79.5 158.5t24.5 172.5zM-106 -340 q0 98 102 166q100 66 244 129q-78 60 -78 119q0 30 36.5 61.5t137.5 89.5q-61 15 -110 79.5t-50 156.5q-1 60 26.5 128.5t74 127.5t116.5 97.5t146 37.5q120 -3 174 -96q28 28 78 51.5t96 23.5q41 0 63.5 -24.5t22.5 -54.5q0 -26 -16.5 -45t-49.5 -19q-39 0 -67 31 q-14 14 -39 14q-14 0 -34 -9t-26 -19q6 -13 11.5 -51.5t5.5 -63.5q0 -49 -15.5 -103.5t-47.5 -111t-92 -99t-138 -55.5q-55 -9 -62 -14q-38 -14 -72 -44t-34 -54q0 -25 35 -56l96 -63l170 -111q83 -54 117.5 -106t34.5 -115q0 -23 -9 -52t-38.5 -68.5t-75 -70.5t-127.5 -53 t-187 -22t-202 37t-157 99t-60 132z" />
<glyph unicode="h" horiz-adv-x="956" d="M49 10l469 1161q27 67 27 101q0 18 -19 29.5t-49 11.5h-63q-10 0 -15.5 5t-3.5 13l11 35q5 11 8.5 13.5t13.5 2.5h277q24 0 24 -24q0 -15 -18 -62l-322 -753l10 -8q110 157 205.5 237t200.5 80q66 0 103.5 -48t37.5 -124q0 -214 -141 -475q-68 -127 -147.5 -199 t-159.5 -72q-42 0 -73.5 27t-31.5 62q0 38 22 69t52 31q28 0 47.5 -18t24.5 -44q4 -41 34 -41t74 74q41 70 78 164q36 92 59 196t23 175q0 56 -13 85t-49 29q-69 0 -170 -94q-96 -92 -174 -188q-77 -95 -135 -238l-86 -209q-3 -14 -28 -14h-89q-8 0 -11.5 3t-2.5 7z" />
<glyph unicode="i" horiz-adv-x="587" d="M154 31q0 33 24 104q8 24 96 266l60 160q1 2 4 9t7.5 18.5t8.5 25.5q17 53 17 68q0 27 -29 27q-10 0 -28.5 -13t-40.5 -33.5t-40 -39.5t-35.5 -37.5t-19.5 -20.5q-12 -12 -22 -2l-17 19q-12 9 -6 18q15 23 73 82t141.5 117.5t133.5 52.5q21 0 35 -13.5t14 -37.5 q0 -44 -69 -228l-119 -311q-37 -98 -37 -135q0 -28 23 -35q30 7 90 64q65 59 74 80q4 4 8 4q5 0 14 -9l16 -14q12 -12 5 -24q-16 -21 -47.5 -52t-79.5 -70.5t-107.5 -65.5t-112.5 -25q-34 0 -34 51zM412 1225q0 43 29.5 72.5t76.5 29.5q49 0 79 -29t30 -69q0 -37 -29 -70 t-80 -33q-52 0 -79 31t-27 68z" />
<glyph unicode="j" horiz-adv-x="555" d="M451 487l-158 -417q-64 -173 -166 -346q-115 -195 -295 -195q-88 0 -137 35.5t-49 81.5q0 38 25 66t61 28t59.5 -25t28.5 -57q9 -59 51 -59q62 0 117 73q50 69 90.5 164.5t105.5 286.5l27 78l137 397q19 52 19 80q0 31 -23 31q-21 0 -74 -41t-82 -70q-8 -8 -16 0l-20 23 q-8 8 -2 16q22 23 60 56t89 71.5t108 63.5t99 24q21 0 32 -12t11 -27q0 -69 -98 -326zM453 1219q0 46 32 80t84 34q48 0 75.5 -30.5t27.5 -69.5q0 -43 -33.5 -75t-75.5 -32q-46 0 -78 28t-32 65z" />
<glyph unicode="k" horiz-adv-x="888" d="M346 385q84 -4 181.5 48.5t160.5 126t60 130.5q-2 26 -18 44t-40 18q-68 0 -147 -64q-79 -61 -125 -113q-48 -55 -56 -75l-47 -113q6 -2 31 -2zM41 23l483 1200q8 16 8 37q0 53 -81 53h-56q-19 0 -10 20l12 33q10 16 25 16h272q13 0 17.5 -11t-0.5 -23l-295 -711l10 -4 q57 74 158 149q98 70 190 70q45 0 74.5 -29.5t32.5 -91.5q1 -51 -41.5 -111t-105.5 -109t-125 -86t-107 -54v-9l133 -215q53 -84 102 -84q43 0 97 54q9 11 18 2l20 -23q7 -7 -2 -18q-29 -37 -76 -67.5t-96 -30.5q-75 0 -112 24t-74 96l-113 215q-13 25 -59 25q-33 0 -43 -2 l-127 -324q-3 -14 -31 -14h-88q-20 0 -10 23z" />
<glyph unicode="l" horiz-adv-x="520" d="M526 1264q0 49 -51 49h-59q-22 0 -13 18l13 37q3 14 20 14h254q29 0 19 -30l-426 -1084q-4 -13 -23 -57q-18 -49 -18 -78q0 -24 16 -24q25 0 74 38q56 43 78 68q9 9 18 0l23 -25q9 -9 -2 -20q-9 -16 -65.5 -61t-136.5 -88.5t-130 -40.5q-24 2 -34.5 15t-10.5 44 q0 30 75 221l359 924q20 50 20 80z" />
<glyph unicode="m" horiz-adv-x="1497" d="M117 20l155 371q25 56 29 72q85 203 90 235q0 33 -20 33q-19 0 -86 -61q-66 -57 -86 -84q-10 -13 -25 2l-18 18q-10 10 -2 19q56 67 157 151q94 76 178 76q21 0 35.5 -16.5t14.5 -40.5q0 -6 -2 -15.5t-8 -25.5t-11.5 -31t-16.5 -42t-19.5 -47.5t-24.5 -58.5t-27 -65 l-37 -90l10 -2q102 159 234 297q131 137 246 137q42 0 66 -26.5t24 -61.5q0 -81 -117 -354l10 -2q127 192 240 317q118 127 231 127q43 0 71 -30t28 -68q0 -44 -21 -105q-6 -17 -17.5 -45t-30 -73t-32.5 -80l-24 -62q-13 -35 -27 -63q-59 -136 -59 -176q0 -27 22 -27 q23 0 80 57q63 63 82 90q9 16 25 0l16 -16q10 -10 4 -23q-5 -10 -72 -77q-66 -66 -145 -121q-77 -53 -137 -53q-37 0 -37 49q0 29 29 114q10 28 48 120.5t62 154.5l21 51q47 115 62 161t15 79q0 39 -43 39q-49 0 -172 -132q-126 -136 -223 -278q-55 -69 -84 -145l-69 -181 q-3 -12 -29 -12h-82q-13 0 -18 4t0 12l139 340q71 173 95 241t24 103q0 41 -41 41q-48 0 -168 -120q-123 -126 -213 -252q-78 -113 -103 -174l-73 -183q-10 -12 -33 -12h-78q-21 0 -12 20z" />
<glyph unicode="n" horiz-adv-x="1062" d="M125 18l145 379q28 72 72 191q35 96 35 119q0 34 -31 34q-24 0 -80 -47q-47 -41 -92 -90q-7 -7 -20 2l-19 19q-12 9 -4 20q49 60 143 135q93 72 187 72q31 0 48 -18t17 -43q0 -37 -82 -248l-22 -58l8 -4q29 48 81 109t116.5 122t137.5 101t132 39q48 -2 75 -24t27 -60 q0 -52 -20.5 -117t-77.5 -205l-16 -40l-21 -52q-84 -207 -84 -231q0 -11 7 -19t18 -8q20 0 69 37q44 34 78 68q14 11 23 -4l14 -17q11 -11 2 -22q-33 -45 -139.5 -111.5t-187.5 -66.5q-50 0 -50 40q0 20 64 185l74 192l32 84l39 103q31 85 31 108q0 44 -51 47 q-53 3 -180.5 -111.5t-192.5 -221.5q-39 -66 -61 -109q-29 -56 -62 -147l-51 -138q-9 -12 -29 -12h-80q-17 0 -21.5 4t-0.5 14z" />
<glyph unicode="o" horiz-adv-x="813" d="M711 643q2 50 -26 82.5t-77 32.5q-69 0 -147 -62.5t-150 -181.5q-55 -87 -86.5 -175.5t-31.5 -156.5q0 -46 27.5 -75t66.5 -29q101 0 194 106q100 109 164 246q66 141 66 213zM106 244q-1 77 22 163t67 165t100.5 143t129.5 101.5t148 35.5q100 -3 160 -68.5t60 -171.5 q0 -118 -60 -272q-56 -144 -168 -256q-107 -104 -248 -104q-87 0 -148.5 75t-62.5 189z" />
<glyph unicode="p" horiz-adv-x="944" d="M786 532q-1 107 -54.5 171.5t-129.5 64.5q-22 0 -65 -6l-252 -701q127 19 241 83.5t188 168t72 219.5zM516 1036l127 45q2 2 14 2q7 0 7 -8q0 -6 -5 -16l-94 -213q32 4 41 4q10 2 41 2q132 0 207.5 -78.5t75.5 -193.5q0 -244 -244 -426q-74 -56 -191 -99t-235 -55 l-145 -406q-19 -59 -19 -83q0 -30 19.5 -43t64.5 -13h58q7 0 11.5 -5.5t2.5 -10.5l-14 -41q-9 -12 -25 -12q-4 0 -32.5 1.5t-78.5 3t-104 1.5q-59 0 -109.5 -1.5t-78.5 -3t-31 -1.5q-18 0 -15 12l13 41q3 16 14 16h47q56 0 89 35.5t67 130.5l401 1104q-68 -18 -141 -76 q-82 -68 -113 -108q-9 -11 -18 -2l-23 20q-10 11 -2 19q141 167 326 239l65 191q5 17 27 28z" />
<glyph unicode="q" horiz-adv-x="929" d="M752 655q0 51 -32 85t-79 34q-80 0 -164 -84q-101 -101 -176 -260q-72 -159 -72 -268q0 -60 26.5 -94.5t70.5 -34.5q121 0 215 125q95 126 153 282q58 155 58 215zM569 88h-8q-117 -108 -256 -108q-77 0 -139 45q-62 47 -62 190q0 34 10 87t34 127.5t76 158t124 149.5 q124 115 262 115q57 0 96 -17.5t85 -56.5q14 -10 28 0l105 68q18 12 34 12q15 0 15 -12q0 -10 -6 -25l-469 -1261q-13 -41 -13 -60q0 -45 47 -45h58q17 0 14 -16l-12 -37q-6 -16 -23 -16q-5 0 -35 1.5t-75.5 3t-89.5 1.5q-48 0 -96.5 -1.5t-79 -3t-35.5 -1.5q-10 0 -14.5 4 t-2.5 12l9 37q6 16 18 16h51q58 0 90 22.5t56 84.5z" />
<glyph unicode="r" horiz-adv-x="729" d="M119 18l114 332q20 60 66 219q35 122 35 140q0 13 -10.5 21.5t-24.5 8.5q-29 0 -80 -45q-56 -50 -82 -82q-1 -4 -6 -4t-10 4l-21 21q-6 6 0 16q46 71 129 135q83 68 177 68q53 0 57 -72q0 -42 -74 -291l10 -4q34 71 90 153.5t126 149t118 64.5q44 -2 70 -26.5t26 -65.5 q0 -38 -24 -66t-55 -28q-32 0 -52 20q-25 25 -53 25q-64 0 -252 -312q-48 -78 -80 -178l-67 -207q-1 -10 -6.5 -12t-20.5 -2h-82q-22 0 -18 18z" />
<glyph unicode="s" horiz-adv-x="602" d="M25 94q0 26 19.5 47t49.5 21q63 0 84 -66q11 -33 25.5 -45t48.5 -12q46 0 80.5 36t34.5 89q0 27 -9 57.5t-18 50.5t-33 70l-28 59q-1 3 -18.5 41t-29.5 77.5t-12 76.5q0 96 77 176t181 80q61 0 103.5 -26.5t42.5 -77.5q0 -26 -19.5 -46t-44.5 -20q-49 0 -70 49 q-14 42 -32 52q-10 5 -21 5q-34 0 -67 -40t-33 -89q0 -21 6 -46t16.5 -48t20 -40.5t19.5 -35t12 -20.5l41 -74q36 -62 36 -159q0 -117 -79 -187q-78 -69 -191 -69q-87 0 -139.5 31.5t-52.5 82.5z" />
<glyph unicode="t" horiz-adv-x="643" d="M367 721h-144q-18 0 -12 16l16 45q6 15 23 15h147l107 237q10 22 33 31q13 3 92 35q24 12 30 12q11 0 11 -12q0 -16 -8 -29l-136 -274h209q18 0 8 -23l-18 -43q-3 -10 -18 -10h-209l-199 -461q-47 -103 -47 -131q0 -35 27 -35q39 0 110 53q69 49 94 78q9 9 19 0l22 -24 q9 -9 2 -19q-16 -19 -55.5 -51.5t-92.5 -67.5t-115 -59.5t-111 -23.5q-66 3 -66 49q0 43 23 96z" />
<glyph unicode="u" horiz-adv-x="991" d="M991 813l-157 -426q-86 -235 -86 -266q0 -9 0.5 -12.5t4 -6.5t11.5 -6q22 0 82 51q57 46 78 76q10 10 18 0l21 -20q9 -9 0 -19q-14 -19 -67.5 -65.5t-135 -94t-135.5 -44.5q-39 3 -39 47q0 15 43 125l57 149l31 76l-12 6q-108 -152 -238 -274q-135 -129 -268 -129 q-31 0 -53 23.5t-23 59.5q3 58 90 256q38 85 55 127l39 91q62 143 62 170q0 13 -9.5 20.5t-23.5 7.5q-25 0 -82 -45q-63 -53 -78 -72q-9 -9 -18 0l-19 19q-10 6 2 18q19 23 66.5 66t122.5 88t127 43q28 -1 43.5 -22t15.5 -52q0 -66 -133 -354q-109 -239 -109 -297 q0 -35 35 -35q74 0 193 125q123 129 192 229q70 108 94 175l72 196q3 14 29 14h84q24 0 18 -18z" />
<glyph unicode="v" horiz-adv-x="1073" d="M184 616q1 -23 11 -34t34 -25q45 -26 45 -61q0 -28 -20 -48t-55 -20q-39 0 -67 30.5t-28 86.5q0 50 25 106.5t55 91.5q48 53 95.5 76t138.5 23q141 0 203 4q47 6 53 6q35 0 35 -21q0 -9 -9 -18q-65 -79 -155 -246q-86 -157 -86 -288q0 -92 40 -140t105 -51 q60 -2 125.5 45.5t115.5 119t82 158.5t31 160q-3 75 -16 107q-31 62 -31 84q0 42 25 66t68 24q37 0 58 -32t21 -77q0 -90 -36 -217q-35 -134 -99 -241q-73 -129 -190 -217q-116 -88 -236 -88q-89 0 -146 55t-57 155q0 129 89 289q84 155 200 293l-14 6q-30 -27 -92 -41 q-57 -14 -99 -14h-106q-49 0 -80 -29.5t-33 -77.5z" />
<glyph unicode="w" horiz-adv-x="1509" d="M203 647q0 -23 8 -34.5t31 -26.5l5 -2q5 -3 11 -7.5t12.5 -11.5t10.5 -18t4 -25q0 -30 -20.5 -48.5t-57.5 -18.5q-36 0 -66 32t-30 88q0 47 22 89t68 96q25 28 69.5 49.5t85.5 21.5h150l188 13h4q25 0 25 -19q0 -10 -12 -22q-38 -41 -94 -135.5t-103 -216t-45 -199.5 q1 -69 35 -109.5t88 -40.5q69 0 132 37.5t107 106.5q25 38 49 113t33 149l15 115q14 104 20 137q21 65 92 65q25 0 38.5 -14t13.5 -35q0 -25 -62 -190l-45 -125l-18 -55q-29 -92 -29 -132q0 -68 53.5 -118t126.5 -50q112 0 199.5 120t87.5 309q0 31 -9.5 71.5t-21.5 52.5 q-67 67 -67 111q0 36 26 59t64 23q102 0 102 -211q0 -125 -36.5 -255.5t-102.5 -217.5q-72 -96 -138.5 -142t-162.5 -46q-82 0 -141 61t-66 127q-45 -59 -141 -125q-89 -63 -193 -63q-76 0 -131 58t-55 152q0 111 90 277q91 162 180 268l-14 15q-22 -11 -70.5 -23t-79.5 -12 h-162q-31 0 -51 -19.5t-22 -48.5z" />
<glyph unicode="x" horiz-adv-x="964" d="M342 705q-52 0 -129 -154q-6 -12 -20 -6l-29 14q-7 2 -4 16q10 27 48 91t95 127.5t96 58.5q33 0 54 -24t41 -89l69 -235l84 108q93 124 129 160q80 80 142 80q26 0 42.5 -18.5t16.5 -45.5q0 -47 -16 -117t-39 -124q-6 -14 -21 -8l-24 8q-18 7 -15 16q27 73 27 117 q0 43 -31 43q-25 0 -75.5 -54t-168.5 -199q-17 -21 -26 -32l96 -274q19 -55 53 -55q30 0 75.5 53.5t57.5 85.5q3 8 19 2l24 -12q13 -6 7 -21q-43 -79 -109 -160q-65 -77 -141 -77q-68 0 -95 88l-86 276q-154 -206 -228.5 -285t-127.5 -79q-76 0 -76 71q0 36 15 107 q14 68 30 110q3 12 17 8l31 -8q11 -3 8 -16q-19 -55 -19 -94q0 -54 35 -54q52 0 293 306l-88 258q-12 37 -37 37z" />
<glyph unicode="y" horiz-adv-x="837" d="M90 575l35 72q36 73 94 137q62 68 117 68q47 0 68.5 -48t33.5 -183q30 -356 39 -607l8 2q48 79 117 220q71 146 92 215l4 11q4 11 8 26t8.5 35.5t7.5 48.5t3 57q0 46 -10 76q-23 57 -23 73q0 32 21 53t63 21q37 0 59.5 -29.5t22.5 -72.5q0 -82 -33.5 -182.5 t-103.5 -252.5q-69 -156 -219 -395q-131 -209 -264 -342q-186 -186 -312 -186q-53 0 -83.5 28t-30.5 68q0 35 27 59.5t61 24.5q4 0 8 -0.5t6.5 -0.5t6.5 -1.5t6 -2t6 -3.5t6 -3.5t7 -4t6.5 -5t8 -6t8.5 -6.5q27 -24 51 -24q39 0 97 43q73 53 133 129.5t92 146.5 q19 45 16 115l-4 59q-39 548 -61 651q-12 58 -35 58q-22 0 -63 -62q-42 -61 -56 -104q-6 -9 -18 -6l-29 12q-8 3 -2 18z" />
<glyph unicode="z" horiz-adv-x="976" d="M358 217l7 -10q45 0 93 -20t120 -70l59 -41q75 -51 125 -51q30 0 52 19t22 40q0 31 -13 57q-22 42 -22 66q0 32 20 53t47 21q40 0 62 -27.5t22 -73.5q0 -82 -68.5 -151.5t-181.5 -69.5q-99 0 -258 78q-4 2 -12.5 6.5t-23 13t-29.5 15.5q-53 30 -90 30q-36 0 -53 -15.5 t-29 -57.5q-8 -25 -32.5 -42.5t-55.5 -17.5q-19 0 -31 12.5t-12 32.5q0 51 49.5 102t114.5 87l428 426l-9 8q-55 -4 -92 9.5t-92 49.5q-110 95 -162 95q-28 0 -44.5 -11.5t-16.5 -25.5q0 -21 29 -37q26 -17 26 -60q0 -30 -19 -50.5t-48 -20.5q-37 0 -63.5 27.5t-26.5 72.5 q0 61 52 113.5t148 52.5q57 0 103 -16q44 -15 137 -58q100 -47 153 -47q52 0 76 74q11 38 40 66t65 28q18 0 28.5 -14.5t10.5 -34.5q0 -43 -38 -86t-89 -74z" />
<glyph unicode="{" horiz-adv-x="663" d="M215 612q37 0 74 15q114 49 123 151q6 59 6 156q0 116 10 192q11 92 75 169.5t149.5 122t176.5 57.5q40 6 95 6q34 0 34 -29q0 -37 -24 -37l-66 -4q-125 -8 -208 -84t-95 -201l-14 -145q-9 -115 -14 -143q-10 -66 -34 -107t-71 -80q-8 -8 -27.5 -20.5t-21.5 -14.5 q-44 -31 -49 -40q-2 -5 -2 -9q0 -12 26 -32q21 -16 35 -35q31 -44 31 -101q0 -47 -13 -94t-49 -137l-26 -66q-39 -95 -39 -186q0 -94 52.5 -160.5t133.5 -85.5q31 -8 72 -8q14 0 14 -35q0 -30 -14 -30q-45 0 -92 8q-47 7 -96.5 27.5t-97.5 56.5t-78.5 95t-30.5 132 q0 60 16.5 111.5t61.5 152.5q8 14 30 68q45 99 45 162q0 62 -30 104q-22 31 -68 37q-27 3 -27 33q0 28 27 28z" />
<glyph unicode="|" horiz-adv-x="512" d="M293 -512v2054q0 19 12 19h82q14 0 14 -25v-2048q0 -20 -10 -20h-86q-12 0 -12 20z" />
<glyph unicode="}" horiz-adv-x="663" d="M616 465q-38 0 -73 -14q-114 -49 -123 -152q-6 -58 -6 -156q0 -108 -11 -192q-11 -92 -75 -169t-149.5 -121.5t-176.5 -57.5q-40 -6 -94 -6q-35 0 -35 28q0 37 25 37l65 4q125 8 208 84t95 201l15 145q9 117 14 144q10 66 33.5 106.5t70.5 79.5q8 8 28 20.5t22 14.5 q44 31 49 40q2 5 2 9q0 12 -27 33q-21 16 -35 35q-30 43 -30 100q0 47 12.5 91.5t48.5 139.5l25 64q41 103 41 188q0 94 -53 160.5t-134 85.5q-31 8 -72 8q-14 0 -14 35q0 31 14 31q46 0 93 -8q37 -5 76 -18.5t80.5 -39.5t73.5 -60t52.5 -84.5t20.5 -109.5 q0 -60 -16.5 -111.5t-61.5 -152.5q-11 -19 -31 -68q-45 -99 -45 -161t31 -105q22 -31 67 -37q27 -3 27 -32t-27 -29z" />
<glyph unicode="~" d="M735 346q-42 0 -79 15t-91 53l-80 55q-63 45 -135 45q-39 0 -66.5 -42t-27.5 -122h-109q0 128 58 207.5t145 79.5q91 0 164 -49l86 -58q1 -1 20 -13t28 -17t26 -14t30.5 -13t24.5 -4q45 0 72.5 41.5t27.5 122.5h109q0 -128 -58 -207.5t-145 -79.5z" />
<glyph unicode="&#xa1;" horiz-adv-x="552" d="M-72 -518q0 27 31 106l76 195q71 183 134 340.5t88 219t24 60.5q6 12 9.5 14.5t14.5 2.5q14 0 14 -23l-4 -20q-18 -51 -159 -715l-35 -162q-12 -53 -39 -80.5t-64 -27.5q-40 0 -65 26.5t-25 63.5zM291 741q0 45 31 78t75 33q41 0 70 -32.5t29 -69.5q0 -50 -31 -82.5 t-80 -32.5q-33 0 -63.5 29.5t-30.5 76.5z" />
<glyph unicode="&#xa2;" d="M512 879q-55 -72 -98 -193q-39 -110 -39 -203q0 -68 32.5 -110.5t88.5 -50.5l161 661q-80 -20 -145 -104zM229 457q-2 100 58 227t166.5 236.5t224.5 148.5l57 238q3 15 19 12l47 -10q14 -3 8 -21l-49 -196q34 6 71 6q53 0 90 -23.5t37 -64.5q0 -35 -25.5 -56.5 t-58.5 -21.5q-26 0 -47 24q-30 30 -92 33l-166 -670q86 8 193 76q9 6 14 6q7 0 17 -10l8 -14q6 -6 6 -17q0 -12 -14 -20q-18 -14 -45.5 -32t-87 -44t-113.5 -33l-62 -245q-4 -18 -18 -15l-43 13q-3 1 -5 4t-2.5 6.5t0 6.5t1.5 6v3l53 215q-113 2 -177 60t-65 172z" />
<glyph unicode="&#xa3;" d="M725 502l-10 -49q-3 -15 -25 -15h-319l-58 -92q-32 -52 -59 -82l2 -4q46 6 86 6q94 0 163.5 -35.5t147.5 -121.5q62 -68 152 -68q28 0 54 19t38 42q8 19 8 25q0 14 -39 14q-43 0 -72.5 20t-29.5 46q0 30 24.5 56t67.5 26q61 0 103 -37.5t42 -93.5q0 -67 -69.5 -128 t-200.5 -61q-159 0 -278 140q-90 110 -230 100q-102 -209 -194 -209q-18 0 -30.5 10t-12.5 23q0 49 61 119q62 71 123 98q19 23 47 86q33 66 43 102h-147q-10 0 -15.5 4.5t-3.5 10.5l8 49q3 12 21 12h162q30 95 75 219q39 107 91 238q59 151 170 250q112 100 253 100 q95 0 158.5 -46.5t63.5 -92.5q0 -32 -24.5 -55t-55.5 -23q-72 -3 -111 76q-1 1 -3.5 10t-5 15.5t-10 16t-16 16t-24.5 11t-35 4.5q-61 0 -112 -74t-107 -249q-35 -103 -98 -244q-69 -150 -84 -172h297q21 0 18 -12z" />
<glyph unicode="&#xa4;" d="M825 649q0 117 -65.5 190.5t-171.5 73.5q-112 0 -175 -76t-63 -188q0 -115 63 -190.5t175 -75.5q104 0 170.5 73t66.5 193zM1053 1057l-193 -183q35 -32 59.5 -93.5t24.5 -118.5q-3 -134 -82 -232l191 -178q13 -14 4 -23l-43 -49q-10 -10 -19 0l-202 185 q-42 -31 -100.5 -48.5t-114.5 -17.5q-61 0 -118 19.5t-95 54.5l-187 -187q-13 -13 -22 -4l-45 47q-1 3 -2 5t-2 3.5t-1 2.5q0 5 9 14l188 184q-70 85 -70 199q0 66 23 128.5t61 100.5l-200 191q-9 9 2 20l39 41q9 13 20 2l205 -192q75 69 221 69q50 0 105 -18t88 -45 l198 184q9 12 19 2l39 -41q13 -9 0 -22z" />
<glyph unicode="&#xa5;" d="M551 123q0 -34 17 -47t55 -13h61q17 0 14 -16l-6 -37q-3 -16 -20 -16q-1 0 -73.5 3t-135.5 3q-64 0 -117.5 -1.5t-82 -3t-30.5 -1.5q-19 0 -16 16l6 37q3 16 19 16h45q60 0 89 25.5t40 79.5l35 168h-291q-13 0 -10 10l6 41q0 14 18 14h293l27 129h-297q-10 0 -14.5 3.5 t-2.5 11.5l4 39q2 12 21 12h268l-176 557q-24 74 -115 74h-45q-15 0 -12 12l8 41q1 10 4.5 13t14.5 3q5 0 31 -1.5t67.5 -3t83.5 -1.5q60 0 114.5 1.5t85.5 3t35 1.5q10 0 15.5 -4t3.5 -12l-4 -41q-3 -12 -19 -12h-49q-72 0 -72 -58q0 -15 7 -36l147 -502q6 -21 18 -21 q8 0 15 11l84 124l123 185q103 153 116 190q11 42 11 51q0 29 -19 41.5t-61 12.5h-39q-15 3 -15 18l5 37q1 10 5.5 13t16.5 3q31 0 45 -2q102 -4 158 -4q40 0 83 1.5t71.5 3t33.5 1.5q10 0 15.5 -4t3.5 -12l-4 -37q-3 -16 -17 -16h-37q-45 0 -75 -21.5t-66 -72.5l-278 -390 l-107 -147h274q10 0 14.5 -3t2.5 -9l-8 -41q-3 -13 -27 -13h-299l-31 -129h326q15 0 12 -14l-8 -41q-3 -10 -29 -10h-321l-33 -162q-6 -30 -6 -51z" />
<glyph unicode="&#xa6;" horiz-adv-x="512" d="M401 338v-676q0 -20 -18 -20h-78q-12 0 -12 20v676q0 20 18 20h78q12 0 12 -20zM293 686v678q0 18 12 18h82q14 0 14 -24v-672q0 -20 -18 -20h-78q-12 0 -12 20z" />
<glyph unicode="&#xa7;" d="M322 737q0 -92 73 -180q11 -13 32.5 -36t25.5 -27q110 -124 155.5 -198t46.5 -153q80 54 123 125t43 142t-22.5 127t-83.5 122l-51 56q-58 63 -86.5 98t-52.5 85t-25 99q-86 -44 -132 -112t-46 -148zM651 74q-26 -100 -65 -162.5t-115 -116.5q-113 -82 -295 -82 q-69 0 -118.5 27.5t-49.5 64.5q0 39 22 62.5t58 23.5q56 0 90 -51t96 -51q37 0 79 17.5t80 48.5t63.5 81.5t25.5 108.5q0 66 -22 121q-22 52 -57.5 97.5t-125.5 142.5q-118 128 -118 268q0 101 85 214.5t216 166.5q35 146 141 243q114 105 295 105q73 0 120.5 -27.5 t47.5 -64.5q0 -42 -23.5 -65t-62.5 -23q-35 0 -53 13.5t-39 51.5q-27 47 -84 47q-74 0 -141.5 -74.5t-67.5 -164.5q0 -78 37 -142q40 -66 153 -176q133 -130 133 -280q0 -120 -82.5 -236.5t-222.5 -187.5z" />
<glyph unicode="&#xa8;" horiz-adv-x="583" d="M602 1214q0 33 24 56.5t70 23.5q36 0 60 -24t24 -62q0 -37 -23.5 -59.5t-60.5 -22.5q-40 0 -67 22t-27 66zM324 1214q0 33 23.5 56.5t70.5 23.5q36 0 60 -24t24 -62q0 -37 -23.5 -59.5t-60.5 -22.5q-40 0 -67 22t-27 66z" />
<glyph unicode="&#xa9;" horiz-adv-x="1597" d="M592 367q-131 125 -131 325q0 178 125 309q52 52 133.5 84.5t171.5 32.5q111 0 225 -63q19 -9 25 0l8 32q3 7 29 7q17 0 20 -19l29 -221q3 -11 -4 -14l-23 -6q-11 -4 -16 4q-40 86 -88 133q-41 41 -96.5 64.5t-112.5 23.5q-90 0 -158 -52t-99 -127.5t-30 -158.5 q0 -164 109 -279q104 -104 225 -104q94 0 170 42t129 112q5 4 16 -7l15 -10q7 -7 -2 -20q-141 -197 -361 -197q-93 0 -174 29t-135 80zM1495 686q1 124 -37 232t-100.5 182.5t-143 128t-164 79t-163.5 25.5q-124 1 -236 -48.5t-193.5 -135t-130 -206.5t-48.5 -257 q-1 -128 36.5 -236.5t99 -182.5t141.5 -126.5t164 -76.5t167 -25q121 -1 223 38t171.5 103.5t118.5 149.5t71.5 175t23.5 181zM1597 686q0 -199 -88.5 -362t-252 -259t-369.5 -96q-208 0 -371.5 96.5t-251.5 259.5t-88 361q-1 146 56.5 279.5t153.5 229t227.5 152 t273.5 56.5q202 0 364 -91.5t254 -255.5t92 -370z" />
<glyph unicode="&#xaa;" horiz-adv-x="663" d="M535 1044q-68 0 -138 -67q-66 -60 -116 -156q-45 -86 -45 -141q0 -34 12.5 -57t36.5 -23q49 -4 147.5 95t128.5 165q39 86 39 123q0 33 -14.5 47t-50.5 14zM770 1075l-63 -149q-4 -8 -18.5 -45t-26.5 -66l-16 -39q-15 -39 -23 -65q-28 -87 -29 -90q0 -19 14 -19 q12 0 49 29q39 30 52 49q5 8 14 2l20 -20q9 -8 0 -17q-19 -31 -97.5 -81t-131.5 -50q-20 0 -32.5 8.5t-12.5 20.5q0 30 59 182l-8 4q-43 -69 -136 -142t-163 -73q-105 0 -108 129q-2 65 40.5 147.5t106.5 152t144.5 116.5t148.5 45q82 -3 102 -55l19 30q10 13 24 13h66 q6 0 8 -5.5t-2 -11.5z" />
<glyph unicode="&#xab;" horiz-adv-x="737" d="M381 434q0 5 10 15l318 296q9 9 12 9q4 0 10 -6l23 -23q8 -8 8 -14q0 -5 -12 -17l-215 -250l155 -251q10 -13 10 -17q0 -6 -8 -14l-24 -23l-9 -4q-9 0 -14 8l-256 279q-8 8 -8 12zM115 434q0 5 10 15l317 296q9 9 13 9t10 -6l22 -23q9 -9 9 -14q0 -4 -13 -17l-215 -250 l156 -251q10 -13 10 -17q0 -6 -8 -14l-25 -23l-8 -4q-9 0 -14 8l-256 279q-8 8 -8 12z" />
<glyph unicode="&#xac;" d="M147 709h795v-459h-119v348h-676v111z" />
<glyph unicode="&#xad;" horiz-adv-x="856" d="M145 555h662q18 0 18 -16v-70q0 -25 -18 -25h-662q-16 0 -16 15v76q0 20 16 20z" />
<glyph unicode="&#xae;" horiz-adv-x="1105" d="M657 967q71 0 104.5 36t33.5 80q0 50 -41 76q-47 29 -97 29l-41 -4v-215q6 -2 41 -2zM526 1153q0 35 -41 35h-14q-4 0 -4 6v25q0 6 4 6l98 -4l131 4q100 3 152 -43q39 -33 39 -86q0 -60 -40 -99t-95 -47v-4q12 -4 30 -22l66 -95q55 -71 66 -77q20 -13 57 -13q8 0 8 -10 v-18q0 -4 -6 -4l-62 2l-79 -2q-13 3 -33 38q-22 28 -55 84q-18 41 -43 70q-18 20 -32 27.5t-36 7.5q-19 0 -21 -2v-35q0 -121 2 -129q0 -29 25 -29h33q4 0 4 -6v-20q0 -6 -4 -6l-107 2l-98 -2q-6 0 -6 6v22q0 4 4 4h18q22 0 30.5 8t8.5 33v187l2 71q3 83 -2 115zM313 963 q0 -98 34.5 -175t90.5 -122.5t121 -69t133 -23.5q96 0 171 33t119 88.5t66.5 122t22.5 139.5q0 97 -35 173t-91.5 120.5t-121 67t-131.5 22.5q-162 0 -270.5 -104t-108.5 -272zM1155 956q0 -193 -126 -319.5t-337 -126.5q-212 0 -337.5 125.5t-125.5 320.5q0 190 133 318.5 t330 128.5q205 0 334 -124.5t129 -322.5z" />
<glyph unicode="&#xaf;" horiz-adv-x="522" d="M244 1130h368q21 0 21 -14v-59q0 -15 -19 -15h-374q-17 0 -17 15v61q0 12 21 12z" />
<glyph unicode="&#xb0;" horiz-adv-x="512" d="M324 1221q0 -56 34 -93.5t82 -37.5q50 0 84.5 37.5t34.5 93.5q0 50 -34 83t-85 33q-50 0 -83 -33.5t-33 -82.5zM649 1217q0 -77 -60 -134t-149 -57q-93 0 -150 53t-57 138q0 75 60.5 130.5t146.5 55.5q95 0 152 -52.5t57 -133.5z" />
<glyph unicode="&#xb1;" d="M942 133v-110h-795v110h795zM485 301v293h-338v111h338v282h121v-282h336v-111h-336v-293h-121z" />
<glyph unicode="&#xb2;" horiz-adv-x="665" d="M262 883h230q45 0 75 20.5t58 65.5q9 12 20 8l17 -10q5 -2 5.5 -6t-3.5 -9q-23 -30 -50 -88q-17 -38 -34 -82q-3 -12 -19 -12q-12 0 -20 14q-7 9 -78 9h-334q-25 0 -25 16q0 13 17 27l86 67q204 159 299.5 263t95.5 200q0 55 -29.5 94t-83.5 39q-51 0 -85 -31.5 t-72 -95.5q-11 -20 -23 -16l-22 12q-9 6 -6 18q25 70 92 134q71 65 172 65q91 0 140.5 -49.5t49.5 -136.5q0 -99 -78 -195q-69 -86 -153 -151.5t-238 -165.5l-4 -2v-2z" />
<glyph unicode="&#xb3;" horiz-adv-x="665" d="M150 915q0 22 14.5 39t38.5 17q30 0 43 -23t8 -55q-5 -18 24.5 -38.5t63.5 -20.5q88 0 151.5 66t63.5 159q0 49 -25.5 86.5t-68.5 54.5q-21 10 -21 23q0 17 21 20q53 11 115 60q57 45 57 116q0 35 -24 60.5t-74 25.5q-70 0 -134 -88q-18 -27 -30 -18l-21 16q-4 7 2 21 q37 64 97 106.5t141 42.5q77 0 121.5 -36t44.5 -83q0 -126 -178 -217q105 -57 108 -176q2 -77 -51 -146.5t-134.5 -109.5t-164.5 -39q-84 1 -136 41t-52 96z" />
<glyph unicode="&#xb4;" horiz-adv-x="460" d="M207 993l258 211q43 31 72 31q23 0 39 -19t16 -45q0 -47 -53 -71l-310 -146q-13 -7 -16 2l-14 21q-4 4 8 16z" />
<glyph unicode="&#xb5;" d="M125 -139l-62 -166l-22 -57q-13 -35 -56.5 -59.5t-90.5 -24.5q-37 0 -37 28q0 21 28 49q43 43 77.5 113t92.5 215l43 109l41 102l66 164l100 248q28 68 35.5 115.5t7.5 109.5q0 45 88 45q31 0 50.5 -22t19.5 -52q0 -40 -66 -180q-21 -44 -73 -172q-88 -225 -98 -264 q-5 -22 -5 -35q0 -35 35 -35q74 0 193 125q123 129 192 229q57 83 96 170q49 119 49 191q0 45 84 45q60 0 60 -61q0 -23 -66 -189q-14 -32 -84 -215q-75 -201 -75 -252q0 -16 11.5 -27.5t24.5 -11.5q25 0 64 45q43 46 65 82q11 11 19 0l20 -20q10 -9 0 -19 q-46 -64 -123 -135q-75 -69 -170 -69q-29 0 -46 17t-17 48q0 28 41 143q16 45 41.5 113.5t28.5 75.5l-13 6q-289 -414 -524 -399z" />
<glyph unicode="&#xb6;" d="M510 -287h-55q-6 0 -6 11q0 1 0.5 3.5l1.5 7.5t2 11l176 674q-183 0 -324 78q-139 80 -139 256q0 68 22 145q65 217 318 330q258 115 569 155q158 19 185 19q17 0 14 -14l-8 -35q-3 -14 -21 -17q-70 -7 -112 -14l-416 -1593q-3 -17 -19 -17h-49q-12 0 -12 8l4 17 l410 1577q-62 -10 -121 -25l-400 -1548q-6 -29 -20 -29z" />
<glyph unicode="&#xb7;" horiz-adv-x="512" d="M238 705q0 40 29 73t77 33q55 0 86 -34.5t31 -71.5q0 -44 -33.5 -77.5t-81.5 -33.5q-47 0 -77.5 31.5t-30.5 79.5z" />
<glyph unicode="&#xb8;" horiz-adv-x="440" d="M143 0l-96 -137q84 -41 84 -119q5 -45 -48 -88t-115.5 -65t-98.5 -21q-39 0 -39 37q0 33 37 33q57 0 104 29.5t47 66.5q0 25 -20.5 49t-56.5 37l127 178h75z" />
<glyph unicode="&#xb9;" horiz-adv-x="665" d="M164 840h65q40 0 61.5 11t39.5 46q21 57 45 131l86 270q37 110 37 119q0 17 -17 17t-84 -27l-65 -27q-12 -3 -15 9l-12 24q-2 6 8 14l291 144q28 14 45 14q7 0 13 -4.5t6 -9.5q0 -18 -6 -33q-64 -161 -111 -311l-57 -183q-34 -105 -41 -141q-7 -21 -7 -33q0 -30 46 -30 h55q14 0 10 -11l-6 -32q-4 -11 -14 -11l-195 7l-192 -7q-11 0 -7 11l7 32q4 11 14 11z" />
<glyph unicode="&#xba;" horiz-adv-x="663" d="M608 952q1 41 -20.5 61.5t-67.5 22.5q-56 3 -116.5 -60.5t-98 -153.5t-35.5 -163q0 -37 21 -59t61 -22q41 -5 105.5 64t110.5 161.5t40 148.5zM162 700q-1 50 14 106t46 109.5t73 96t101 68t124 24.5q81 -1 133 -49.5t52 -120.5q1 -47 -13 -102.5t-44 -112.5 t-71.5 -103.5t-103 -75t-131.5 -26.5q-80 2 -129.5 47t-50.5 139z" />
<glyph unicode="&#xbb;" horiz-adv-x="737" d="M709 455q0 -4 -11 -15l-317 -297q-8 -8 -12 -8q-5 0 -11 6l-22 23q-8 8 -8 14q0 5 12 17l215 249l-156 252q-10 13 -10 17q0 6 8 14l25 23l8 4q8 0 14 -9l256 -278q9 -9 9 -12zM442 455q0 -5 -10 -15l-317 -297q-8 -8 -13 -8q-4 0 -10 6l-22 23q-9 9 -9 14q0 4 13 17 l215 249l-156 252q-10 13 -10 17q0 6 8 14l25 23l8 4q8 0 14 -9l256 -278q8 -8 8 -12z" />
<glyph unicode="&#xbc;" horiz-adv-x="1433" d="M1137 293l118 282q7 14 7 21q0 6 -5 6q-10 0 -24 -14l-307 -264q-36 -31 -13 -31h224zM1028 10q0 7 6 19l78 184h-313q-31 0 -31 31q0 13 29 39l567 493q17 17 45 17q17 0 25 -14.5t2 -28.5l-181 -457h129q5 0 7 -5.5t-2 -13.5l-19 -43q-9 -18 -20 -18h-121l-76 -188 q-6 -16 -12 -20.5t-19 -4.5h-86q-8 0 -8 10zM313 12q0 10 9 25l835 1276q5 8 12 8q3 0 15 -4l45 -29q8 -3 8 -10q0 -5 -6 -14l-840 -1280q-9 -15 -16 -15q-8 0 -17 6l-39 27q-6 3 -6 10zM268 633q21 57 45 131l86 270q37 110 37 119q0 16 -16 16q-19 0 -84 -26l-66 -27 q-11 -3 -14 8l-12 25q-2 6 8 14l291 144q28 14 45 14q7 0 12.5 -4.5t5.5 -9.5q0 -18 -6 -33q-64 -161 -111 -311l-57 -183q-30 -91 -41 -141q-6 -18 -6 -33q0 -31 45 -31h55q7 0 10 -2.5t1 -7.5l-7 -33q-3 -10 -14 -10l-194 6l-193 -6q-9 0 -6 10l6 33q3 10 14 10h66 q39 0 60.5 11.5t39.5 46.5z" />
<glyph unicode="&#xbd;" horiz-adv-x="1433" d="M1331 176q9 12 21 8l16 -10q12 -4 2 -14q-21 -27 -49 -88q-23 -49 -35 -82q-3 -13 -18 -13q-12 0 -21 15q-6 8 -78 8h-333q-25 0 -25 16q0 14 16 27l86 68q80 62 133 106t107.5 95.5t85.5 92t50.5 84t19.5 84.5q0 55 -29.5 94.5t-83.5 39.5q-51 0 -85.5 -31.5 t-72.5 -95.5q-12 -20 -22 -17l-23 12q-9 6 -6 19q24 68 92 133q72 66 172 66q91 0 141 -50t50 -137q0 -98 -78 -194q-69 -86 -154 -152.5t-237 -165.5l-4 -2v-2h229q45 0 75 20.5t58 65.5zM313 12q0 10 9 25l835 1276q5 8 12 8q3 0 15 -4l45 -29q8 -3 8 -10q0 -5 -6 -14 l-840 -1280q-9 -15 -16 -15q-8 0 -17 6l-39 27q-6 3 -6 10zM268 633q21 57 45 131l86 270q37 110 37 119q0 16 -16 16q-19 0 -84 -26l-66 -27q-11 -3 -14 8l-12 25q-2 6 8 14l291 144q28 14 45 14q7 0 12.5 -4.5t5.5 -9.5q0 -18 -6 -33q-64 -161 -111 -311l-57 -183 q-30 -91 -41 -141q-6 -18 -6 -33q0 -31 45 -31h55q7 0 10 -2.5t1 -7.5l-7 -33q-3 -10 -14 -10l-194 6l-193 -6q-9 0 -6 10l6 33q3 10 14 10h66q39 0 60.5 11.5t39.5 46.5z" />
<glyph unicode="&#xbe;" horiz-adv-x="1433" d="M1147 293l119 282q6 12 6 21q0 6 -4 6q-11 0 -25 -14l-307 -264q-33 -30 -12 -31h223zM1038 10q0 7 6 19l78 184h-313q-31 0 -31 31q0 13 29 39l567 493q17 17 45 17q17 0 25 -14.5t2 -28.5l-180 -457h129q8 0 4 -19l-19 -43q-9 -18 -20 -18h-121l-76 -188 q-6 -16 -11.5 -20.5t-18.5 -4.5h-86q-9 0 -9 10zM334 12q0 12 8 25l836 1276q5 8 12 8q2 0 14 -4l45 -29q8 -3 8 -10q0 -5 -6 -14l-839 -1280q-9 -15 -17 -15q-7 0 -16 6l-39 27q-6 3 -6 10zM88 651q0 22 14.5 39t38.5 17q30 0 43.5 -23t8.5 -55q-5 -18 24.5 -39t63.5 -21 q88 0 151.5 66.5t63.5 159.5q0 49 -26 86t-69 55q-20 10 -20 22q0 18 20 21q55 11 115 59q57 45 57 117q0 35 -24 60.5t-74 25.5q-69 0 -133 -88q-18 -27 -31 -18l-20 16q-3 7 2 20q37 64 96.5 107t140.5 43q77 0 121.5 -36t44.5 -83q0 -126 -178 -217q106 -57 109 -176 q2 -77 -51 -146.5t-135 -109.5t-165 -39q-84 1 -136 41t-52 96z" />
<glyph unicode="&#xbf;" horiz-adv-x="878" d="M737 291q0 -93 -68 -163t-208 -151l-49 -28q-71 -41 -148 -99q-114 -85 -114 -219q0 -61 54.5 -114.5t149.5 -53.5q99 0 169.5 54.5t70.5 132.5q0 40 -20 66t-42 26q-23 0 -32 -18q2 -14 2 -31q0 -34 -28.5 -64t-74.5 -30q-35 0 -55 21t-20 48q0 61 49.5 102.5 t113.5 41.5q71 0 119.5 -40.5t48.5 -117.5q0 -98 -88 -180t-225 -82q-85 0 -147.5 27.5t-94 71t-45.5 85.5t-14 84q0 123 57 203q61 86 131 133q69 46 193 110q127 64 186 109q54 42 54 100q0 54 -40.5 84.5t-103.5 30.5q-47 0 -94 -24t-70 -52q-9 -9 -18 4l-14 17 q-8 8 -5 16q43 48 101 82.5t119 34.5q86 0 143 -57.5t57 -159.5zM510 745q0 44 27.5 75.5t74.5 31.5q44 0 74.5 -32t30.5 -75q0 -35 -30 -67.5t-71 -32.5q-40 0 -73 29t-33 71z" />
<glyph unicode="&#xc0;" horiz-adv-x="1267" d="M989 688l158 541l2 8q0 16 -23 16q-14 0 -24 -10l-447 -555h334zM602 616l-287 -360q-84 -106 -84 -137q0 -23 19.5 -36t52.5 -13h74q17 0 14 -21l-8 -39q-3 -16 -21 -16q-3 0 -38.5 1.5t-98 3t-131.5 1.5q-57 0 -110 -1.5t-84 -3t-35 -1.5q-11 0 -15.5 3.5t-3.5 10.5 l11 45q3 17 14 17h31q123 0 248 149l948 1133q10 11 19.5 15t37.5 5q52 2 96 14q3 1 17.5 5.5t29 8t21.5 3.5q26 0 20 -21l-301 -1136q-20 -81 -20 -119q0 -24 22.5 -40.5t53.5 -16.5h55q19 0 16 -21l-6 -37q-1 -10 -6.5 -14t-17.5 -4q-4 0 -39 1.5t-92 3t-115 1.5 q-95 0 -197 -4q-12 -2 -43 -2q-23 0 -20 20l8 39q3 17 16 17h39q69 0 107 32.5t65 135.5l103 378h-365zM1278 1489l-320 166q-45 23 -45 65q0 29 23 53.5t49 24.5q33 0 78 -45l240 -227q11 -7 4 -17l-15 -20q-4 -3 -14 0z" />
<glyph unicode="&#xc1;" horiz-adv-x="1267" d="M989 688l158 541l2 8q0 16 -23 16q-14 0 -24 -10l-447 -555h334zM602 616l-287 -360q-84 -106 -84 -137q0 -23 19.5 -36t52.5 -13h74q17 0 14 -21l-8 -39q-3 -16 -21 -16q-3 0 -38.5 1.5t-98 3t-131.5 1.5q-57 0 -110 -1.5t-84 -3t-35 -1.5q-11 0 -15.5 3.5t-3.5 10.5 l11 45q3 17 14 17h31q123 0 248 149l948 1133q10 11 19.5 15t37.5 5q52 2 96 14q3 1 17.5 5.5t29 8t21.5 3.5q26 0 20 -21l-301 -1136q-20 -81 -20 -119q0 -24 22.5 -40.5t53.5 -16.5h55q19 0 16 -21l-6 -37q-1 -10 -6.5 -14t-17.5 -4q-4 0 -39 1.5t-92 3t-115 1.5 q-95 0 -197 -4q-12 -2 -43 -2q-23 0 -20 20l8 39q3 17 16 17h39q69 0 107 32.5t65 135.5l103 378h-365zM1163 1534l293 227q36 25 70 25q28 0 45.5 -23t17.5 -55q0 -54 -47 -72l-356 -145q-14 -7 -17 2l-12 20q-4 11 6 21z" />
<glyph unicode="&#xc2;" horiz-adv-x="1267" d="M989 688l158 541l2 8q0 16 -23 16q-14 0 -24 -10l-447 -555h334zM602 616l-287 -360q-84 -106 -84 -137q0 -23 19.5 -36t52.5 -13h74q17 0 14 -21l-8 -39q-3 -16 -21 -16q-3 0 -38.5 1.5t-98 3t-131.5 1.5q-57 0 -110 -1.5t-84 -3t-35 -1.5q-11 0 -15.5 3.5t-3.5 10.5 l11 45q3 17 14 17h31q123 0 248 149l948 1133q10 11 19.5 15t37.5 5q52 2 96 14q3 1 17.5 5.5t29 8t21.5 3.5q26 0 20 -21l-301 -1136q-20 -81 -20 -119q0 -24 22.5 -40.5t53.5 -16.5h55q19 0 16 -21l-6 -37q-1 -10 -6.5 -14t-17.5 -4q-4 0 -39 1.5t-92 3t-115 1.5 q-95 0 -197 -4q-12 -2 -43 -2q-23 0 -20 20l8 39q3 17 16 17h39q69 0 107 32.5t65 135.5l103 378h-365zM995 1499l-14 23q-4 4 4 12l285 246l12 4q9 0 14 -8l146 -246q7 -10 -4 -17l-21 -18q-7 -5 -22 4l-142 123l-243 -127q-12 -4 -15 4z" />
<glyph unicode="&#xc3;" horiz-adv-x="1267" d="M989 688l158 541l2 8q0 16 -23 16q-14 0 -24 -10l-447 -555h334zM602 616l-287 -360q-84 -106 -84 -137q0 -23 19.5 -36t52.5 -13h74q17 0 14 -21l-8 -39q-3 -16 -21 -16q-3 0 -38.5 1.5t-98 3t-131.5 1.5q-57 0 -110 -1.5t-84 -3t-35 -1.5q-11 0 -15.5 3.5t-3.5 10.5 l11 45q3 17 14 17h31q123 0 248 149l948 1133q10 11 19.5 15t37.5 5q52 2 96 14q3 1 17.5 5.5t29 8t21.5 3.5q26 0 20 -21l-301 -1136q-20 -81 -20 -119q0 -24 22.5 -40.5t53.5 -16.5h55q19 0 16 -21l-6 -37q-1 -10 -6.5 -14t-17.5 -4q-4 0 -39 1.5t-92 3t-115 1.5 q-95 0 -197 -4q-12 -2 -43 -2q-23 0 -20 20l8 39q3 17 16 17h39q69 0 107 32.5t65 135.5l103 378h-365zM961 1567q26 66 75.5 111.5t93.5 45.5q82 0 154 -24q39 -8 115 -8q66 0 104 65q8 14 17 8l30 -16q4 -4 4 -8q0 -7 -10 -27q-73 -135 -168 -135q-53 0 -135 16 q-73 17 -133 17q-24 0 -54.5 -23t-49.5 -53q-9 -12 -17 -6l-26 16q-3 6 0 21z" />
<glyph unicode="&#xc4;" horiz-adv-x="1267" d="M989 688l158 541l2 8q0 16 -23 16q-14 0 -24 -10l-447 -555h334zM602 616l-287 -360q-84 -106 -84 -137q0 -23 19.5 -36t52.5 -13h74q17 0 14 -21l-8 -39q-3 -16 -21 -16q-3 0 -38.5 1.5t-98 3t-131.5 1.5q-57 0 -110 -1.5t-84 -3t-35 -1.5q-11 0 -15.5 3.5t-3.5 10.5 l11 45q3 17 14 17h31q123 0 248 149l948 1133q10 11 19.5 15t37.5 5q52 2 96 14q3 1 17.5 5.5t29 8t21.5 3.5q26 0 20 -21l-301 -1136q-20 -81 -20 -119q0 -24 22.5 -40.5t53.5 -16.5h55q19 0 16 -21l-6 -37q-1 -10 -6.5 -14t-17.5 -4q-4 0 -39 1.5t-92 3t-115 1.5 q-95 0 -197 -4q-12 -2 -43 -2q-23 0 -20 20l8 39q3 17 16 17h39q69 0 107 32.5t65 135.5l103 378h-365zM1317 1628q0 35 25.5 60.5t76.5 25.5q39 0 65.5 -25t26.5 -67q0 -40 -26.5 -65t-65.5 -25q-102 0 -102 96zM952 1628q0 35 26 60.5t77 25.5q39 0 65.5 -25t26.5 -67 q0 -40 -26.5 -65t-65.5 -25q-46 0 -74.5 23t-28.5 73z" />
<glyph unicode="&#xc5;" horiz-adv-x="1267" d="M989 688l158 541l2 8q0 16 -23 16q-14 0 -24 -10l-447 -555h334zM602 616l-287 -360q-84 -106 -84 -137q0 -23 19.5 -36t52.5 -13h74q17 0 14 -21l-8 -39q-3 -16 -21 -16q-3 0 -38.5 1.5t-98 3t-131.5 1.5q-57 0 -110 -1.5t-84 -3t-35 -1.5q-11 0 -15.5 3.5t-3.5 10.5 l11 45q3 17 14 17h31q123 0 248 149l948 1133q15 18 43 18q52 0 110 10q13 2 29 5.5t25.5 5.5t13.5 2q27 0 18 -31l-299 -1116q-20 -81 -20 -119q0 -24 22.5 -40.5t53.5 -16.5h55q19 0 16 -21l-6 -37q-1 -10 -6.5 -14t-17.5 -4q-4 0 -39 1.5t-92 3t-115 1.5q-95 0 -197 -4 q-12 -2 -43 -2q-23 0 -20 20l8 39q3 17 16 17h39q69 0 107 32.5t65 135.5l103 378h-365zM1350 1649q0 50 -32.5 77t-74.5 27q-40 0 -70 -30t-30 -76q0 -49 29.5 -77t74.5 -28q44 0 73.5 28t29.5 79zM1034 1632q0 77 64 124.5t155 47.5q90 0 147.5 -42.5t57.5 -121.5 q0 -65 -63.5 -107t-155.5 -42q-88 0 -146.5 39.5t-58.5 101.5z" />
<glyph unicode="&#xc6;" horiz-adv-x="1878" d="M932 705l168 524q2 4 2 14q0 12 -8 12q-9 0 -21 -12l-477 -538h336zM911 70h510q59 0 90.5 16t73.5 70l164 206q9 15 25 5l20 -13q12 -12 6 -28l-104 -297q-7 -23 -15.5 -29t-29.5 -6l-252 4l-438 2h-168l-189 -2l-61 -4q-12 -1 -17.5 5t-3.5 17l6 37q3 17 17 17h76 q59 0 93.5 28t53.5 86l145 455h-376l-326 -381q-53 -61 -73.5 -90.5t-20.5 -48.5q0 -49 73 -49h68q15 0 12 -21l-6 -39q-3 -16 -22 -16q-3 0 -38.5 1.5t-98.5 3t-132 1.5q-57 0 -110 -1.5t-84 -3t-35 -1.5q-19 0 -16 20l8 39q3 17 16 17h37q62 0 131 39.5t133 109.5 l942 1047q11 11 11 20q0 6 -6.5 11.5t-16.5 5.5h-133q-8 0 -12 5t0 11l18 49q7 10 23 10l96 -2q114 -4 139 -4h205q159 0 371 4q40 0 71 0.5t48 1t22 0.5q23 0 30 -7t13 -32l65 -280v-6q0 -10 -12 -13l-22 -8q-11 -7 -21 6l-192 248q-17 17 -35 17h-350l-195 -598h215 q48 0 73 2t53 10.5t45 27t35.5 49.5t37.5 80q4 14 14 11l31 -6q15 -3 12 -17l-110 -407q-3 -16 -15 -13l-33 4q-11 2 -8 17q2 8 2 35q-2 40 -11.5 65.5t-23.5 41.5t-44.5 23t-62 9t-89.5 2h-139z" />
<glyph unicode="&#xc7;" horiz-adv-x="1335" d="M1098 -45l-37 10q-11 4 -8 12q8 24 8 46q0 12 -10 22t-23 10q-23 0 -90 -28q-42 -20 -125 -37q-89 -21 -158 -21q-35 0 -69 6l-68 -104q100 -37 100 -127q0 -72 -93 -135.5t-189 -63.5q-39 0 -39 31q0 33 25 33q51 3 112 31q60 28 60 90q0 25 -29.5 49t-69.5 37l121 174 q-160 39 -256 164t-96 303q0 174 78 368q79 190 219 342q100 110 231 173t262 63q76 0 138 -19.5t133 -68.5q8 -5 29 -21t39 -26.5t34 -10.5q39 0 53 64q6 18 19 12l26 -6q19 -3 13 -20l-109 -424q-4 -10 -7.5 -12.5t-14.5 -0.5l-29 4q-15 3 -12 21q10 52 10 90 q0 142 -83.5 243t-223.5 101q-120 0 -211 -59t-183 -191q-101 -148 -151.5 -319.5t-50.5 -323.5q0 -98 29.5 -174.5t77 -120.5t100.5 -66t106 -22q360 0 510 363q6 13 9.5 15.5t11.5 0.5l34 -10q14 -3 11 -19l-146 -438q-5 -13 -18 -10z" />
<glyph unicode="&#xc8;" horiz-adv-x="1370" d="M561 1210q0 47 -34 70t-89 23h-65q-19 0 -13 22l11 39q3 14 24 14l25 -1q24 -1 53 -1q114 -4 205 -4h131q130 0 356 4q42 0 77.5 0.5t55.5 1t25 0.5q23 0 30 -7t13 -32l66 -280v-6q0 -10 -13 -13l-22 -8q-11 -7 -21 6l-192 248q-10 17 -33 17h-373l-176 -539h197 q47 0 72.5 2.5t53 11t45 27.5t35.5 50t37 81q3 14 15 10l30 -6q16 -3 13 -16l-111 -408q-3 -15 -14 -12l-33 4q-11 2 -8 16q2 8 2 35q-2 29 -7 49.5t-12 36t-22 25t-29 15.5t-41.5 8.5t-52 3.5t-67.5 1h-123l-199 -628h530q94 0 164 86l164 206q9 15 25 5l20 -13 q12 -12 6 -28l-104 -297q-7 -23 -15.5 -29t-29.5 -6l-228 4l-413 2h-238l-192 -2l-62 -4q-22 0 -16 16l6 43q3 17 16 17h76q59 0 94 28t54 86l311 973q10 38 10 53zM1063 1489l-320 166q-45 23 -45 65q0 29 23 53.5t49 24.5q33 0 78 -45l239 -227q11 -8 5 -17l-15 -20 q-3 -3 -14 0z" />
<glyph unicode="&#xc9;" horiz-adv-x="1370" d="M561 1210q0 47 -34 70t-89 23h-65q-19 0 -13 22l11 39q3 14 24 14l25 -1q24 -1 53 -1q114 -4 205 -4h131q130 0 356 4q42 0 77.5 0.5t55.5 1t25 0.5q23 0 30 -7t13 -32l66 -280v-6q0 -10 -13 -13l-22 -8q-11 -7 -21 6l-192 248q-10 17 -33 17h-373l-176 -539h197 q47 0 72.5 2.5t53 11t45 27.5t35.5 50t37 81q3 14 15 10l30 -6q16 -3 13 -16l-111 -408q-3 -15 -14 -12l-33 4q-11 2 -8 16q2 8 2 35q-2 29 -7 49.5t-12 36t-22 25t-29 15.5t-41.5 8.5t-52 3.5t-67.5 1h-123l-199 -628h530q94 0 164 86l164 206q9 15 25 5l20 -13 q12 -12 6 -28l-104 -297q-7 -23 -15.5 -29t-29.5 -6l-228 4l-413 2h-238l-192 -2l-62 -4q-22 0 -16 16l6 43q3 17 16 17h76q59 0 94 28t54 86l311 973q10 38 10 53zM928 1534l293 227q36 25 69 25q28 0 46 -23t18 -55q0 -54 -47 -72l-357 -145q-13 -7 -16 2l-12 20 q-4 11 6 21z" />
<glyph unicode="&#xca;" horiz-adv-x="1370" d="M561 1210q0 47 -34 70t-89 23h-65q-19 0 -13 22l11 39q3 14 24 14l25 -1q24 -1 53 -1q114 -4 205 -4h131q130 0 356 4q42 0 77.5 0.5t55.5 1t25 0.5q23 0 30 -7t13 -32l66 -280v-6q0 -10 -13 -13l-22 -8q-11 -7 -21 6l-192 248q-10 17 -33 17h-373l-176 -539h197 q47 0 72.5 2.5t53 11t45 27.5t35.5 50t37 81q3 14 15 10l30 -6q16 -3 13 -16l-111 -408q-3 -15 -14 -12l-33 4q-11 2 -8 16q2 8 2 35q-2 29 -7 49.5t-12 36t-22 25t-29 15.5t-41.5 8.5t-52 3.5t-67.5 1h-123l-199 -628h530q94 0 164 86l164 206q9 15 25 5l20 -13 q12 -12 6 -28l-104 -297q-7 -23 -15.5 -29t-29.5 -6l-228 4l-413 2h-238l-192 -2l-62 -4q-22 0 -16 16l6 43q3 17 16 17h76q59 0 94 28t54 86l311 973q10 38 10 53zM739 1499l-14 23q-4 4 4 12l285 246l12 4q9 0 14 -8l146 -246q7 -10 -4 -17l-21 -18q-7 -5 -22 4l-142 123 l-243 -127q-12 -4 -15 4z" />
<glyph unicode="&#xcb;" horiz-adv-x="1370" d="M561 1210q0 47 -34 70t-89 23h-65q-19 0 -13 22l11 39q3 14 24 14l25 -1q24 -1 53 -1q114 -4 205 -4h131q130 0 356 4q42 0 77.5 0.5t55.5 1t25 0.5q23 0 30 -7t13 -32l66 -280v-6q0 -10 -13 -13l-22 -8q-11 -7 -21 6l-192 248q-10 17 -33 17h-373l-176 -539h197 q47 0 72.5 2.5t53 11t45 27.5t35.5 50t37 81q3 14 15 10l30 -6q16 -3 13 -16l-111 -408q-3 -15 -14 -12l-33 4q-11 2 -8 16q2 8 2 35q-2 29 -7 49.5t-12 36t-22 25t-29 15.5t-41.5 8.5t-52 3.5t-67.5 1h-123l-199 -628h530q94 0 164 86l164 206q9 15 25 5l20 -13 q12 -12 6 -28l-104 -297q-7 -23 -15.5 -29t-29.5 -6l-228 4l-413 2h-238l-192 -2l-62 -4q-22 0 -16 16l6 43q3 17 16 17h76q59 0 94 28t54 86l311 973q10 38 10 53zM1061 1628q0 35 25.5 60.5t76.5 25.5q39 0 65.5 -25t26.5 -67q0 -40 -26.5 -65t-65.5 -25q-102 0 -102 96z M696 1628q0 35 26 60.5t77 25.5q39 0 65.5 -25t26.5 -67q0 -40 -26.5 -65t-65.5 -25q-46 0 -74.5 23t-28.5 73z" />
<glyph unicode="&#xcc;" horiz-adv-x="735" d="M532 1231q0 72 -83 72h-95q-13 0 -17 3t-1 13l10 47q3 12 27 12q29 0 41 -2q15 0 92 -2t143 -2q70 0 135.5 1.5t104.5 3t45 1.5q28 0 22 -20l-10 -39q-3 -16 -22 -16h-39q-97 0 -131 -25.5t-60 -120.5l-256 -948q-10 -42 -10 -59q0 -41 29 -60.5t90 -19.5h71q16 0 13 -21 l-6 -39q-1 -10 -6 -13t-19 -3q-2 0 -41 1.5t-109 3t-147 1.5q-71 0 -142 -1.5t-114.5 -3t-46.5 -1.5q-19 0 -16 16l8 39q5 13 8 17t10 4h88q32 0 52.5 2t38 10t26.5 16t19 29t16 39t16 55l256 946q10 45 10 64zM745 1489l-319 166q-45 23 -45 65q0 29 23 53.5t49 24.5 q32 0 77 -45l240 -227q11 -7 4 -17l-14 -20q-4 -4 -15 0z" />
<glyph unicode="&#xcd;" horiz-adv-x="735" d="M532 1231q0 72 -83 72h-95q-13 0 -17 3t-1 13l10 47q3 12 27 12q29 0 41 -2q15 0 92 -2t143 -2q70 0 135.5 1.5t104.5 3t45 1.5q28 0 22 -20l-10 -39q-3 -16 -22 -16h-39q-97 0 -131 -25.5t-60 -120.5l-256 -948q-10 -42 -10 -59q0 -41 29 -60.5t90 -19.5h71q16 0 13 -21 l-6 -39q-1 -10 -6 -13t-19 -3q-2 0 -41 1.5t-109 3t-147 1.5q-71 0 -142 -1.5t-114.5 -3t-46.5 -1.5q-19 0 -16 16l8 39q5 13 8 17t10 4h88q32 0 52.5 2t38 10t26.5 16t19 29t16 39t16 55l256 946q10 45 10 64zM651 1534l293 227q36 25 70 25q28 0 45.5 -23t17.5 -55 q0 -54 -47 -72l-356 -145q-14 -7 -17 2l-12 20q-4 11 6 21z" />
<glyph unicode="&#xce;" horiz-adv-x="735" d="M532 1231q0 72 -83 72h-95q-13 0 -17 3t-1 13l10 47q3 12 27 12q29 0 41 -2q15 0 92 -2t143 -2q70 0 135.5 1.5t104.5 3t45 1.5q28 0 22 -20l-10 -39q-3 -16 -22 -16h-39q-97 0 -131 -25.5t-60 -120.5l-256 -948q-10 -42 -10 -59q0 -41 29 -60.5t90 -19.5h71q16 0 13 -21 l-6 -39q-1 -10 -6 -13t-19 -3q-2 0 -41 1.5t-109 3t-147 1.5q-71 0 -142 -1.5t-114.5 -3t-46.5 -1.5q-19 0 -16 16l8 39q5 13 8 17t10 4h88q32 0 52.5 2t38 10t26.5 16t19 29t16 39t16 55l256 946q10 45 10 64zM463 1499l-14 23q-4 4 4 12l284 246q12 4 13 4q9 0 14 -8 l145 -246q7 -10 -4 -17l-20 -18q-8 -5 -23 4l-141 123l-244 -127q-11 -4 -14 4z" />
<glyph unicode="&#xcf;" horiz-adv-x="735" d="M532 1231q0 72 -83 72h-95q-13 0 -17 3t-1 13l10 47q3 12 27 12q29 0 41 -2q15 0 92 -2t143 -2q70 0 135.5 1.5t104.5 3t45 1.5q28 0 22 -20l-10 -39q-3 -16 -22 -16h-39q-97 0 -131 -25.5t-60 -120.5l-256 -948q-10 -42 -10 -59q0 -41 29 -60.5t90 -19.5h71q16 0 13 -21 l-6 -39q-1 -10 -6 -13t-19 -3q-2 0 -41 1.5t-109 3t-147 1.5q-71 0 -142 -1.5t-114.5 -3t-46.5 -1.5q-19 0 -16 16l8 39q5 13 8 17t10 4h88q32 0 52.5 2t38 10t26.5 16t19 29t16 39t16 55l256 946q10 45 10 64zM784 1628q0 35 26 60.5t77 25.5q39 0 65.5 -25t26.5 -67 q0 -40 -26.5 -65t-65.5 -25q-46 0 -74.5 23t-28.5 73zM420 1628q0 35 25.5 60.5t76.5 25.5q39 0 65.5 -25t26.5 -67q0 -40 -26.5 -65t-65.5 -25q-102 0 -102 96z" />
<glyph unicode="&#xd0;" horiz-adv-x="1591" d="M430 131q0 -61 145 -61q386 0 586 170q98 79 174 241q76 158 76 328q0 98 -35.5 189t-95.5 151q-90 93 -233 133q-105 27 -211 27q-103 0 -127 -6l-134 -555h293q31 0 21 -23l-15 -37q-4 -10 -10.5 -13t-25.5 -3h-283l-111 -455q-14 -60 -14 -86zM381 672h-221 q-14 0 -20 4.5t-3 13.5l17 45q3 13 26 13h221l109 446q1 6 2 13.5t1.5 11.5t0.5 6q0 71 -108 71h-93q-14 0 -19 3.5t-1 13.5l12 45q4 10 9 12t24 2q50 0 170 6q11 0 47.5 2t62.5 2l111 2q251 5 430 -40t289 -158q86 -86 120 -173.5t34 -197.5q0 -262 -121 -430 q-120 -167 -258 -246q-155 -87 -316.5 -117.5t-353.5 -27.5l-147 2l-152 4q-48 1 -83 1t-62.5 -1t-43.5 -2.5t-27 -2.5t-13 -1q-10 0 -14.5 4t-2.5 12l12 45q3 15 21 15h61q67 0 108.5 35.5t63.5 125.5z" />
<glyph unicode="&#xd1;" horiz-adv-x="1527" d="M532 1229q0 74 -126 74h-78q-20 0 -17 24l8 31q2 6 3 8t3 5.5t4 4.5t5 1.5t8 0.5l39 -2q39 -1 122 -2.5t191 -1.5q12 0 20 -6.5t11 -13t6.5 -18t5.5 -15.5l441 -983q10 -23 16 -23q11 0 35 70l268 801q10 29 10 53q0 66 -75 66h-72q-14 0 -19 5t-4 17l6 37q3 16 21 16 q4 0 34.5 -1.5t84.5 -3t114 -1.5q55 0 114.5 3t62.5 3q24 0 18 -26l-6 -33q-1 -10 -4.5 -13t-14.5 -3h-51q-42 0 -65 -22.5t-47 -90.5l-398 -1137q-17 -51 -43 -51q-24 0 -41 39l-487 1087q-9 21 -21 21q-9 0 -16 -23l-262 -866q-19 -65 -19 -104q0 -86 89 -86h79 q22 0 19 -21l-6 -39q-5 -11 -9 -13.5t-16 -2.5q-3 0 -38 1.5t-95.5 3t-124.5 1.5q-61 0 -114 -1.5t-83 -3t-32 -1.5q-20 0 -17 22l6 37q3 17 19 17h55q73 0 114.5 46t78.5 165l282 901q8 19 8 47zM836 1567q26 66 76 111.5t94 45.5q81 0 153 -24q39 -8 115 -8q66 0 104 65 q8 14 17 8l30 -16q5 -5 5 -8q0 -5 -11 -27q-73 -135 -168 -135q-53 0 -135 16q-73 17 -133 17q-24 0 -54.5 -23t-49.5 -53q-9 -12 -17 -6l-26 16q-3 6 0 21z" />
<glyph unicode="&#xd2;" horiz-adv-x="1452" d="M1305 922q0 176 -89.5 283.5t-250.5 107.5q-85 0 -154.5 -35.5t-146.5 -112.5q-132 -132 -215 -338q-84 -209 -84 -370q0 -101 27.5 -181t74.5 -128.5t104 -73.5t119 -25q162 0 303 129q146 131 228 332q84 206 84 412zM381 109q-166 169 -172 481q-2 150 59 300t160 263 t231.5 182.5t266.5 67.5q153 -3 275 -80.5t192 -217t71 -317.5q1 -115 -31.5 -233.5t-97 -224t-151.5 -187.5t-203.5 -129t-243.5 -45q-225 3 -356 140zM1042 1489l-319 166q-45 23 -45 65q0 29 23 53.5t49 24.5q32 0 77 -45l240 -227q11 -7 4 -17l-14 -20q-4 -4 -15 0z" />
<glyph unicode="&#xd3;" horiz-adv-x="1452" d="M1305 922q0 176 -89.5 283.5t-250.5 107.5q-85 0 -154.5 -35.5t-146.5 -112.5q-132 -132 -215 -338q-84 -209 -84 -370q0 -101 27.5 -181t74.5 -128.5t104 -73.5t119 -25q162 0 303 129q146 131 228 332q84 206 84 412zM381 109q-166 169 -172 481q-2 150 59 300t160 263 t231.5 182.5t266.5 67.5q153 -3 275 -80.5t192 -217t71 -317.5q1 -115 -31.5 -233.5t-97 -224t-151.5 -187.5t-203.5 -129t-243.5 -45q-225 3 -356 140zM948 1534l293 227q36 25 70 25q28 0 45.5 -23t17.5 -55q0 -54 -47 -72l-356 -145q-14 -7 -17 2l-12 20q-4 11 6 21z" />
<glyph unicode="&#xd4;" horiz-adv-x="1452" d="M1305 922q0 176 -89.5 283.5t-250.5 107.5q-85 0 -154.5 -35.5t-146.5 -112.5q-132 -132 -215 -338q-84 -209 -84 -370q0 -101 27.5 -181t74.5 -128.5t104 -73.5t119 -25q162 0 303 129q146 131 228 332q84 206 84 412zM381 109q-166 169 -172 481q-2 150 59 300t160 263 t231.5 182.5t266.5 67.5q153 -3 275 -80.5t192 -217t71 -317.5q1 -115 -31.5 -233.5t-97 -224t-151.5 -187.5t-203.5 -129t-243.5 -45q-225 3 -356 140zM719 1499l-14 23q-4 4 4 12l284 246q12 4 13 4q9 0 14 -8l145 -246q7 -10 -4 -17l-20 -18q-8 -5 -23 4l-141 123 l-244 -127q-11 -4 -14 4z" />
<glyph unicode="&#xd5;" horiz-adv-x="1452" d="M1305 922q0 176 -89.5 283.5t-250.5 107.5q-85 0 -154.5 -35.5t-146.5 -112.5q-132 -132 -215 -338q-84 -209 -84 -370q0 -101 27.5 -181t74.5 -128.5t104 -73.5t119 -25q162 0 303 129q146 131 228 332q84 206 84 412zM381 109q-166 169 -172 481q-2 150 59 300t160 263 t231.5 182.5t266.5 67.5q153 -3 275 -80.5t192 -217t71 -317.5q1 -115 -31.5 -233.5t-97 -224t-151.5 -187.5t-203.5 -129t-243.5 -45q-225 3 -356 140zM705 1567q26 66 75.5 111.5t93.5 45.5q82 0 154 -24q39 -8 115 -8q66 0 104 65q8 14 17 8l30 -16q4 -4 4 -8 q0 -7 -10 -27q-73 -135 -168 -135q-53 0 -135 16q-73 17 -133 17q-24 0 -54.5 -23t-49.5 -53q-9 -12 -17 -6l-26 16q-3 6 0 21z" />
<glyph unicode="&#xd6;" horiz-adv-x="1452" d="M1305 922q0 176 -89.5 283.5t-250.5 107.5q-85 0 -154.5 -35.5t-146.5 -112.5q-132 -132 -215 -338q-84 -209 -84 -370q0 -101 27.5 -181t74.5 -128.5t104 -73.5t119 -25q162 0 303 129q146 131 228 332q84 206 84 412zM381 109q-166 169 -172 481q-2 150 59 300t160 263 t231.5 182.5t266.5 67.5q153 -3 275 -80.5t192 -217t71 -317.5q1 -115 -31.5 -233.5t-97 -224t-151.5 -187.5t-203.5 -129t-243.5 -45q-225 3 -356 140zM1061 1628q0 35 25.5 60.5t76.5 25.5q39 0 65.5 -25t26.5 -67q0 -40 -26.5 -65t-65.5 -25q-102 0 -102 96zM696 1628 q0 35 26 60.5t77 25.5q39 0 65.5 -25t26.5 -67q0 -40 -26.5 -65t-65.5 -25q-46 0 -74.5 23t-28.5 73z" />
<glyph unicode="&#xd7;" d="M834 90l-297 299l-297 -299l-72 86l293 289l-291 287l82 84l293 -295l293 295l77 -76l-294 -291l297 -293z" />
<glyph unicode="&#xd8;" horiz-adv-x="1452" d="M690 49q162 0 303 129q146 131 228 332q84 206 84 412q0 141 -60 235l-799 -981q43 -61 108.5 -94t135.5 -33zM965 1313q-85 0 -154.5 -35.5t-146.5 -112.5q-132 -132 -215 -338q-84 -209 -84 -370q0 -118 36 -203l791 973q-83 86 -227 86zM268 -23l-43 39q-9 9 -2 19 l109 133q-117 148 -123 422q-2 150 59 300.5t160 263.5t232 182.5t266 66.5q196 -6 321 -109l80 99q9 12 21 6l47 -35q6 -3 6 -8q0 -7 -15 -25l-77 -96q73 -79 113 -194.5t42 -252.5q1 -115 -31.5 -233.5t-97 -224t-151.5 -187.5t-203.5 -129t-243.5 -45q-220 3 -350 133 l-96 -118q-13 -17 -23 -7z" />
<glyph unicode="&#xd9;" horiz-adv-x="1497" d="M737 -31q-220 0 -348.5 97t-128.5 278q0 114 43 256l174 576q15 46 15 67q0 60 -72 60h-74q-17 0 -14 16l10 43q1 10 7 13t20 3q4 0 36.5 -1.5t89 -3t117.5 -1.5q72 0 132.5 1.5t91 3t32.5 1.5q22 0 19 -20l-8 -39q-3 -16 -21 -16h-65q-51 0 -80 -23.5t-51 -93.5 l-168 -547l-31 -111q-29 -106 -29 -178q0 -68 24.5 -121.5t60 -84t82 -50.5t84.5 -26.5t73 -6.5q67 0 141.5 29t124.5 74q73 67 126 164t103 260l181 590q10 31 10 57q0 68 -86 68h-78q-21 0 -18 16l6 39q5 12 9.5 16t16.5 4q4 0 38.5 -1.5t92.5 -3t119 -1.5q50 0 93 1.5 t67 3t27 1.5q12 0 15.5 -4t2.5 -16l-6 -39q-3 -16 -23 -16h-43q-90 0 -118 -95l-201 -637q-96 -303 -245 -452.5t-376 -149.5zM1126 1489l-319 166q-45 23 -45 65q0 29 23 53.5t49 24.5q32 0 77 -45l240 -227q11 -7 4 -17l-14 -20q-4 -4 -15 0z" />
<glyph unicode="&#xda;" horiz-adv-x="1497" d="M737 -31q-220 0 -348.5 97t-128.5 278q0 114 43 256l174 576q15 46 15 67q0 60 -72 60h-74q-17 0 -14 16l10 43q1 10 7 13t20 3q4 0 36.5 -1.5t89 -3t117.5 -1.5q72 0 132.5 1.5t91 3t32.5 1.5q22 0 19 -20l-8 -39q-3 -16 -21 -16h-65q-51 0 -80 -23.5t-51 -93.5 l-168 -547l-31 -111q-29 -106 -29 -178q0 -68 24.5 -121.5t60 -84t82 -50.5t84.5 -26.5t73 -6.5q67 0 141.5 29t124.5 74q73 67 126 164t103 260l181 590q10 31 10 57q0 68 -86 68h-78q-21 0 -18 16l6 39q5 12 9.5 16t16.5 4q4 0 38.5 -1.5t92.5 -3t119 -1.5q50 0 93 1.5 t67 3t27 1.5q12 0 15.5 -4t2.5 -16l-6 -39q-3 -16 -23 -16h-43q-90 0 -118 -95l-201 -637q-96 -303 -245 -452.5t-376 -149.5zM1073 1534l293 227q36 25 70 25q28 0 45.5 -23t17.5 -55q0 -54 -47 -72l-356 -145q-14 -7 -17 2l-12 20q-4 11 6 21z" />
<glyph unicode="&#xdb;" horiz-adv-x="1497" d="M737 -31q-220 0 -348.5 97t-128.5 278q0 114 43 256l174 576q15 46 15 67q0 60 -72 60h-74q-17 0 -14 16l10 43q1 10 7 13t20 3q4 0 36.5 -1.5t89 -3t117.5 -1.5q72 0 132.5 1.5t91 3t32.5 1.5q22 0 19 -20l-8 -39q-3 -16 -21 -16h-65q-51 0 -80 -23.5t-51 -93.5 l-168 -547l-31 -111q-29 -106 -29 -178q0 -68 24.5 -121.5t60 -84t82 -50.5t84.5 -26.5t73 -6.5q67 0 141.5 29t124.5 74q73 67 126 164t103 260l181 590q10 31 10 57q0 68 -86 68h-78q-21 0 -18 16l6 39q5 12 9.5 16t16.5 4q4 0 38.5 -1.5t92.5 -3t119 -1.5q50 0 93 1.5 t67 3t27 1.5q12 0 15.5 -4t2.5 -16l-6 -39q-3 -16 -23 -16h-43q-90 0 -118 -95l-201 -637q-96 -303 -245 -452.5t-376 -149.5zM926 1499l-15 23q-4 4 4 12l285 246l12 4q10 0 15 -8l145 -246q7 -10 -4 -17l-20 -18q-8 -5 -23 4l-141 123l-244 -127q-11 -4 -14 4z" />
<glyph unicode="&#xdc;" horiz-adv-x="1497" d="M737 -31q-220 0 -348.5 97t-128.5 278q0 114 43 256l174 576q15 46 15 67q0 60 -72 60h-74q-17 0 -14 16l10 43q1 10 7 13t20 3q4 0 36.5 -1.5t89 -3t117.5 -1.5q72 0 132.5 1.5t91 3t32.5 1.5q22 0 19 -20l-8 -39q-3 -16 -21 -16h-65q-51 0 -80 -23.5t-51 -93.5 l-168 -547l-31 -111q-29 -106 -29 -178q0 -68 24.5 -121.5t60 -84t82 -50.5t84.5 -26.5t73 -6.5q67 0 141.5 29t124.5 74q73 67 126 164t103 260l181 590q10 31 10 57q0 68 -86 68h-78q-21 0 -18 16l6 39q5 12 9.5 16t16.5 4q4 0 38.5 -1.5t92.5 -3t119 -1.5q50 0 93 1.5 t67 3t27 1.5q12 0 15.5 -4t2.5 -16l-6 -39q-3 -16 -23 -16h-43q-90 0 -118 -95l-201 -637q-96 -303 -245 -452.5t-376 -149.5zM1247 1628q0 35 26 60.5t77 25.5q39 0 65.5 -25t26.5 -67q0 -40 -26.5 -65t-65.5 -25q-46 0 -74.5 23t-28.5 73zM883 1628q0 35 25.5 60.5 t76.5 25.5q39 0 65.5 -25t26.5 -67q0 -40 -26.5 -65t-65.5 -25q-102 0 -102 96z" />
<glyph unicode="&#xdd;" horiz-adv-x="1105" d="M514 504q0 53 -12 88l-221 633q-28 78 -125 78h-47q-18 0 -15 16l8 43q1 10 5.5 13t15.5 3q5 0 33 -1.5t77.5 -3t104.5 -1.5q65 0 123.5 1.5t91.5 3t37 1.5q21 0 18 -16l-4 -43q-3 -16 -18 -16h-54q-73 0 -73 -58q0 -17 8 -41l190 -569q6 -21 15 -21q6 0 16 13 q76 104 213 307q148 214 164 258q10 30 10 53q0 31 -20.5 44.5t-65.5 13.5h-41q-17 0 -14 20l4 39q1 10 6 13t19 3q31 0 45 -2q110 -4 180 -4q60 0 129.5 3t71.5 3q12 0 17 -4t3 -12l-6 -39q-3 -20 -17 -20h-38q-49 0 -84 -22t-76 -79l-217 -301l-215 -303q-44 -60 -56 -88 q-15 -30 -30 -94l-52 -232q-6 -30 -6 -53q0 -37 19.5 -49t66.5 -12h62q17 0 14 -17l-6 -43q-3 -16 -23 -16q-6 0 -40 1.5t-90 3t-117 1.5q-73 0 -133 -1.5t-90.5 -3t-32.5 -1.5q-9 0 -13.5 4.5t-3.5 11.5l8 43q0 17 19 17h59q63 0 91.5 25.5t41.5 82.5l68 303q2 4 2 23z M797 1534l293 227q36 25 69 25q28 0 46 -23t18 -55q0 -54 -47 -72l-357 -145q-13 -7 -16 2l-12 20q-4 11 6 21z" />
<glyph unicode="&#xde;" horiz-adv-x="1257" d="M659 369q106 0 190.5 34t135 90t76.5 123t26 138q0 164 -106 227q-107 66 -242 66q-54 0 -84 -5l-176 -655q63 -18 180 -18zM528 1229q0 74 -77 74h-95q-16 0 -12 20l12 41q3 14 23 14q6 0 40.5 -1.5t94 -3t125.5 -1.5q57 0 112 1.5t89 3t41 1.5q20 0 25 -4t3 -16l-6 -35 q-2 -12 -6 -16t-16 -4h-62q-91 0 -129 -127l-18 -62q10 -2 67 -2q162 0 246 -20q91 -18 160 -76q70 -58 96.5 -117.5t26.5 -161.5q0 -85 -37 -161.5t-107.5 -138t-186 -98t-259.5 -36.5q-146 0 -215 14l-25 -98q-8 -27 -8 -63q0 -86 78 -86h78q19 0 16 -21l-6 -39 q-5 -11 -9 -13.5t-16 -2.5q-4 0 -40 1.5t-99 3t-133 1.5q-58 0 -113 -1.5t-88 -3t-37 -1.5q-23 0 -20 20l4 35q2 12 6.5 16.5t16.5 4.5h43q70 0 103.5 38t57.5 125l244 926q12 47 12 70z" />
<glyph unicode="&#xdf;" horiz-adv-x="937" d="M1051 1237q0 -90 -45.5 -169t-141.5 -169q-151 -131 -139 -223q0 -32 11 -69t23.5 -62.5t25.5 -49t14 -26.5l41 -74q37 -64 37 -159q0 -116 -80 -187q-78 -69 -191 -69q-87 0 -139.5 31.5t-52.5 82.5q0 26 19.5 47t49.5 21q63 0 84 -66q11 -33 25.5 -45t48.5 -12 q46 0 80.5 36t34.5 89q0 27 -9 57.5t-18 50.5t-33 70l-28 59q-2 5 -19.5 42.5t-30 79t-12.5 81.5q0 32 9.5 65.5t25.5 61.5t34 53.5t38.5 47t35.5 36t28 25.5t14 12q61 61 87.5 128t26.5 155q0 61 -36 101t-95 40q-79 0 -135 -59q-54 -60 -88 -150q-30 -76 -86 -258 l-31 -102l-61 -205q-143 -472 -197 -618q-99 -269 -223.5 -407t-282.5 -138q-50 0 -90.5 37t-40.5 84q0 37 24.5 62.5t61.5 25.5q31 0 55.5 -24.5t30.5 -55.5q9 -47 47 -47q65 0 131.5 92.5t118.5 249.5q58 172 144 483q80 296 149 498q59 172 115.5 282.5t130.5 186.5 q59 61 136.5 99t162.5 38q88 0 146.5 -46.5t58.5 -119.5z" />
<glyph unicode="&#xe0;" horiz-adv-x="931" d="M674 496q49 101 49 170q0 53 -24 86.5t-72 33.5q-92 0 -185 -112q-94 -114 -159 -264q-64 -149 -64 -250q0 -72 55 -72q49 0 132 80q93 90 165 182q81 100 103 146zM938 834q-27 -55 -80 -195q-50 -132 -74 -205l-27 -81t-32 -97q-39 -113 -39 -129q0 -25 23 -25 q16 0 71 52q61 58 72 73q13 13 16 4l19 -20q7 -7 4 -16q-26 -46 -139 -132.5t-179 -82.5q-43 3 -43 34q0 28 19 84l80 228l-11 4q-48 -74 -123 -153t-164 -139t-151 -58q-45 2 -77.5 36.5t-32.5 94.5q0 146 94 321q97 181 231 297q138 123 260 123q103 0 146 -70l39 56 q8 14 20 14h72q6 0 8 -6t-2 -12zM715 956l-246 187q-29 23 -29 55q0 27 19 47.5t45 20.5q22 0 34.5 -9.5t36.5 -39.5l173 -228q8 -8 0 -16l-15 -17q-1 -4 -7 -4t-11 4z" />
<glyph unicode="&#xe1;" horiz-adv-x="931" d="M674 496q49 101 49 170q0 53 -24 86.5t-72 33.5q-92 0 -185 -112q-94 -114 -159 -264q-64 -149 -64 -250q0 -72 55 -72q49 0 132 80q93 90 165 182q81 100 103 146zM938 834q-27 -55 -80 -195q-50 -132 -74 -205l-27 -81t-32 -97q-39 -113 -39 -129q0 -25 23 -25 q16 0 71 52q61 58 72 73q13 13 16 4l19 -20q7 -7 4 -16q-26 -46 -139 -132.5t-179 -82.5q-43 3 -43 34q0 28 19 84l80 228l-11 4q-48 -74 -123 -153t-164 -139t-151 -58q-45 2 -77.5 36.5t-32.5 94.5q0 146 94 321q97 181 231 297q138 123 260 123q103 0 146 -70l39 56 q8 14 20 14h72q6 0 8 -6t-2 -12zM647 993l258 211q43 31 72 31q23 0 39 -19t16 -45q0 -47 -53 -71l-309 -146q-14 -7 -17 2l-14 21q-4 4 8 16z" />
<glyph unicode="&#xe2;" horiz-adv-x="931" d="M674 496q49 101 49 170q0 53 -24 86.5t-72 33.5q-92 0 -185 -112q-94 -114 -159 -264q-64 -149 -64 -250q0 -72 55 -72q49 0 132 80q93 90 165 182q81 100 103 146zM938 834q-27 -55 -80 -195q-50 -132 -74 -205l-27 -81t-32 -97q-39 -113 -39 -129q0 -25 23 -25 q16 0 71 52q61 58 72 73q13 13 16 4l19 -20q7 -7 4 -16q-26 -46 -139 -132.5t-179 -82.5q-43 3 -43 34q0 28 19 84l80 228l-11 4q-48 -74 -123 -153t-164 -139t-151 -58q-45 2 -77.5 36.5t-32.5 94.5q0 146 94 321q97 181 231 297q138 123 260 123q103 0 146 -70l39 56 q8 14 20 14h72q6 0 8 -6t-2 -12zM721 1102l-205 -133q-11 -4 -14 2l-13 18q-4 4 7 15l256 262l8 4q9 0 12 -13l92 -266q7 -10 -2 -16l-16 -8q-10 -7 -17 0z" />
<glyph unicode="&#xe3;" horiz-adv-x="931" d="M674 496q49 101 49 170q0 53 -24 86.5t-72 33.5q-92 0 -185 -112q-94 -114 -159 -264q-64 -149 -64 -250q0 -72 55 -72q49 0 132 80q93 90 165 182q81 100 103 146zM938 834q-27 -55 -80 -195q-50 -132 -74 -205l-27 -81t-32 -97q-39 -113 -39 -129q0 -25 23 -25 q16 0 71 52q61 58 72 73q13 13 16 4l19 -20q7 -7 4 -16q-26 -46 -139 -132.5t-179 -82.5q-43 3 -43 34q0 28 19 84l80 228l-11 4q-48 -74 -123 -153t-164 -139t-151 -58q-45 2 -77.5 36.5t-32.5 94.5q0 146 94 321q97 181 231 297q138 123 260 123q103 0 146 -70l39 56 q8 14 20 14h72q6 0 8 -6t-2 -12zM446 1014q25 62 73.5 104.5t96.5 42.5q31 0 103 -20q40 -13 94 -13q28 0 53 19t39 47q8 14 17 8l30 -16q4 -4 4 -6q0 -8 -12 -29q-27 -50 -72.5 -86.5t-83.5 -36.5q-34 0 -116 21q-43 12 -80 12q-24 0 -56 -23.5t-51 -54.5q-9 -9 -14 -6 l-27 16q-7 7 2 21z" />
<glyph unicode="&#xe4;" horiz-adv-x="931" d="M674 496q49 101 49 170q0 53 -24 86.5t-72 33.5q-92 0 -185 -112q-94 -114 -159 -264q-64 -149 -64 -250q0 -72 55 -72q49 0 132 80q93 90 165 182q81 100 103 146zM860 852h72q6 0 8 -6t-2 -12q-27 -55 -80 -195q-50 -132 -74 -205l-27 -81t-32 -97q-39 -113 -39 -129 q0 -25 23 -25q16 0 71 52q61 58 72 73q13 13 16 4l19 -20q7 -7 4 -16q-26 -46 -139 -132.5t-179 -82.5q-43 3 -43 34q0 28 19 84l80 228l-11 4q-48 -74 -123 -153t-164 -139t-151 -58q-45 2 -77.5 36.5t-32.5 94.5q0 146 94 321q97 181 231 297q138 123 260 123 q103 0 146 -70l39 56q8 14 20 14zM770 1214q0 33 24 56.5t70 23.5q36 0 60 -24t24 -62q0 -37 -23.5 -59.5t-60.5 -22.5q-40 0 -67 22t-27 66zM492 1214q0 33 24 56.5t70 23.5q36 0 60 -24t24 -62q0 -37 -23.5 -59.5t-60.5 -22.5q-40 0 -67 22t-27 66z" />
<glyph unicode="&#xe5;" horiz-adv-x="931" d="M674 496q49 101 49 170q0 53 -24 86.5t-72 33.5q-92 0 -185 -112q-94 -114 -159 -264q-64 -149 -64 -250q0 -72 55 -72q49 0 132 80q93 90 165 182q81 100 103 146zM938 834q-27 -55 -80 -195q-50 -132 -74 -205l-27 -81t-32 -97q-39 -113 -39 -129q0 -25 23 -25 q16 0 71 52q61 58 72 73q13 13 16 4l19 -20q7 -7 4 -16q-26 -46 -139 -132.5t-179 -82.5q-43 3 -43 34q0 28 19 84l80 228l-11 4q-48 -74 -123 -153t-164 -139t-151 -58q-45 2 -77.5 36.5t-32.5 94.5q0 146 94 321q97 181 231 297q138 123 260 123q103 0 146 -70l39 56 q8 14 20 14h72q6 0 8 -6t-2 -12zM807 1135q0 50 -29.5 76t-70.5 26t-71 -29t-30 -78q0 -45 31 -72.5t74 -27.5q40 0 68 28.5t28 76.5zM508 1124q0 72 60.5 117t148.5 45q87 0 137.5 -39.5t50.5 -113.5q0 -67 -57 -108.5t-146 -41.5q-85 0 -139.5 39t-54.5 102z" />
<glyph unicode="&#xe6;" horiz-adv-x="1105" d="M182 152q0 -32 14.5 -50t39.5 -18q77 0 241 131q33 163 92 269.5t148 207.5q16 16 16 29q0 12 -24 12q-61 0 -189 -104q-126 -100 -233 -240q-102 -138 -105 -237zM627 307q138 86 260 187q112 93 112 190q0 33 -18.5 55.5t-48.5 22.5q-92 0 -185 -136.5t-120 -318.5z M1001 186q-59 -81 -141 -143q-84 -63 -190 -63q-95 0 -140.5 44.5t-50.5 129.5q-106 -84 -190 -129t-162 -45q-41 0 -67.5 31t-26.5 71q0 138 145 324q139 178 365 315q216 131 426 131q83 0 124.5 -34.5t41.5 -92.5q0 -126 -183 -262q-135 -98 -284 -191q-41 -24 -47 -28 q-2 -76 27 -122t79 -46q67 0 130 41t101 104q7 11 19 2l22 -18q12 -9 2 -19z" />
<glyph unicode="&#xe7;" horiz-adv-x="618" d="M88 168q0 136 68 301q65 158 176 272q108 111 221 111q58 0 87.5 -35.5t29.5 -79.5q0 -34 -27 -60t-57 -26q-42 0 -54 45q-7 21 -24 37.5t-39 16.5q-39 0 -78.5 -37t-71.5 -105q-38 -78 -63 -192q-25 -116 -25 -166q0 -170 82 -170q47 0 97 33.5t84 76.5q9 15 18 9 l23 -21q6 -3 6 -10q0 -15 -39.5 -54.5t-103 -80t-117.5 -49.5l-86 -121q84 -41 84 -119q5 -45 -48 -88t-116 -65t-99 -21q-39 0 -39 37q0 33 37 33q57 0 104.5 29.5t47.5 66.5q0 25 -21 49t-57 37l117 164q-52 11 -84.5 58.5t-32.5 123.5z" />
<glyph unicode="&#xe8;" horiz-adv-x="714" d="M272 453q42 -3 125 24q93 34 154 88t61 119q0 34 -17 56t-48 22q-41 4 -89 -32t-86 -88t-65.5 -104.5t-34.5 -84.5zM90 180q0 127 74 275q72 144 188 260q58 58 134 97.5t141 39.5q53 0 84.5 -32.5t31.5 -76.5q0 -76 -52.5 -150t-137.5 -116q-141 -72 -297 -84 q-27 -60 -27 -188q0 -58 33.5 -93.5t73.5 -35.5q66 0 130 42t103 103q9 12 19 2l22 -18q15 -9 2 -19q-59 -81 -141 -143q-84 -63 -190 -63q-98 0 -144.5 48.5t-46.5 151.5zM647 956l-246 187q-28 22 -28 55q0 27 18.5 47.5t44.5 20.5q22 0 35.5 -9.5t36.5 -39.5l172 -228 q8 -8 0 -16l-14 -17q-2 -4 -8 -4t-11 4z" />
<glyph unicode="&#xe9;" horiz-adv-x="714" d="M272 453q42 -3 125 24q93 34 154 88t61 119q0 34 -17 56t-48 22q-41 4 -89 -32t-86 -88t-65.5 -104.5t-34.5 -84.5zM90 180q0 127 74 275q72 144 188 260q58 58 134 97.5t141 39.5q53 0 84.5 -32.5t31.5 -76.5q0 -76 -52.5 -150t-137.5 -116q-141 -72 -297 -84 q-27 -60 -27 -188q0 -58 33.5 -93.5t73.5 -35.5q66 0 130 42t103 103q9 12 19 2l22 -18q15 -9 2 -19q-59 -81 -141 -143q-84 -63 -190 -63q-98 0 -144.5 48.5t-46.5 151.5zM539 993l258 211q43 31 71 31q23 0 39.5 -19t16.5 -45q0 -46 -54 -71l-309 -146q-13 -7 -16 2 l-15 21q-4 3 9 16z" />
<glyph unicode="&#xea;" horiz-adv-x="714" d="M272 453q42 -3 125 24q93 34 154 88t61 119q0 34 -17 56t-48 22q-41 4 -89 -32t-86 -88t-65.5 -104.5t-34.5 -84.5zM90 180q0 127 74 275q72 144 188 260q58 58 134 97.5t141 39.5q53 0 84.5 -32.5t31.5 -76.5q0 -76 -52.5 -150t-137.5 -116q-141 -72 -297 -84 q-27 -60 -27 -188q0 -58 33.5 -93.5t73.5 -35.5q66 0 130 42t103 103q9 12 19 2l22 -18q15 -9 2 -19q-59 -81 -141 -143q-84 -63 -190 -63q-98 0 -144.5 48.5t-46.5 151.5zM653 1102l-204 -133q-12 -4 -15 2l-12 18q-4 5 6 15l256 262l8 4q10 0 13 -13l92 -266q7 -10 -2 -16 l-17 -8q-10 -6 -16 0z" />
<glyph unicode="&#xeb;" horiz-adv-x="714" d="M272 453q42 -3 125 24q93 34 154 88t61 119q0 34 -17 56t-48 22q-41 4 -89 -32t-86 -88t-65.5 -104.5t-34.5 -84.5zM90 180q0 127 74 275q72 144 188 260q58 58 134 97.5t141 39.5q53 0 84.5 -32.5t31.5 -76.5q0 -76 -52.5 -150t-137.5 -116q-141 -72 -297 -84 q-27 -60 -27 -188q0 -58 33.5 -93.5t73.5 -35.5q66 0 130 42t103 103q9 12 19 2l22 -18q15 -9 2 -19q-59 -81 -141 -143q-84 -63 -190 -63q-98 0 -144.5 48.5t-46.5 151.5zM702 1214q0 32 24.5 56t70.5 24q36 0 60 -24t24 -62q0 -37 -23.5 -59.5t-60.5 -22.5q-40 0 -67.5 22 t-27.5 66zM424 1214q0 33 24 56.5t70 23.5q36 0 60 -24t24 -62q0 -37 -23.5 -59.5t-60.5 -22.5q-40 0 -67 22t-27 66z" />
<glyph unicode="&#xec;" horiz-adv-x="587" d="M154 31q0 28 17.5 82t76.5 215l26 73l60 160q1 2 4 9t7.5 18.5t8.5 25.5q17 53 17 68q0 27 -29 27q-10 0 -28.5 -13t-40.5 -33.5t-40 -39.5t-35.5 -37.5t-19.5 -20.5q-12 -12 -22 -2l-17 19q-12 9 -6 18q15 23 73 82t141.5 117.5t133.5 52.5q21 0 35 -13.5t14 -37.5 q0 -44 -69 -228l-119 -311q-37 -96 -37 -135q0 -28 23 -35q30 7 90 64q65 59 74 80q4 4 8 4q5 0 14 -9l16 -14q12 -12 5 -24q-16 -21 -47.5 -52t-79.5 -70.5t-107.5 -65.5t-112.5 -25q-34 0 -34 51zM502 956l-246 187q-29 23 -29 55q0 27 19 47.5t45 20.5q22 0 34.5 -9.5 t36.5 -39.5l173 -228q8 -8 0 -16l-15 -17q-2 -4 -8 -4t-10 4z" />
<glyph unicode="&#xed;" horiz-adv-x="587" d="M154 31q0 28 17.5 82t76.5 215l26 73l60 160q1 2 4 9t7.5 18.5t8.5 25.5q17 53 17 68q0 27 -29 27q-10 0 -28.5 -13t-40.5 -33.5t-40 -39.5t-35.5 -37.5t-19.5 -20.5q-12 -12 -22 -2l-17 19q-12 9 -6 18q15 23 73 82t141.5 117.5t133.5 52.5q21 0 35 -13.5t14 -37.5 q0 -44 -69 -228l-119 -311q-37 -96 -37 -135q0 -28 23 -35q30 7 90 64q65 59 74 80q4 4 8 4q5 0 14 -9l16 -14q12 -12 5 -24q-16 -21 -47.5 -52t-79.5 -70.5t-107.5 -65.5t-112.5 -25q-34 0 -34 51zM434 993l258 211q43 31 72 31q23 0 39 -19t16 -45q0 -47 -53 -71 l-309 -146q-14 -7 -17 2l-14 21q-4 4 8 16z" />
<glyph unicode="&#xee;" horiz-adv-x="587" d="M154 31q0 28 17.5 82t76.5 215l26 73l60 160q1 2 4 9t7.5 18.5t8.5 25.5q17 53 17 68q0 27 -29 27q-10 0 -28.5 -13t-40.5 -33.5t-40 -39.5t-35.5 -37.5t-19.5 -20.5q-12 -12 -22 -2l-17 19q-12 9 -6 18q15 23 73 82t141.5 117.5t133.5 52.5q21 0 35 -13.5t14 -37.5 q0 -44 -69 -228l-119 -311q-37 -96 -37 -135q0 -28 23 -35q30 7 90 64q65 59 74 80q4 4 8 4q5 0 14 -9l16 -14q12 -12 5 -24q-16 -21 -47.5 -52t-79.5 -70.5t-107.5 -65.5t-112.5 -25q-34 0 -34 51zM528 1102l-204 -133q-12 -4 -15 2l-12 18q-5 5 6 15l256 262l8 4 q10 0 13 -13l92 -266q7 -10 -2 -16l-17 -8q-10 -6 -16 0z" />
<glyph unicode="&#xef;" horiz-adv-x="587" d="M154 31q0 33 24 104q8 24 96 266l60 160q1 2 4 9t7.5 18.5t8.5 25.5q17 53 17 68q0 27 -29 27q-10 0 -28.5 -13t-40.5 -33.5t-40 -39.5t-35.5 -37.5t-19.5 -20.5q-12 -12 -22 -2l-17 19q-12 9 -6 18q15 23 73 82t141.5 117.5t133.5 52.5q21 0 35 -13.5t14 -37.5 q0 -44 -69 -228l-119 -311q-37 -98 -37 -135q0 -28 23 -35q30 7 90 64q65 59 74 80q4 4 8 4q5 0 14 -9l16 -14q12 -12 5 -24q-16 -21 -47.5 -52t-79.5 -70.5t-107.5 -65.5t-112.5 -25q-34 0 -34 51zM578 1214q0 33 24 56.5t70 23.5q36 0 60 -24t24 -62q0 -37 -23.5 -59.5 t-60.5 -22.5q-40 0 -67 22t-27 66zM299 1214q0 33 24 56.5t70 23.5q36 0 60 -24t24 -62q0 -37 -23.5 -59.5t-60.5 -22.5q-40 0 -67 22t-27 66z" />
<glyph unicode="&#xf0;" horiz-adv-x="847" d="M680 666q0 59 -29 90.5t-78 31.5q-65 0 -142 -87t-140 -250q-62 -165 -62 -285q0 -44 27.5 -84.5t73.5 -40.5q86 0 166 115q79 109 133 264q51 146 51 246zM532 1397q20 -13 78 -78q54 -60 78 -107l152 52q15 6 18 -7l14 -38q4 -16 -8 -19l-145 -49q98 -195 98 -455 q0 -150 -57 -315q-58 -168 -166 -285q-107 -116 -250 -116q-83 0 -156 55q-70 53 -73 219q-1 74 18.5 157t59 162t92 142.5t125 101t151.5 35.5q78 -3 117 -37q-9 147 -64 299l-219 -74q-15 -6 -18 9l-12 45q-4 11 10 14l219 72q-63 120 -111 168q-15 9 -4 20l35 31 q10 6 18 -2z" />
<glyph unicode="&#xf1;" horiz-adv-x="1062" d="M125 18l145 379q28 72 72 191q35 96 35 119q0 34 -31 34q-24 0 -80 -47q-47 -41 -92 -90q-7 -7 -20 2l-19 19q-12 9 -4 20q49 60 143 135q93 72 187 72q31 0 48 -18t17 -43q0 -37 -82 -248l-22 -58l8 -4q29 48 81 109t116.5 122t137.5 101t132 39q48 -2 75 -24t27 -60 q0 -52 -20.5 -117t-77.5 -205l-16 -40l-21 -52q-84 -207 -84 -231q0 -11 7 -19t18 -8q20 0 69 37q44 34 78 68q14 11 23 -4l14 -17q11 -11 2 -22q-33 -45 -139.5 -111.5t-187.5 -66.5q-50 0 -50 40q0 20 64 185l74 192l32 84l39 103q31 85 31 108q0 44 -51 47 q-53 3 -180.5 -111.5t-192.5 -221.5q-39 -66 -61 -109q-29 -56 -62 -147l-51 -138q-9 -12 -29 -12h-80q-17 0 -21.5 4t-0.5 14zM532 1014q25 62 73.5 104.5t96.5 42.5q31 0 103 -20q40 -13 94 -13q28 0 53 19t39 47q8 14 17 8l30 -16q4 -4 4 -6q0 -8 -12 -29 q-27 -50 -72.5 -86.5t-83.5 -36.5q-34 0 -116 21q-43 12 -80 12q-24 0 -56 -23.5t-51 -54.5q-9 -9 -14 -6l-27 16q-7 7 2 21z" />
<glyph unicode="&#xf2;" horiz-adv-x="813" d="M711 643q2 50 -26 82.5t-77 32.5q-69 0 -147 -62.5t-150 -181.5q-55 -87 -86.5 -175.5t-31.5 -156.5q0 -46 27.5 -75t66.5 -29q101 0 194 106q100 109 164 246q66 141 66 213zM106 244q-1 77 22 163t67 165t100.5 143t129.5 101.5t148 35.5q100 -3 160 -68.5t60 -171.5 q0 -118 -60 -272q-56 -144 -168 -256q-107 -104 -248 -104q-87 0 -148.5 75t-62.5 189zM635 956l-246 187q-29 23 -29 55q0 27 19 47.5t45 20.5q22 0 35.5 -9.5t36.5 -39.5l172 -228q8 -8 0 -16l-15 -17q-1 -4 -7 -4t-11 4z" />
<glyph unicode="&#xf3;" horiz-adv-x="813" d="M711 643q2 50 -26 82.5t-77 32.5q-69 0 -147 -62.5t-150 -181.5q-55 -87 -86.5 -175.5t-31.5 -156.5q0 -46 27.5 -75t66.5 -29q101 0 194 106q100 109 164 246q66 141 66 213zM106 244q-1 77 22 163t67 165t100.5 143t129.5 101.5t148 35.5q100 -3 160 -68.5t60 -171.5 q0 -118 -60 -272q-56 -144 -168 -256q-107 -104 -248 -104q-87 0 -148.5 75t-62.5 189zM547 993l258 211q43 31 72 31q23 0 39 -19t16 -45q0 -47 -53 -71l-310 -146q-13 -7 -16 2l-14 21q-4 4 8 16z" />
<glyph unicode="&#xf4;" horiz-adv-x="813" d="M711 643q2 50 -26 82.5t-77 32.5q-69 0 -147 -62.5t-150 -181.5q-55 -87 -86.5 -175.5t-31.5 -156.5q0 -46 27.5 -75t66.5 -29q101 0 194 106q100 109 164 246q66 141 66 213zM106 244q-1 77 22 163t67 165t100.5 143t129.5 101.5t148 35.5q100 -3 160 -68.5t60 -171.5 q0 -118 -60 -272q-56 -144 -168 -256q-107 -104 -248 -104q-87 0 -148.5 75t-62.5 189zM641 1102l-205 -133q-11 -4 -14 2l-12 18q-4 5 6 15l256 262l8 4q9 0 12 -13l92 -266q7 -10 -2 -16l-16 -8q-10 -6 -16 0z" />
<glyph unicode="&#xf5;" horiz-adv-x="813" d="M711 643q2 50 -26 82.5t-77 32.5q-69 0 -147 -62.5t-150 -181.5q-55 -87 -86.5 -175.5t-31.5 -156.5q0 -46 27.5 -75t66.5 -29q101 0 194 106q100 109 164 246q66 141 66 213zM106 244q-1 77 22 163t67 165t100.5 143t129.5 101.5t148 35.5q100 -3 160 -68.5t60 -171.5 q0 -118 -60 -272q-56 -144 -168 -256q-107 -104 -248 -104q-87 0 -148.5 75t-62.5 189zM346 1014q25 62 73.5 104.5t96.5 42.5q30 0 102 -20q40 -13 95 -13q28 0 53 19t39 47q8 13 16 8l31 -16q4 -4 4 -6q0 -8 -12 -29q-27 -50 -72.5 -86.5t-83.5 -36.5q-35 0 -117 21 q-44 12 -79 12q-24 0 -56 -23.5t-51 -54.5q-9 -9 -14 -6l-27 16q-7 7 2 21z" />
<glyph unicode="&#xf6;" horiz-adv-x="813" d="M711 643q2 50 -26 82.5t-77 32.5q-69 0 -147 -62.5t-150 -181.5q-55 -87 -86.5 -175.5t-31.5 -156.5q0 -46 27.5 -75t66.5 -29q101 0 194 106q96 105 162 246q68 145 68 213zM106 244q-1 77 22 163t67 165t100.5 143t129.5 101.5t148 35.5q100 -3 160 -68.5t60 -171.5 q0 -118 -60 -272q-56 -144 -168 -256q-107 -104 -248 -104q-87 0 -148.5 75t-62.5 189zM711 1214q0 33 24 56.5t70 23.5q36 0 60 -24t24 -62q0 -37 -23.5 -59.5t-60.5 -22.5q-40 0 -67 22t-27 66zM432 1214q0 33 24 56.5t70 23.5q36 0 60 -24t24 -62q0 -37 -23.5 -59.5 t-60.5 -22.5q-40 0 -67 22t-27 66z" />
<glyph unicode="&#xf7;" d="M432 170q0 45 33 77t82 32q47 0 79.5 -32t32.5 -77q0 -44 -32.5 -74t-79.5 -30q-49 0 -82 30t-33 74zM942 547v-111h-795v111h795zM432 811q0 45 33 76t82 31q47 0 79.5 -31.5t32.5 -75.5t-32.5 -75t-79.5 -31q-49 0 -82 30.5t-33 75.5z" />
<glyph unicode="&#xf8;" horiz-adv-x="813" d="M291 78q93 0 188 102q100 111 162 244q67 144 70 227l-4 4l-486 -549q22 -28 70 -28zM612 758q-70 0 -148 -61t-155 -185q-57 -89 -89 -187.5t-27 -152.5l495 551q-27 35 -76 35zM172 51l-84 -88q-6 -8 -14 0l-37 39q-3 9 4 16l92 93q-27 80 -27 133q-1 98 36.5 207 t100 199t152 147.5t183.5 54.5q108 -3 161 -74l74 86q12 12 18 4l41 -32q4 -2 4 -7t-4 -10l-96 -106q17 -73 17 -101q0 -118 -60 -272q-56 -144 -168 -256q-107 -104 -243 -104q-91 0 -150 71z" />
<glyph unicode="&#xf9;" horiz-adv-x="991" d="M991 813l-157 -426q-86 -235 -86 -266q0 -9 0.5 -12.5t4 -6.5t11.5 -6q22 0 82 51q57 46 78 76q10 10 18 0l21 -20q9 -9 0 -19q-14 -19 -67.5 -65.5t-135 -94t-135.5 -44.5q-39 3 -39 47q0 15 43 125l57 149l31 76l-12 6q-108 -152 -238 -274q-135 -129 -268 -129 q-31 0 -53 23.5t-23 59.5q3 58 90 256q38 85 55 127l39 91q62 143 62 170q0 13 -9.5 20.5t-23.5 7.5q-25 0 -82 -45q-63 -53 -78 -72q-9 -9 -18 0l-19 19q-10 6 2 18q19 23 66.5 66t122.5 88t127 43q28 -1 43.5 -22t15.5 -52q0 -66 -133 -354q-109 -239 -109 -297 q0 -35 35 -35q74 0 193 125q123 129 192 229q70 108 94 175l72 196q3 14 29 14h84q24 0 18 -18zM725 956l-246 187q-28 22 -28 55q0 27 18.5 47.5t44.5 20.5q22 0 35.5 -9.5t36.5 -39.5l172 -228q8 -8 0 -16l-15 -17q-1 -4 -7 -4t-11 4z" />
<glyph unicode="&#xfa;" horiz-adv-x="991" d="M991 813l-157 -426q-86 -235 -86 -266q0 -9 0.5 -12.5t4 -6.5t11.5 -6q22 0 82 51q57 46 78 76q10 10 18 0l21 -20q9 -9 0 -19q-14 -19 -67.5 -65.5t-135 -94t-135.5 -44.5q-39 3 -39 47q0 15 43 125l57 149l31 76l-12 6q-108 -152 -238 -274q-135 -129 -268 -129 q-31 0 -53 23.5t-23 59.5q3 58 90 256q38 85 55 127l39 91q62 143 62 170q0 13 -9.5 20.5t-23.5 7.5q-25 0 -82 -45q-63 -53 -78 -72q-9 -9 -18 0l-19 19q-10 6 2 18q19 23 66.5 66t122.5 88t127 43q28 -1 43.5 -22t15.5 -52q0 -66 -133 -354q-109 -239 -109 -297 q0 -35 35 -35q74 0 193 125q123 129 192 229q70 108 94 175l72 196q3 14 29 14h84q24 0 18 -18zM678 993l258 211q43 31 72 31q23 0 39 -19t16 -45q0 -47 -53 -71l-310 -146q-13 -7 -16 2l-14 21q-4 4 8 16z" />
<glyph unicode="&#xfb;" horiz-adv-x="991" d="M991 813l-157 -426q-86 -235 -86 -266q0 -9 0.5 -12.5t4 -6.5t11.5 -6q22 0 82 51q57 46 78 76q10 10 18 0l21 -20q9 -9 0 -19q-14 -19 -67.5 -65.5t-135 -94t-135.5 -44.5q-39 3 -39 47q0 15 43 125l57 149l31 76l-12 6q-108 -152 -238 -274q-135 -129 -268 -129 q-31 0 -53 23.5t-23 59.5q3 58 90 256q38 85 55 127l39 91q62 143 62 170q0 13 -9.5 20.5t-23.5 7.5q-25 0 -82 -45q-63 -53 -78 -72q-9 -9 -18 0l-19 19q-10 6 2 18q19 23 66.5 66t122.5 88t127 43q28 -1 43.5 -22t15.5 -52q0 -66 -133 -354q-109 -239 -109 -297 q0 -35 35 -35q74 0 193 125q123 129 192 229q70 108 94 175l72 196q3 14 29 14h84q24 0 18 -18zM752 1102l-205 -133q-12 -4 -15 2l-12 18q-4 5 6 15l256 262l9 4q9 0 12 -13l92 -266q7 -10 -2 -16l-16 -8q-10 -7 -17 0z" />
<glyph unicode="&#xfc;" horiz-adv-x="991" d="M889 831h84q24 0 18 -18l-157 -426q-86 -235 -86 -266q0 -9 0.5 -12.5t4 -6.5t11.5 -6q22 0 82 51q57 46 78 76q10 10 18 0l21 -20q9 -9 0 -19q-14 -19 -67.5 -65.5t-135 -94t-135.5 -44.5q-39 3 -39 47q0 15 43 125l57 149l31 76l-12 6q-108 -152 -238 -274 q-135 -129 -268 -129q-31 0 -53.5 23.5t-22.5 59.5q0 39 72 209q3 8 5 13l5 12.5t6 13.5l57 135l39 91q62 143 62 170q0 13 -9.5 20.5t-23.5 7.5q-25 0 -82 -45q-63 -53 -78 -72q-9 -9 -18 0l-19 19q-10 6 2 18q19 23 66.5 66t122.5 88t127 43q28 -1 43.5 -22t15.5 -52 q0 -66 -133 -354q-109 -239 -109 -297q0 -35 35 -35q74 0 193 125q123 129 192 229q70 108 94 175l72 196q3 14 29 14zM801 1214q0 33 24 56.5t70 23.5q36 0 60 -24t24 -62q0 -37 -23.5 -59.5t-60.5 -22.5q-40 0 -67 22t-27 66zM522 1214q0 33 24 56.5t70 23.5q36 0 60 -24 t24 -62q0 -37 -23.5 -59.5t-60.5 -22.5q-40 0 -67 22t-27 66z" />
<glyph unicode="&#xfd;" horiz-adv-x="837" d="M90 575l35 72q36 73 94 137q62 68 117 68q47 0 68.5 -48t33.5 -183q30 -356 39 -607l8 2q48 79 117 220q71 146 92 215l4 11q4 11 8 26t8.5 35.5t7.5 48.5t3 57q0 46 -10 76q-23 57 -23 73q0 32 21 53t63 21q37 0 59.5 -29.5t22.5 -72.5q0 -82 -33.5 -182.5 t-103.5 -252.5q-69 -156 -219 -395q-131 -209 -264 -342q-186 -186 -312 -186q-53 0 -83.5 28t-30.5 68q0 35 27 59.5t61 24.5q4 0 8 -0.5t6.5 -0.5t6.5 -1.5t6 -2t6 -3.5t6 -3.5t7 -4t6.5 -5t8 -6t8.5 -6.5q27 -24 51 -24q39 0 97 43q73 53 133 129.5t92 146.5 q19 45 16 115l-4 59q-39 548 -61 651q-12 58 -35 58q-22 0 -63 -62q-42 -61 -56 -104q-6 -9 -18 -6l-29 12q-8 3 -2 18zM580 993l258 211q43 31 71 31q23 0 39.5 -19t16.5 -45q0 -46 -54 -71l-309 -146q-13 -7 -16 2l-15 21q-3 3 9 16z" />
<glyph unicode="&#xfe;" horiz-adv-x="944" d="M778 557q-1 101 -49.5 156t-124.5 55q-18 0 -61 -6l-277 -701q90 5 182.5 47t166.5 107.5t119.5 156t43.5 185.5zM666 1356l116 45q2 2 15 2q6 0 6 -8l-4 -17l-226 -532q32 4 48 4q14 2 53 2q115 0 183.5 -72.5t68.5 -185.5q0 -104 -52.5 -206.5t-146.5 -184.5 q-105 -90 -232 -142.5t-255 -60.5l-160 -406q-21 -52 -21 -86q0 -29 19.5 -41t62.5 -12h58q16 0 12 -16l-14 -41q-9 -12 -25 -12q-4 0 -32.5 1.5t-78.5 3t-104 1.5q-59 0 -109.5 -1.5t-78.5 -3t-31 -1.5q-9 0 -12.5 3t-1.5 9l10 37q6 20 18 20h47q56 0 89.5 35.5t70.5 130.5 l438 1104q-61 -17 -141 -78q-79 -63 -117 -106q-9 -11 -18 -2l-21 20q-10 11 -2 19q140 165 334 239l205 510q9 20 29 29z" />
<glyph unicode="&#xff;" horiz-adv-x="837" d="M121 545l-29 12q-8 3 -2 18l35 72q36 73 94 137q62 68 117 68q47 0 68.5 -48t33.5 -183q30 -356 39 -607l8 2q48 79 117 220q71 146 92 215l4 11q4 11 8 26t8.5 35.5t7.5 48.5t3 57q0 46 -10 76q-23 57 -23 73q0 32 21 53t63 21q37 0 59.5 -29.5t22.5 -72.5 q0 -82 -33.5 -182.5t-103.5 -252.5q-67 -148 -219 -391q-147 -235 -264 -346q-90 -89 -165 -137.5t-147 -48.5q-53 0 -83.5 28t-30.5 68q0 35 27 59.5t61 24.5q4 0 8 -0.5t6.5 -0.5t6.5 -1.5t6 -2t6 -3.5t6 -3.5t7 -4t6.5 -5t8 -6t8.5 -6.5q27 -24 51 -24q39 0 97 43 q73 53 133 129.5t92 146.5q19 45 16 115l-4 59q-39 548 -61 651q-12 58 -35 58q-22 0 -63 -62q-42 -61 -56 -104q-6 -9 -18 -6zM662 1214q0 33 24 56.5t70 23.5q36 0 60 -24t24 -62q0 -37 -23.5 -59.5t-60.5 -22.5q-40 0 -67 22t-27 66zM383 1214q0 33 24 56.5t70 23.5 q36 0 60 -24t24 -62q0 -37 -23.5 -59.5t-60.5 -22.5q-40 0 -67 22t-27 66z" />
<glyph unicode="&#x152;" horiz-adv-x="2179" d="M1108 291l278 889l2 12t2 9t1 5q0 55 -72.5 86t-190.5 31q-134 0 -248.5 -53t-228.5 -158q-130 -121 -207 -307q-75 -178 -75 -348q0 -195 92 -301.5t219 -106.5q353 0 428 242zM1212 70h510q60 0 90.5 16t73.5 70l164 206q9 15 25 5l20 -13q12 -12 6 -28l-104 -297 q-7 -23 -15.5 -29t-29.5 -6l-203 4l-387 2h-313q-28 0 -63.5 -3t-69.5 -7t-37 -4q-129 -17 -172 -17q-92 0 -184.5 33.5t-153.5 89.5q-181 169 -181 432q0 195 80.5 358t212.5 283q116 108 273 173t333 65q57 0 218 -14q143 -17 184 -17h178q120 0 320 4q53 0 99 1l46 1 q23 0 30 -7t13 -32l66 -280v-6q0 -10 -13 -13l-22 -8q-11 -7 -21 6l-192 248q-10 17 -33 17h-352l-176 -539h196q59 0 88.5 3.5t60 21t51 51.5t44.5 96q3 14 14 10l31 -6q15 -3 12 -16l-110 -408q-3 -15 -15 -12l-32 4q-12 2 -9 16q2 8 2 35q-2 29 -7 49.5t-12 36t-22 25 t-29 15.5t-41.5 8.5t-52 3.5t-67.5 1h-123z" />
<glyph unicode="&#x153;" horiz-adv-x="1198" d="M287 78q115 0 205 100q94 102 149 238q55 137 55 235q0 47 -26 76t-68 29q-62 0 -139.5 -62t-151.5 -178q-118 -186 -118 -328q0 -53 26 -81.5t68 -28.5zM1096 684q0 34 -17.5 56t-48.5 22q-54 5 -118.5 -56.5t-106.5 -134.5t-51 -118q31 -3 89 14t116.5 46.5t99.5 76 t37 94.5zM1096 186q-57 -79 -142 -143q-84 -63 -190 -63q-66 0 -114 40t-68 113q-42 -65 -120 -109t-138 -44q-23 0 -47.5 5.5t-56 23.5t-56 46.5t-41.5 80t-17 118.5q0 133 62 272q65 146 170 236t223 90q89 0 146.5 -55.5t58.5 -151.5h4q65 89 160 148t180 59 q53 0 85 -32.5t32 -76.5q0 -78 -52.5 -150.5t-138.5 -115.5q-141 -72 -299 -84q-26 -58 -26 -188q0 -58 34 -93.5t74 -35.5q66 0 130.5 42t103.5 103q9 11 18 2l23 -18q15 -9 2 -19z" />
<glyph unicode="&#x178;" horiz-adv-x="1105" d="M514 504q0 53 -12 88l-221 633q-28 78 -125 78h-47q-18 0 -15 16l8 43q1 10 5.5 13t15.5 3q5 0 33 -1.5t77.5 -3t104.5 -1.5q65 0 123.5 1.5t91.5 3t37 1.5q21 0 18 -16l-4 -43q-3 -16 -18 -16h-54q-73 0 -73 -58q0 -17 8 -41l190 -569q6 -21 15 -21q6 0 16 13 q76 104 213 307q148 214 164 258q10 30 10 53q0 31 -20.5 44.5t-65.5 13.5h-41q-17 0 -14 20l4 39q1 10 6 13t19 3q31 0 45 -2q110 -4 180 -4q60 0 129.5 3t71.5 3q12 0 17 -4t3 -12l-6 -39q-3 -20 -17 -20h-38q-49 0 -84 -22t-76 -79l-217 -301l-215 -303q-44 -60 -56 -88 q-15 -30 -30 -94l-52 -232q-6 -30 -6 -53q0 -37 19.5 -49t66.5 -12h62q17 0 14 -17l-6 -43q-3 -16 -23 -16q-6 0 -40 1.5t-90 3t-117 1.5q-73 0 -133 -1.5t-90.5 -3t-32.5 -1.5q-9 0 -13.5 4.5t-3.5 11.5l8 43q0 17 19 17h59q63 0 91.5 25.5t41.5 82.5l68 303q2 4 2 23z M930 1628q0 35 25.5 60.5t76.5 25.5q39 0 65.5 -25t26.5 -67q0 -40 -26.5 -65t-65.5 -25q-102 0 -102 96zM565 1628q0 35 26 60.5t77 25.5q39 0 65.5 -25t26.5 -67q0 -40 -26.5 -65t-65.5 -25q-46 0 -74.5 23t-28.5 73z" />
<glyph unicode="&#x192;" d="M610 651l-104 -344q-92 -302 -204.5 -436.5t-270.5 -134.5q-78 0 -125 33t-47 84q0 27 24.5 52t53.5 25q34 0 56.5 -20.5t41.5 -61.5q14 -36 67 -36q59 0 91 38q30 33 59 111q54 158 74 234l20 75l111 381h-154q-8 0 -12 6.5t0 12.5l20 45q2 12 21 12h147q61 178 101 264 q51 103 129 187q131 143 313 143q87 0 138.5 -37t51.5 -90q0 -27 -29.5 -51.5t-66.5 -24.5q-34 0 -51.5 18.5t-30.5 59.5q-18 49 -92 49q-98 0 -166.5 -116t-142.5 -402h207q11 0 15 -3t1 -9l-20 -51q-3 -13 -25 -13h-201z" />
<glyph unicode="&#x2c6;" horiz-adv-x="522" d="M455 1102l-205 -133q-11 -4 -14 2l-13 18q-5 5 6 15l256 262l9 4q9 0 12 -13l92 -266q7 -10 -2 -16l-16 -8q-10 -7 -17 0z" />
<glyph unicode="&#x2da;" horiz-adv-x="522" d="M541 1135q0 50 -30 76t-71 26t-70.5 -29t-29.5 -78q0 -46 30.5 -73t73.5 -27q40 0 68.5 28.5t28.5 76.5zM242 1124q0 72 60.5 117t148.5 45q87 0 137.5 -39.5t50.5 -113.5q0 -67 -57 -108.5t-146 -41.5q-85 0 -139.5 39t-54.5 102z" />
<glyph unicode="&#x2dc;" horiz-adv-x="583" d="M211 1014q25 62 73.5 104.5t96.5 42.5q30 0 102 -20q40 -13 95 -13q28 0 53 19t39 47q8 13 16 8l31 -16q4 -4 4 -6q0 -8 -12 -29q-27 -50 -72.5 -86.5t-83.5 -36.5q-35 0 -117 21q-43 12 -80 12q-24 0 -55.5 -23.5t-50.5 -54.5q-9 -9 -14 -6l-27 16q-7 7 2 21z" />
<glyph unicode="&#x2000;" horiz-adv-x="902" />
<glyph unicode="&#x2001;" horiz-adv-x="1804" />
<glyph unicode="&#x2002;" horiz-adv-x="902" />
<glyph unicode="&#x2003;" horiz-adv-x="1804" />
<glyph unicode="&#x2004;" horiz-adv-x="601" />
<glyph unicode="&#x2005;" horiz-adv-x="451" />
<glyph unicode="&#x2006;" horiz-adv-x="300" />
<glyph unicode="&#x2007;" horiz-adv-x="300" />
<glyph unicode="&#x2008;" horiz-adv-x="225" />
<glyph unicode="&#x2009;" horiz-adv-x="360" />
<glyph unicode="&#x200a;" horiz-adv-x="100" />
<glyph unicode="&#x2010;" horiz-adv-x="856" d="M145 555h662q18 0 18 -16v-70q0 -25 -18 -25h-662q-16 0 -16 15v76q0 20 16 20z" />
<glyph unicode="&#x2011;" horiz-adv-x="856" d="M145 555h662q18 0 18 -16v-70q0 -25 -18 -25h-662q-16 0 -16 15v76q0 20 16 20z" />
<glyph unicode="&#x2012;" horiz-adv-x="856" d="M145 555h662q18 0 18 -16v-70q0 -25 -18 -25h-662q-16 0 -16 15v76q0 20 16 20z" />
<glyph unicode="&#x2013;" d="M51 444v111h1024v-111h-1024z" />
<glyph unicode="&#x2014;" horiz-adv-x="2048" d="M2099 444h-2048v111h2048v-111z" />
<glyph unicode="&#x2018;" horiz-adv-x="368" d="M559 1403h8q12 0 15 -17v-6q0 -14 -21 -20q-45 -12 -96 -57t-51 -103q0 -29 8 -46t35 -48q53 -44 53 -82q0 -36 -23 -61t-59 -25q-58 0 -96 59q-34 55 -37 121q-2 56 20 105.5t55.5 81t72 55t69 33.5t47.5 10z" />
<glyph unicode="&#x2019;" horiz-adv-x="368" d="M231 938h-8q-11 0 -14 16v7q0 14 20 20q46 12 97 57t51 103q0 29 -8 46t-35 48q-53 44 -53 82q0 36 22.5 61t58.5 25q59 0 97 -62q34 -52 37 -118q2 -56 -20.5 -105.5t-55.5 -81t-72 -55t-69.5 -33.5t-47.5 -10z" />
<glyph unicode="&#x201a;" horiz-adv-x="368" d="M27 -219h-9q-11 0 -14 16v6q0 15 21 21q45 12 96 57t51 103q0 29 -8 46t-35 48q-53 44 -53 82q0 36 23 61t59 25q58 0 96 -62q34 -52 37 -118q2 -56 -20 -105.5t-55.5 -81t-72 -55t-69 -33.5t-47.5 -10z" />
<glyph unicode="&#x201c;" horiz-adv-x="655" d="M846 1403h8q11 0 14 -17v-6q0 -14 -20 -20q-45 -12 -96 -57q-52 -46 -52 -103q0 -29 8 -46t35 -48q54 -45 54 -82q0 -36 -23 -61t-59 -25q-59 0 -97 59q-33 53 -36 121q-2 56 20 105.5t55.5 81t72 55t69 33.5t47.5 10zM559 1403h8q12 0 15 -17v-6q0 -14 -21 -20 q-45 -12 -96 -57t-51 -103q0 -29 8 -46t35 -48q53 -44 53 -82q0 -36 -23 -61t-59 -25q-58 0 -96 59q-34 55 -37 121q-2 56 20 105.5t55.5 81t72 55t69 33.5t47.5 10z" />
<glyph unicode="&#x201d;" horiz-adv-x="655" d="M518 938h-8q-11 0 -14 16v7q0 14 20 20q45 12 96 57q52 46 52 103q0 29 -8 46t-35 48q-54 45 -54 82q0 36 23 61t59 25q58 0 96 -62q34 -52 37 -118q2 -56 -20 -105.5t-55.5 -81t-72 -55t-69 -33.5t-47.5 -10zM231 938h-8q-11 0 -14 16v7q0 14 20 20q46 12 97 57t51 103 q0 29 -8 46t-35 48q-53 44 -53 82q0 36 22.5 61t58.5 25q59 0 97 -62q34 -52 37 -118q2 -56 -20.5 -105.5t-55.5 -81t-72 -55t-69.5 -33.5t-47.5 -10z" />
<glyph unicode="&#x201e;" horiz-adv-x="655" d="M313 -219h-8q-11 0 -14 16v6q0 15 20 21q46 12 97 57t51 103q0 29 -8 46t-35 48q-54 45 -54 82q0 36 23 61t59 25q59 0 97 -62q34 -52 37 -118q2 -56 -20.5 -105.5t-55.5 -81t-72 -55t-69.5 -33.5t-47.5 -10zM27 -219h-9q-11 0 -14 16v6q0 15 21 21q45 12 96 57t51 103 q0 29 -8 46t-35 48q-53 44 -53 82q0 36 23 61t59 25q58 0 96 -62q34 -52 37 -118q2 -56 -20 -105.5t-55.5 -81t-72 -55t-69 -33.5t-47.5 -10z" />
<glyph unicode="&#x2020;" d="M852 1329q0 -15 -18 -65l-56 -138q-96 -239 -106 -276q79 0 248 31q77 14 104 14q34 0 52 -19t18 -47q0 -33 -25 -60.5t-61 -27.5q-20 0 -107 19q-164 37 -244 37q-16 -75 -16 -127q0 -57 25 -109q-40 -63 -152 -379q-102 -288 -141 -450q-3 -19 -19 -19h-30q-15 0 -9 25 q38 144 88 430q3 18 9 51t8.5 48.5t7.5 43t7 42t5.5 36.5t5 35t3.5 30t2.5 28t0.5 23t-1 21l-2 25q107 107 131 246q-85 0 -258 -37q-87 -19 -103 -19q-72 0 -72 64q0 36 31 64t74 28q25 0 104 -16q172 -31 238 -31q23 86 31 178l12 119q12 125 18 145q12 51 46 81t79 30 q72 0 72 -74z" />
<glyph unicode="&#x2021;" d="M864 1331q0 -24 -28.5 -95.5t-44.5 -102.5q-88 -196 -109 -281q100 0 274 31q82 12 84 12q39 0 52.5 -14t13.5 -45q0 -35 -32 -64t-70 -29q-18 0 -99 19q-154 37 -235 37q-21 -83 -21 -154q0 -42 10 -94q-74 -95 -114 -229q84 0 248 32q100 19 118 19q30 0 46 -15.5 t16 -42.5q0 -42 -28 -68t-73 -26q-21 0 -108 17q-148 28 -238 28q-28 -114 -43 -299q-12 -123 -18 -147q-12 -46 -46.5 -76.5t-72.5 -30.5q-70 0 -70 76q0 26 19 74l57 141q12 30 32.5 80t30.5 75t21 55.5t17 51.5q-75 0 -275 -33q-66 -12 -84 -12q-29 0 -46 17.5t-17 44.5 q0 36 27 63t69 27q15 0 96 -17q185 -34 246 -34q20 70 20 149q0 44 -8 80q78 98 113 248q-83 0 -262 -37q-87 -19 -105 -19q-67 0 -67 56q0 44 32.5 71t83.5 25q23 0 89 -12q165 -31 241 -31q24 95 39 299q5 87 17 141q13 50 49.5 80.5t79.5 30.5q42 0 58.5 -18.5 t14.5 -53.5z" />
<glyph unicode="&#x2022;" horiz-adv-x="724" d="M449 881q103 0 163 -57t60 -156q0 -97 -68 -159.5t-168 -62.5q-89 0 -152 57t-63 146q0 98 67 165t161 67z" />
<glyph unicode="&#x2026;" horiz-adv-x="2048" d="M1526 90q0 40 29 73.5t77 33.5q55 0 86 -35t31 -72q0 -44 -33.5 -77t-81.5 -33q-47 0 -77.5 31.5t-30.5 78.5zM842 90q0 40 29 73.5t77 33.5q55 0 86 -35t31 -72q0 -44 -33.5 -77t-81.5 -33q-47 0 -77.5 31.5t-30.5 78.5zM158 90q0 40 29 73.5t77 33.5q55 0 86 -35 t31 -72q0 -44 -33.5 -77t-81.5 -33q-47 0 -77.5 31.5t-30.5 78.5z" />
<glyph unicode="&#x202f;" horiz-adv-x="360" />
<glyph unicode="&#x2039;" horiz-adv-x="471" d="M104 434q0 4 11 15l317 296q9 9 12 9q5 0 11 -6l22 -23q8 -8 8 -14q0 -5 -12 -17l-215 -250l156 -251q10 -13 10 -17q0 -6 -8 -14l-25 -23l-8 -4q-9 0 -14 8l-256 279q-9 9 -9 12z" />
<glyph unicode="&#x203a;" horiz-adv-x="471" d="M442 455q0 -5 -10 -15l-317 -297q-8 -8 -13 -8q-4 0 -10 6l-22 23q-9 9 -9 14q0 4 13 17l215 249l-156 252q-10 13 -10 17q0 6 8 14l25 23l8 4q8 0 14 -9l256 -278q8 -8 8 -12z" />
<glyph unicode="&#x205f;" horiz-adv-x="451" />
<glyph unicode="&#x20ac;" d="M215 406q0 9 4 75h-129q-18 0 -24.5 7.5t0.5 15.5l14 31q7 12 33 12h114q14 89 37 168h-114q-17 0 -23.5 5.5t-1.5 16.5l14 31q7 12 33 12h117q62 166 170 305q86 115 187.5 174t209.5 62q45 2 86.5 -12t69.5 -34.5t49.5 -41.5t35 -35t17.5 -14q13 0 20.5 11t18.5 44 q3 15 14 12l23 -6q10 -1 11.5 -5.5t-3.5 -14.5l-84 -310q-4 -10 -7 -12t-11 0l-25 4q-6 1 -8 4t-2 6t1 6.5t1 4.5q6 30 6 63q0 106 -53 177t-152 71q-90 0 -165.5 -58.5t-151.5 -183.5q-50 -83 -96 -217h491q11 0 15 -3t1 -9l-18 -41q-2 -12 -27 -12h-483q-21 -76 -37 -168 h443q11 0 15 -3t1 -9l-21 -41q-3 -13 -26 -13h-420l-4 -45q-2 -14 -2 -65q0 -156 60 -237t149 -81q247 0 342 250q5 11 7.5 14t8.5 2l29 -10q7 -2 8.5 -4.5t-0.5 -7.5t-2 -6l-104 -326q-6 -13 -15 -10l-33 10q-6 3 -2 17l4 26q3 6 3 17q0 17 -17 20q-13 0 -53 -18 q-65 -30 -111 -44t-102 -14q-105 0 -183 62.5t-115.5 160.5t-37.5 214z" />
<glyph unicode="&#x2122;" horiz-adv-x="1710" d="M1303 870l327 494q10 16 39 16h166q20 2 35 2q7 0 4 -10l-6 -35q-6 -14 -13 -14h-20q-25 0 -36 -8.5t-17 -30.5q-24 -82 -45 -182l-19 -82q-3 -13 -11.5 -52.5t-14.5 -68.5l-29 -123q-2 -4 -2 -20q0 -33 25 -33h47q6 0 4 -8v-2l-6 -35q-3 -10 -15 -10l-139 2l-145 -2 q-10 0 -7 10l7 33q3 12 14 12h39q38 0 53 35q20 45 43 172l14 76l74 303h-8l-404 -602q-1 -1 -5.5 -6t-8 -9t-8.5 -7t-8 -3q-17 0 -17 18l-100 613h-10l-62 -275q-11 -49 -24.5 -104t-21.5 -88t-11 -51q-4 -41 6.5 -56.5t40.5 -15.5h27q7 0 4 -12l-8 -33q-3 -10 -13 -10 l-123 2l-129 -4l-2 1q-2 1 -3 2t-2 3.5t-1 5.5l8 33q3 12 11 12h24q25 0 46 16.5t32 42.5q20 53 43 146q36 134 47 182l37 160q2 4 2 18q0 35 -45 35h-29q-9 0 -6 12l8 35q3 12 13 12q1 0 44.5 -2t78.5 -2q14 0 48 2t54 2h12q18 0 21 -20zM485 762v-12q0 -27 25 -27h51 q11 0 8 -10l-10 -37q0 -10 -12 -10q-4 0 -24.5 1t-51.5 2t-63 1q-43 0 -96.5 -2t-55.5 -2q-13 0 -10 10l8 37q3 10 12 10h56q32 0 38 25q6 22 46 180l92 391q-116 0 -160 -12q-45 -14 -113 -97q-3 -13 -16 -8l-19 8q-7 0 0 7l78 174q9 18 15 18t10 -4l12 -10q34 -17 53 -17 l58 -2q118 -4 149 -4q33 0 185 4q10 2 43 2q29 3 57 13l22 14q3 1 6 3q4 1 5 1q6 0 6 -18q-16 -94 -19 -179q0 -9 -8 -12l-16 -2q-13 -2 -15 10q-18 75 -49 95q-32 16 -166 16l-88 -365q-42 -184 -43 -192z" />
<glyph unicode="&#x25ca;" horiz-adv-x="1062" d="M760 1386l-475 -710l227 -680h4l469 709l-221 681h-4zM831 1493l275 -801l-549 -801h-115l-274 799l551 803h112z" />
<glyph unicode="&#x25fc;" horiz-adv-x="849" d="M0 850h850v-850h-850v850z" />
<glyph unicode="&#xfb01;" horiz-adv-x="1034" d="M152 735l12 41q3 21 18 21h172q79 186 142 303q61 113 151 194q63 57 133 83t166 26q103 0 159 -48t56 -91q0 -40 -22.5 -66.5t-53.5 -26.5q-46 0 -68 25t-22 61v21q0 25 -12 37q-26 26 -84 26q-85 0 -154 -63q-68 -62 -131 -193q-61 -125 -116 -288h366q24 0 53.5 5.5 t50 11t23.5 5.5q10 0 10 -12q0 -13 -12 -47l-223 -559q-18 -49 -18 -68q0 -24 24 -24q21 0 94 73q81 81 97 107q3 10 18 -2l27 -23q8 -6 2 -12q-11 -18 -84 -94q-74 -76 -150.5 -127t-132.5 -51q-30 0 -46.5 12t-16.5 31q0 24 75 215l162 417q6 18 6 29q0 37 -71 37h-277 q-37 -87 -98 -266q-64 -184 -92 -260q0 -2 -41 -117q-74 -213 -138 -350q-67 -142 -163 -236q-100 -100 -242 -100q-69 0 -113.5 38.5t-44.5 90.5q0 32 23.5 55.5t58.5 28.5q29 -1 52 -24.5t28 -51.5q2 -26 20.5 -42.5t49.5 -16.5q61 0 114 71q47 63 91 174q36 91 98 283 l51 158q96 294 201 565h-166q-15 0 -12 14z" />
<glyph unicode="&#xfb02;" horiz-adv-x="1038" d="M879 799l141 348q20 52 20 92q0 37 -39 65.5t-118 28.5q-95 0 -162 -55q-50 -42 -100 -141q-50 -101 -136 -338h394zM465 723l-154 -475l-12 -41q-56 -189 -152 -412q-71 -164 -178 -274q-126 -129 -264 -129q-68 0 -111 37.5t-43 72.5q0 37 25 64.5t57 27.5q56 0 82 -65 q21 -55 58 -55q26 0 59 17t53 40q63 75 116.5 210t135.5 398l41 131l144 453h-172q-16 0 -13 16l17 43q0 2 1.5 5.5t6.5 7.5t12 4h174q63 170 117 276q53 103 151 201q124 127 310 127q79 0 158.5 -13t119.5 -28q25 -12 25 -29q0 -12 -31 -76q-34 -71 -72 -165l-346 -854 q-20 -52 -20 -74q0 -23 22 -23q19 0 90 68q74 71 82 84q6 9 21 0l20 -17q9 -9 4 -22q-7 -18 -81 -86q-85 -78 -162 -131q-83 -57 -144 -57q-19 0 -30 10t-11 24q0 36 47 146l230 563h-383z" />
<glyph unicode="&#xfb03;" horiz-adv-x="1538" d="M297 199q-60 -188 -139 -373q-77 -182 -119 -227l4 -5q57 -9 84 -71q11 -28 42.5 -47t59.5 -19q90 0 156 60q85 76 150 227q68 158 139 416q14 51 102 346l64 215h-383q-60 -209 -160 -522zM1032 1184q-49 6 -76 67q-25 58 -139 58q-73 0 -145 -64q-94 -89 -195 -448h383 q97 281 172 387zM578 1253q129 129 337 129q65 0 124 -27.5t79 -60.5q44 44 129 80q68 29 172 29q87 0 141 -39t54 -82t-24 -68.5t-58 -25.5q-42 0 -63 20.5t-27 61.5q-2 25 -28 42t-77 17q-86 0 -151 -80q-59 -73 -100 -177.5t-87 -274.5h369q24 0 53.5 5.5t50 11t23.5 5.5 q10 0 10 -12q0 -13 -12 -47l-223 -559q-19 -52 -19 -68q0 -24 25 -24q21 0 94 73q79 79 96 107q3 10 19 -2l26 -23q8 -6 2 -12q-13 -21 -83 -94q-74 -76 -150.5 -127t-132.5 -51q-29 0 -44.5 12t-15.5 31q0 21 76 215l162 417q6 18 6 29q0 22 -17.5 29.5t-58.5 7.5h-280 q-1 -4 -8 -25t-21 -66t-28 -95q-113 -386 -193 -596q-108 -282 -228.5 -416t-293.5 -131q-49 1 -85 7t-56.5 11.5t-42.5 23.5t-29 26t-31 36q-24 -27 -92 -65q-65 -39 -146 -39q-60 0 -102.5 35.5t-42.5 85.5q0 37 25 62.5t63 25.5t63.5 -28.5t32.5 -64.5q1 -16 11.5 -25 t23.5 -9q76 0 157.5 139t162.5 412l207 696h-179q-17 0 -14 18l8 37q5 13 9.5 17t15.5 4h180q52 159 107 276q48 99 129 180z" />
<glyph unicode="&#xfb04;" horiz-adv-x="1552" d="M301 201q-57 -176 -143 -377q-77 -180 -119 -225l4 -5q26 -5 49 -24t35 -47q13 -29 39.5 -47.5t52.5 -18.5q87 0 156 60q89 77 160 227.5t143 407.5l49 176q83 299 113 393h-383l-45 -158q-42 -148 -111 -362zM1036 1180q-46 9 -80 73q-27 56 -139 56q-73 0 -145 -64 q-94 -89 -195 -448h383q92 299 176 383zM1397 797l141 352q21 54 21 92q0 41 -38.5 67.5t-119.5 26.5q-64 0 -106 -14t-78 -49q-54 -48 -107 -154q-46 -94 -113 -321h400zM162 797h180q52 159 107 276q48 99 129 180q129 129 327 129q72 0 130.5 -29.5t82.5 -72.5 q68 63 145 93t181 30q69 0 149.5 -12.5t122.5 -26.5q27 -9 27 -31q0 -3 -27 -67q-42 -90 -76 -176l-346 -854q-20 -52 -20 -74q0 -23 22 -23q19 0 90 68q74 71 82 84q6 9 21 0l20 -17q9 -9 4 -22q-7 -18 -81 -86q-73 -67 -160 -129q-85 -60 -137 -60q-20 0 -32.5 10.5 t-12.5 24.5q0 36 47 146l229 563h-389l-27 -92q-128 -441 -223 -692q-109 -281 -233 -413t-306 -132q-95 0 -144 25.5t-85 78.5q-24 -27 -92 -65q-65 -39 -146 -39q-60 0 -102.5 35.5t-42.5 85.5q0 37 25 62.5t63 25.5t63.5 -28.5t32.5 -64.5q1 -16 11.5 -25t23.5 -9 q76 0 157.5 139t162.5 412l207 696h-183q-16 0 -10 20l8 35q5 13 9.5 17t15.5 4z" />
</font>
</defs>
</svg>
